M48
; DRILL file {KiCad 9.0.3-9.0.3-0~ubuntu22.04.1} date 2025-08-04T19:12:19+0100
; FORMAT={-:-/ absolute / metric / decimal}
; #@! TF.CreationDate,2025-08-04T19:12:19+01:00
; #@! TF.GenerationSoftware,Kicad,Pcbnew,9.0.3-9.0.3-0~ubuntu22.04.1
; #@! TF.FileFunction,Plated,1,2,PTH
FMAT,2
METRIC
; #@! TA.AperFunction,Plated,PTH,ViaDrill
T1C0.300
; #@! TA.AperFunction,Plated,PTH,ComponentDrill
T2C0.600
; #@! TA.AperFunction,Plated,PTH,ComponentDrill
T3C0.750
; #@! TA.AperFunction,Plated,PTH,ComponentDrill
T4C0.800
; #@! TA.AperFunction,Plated,PTH,ComponentDrill
T5C1.000
%
G90
G05
T1
X72.5Y-61.0
X74.1Y-92.7
X74.1Y-93.7
X74.1Y-94.6
X75.0Y-94.6
X75.4Y-75.4
X75.9Y-68.8
X76.0Y-63.8
X76.0Y-72.0
X76.1Y-92.2
X77.4Y-89.8
X77.4Y-91.6
X78.3Y-62.6
X78.4Y-60.4
X78.6Y-89.8
X79.7Y-89.8
X81.3Y-70.8
X81.75Y-61.5
X82.7Y-92.2
X82.7Y-93.4
X82.7Y-94.7
X82.8Y-72.7
X83.2Y-65.9
X84.0Y-61.7
X84.1Y-92.2
X84.1Y-93.4
X84.1Y-94.7
X84.375Y-60.125
X86.6Y-59.3
X87.5Y-63.5
X88.5Y-63.0
X89.1Y-66.2
X89.2Y-47.3
X89.5Y-59.6
X89.7Y-55.3
X92.5Y-46.7
X93.0Y-73.1
X93.3Y-93.0
X93.3Y-94.2
X94.0Y-63.5
X94.1Y-48.8
X94.3Y-54.2
X94.3Y-71.3
X94.8Y-93.0
X94.8Y-94.2
X96.1Y-59.4
X96.1Y-93.0
X96.1Y-94.2
X96.2Y-48.7
X96.2Y-53.9
X96.3Y-52.3
X97.3Y-88.4
X97.5Y-90.6
X98.5Y-65.1
X98.8Y-78.2
X98.9Y-75.0
X99.2Y-90.5
X99.3Y-92.4
X100.0Y-73.0
X101.2Y-93.1
X101.6Y-91.5
X101.7Y-90.6
X103.5Y-80.1
X103.5Y-83.0
X104.9Y-70.8
X105.2Y-91.6
X105.2Y-92.7
X105.5Y-57.3
X105.5Y-61.0
X105.6Y-52.4
X105.6Y-54.3
X106.5Y-91.6
X106.5Y-92.7
X109.9Y-61.0
T3
X88.176Y-91.074
X88.176Y-93.074
T4
X71.25Y-56.25
X71.25Y-59.25
T5
X71.4Y-71.56
X71.4Y-74.1
X71.4Y-76.64
X77.42Y-44.75
X79.96Y-44.75
X82.5Y-44.75
X85.04Y-44.75
X86.75Y-75.75
X87.58Y-44.75
X90.12Y-44.75
X92.66Y-44.75
X95.2Y-44.75
X96.5Y-74.96
X96.5Y-77.5
X107.75Y-48.71
X107.75Y-51.25
X107.75Y-53.79
X107.75Y-60.96
X107.75Y-63.5
X107.75Y-66.04
X107.75Y-68.58
X107.75Y-75.17
X107.75Y-77.71
X107.75Y-80.25
X107.75Y-82.79
T2
G00X66.9Y-84.46
M15
G01X66.3Y-84.46
M16
G05
G00X66.9Y-93.1
M15
G01X66.3Y-93.1
M16
G05
G00X70.7Y-84.46
M15
G01X70.1Y-84.46
M16
G05
G00X70.7Y-93.1
M15
G01X70.1Y-93.1
M16
G05
M30
