M48
; DRILL file {KiCad 9.0.4-9.0.4-0~ubuntu22.04.1} date 2025-09-12T21:03:38+0100
; FORMAT={-:-/ absolute / metric / decimal}
; #@! TF.CreationDate,2025-09-12T21:03:38+01:00
; #@! TF.GenerationSoftware,Kicad,Pcbnew,9.0.4-9.0.4-0~ubuntu22.04.1
; #@! TF.FileFunction,Plated,1,2,PTH
FMAT,2
METRIC
; #@! TA.AperFunction,Plated,PTH,ViaDrill
T1C0.300
; #@! TA.AperFunction,Plated,PTH,ComponentDrill
T2C0.600
; #@! TA.AperFunction,Plated,PTH,ComponentDrill
T3C0.750
; #@! TA.AperFunction,Plated,PTH,ComponentDrill
T4C0.800
; #@! TA.AperFunction,Plated,PTH,ComponentDrill
T5C1.000
%
G90
G05
T1
X66.2Y-77.5
X66.8Y-48.2
X67.3Y-66.0
X67.5Y-55.5
X67.5Y-78.9
X67.6Y-75.95
X68.1Y-49.9
X68.4Y-59.65
X68.9Y-77.2
X69.0Y-83.5
X69.2Y-80.5
X69.3Y-62.6
X69.3Y-65.9
X69.8Y-55.45
X70.0Y-58.15
X70.0Y-78.3
X72.0Y-58.5
X72.0Y-62.6
X72.2Y-42.8
X72.7Y-80.5
X72.7Y-83.5
X72.8Y-78.3
X72.95Y-87.3
X73.0Y-90.5
X73.5Y-45.1
X73.8Y-44.2
X74.0Y-72.5
X74.0Y-74.5
X75.0Y-46.3
X75.0Y-68.5
X75.0Y-70.5
X75.5Y-90.5
X75.55Y-91.95
X75.6Y-52.7
X75.65Y-50.5
X75.7Y-78.3
X75.7Y-80.5
X75.7Y-83.5
X76.1Y-60.9
X76.1Y-62.4
X76.1Y-93.6
X77.0Y-86.0
X77.3Y-74.4
X77.5Y-72.5
X77.5Y-95.1
X77.574Y-92.126
X78.5Y-60.9
X78.5Y-62.5
X78.5Y-68.5
X78.5Y-70.5
X78.874Y-89.726
X78.874Y-91.526
X79.2Y-56.9
X79.3Y-52.7
X79.4Y-50.55
X79.5Y-68.9
X79.5Y-70.1
X80.074Y-89.726
X80.4Y-72.3
X80.5Y-64.5
X80.5Y-68.4
X80.6Y-66.3
X80.7Y-40.9
X80.9Y-74.33
X80.9Y-83.2
X81.1Y-70.4
X81.1Y-85.4
X81.174Y-89.726
X81.5Y-56.9
X81.6Y-91.6
X82.037Y-83.25
X82.1Y-55.65
X82.1Y-81.4
X82.2Y-58.8
X82.2Y-68.5
X82.7Y-40.8
X82.75Y-50.65
X82.8Y-53.3
X83.0Y-75.6
X83.0Y-79.4
X83.1Y-78.0
X83.7Y-69.7
X83.7Y-91.6
X83.8Y-52.5
X83.8Y-81.2
X83.8Y-95.259
X84.0Y-63.1
X84.1Y-83.3
X84.2Y-66.6
X84.9Y-86.2
X85.3Y-55.6
X85.45Y-56.75
X85.5Y-42.1
X85.5Y-59.0
X85.5Y-60.175
X85.9Y-50.7
X86.0Y-67.0
X86.1Y-90.0
X86.5Y-58.7
X86.5Y-61.2
X87.1Y-45.0
X87.2Y-86.3
X87.5Y-57.5
X88.0Y-74.4
X88.1Y-42.1
X88.5Y-60.5
X88.7Y-56.5
X88.7Y-59.0
X88.8Y-49.3
X88.8Y-51.1
X88.8Y-55.0
X89.1Y-67.6
X89.5Y-62.5
X89.5Y-65.5
X89.5Y-71.0
X89.5Y-72.7
X89.6Y-45.0
X89.7Y-85.5
X90.1Y-48.0
X90.2Y-76.6
X90.3Y-79.2
X90.5Y-55.0
X90.5Y-57.0
X90.8Y-46.2
X91.2Y-58.75
X92.0Y-57.0
X92.1Y-75.5
X92.2Y-58.25
X92.2Y-79.1
X92.3Y-81.4
X92.7Y-55.3
X92.8Y-49.2
X93.5Y-61.0
X93.5Y-66.0
X93.5Y-70.5
X93.5Y-73.3
X93.8Y-51.7
X93.8Y-62.7
X93.819Y-74.782
X94.8Y-90.9
X94.861Y-75.861
X95.3Y-46.5
X95.3Y-49.0
X95.5Y-77.3
X95.7Y-66.0
X95.7Y-70.5
X95.7Y-73.4
X96.0Y-79.1
X96.0Y-81.5
X96.2Y-50.7
X96.2Y-63.2
X96.5Y-76.15
X96.6Y-46.6
X96.75Y-94.45
X96.8Y-58.6
X97.1Y-92.4
X97.2Y-62.8
X97.3Y-66.8
X97.3Y-71.6
X97.5Y-90.6
X97.575Y-60.075
X97.9Y-54.3
X98.1Y-50.8
X98.1Y-77.9
X98.1Y-80.3
X98.1Y-85.2
X98.15Y-59.3
X98.2Y-86.9
X98.3Y-61.6
X98.9Y-45.2
X99.0Y-54.7
X99.2Y-66.8
X99.2Y-71.6
X99.3Y-58.2
X99.3Y-81.6
X99.3Y-92.4
X99.32Y-88.9
X99.32Y-90.48
X99.4Y-75.7
X99.4Y-83.5
X99.55Y-65.6
X99.7Y-60.075
X99.7Y-61.275
X99.9Y-54.0
X100.0Y-46.8
X100.0Y-50.8
X100.2Y-73.8
X100.2Y-80.0
X100.28Y-84.82
X100.3Y-77.2
X100.4Y-90.55
X100.5Y-64.1
X100.5Y-70.6
X100.6Y-57.05
X100.6Y-62.0
X100.6Y-68.8
X101.0Y-94.2
X101.2Y-83.9
X101.2Y-93.1
X101.4Y-91.5
X101.5Y-67.1
X101.8Y-63.2
X102.0Y-61.1
X102.124Y-65.976
X102.4Y-50.8
X102.4Y-54.0
X102.4Y-56.6
X102.4Y-70.5
X102.45Y-68.45
X103.0Y-95.3
X103.2Y-62.2
X103.25Y-66.65
X103.3Y-59.75
X103.3Y-64.9
X103.4Y-93.0
X104.6Y-91.6
X104.7Y-67.2
X104.7Y-69.05
X104.9Y-42.6
X105.5Y-64.6
X105.55Y-66.5
X105.8Y-71.1
X106.0Y-75.7
X106.0Y-82.7
X106.3Y-73.5
X106.6Y-41.3
X109.1Y-46.9
X109.8Y-65.2
X110.2Y-44.9
X110.5Y-61.7
T3
X89.65Y-91.0
X89.65Y-93.0
T4
X71.4Y-53.7
X71.4Y-56.7
T5
X71.4Y-66.76
X71.4Y-69.3
X71.4Y-71.84
X76.6Y-43.4
X79.14Y-43.4
X81.68Y-43.4
X84.22Y-43.4
X86.76Y-43.4
X89.3Y-43.4
X91.6Y-70.6
X91.84Y-43.4
X92.517Y-83.218
X94.38Y-43.4
X95.057Y-83.218
X96.92Y-43.4
X99.46Y-43.4
X102.0Y-43.4
X107.7Y-49.16
X107.7Y-51.7
X107.7Y-54.24
X107.7Y-60.48
X107.7Y-63.02
X107.7Y-65.56
X107.7Y-68.1
T2
X66.9Y-84.46G85X66.3Y-84.46
G05
X66.9Y-93.1G85X66.3Y-93.1
G05
X70.7Y-84.46G85X70.1Y-84.46
G05
X70.7Y-93.1G85X70.1Y-93.1
G05
M30
