%TF.GenerationSoftware,KiCad,Pcbnew,9.0.2-9.0.2-0~ubuntu22.04.1*%
%TF.CreationDate,2025-06-28T11:11:05+01:00*%
%TF.ProjectId,pcb,7063622e-6b69-4636-9164-5f7063625858,rev?*%
%TF.SameCoordinates,Original*%
%TF.FileFunction,Copper,L2,Bot*%
%TF.FilePolarity,Positive*%
%FSLAX46Y46*%
G04 Gerber Fmt 4.6, Leading zero omitted, Abs format (unit mm)*
G04 Created by KiCad (PCBNEW 9.0.2-9.0.2-0~ubuntu22.04.1) date 2025-06-28 11:11:05*
%MOMM*%
%LPD*%
G01*
G04 APERTURE LIST*
G04 Aperture macros list*
%AMRoundRect*
0 Rectangle with rounded corners*
0 $1 Rounding radius*
0 $2 $3 $4 $5 $6 $7 $8 $9 X,Y pos of 4 corners*
0 Add a 4 corners polygon primitive as box body*
4,1,4,$2,$3,$4,$5,$6,$7,$8,$9,$2,$3,0*
0 Add four circle primitives for the rounded corners*
1,1,$1+$1,$2,$3*
1,1,$1+$1,$4,$5*
1,1,$1+$1,$6,$7*
1,1,$1+$1,$8,$9*
0 Add four rect primitives between the rounded corners*
20,1,$1+$1,$2,$3,$4,$5,0*
20,1,$1+$1,$4,$5,$6,$7,0*
20,1,$1+$1,$6,$7,$8,$9,0*
20,1,$1+$1,$8,$9,$2,$3,0*%
G04 Aperture macros list end*
%TA.AperFunction,ComponentPad*%
%ADD10R,1.700000X1.700000*%
%TD*%
%TA.AperFunction,ComponentPad*%
%ADD11C,1.700000*%
%TD*%
%TA.AperFunction,ComponentPad*%
%ADD12C,1.600000*%
%TD*%
%TA.AperFunction,ComponentPad*%
%ADD13RoundRect,0.250000X-0.625000X0.350000X-0.625000X-0.350000X0.625000X-0.350000X0.625000X0.350000X0*%
%TD*%
%TA.AperFunction,ComponentPad*%
%ADD14O,1.750000X1.200000*%
%TD*%
%TA.AperFunction,HeatsinkPad*%
%ADD15O,1.700000X1.100000*%
%TD*%
%TA.AperFunction,ViaPad*%
%ADD16C,0.600000*%
%TD*%
%TA.AperFunction,Conductor*%
%ADD17C,0.200000*%
%TD*%
G04 APERTURE END LIST*
D10*
%TO.P,J5,1,Pin_1*%
%TO.N,ADC2*%
X71250000Y-80080000D03*
D11*
%TO.P,J5,2,Pin_2*%
%TO.N,+3.3V*%
X71250000Y-77540000D03*
%TO.P,J5,3,Pin_3*%
%TO.N,GND*%
X71250000Y-75000000D03*
%TD*%
D10*
%TO.P,J7,1,Pin_1*%
%TO.N,SWDIO*%
X107750000Y-53790000D03*
D11*
%TO.P,J7,2,Pin_2*%
%TO.N,SWCLK*%
X107750000Y-51250000D03*
%TO.P,J7,3,Pin_3*%
%TO.N,NRST*%
X107750000Y-48710000D03*
%TD*%
D12*
%TO.P,R6,1*%
%TO.N,ADC1*%
X71250000Y-59250000D03*
%TO.P,R6,2*%
%TO.N,GND*%
X71250000Y-56250000D03*
%TD*%
D10*
%TO.P,J4,1,Pin_1*%
%TO.N,LCD RS*%
X107750000Y-82790000D03*
D11*
%TO.P,J4,2,Pin_2*%
%TO.N,LCD E*%
X107750000Y-80250000D03*
%TO.P,J4,3,Pin_3*%
%TO.N,+3.3V*%
X107750000Y-77710000D03*
%TO.P,J4,4,Pin_4*%
%TO.N,GND*%
X107750000Y-75170000D03*
%TD*%
D10*
%TO.P,SW1,1,A*%
%TO.N,+3.3V*%
X96500000Y-77500000D03*
D11*
%TO.P,SW1,2,B*%
X96500000Y-74960000D03*
%TD*%
D10*
%TO.P,J9,1,Pin_1*%
%TO.N,USART3 TX*%
X86750000Y-75750000D03*
%TD*%
D13*
%TO.P,BT1,1,+*%
%TO.N,+3.7V*%
X88176000Y-91074000D03*
D14*
%TO.P,BT1,2,-*%
%TO.N,GND*%
X88176000Y-93074000D03*
%TD*%
D10*
%TO.P,J6,1,Pin_1*%
%TO.N,USART1 TX*%
X107750000Y-68580000D03*
D11*
%TO.P,J6,2,Pin_2*%
%TO.N,USART1 RX*%
X107750000Y-66040000D03*
%TO.P,J6,3,Pin_3*%
%TO.N,+3.3V*%
X107750000Y-63500000D03*
%TO.P,J6,4,Pin_4*%
%TO.N,GND*%
X107750000Y-60960000D03*
%TD*%
D15*
%TO.P,J1,S1,SHIELD*%
%TO.N,unconnected-(J1-SHIELD-PadS1)_1*%
X71375000Y-87080000D03*
%TO.N,unconnected-(J1-SHIELD-PadS1)*%
X67575000Y-87080000D03*
%TO.N,unconnected-(J1-SHIELD-PadS1)_3*%
X71375000Y-95720000D03*
%TO.N,unconnected-(J1-SHIELD-PadS1)_2*%
X67575000Y-95720000D03*
%TD*%
D10*
%TO.P,J3,1,Pin_1*%
%TO.N,LCD D1*%
X95200000Y-44750000D03*
D11*
%TO.P,J3,2,Pin_2*%
%TO.N,LCD D2*%
X92660000Y-44750000D03*
%TO.P,J3,3,Pin_3*%
%TO.N,LCD D3*%
X90120000Y-44750000D03*
%TO.P,J3,4,Pin_4*%
%TO.N,LCD D4*%
X87580000Y-44750000D03*
%TO.P,J3,5,Pin_5*%
%TO.N,LCD D5*%
X85040000Y-44750000D03*
%TO.P,J3,6,Pin_6*%
%TO.N,LCD D6*%
X82500000Y-44750000D03*
%TO.P,J3,7,Pin_7*%
%TO.N,LCD D7*%
X79960000Y-44750000D03*
%TO.P,J3,8,Pin_8*%
%TO.N,LCD D8*%
X77420000Y-44750000D03*
%TD*%
D16*
%TO.N,GND*%
X97500000Y-90600000D03*
X84000000Y-61700000D03*
X75000000Y-79600000D03*
%TO.N,+3.7V*%
X100400000Y-91500000D03*
X97300000Y-88400000D03*
%TO.N,GND*%
X84100000Y-94700000D03*
X79100000Y-80200000D03*
X79700000Y-89800000D03*
X94800000Y-94200000D03*
X105500000Y-61000000D03*
X94800000Y-93000000D03*
X78300000Y-62600000D03*
X98500000Y-65100000D03*
X98900000Y-75000000D03*
X84100000Y-93400000D03*
X82700000Y-94700000D03*
X96100000Y-59400000D03*
X105200000Y-91600000D03*
X77400000Y-89800000D03*
X78400000Y-60400000D03*
X104900000Y-70800000D03*
X75900000Y-68800000D03*
X99200000Y-90500000D03*
X109900000Y-61000000D03*
X72500000Y-61000000D03*
X96200000Y-48700000D03*
X75800000Y-94700000D03*
X74800000Y-92700000D03*
X82700000Y-93400000D03*
X106500000Y-91600000D03*
X103500000Y-83000000D03*
X73600000Y-77900000D03*
X106500000Y-92700000D03*
X96200000Y-53900000D03*
X93300000Y-94200000D03*
X83200000Y-65900000D03*
X74800000Y-94700000D03*
X76100000Y-92200000D03*
X94250000Y-71500000D03*
X96100000Y-94200000D03*
X94300000Y-54200000D03*
X92500000Y-46700000D03*
X89500000Y-59600000D03*
X84100000Y-92200000D03*
X96300000Y-52300000D03*
X89700000Y-55300000D03*
X105200000Y-92700000D03*
X105600000Y-54300000D03*
X82800000Y-71900000D03*
X74800000Y-93700000D03*
X81300000Y-70800000D03*
X82700000Y-92200000D03*
X98800000Y-78200000D03*
X103500000Y-80100000D03*
X89100000Y-66200000D03*
X76000000Y-72000000D03*
X105600000Y-52400000D03*
X93300000Y-93000000D03*
X93250000Y-72750000D03*
X96100000Y-93000000D03*
X94100000Y-48800000D03*
%TO.N,+3.3V*%
X97000000Y-72750000D03*
%TO.N,LCD D1*%
X94000000Y-63500000D03*
%TO.N,LCD D3*%
X84375000Y-60125000D03*
%TO.N,LCD D4*%
X87500000Y-63500000D03*
%TO.N,LCD D2*%
X88500000Y-63000000D03*
%TO.N,NRST*%
X81750000Y-61500000D03*
%TD*%
D17*
%TO.N,GND*%
X73600000Y-77900000D02*
X73600000Y-78200000D01*
%TO.N,+3.7V*%
X97300000Y-88400000D02*
X97300000Y-89449943D01*
X99350057Y-91500000D02*
X100400000Y-91500000D01*
X97300000Y-89449943D02*
X99350057Y-91500000D01*
%TO.N,GND*%
X102500000Y-85000000D02*
X102750000Y-85000000D01*
X94250000Y-71500000D02*
X94250000Y-71750000D01*
%TO.N,+3.3V*%
X102790000Y-72750000D02*
X97000000Y-72750000D01*
X107750000Y-77710000D02*
X102790000Y-72750000D01*
X98500000Y-72750000D02*
X97000000Y-72750000D01*
X107750000Y-63500000D02*
X98500000Y-72750000D01*
%TO.N,LCD D1*%
X95200000Y-44750000D02*
X95200000Y-62300000D01*
X95200000Y-62300000D02*
X94000000Y-63500000D01*
%TO.N,LCD D3*%
X84375000Y-60125000D02*
X84250000Y-60250000D01*
X88969000Y-43599000D02*
X87103240Y-43599000D01*
X90120000Y-44750000D02*
X88969000Y-43599000D01*
X87103240Y-43599000D02*
X86191000Y-44511240D01*
X86191000Y-44511240D02*
X86191000Y-58309000D01*
X86191000Y-58309000D02*
X84375000Y-60125000D01*
%TO.N,LCD D4*%
X87580000Y-63420000D02*
X87500000Y-63500000D01*
X87580000Y-44750000D02*
X87580000Y-63420000D01*
%TO.N,LCD D2*%
X92660000Y-44750000D02*
X88500000Y-48910000D01*
X88500000Y-48910000D02*
X88500000Y-63000000D01*
%TO.N,NRST*%
X94248943Y-64101000D02*
X84351000Y-64101000D01*
X102639000Y-53821000D02*
X102639000Y-55710943D01*
X107750000Y-48710000D02*
X102639000Y-53821000D01*
X102639000Y-55710943D02*
X94248943Y-64101000D01*
X84351000Y-64101000D02*
X81750000Y-61500000D01*
%TD*%
%TA.AperFunction,Conductor*%
%TO.N,GND*%
G36*
X93784340Y-45638068D02*
G01*
X93840274Y-45679939D01*
X93857189Y-45710917D01*
X93906202Y-45842328D01*
X93906206Y-45842335D01*
X93992452Y-45957544D01*
X93992455Y-45957547D01*
X94107664Y-46043793D01*
X94107671Y-46043797D01*
X94152618Y-46060561D01*
X94242517Y-46094091D01*
X94302127Y-46100500D01*
X94475500Y-46100499D01*
X94542539Y-46120183D01*
X94588294Y-46172987D01*
X94599500Y-46224499D01*
X94599500Y-61999903D01*
X94579815Y-62066942D01*
X94563181Y-62087584D01*
X93985339Y-62665425D01*
X93924016Y-62698910D01*
X93921850Y-62699361D01*
X93766508Y-62730261D01*
X93766498Y-62730264D01*
X93620827Y-62790602D01*
X93620814Y-62790609D01*
X93489711Y-62878210D01*
X93489707Y-62878213D01*
X93378213Y-62989707D01*
X93378210Y-62989711D01*
X93290609Y-63120814D01*
X93290602Y-63120827D01*
X93230264Y-63266498D01*
X93230261Y-63266510D01*
X93203571Y-63400691D01*
X93171186Y-63462602D01*
X93110471Y-63497176D01*
X93081954Y-63500500D01*
X89344720Y-63500500D01*
X89277681Y-63480815D01*
X89231926Y-63428011D01*
X89221982Y-63358853D01*
X89230159Y-63329048D01*
X89256063Y-63266510D01*
X89269737Y-63233497D01*
X89300500Y-63078842D01*
X89300500Y-62921158D01*
X89300500Y-62921155D01*
X89300499Y-62921153D01*
X89269737Y-62766503D01*
X89269735Y-62766498D01*
X89209397Y-62620827D01*
X89209390Y-62620814D01*
X89121398Y-62489125D01*
X89100520Y-62422447D01*
X89100500Y-62420234D01*
X89100500Y-49210096D01*
X89120185Y-49143057D01*
X89136814Y-49122420D01*
X92175478Y-46083755D01*
X92236799Y-46050272D01*
X92301473Y-46053506D01*
X92343757Y-46067246D01*
X92553713Y-46100500D01*
X92553714Y-46100500D01*
X92766286Y-46100500D01*
X92766287Y-46100500D01*
X92976243Y-46067246D01*
X93178412Y-46001557D01*
X93367816Y-45905051D01*
X93539792Y-45780104D01*
X93653329Y-45666566D01*
X93714648Y-45633084D01*
X93784340Y-45638068D01*
G37*
%TD.AperFunction*%
%TA.AperFunction,Conductor*%
G36*
X110442539Y-41020185D02*
G01*
X110488294Y-41072989D01*
X110499500Y-41124500D01*
X110499500Y-98375500D01*
X110479815Y-98442539D01*
X110427011Y-98488294D01*
X110375500Y-98499500D01*
X65724000Y-98499500D01*
X65656961Y-98479815D01*
X65611206Y-98427011D01*
X65600000Y-98375500D01*
X65600000Y-95616530D01*
X66224500Y-95616530D01*
X66224500Y-95823469D01*
X66264868Y-96026412D01*
X66264870Y-96026420D01*
X66344058Y-96217596D01*
X66459024Y-96389657D01*
X66605342Y-96535975D01*
X66605345Y-96535977D01*
X66777402Y-96650941D01*
X66968580Y-96730130D01*
X67171530Y-96770499D01*
X67171534Y-96770500D01*
X67171535Y-96770500D01*
X67978466Y-96770500D01*
X67978467Y-96770499D01*
X68181420Y-96730130D01*
X68372598Y-96650941D01*
X68544655Y-96535977D01*
X68690977Y-96389655D01*
X68805941Y-96217598D01*
X68885130Y-96026420D01*
X68925500Y-95823465D01*
X68925500Y-95616535D01*
X68925499Y-95616530D01*
X70024500Y-95616530D01*
X70024500Y-95823469D01*
X70064868Y-96026412D01*
X70064870Y-96026420D01*
X70144058Y-96217596D01*
X70259024Y-96389657D01*
X70405342Y-96535975D01*
X70405345Y-96535977D01*
X70577402Y-96650941D01*
X70768580Y-96730130D01*
X70971530Y-96770499D01*
X70971534Y-96770500D01*
X70971535Y-96770500D01*
X71778466Y-96770500D01*
X71778467Y-96770499D01*
X71981420Y-96730130D01*
X72172598Y-96650941D01*
X72344655Y-96535977D01*
X72490977Y-96389655D01*
X72605941Y-96217598D01*
X72685130Y-96026420D01*
X72725500Y-95823465D01*
X72725500Y-95616535D01*
X72685130Y-95413580D01*
X72605941Y-95222402D01*
X72490977Y-95050345D01*
X72490975Y-95050342D01*
X72344657Y-94904024D01*
X72258626Y-94846541D01*
X72172598Y-94789059D01*
X71981420Y-94709870D01*
X71981412Y-94709868D01*
X71778469Y-94669500D01*
X71778465Y-94669500D01*
X70971535Y-94669500D01*
X70971530Y-94669500D01*
X70768587Y-94709868D01*
X70768579Y-94709870D01*
X70577403Y-94789058D01*
X70405342Y-94904024D01*
X70259024Y-95050342D01*
X70144058Y-95222403D01*
X70064870Y-95413579D01*
X70064868Y-95413587D01*
X70024500Y-95616530D01*
X68925499Y-95616530D01*
X68885130Y-95413580D01*
X68805941Y-95222402D01*
X68690977Y-95050345D01*
X68690975Y-95050342D01*
X68544657Y-94904024D01*
X68458626Y-94846541D01*
X68372598Y-94789059D01*
X68181420Y-94709870D01*
X68181412Y-94709868D01*
X67978469Y-94669500D01*
X67978465Y-94669500D01*
X67171535Y-94669500D01*
X67171530Y-94669500D01*
X66968587Y-94709868D01*
X66968579Y-94709870D01*
X66777403Y-94789058D01*
X66605342Y-94904024D01*
X66459024Y-95050342D01*
X66344058Y-95222403D01*
X66264870Y-95413579D01*
X66264868Y-95413587D01*
X66224500Y-95616530D01*
X65600000Y-95616530D01*
X65600000Y-90673983D01*
X86800500Y-90673983D01*
X86800500Y-91474001D01*
X86800501Y-91474019D01*
X86811000Y-91576796D01*
X86811001Y-91576799D01*
X86862924Y-91733489D01*
X86866186Y-91743334D01*
X86958288Y-91892656D01*
X87082344Y-92016712D01*
X87146981Y-92056580D01*
X87193705Y-92108526D01*
X87204928Y-92177489D01*
X87177085Y-92241571D01*
X87169566Y-92249799D01*
X87061964Y-92357401D01*
X86960195Y-92497475D01*
X86881591Y-92651744D01*
X86828085Y-92816415D01*
X86826884Y-92823999D01*
X86826885Y-92824000D01*
X87895670Y-92824000D01*
X87875925Y-92843745D01*
X87826556Y-92929255D01*
X87801000Y-93024630D01*
X87801000Y-93123370D01*
X87826556Y-93218745D01*
X87875925Y-93304255D01*
X87895670Y-93324000D01*
X86826885Y-93324000D01*
X86828085Y-93331584D01*
X86881591Y-93496255D01*
X86960195Y-93650524D01*
X87061967Y-93790602D01*
X87184397Y-93913032D01*
X87324475Y-94014804D01*
X87478742Y-94093408D01*
X87643415Y-94146914D01*
X87814429Y-94174000D01*
X87926000Y-94174000D01*
X87926000Y-93354330D01*
X87945745Y-93374075D01*
X88031255Y-93423444D01*
X88126630Y-93449000D01*
X88225370Y-93449000D01*
X88320745Y-93423444D01*
X88406255Y-93374075D01*
X88426000Y-93354330D01*
X88426000Y-94174000D01*
X88537571Y-94174000D01*
X88708584Y-94146914D01*
X88873257Y-94093408D01*
X89027524Y-94014804D01*
X89167602Y-93913032D01*
X89290032Y-93790602D01*
X89391804Y-93650524D01*
X89470408Y-93496255D01*
X89523914Y-93331584D01*
X89525115Y-93324000D01*
X88456330Y-93324000D01*
X88476075Y-93304255D01*
X88525444Y-93218745D01*
X88551000Y-93123370D01*
X88551000Y-93024630D01*
X88525444Y-92929255D01*
X88476075Y-92843745D01*
X88456330Y-92824000D01*
X89525115Y-92824000D01*
X89525115Y-92823999D01*
X89523914Y-92816415D01*
X89470408Y-92651744D01*
X89391804Y-92497475D01*
X89290032Y-92357397D01*
X89182434Y-92249799D01*
X89148949Y-92188476D01*
X89153933Y-92118784D01*
X89195805Y-92062851D01*
X89204995Y-92056594D01*
X89269656Y-92016712D01*
X89393712Y-91892656D01*
X89485814Y-91743334D01*
X89540999Y-91576797D01*
X89551500Y-91474009D01*
X89551499Y-90673992D01*
X89540999Y-90571203D01*
X89485814Y-90404666D01*
X89393712Y-90255344D01*
X89269656Y-90131288D01*
X89120334Y-90039186D01*
X88953797Y-89984001D01*
X88953795Y-89984000D01*
X88851010Y-89973500D01*
X87500998Y-89973500D01*
X87500981Y-89973501D01*
X87398203Y-89984000D01*
X87398200Y-89984001D01*
X87231668Y-90039185D01*
X87231663Y-90039187D01*
X87082342Y-90131289D01*
X86958289Y-90255342D01*
X86866187Y-90404663D01*
X86866186Y-90404666D01*
X86811001Y-90571203D01*
X86811001Y-90571204D01*
X86811000Y-90571204D01*
X86800500Y-90673983D01*
X65600000Y-90673983D01*
X65600000Y-88321153D01*
X96499500Y-88321153D01*
X96499500Y-88478846D01*
X96530261Y-88633489D01*
X96530264Y-88633501D01*
X96590602Y-88779172D01*
X96590609Y-88779185D01*
X96678602Y-88910874D01*
X96699480Y-88977551D01*
X96699500Y-88979765D01*
X96699500Y-89363273D01*
X96699499Y-89363291D01*
X96699499Y-89528997D01*
X96699498Y-89528997D01*
X96740423Y-89681728D01*
X96769358Y-89731843D01*
X96769359Y-89731847D01*
X96769360Y-89731847D01*
X96819479Y-89818657D01*
X96819481Y-89818660D01*
X96938349Y-89937528D01*
X96938355Y-89937533D01*
X98865196Y-91864374D01*
X98865206Y-91864385D01*
X98869536Y-91868715D01*
X98869537Y-91868716D01*
X98981341Y-91980520D01*
X98981343Y-91980521D01*
X98981347Y-91980524D01*
X99113080Y-92056579D01*
X99118273Y-92059577D01*
X99230076Y-92089534D01*
X99270999Y-92100500D01*
X99271000Y-92100500D01*
X99820234Y-92100500D01*
X99887273Y-92120185D01*
X99889125Y-92121398D01*
X100020814Y-92209390D01*
X100020827Y-92209397D01*
X100118368Y-92249799D01*
X100166503Y-92269737D01*
X100321153Y-92300499D01*
X100321156Y-92300500D01*
X100321158Y-92300500D01*
X100478844Y-92300500D01*
X100478845Y-92300499D01*
X100633497Y-92269737D01*
X100779179Y-92209394D01*
X100910289Y-92121789D01*
X101021789Y-92010289D01*
X101109394Y-91879179D01*
X101169737Y-91733497D01*
X101200500Y-91578842D01*
X101200500Y-91421158D01*
X101200500Y-91421155D01*
X101200499Y-91421153D01*
X101169738Y-91266510D01*
X101169737Y-91266503D01*
X101169735Y-91266498D01*
X101109397Y-91120827D01*
X101109390Y-91120814D01*
X101021789Y-90989711D01*
X101021786Y-90989707D01*
X100910292Y-90878213D01*
X100910288Y-90878210D01*
X100779185Y-90790609D01*
X100779172Y-90790602D01*
X100633501Y-90730264D01*
X100633489Y-90730261D01*
X100478845Y-90699500D01*
X100478842Y-90699500D01*
X100321158Y-90699500D01*
X100321155Y-90699500D01*
X100166510Y-90730261D01*
X100166498Y-90730264D01*
X100020827Y-90790602D01*
X100020814Y-90790609D01*
X99889125Y-90878602D01*
X99871078Y-90884252D01*
X99855169Y-90894477D01*
X99824207Y-90898928D01*
X99822447Y-90899480D01*
X99820234Y-90899500D01*
X99650154Y-90899500D01*
X99583115Y-90879815D01*
X99562473Y-90863181D01*
X97936819Y-89237527D01*
X97903334Y-89176204D01*
X97900500Y-89149846D01*
X97900500Y-88979765D01*
X97920185Y-88912726D01*
X97921398Y-88910874D01*
X98009390Y-88779185D01*
X98009390Y-88779184D01*
X98009394Y-88779179D01*
X98069737Y-88633497D01*
X98100500Y-88478842D01*
X98100500Y-88321158D01*
X98100500Y-88321155D01*
X98100499Y-88321153D01*
X98069738Y-88166510D01*
X98069737Y-88166503D01*
X98038102Y-88090129D01*
X98009397Y-88020827D01*
X98009390Y-88020814D01*
X97921789Y-87889711D01*
X97921786Y-87889707D01*
X97810292Y-87778213D01*
X97810288Y-87778210D01*
X97679185Y-87690609D01*
X97679172Y-87690602D01*
X97533501Y-87630264D01*
X97533489Y-87630261D01*
X97378845Y-87599500D01*
X97378842Y-87599500D01*
X97221158Y-87599500D01*
X97221155Y-87599500D01*
X97066510Y-87630261D01*
X97066498Y-87630264D01*
X96920827Y-87690602D01*
X96920814Y-87690609D01*
X96789711Y-87778210D01*
X96789707Y-87778213D01*
X96678213Y-87889707D01*
X96678210Y-87889711D01*
X96590609Y-88020814D01*
X96590602Y-88020827D01*
X96530264Y-88166498D01*
X96530261Y-88166510D01*
X96499500Y-88321153D01*
X65600000Y-88321153D01*
X65600000Y-86976530D01*
X66224500Y-86976530D01*
X66224500Y-87183469D01*
X66264868Y-87386412D01*
X66264870Y-87386420D01*
X66344059Y-87577598D01*
X66379249Y-87630264D01*
X66459024Y-87749657D01*
X66605342Y-87895975D01*
X66605345Y-87895977D01*
X66777402Y-88010941D01*
X66968580Y-88090130D01*
X67171530Y-88130499D01*
X67171534Y-88130500D01*
X67171535Y-88130500D01*
X67978466Y-88130500D01*
X67978467Y-88130499D01*
X68181420Y-88090130D01*
X68372598Y-88010941D01*
X68544655Y-87895977D01*
X68690977Y-87749655D01*
X68805941Y-87577598D01*
X68885130Y-87386420D01*
X68925500Y-87183465D01*
X68925500Y-86976535D01*
X68925499Y-86976530D01*
X70024500Y-86976530D01*
X70024500Y-87183469D01*
X70064868Y-87386412D01*
X70064870Y-87386420D01*
X70144059Y-87577598D01*
X70179249Y-87630264D01*
X70259024Y-87749657D01*
X70405342Y-87895975D01*
X70405345Y-87895977D01*
X70577402Y-88010941D01*
X70768580Y-88090130D01*
X70971530Y-88130499D01*
X70971534Y-88130500D01*
X70971535Y-88130500D01*
X71778466Y-88130500D01*
X71778467Y-88130499D01*
X71981420Y-88090130D01*
X72172598Y-88010941D01*
X72344655Y-87895977D01*
X72490977Y-87749655D01*
X72605941Y-87577598D01*
X72685130Y-87386420D01*
X72725500Y-87183465D01*
X72725500Y-86976535D01*
X72685130Y-86773580D01*
X72605941Y-86582402D01*
X72490977Y-86410345D01*
X72490975Y-86410342D01*
X72344657Y-86264024D01*
X72258626Y-86206541D01*
X72172598Y-86149059D01*
X71981420Y-86069870D01*
X71981412Y-86069868D01*
X71778469Y-86029500D01*
X71778465Y-86029500D01*
X70971535Y-86029500D01*
X70971530Y-86029500D01*
X70768587Y-86069868D01*
X70768579Y-86069870D01*
X70577403Y-86149058D01*
X70405342Y-86264024D01*
X70259024Y-86410342D01*
X70144058Y-86582403D01*
X70064870Y-86773579D01*
X70064868Y-86773587D01*
X70024500Y-86976530D01*
X68925499Y-86976530D01*
X68885130Y-86773580D01*
X68805941Y-86582402D01*
X68690977Y-86410345D01*
X68690975Y-86410342D01*
X68544657Y-86264024D01*
X68458626Y-86206541D01*
X68372598Y-86149059D01*
X68181420Y-86069870D01*
X68181412Y-86069868D01*
X67978469Y-86029500D01*
X67978465Y-86029500D01*
X67171535Y-86029500D01*
X67171530Y-86029500D01*
X66968587Y-86069868D01*
X66968579Y-86069870D01*
X66777403Y-86149058D01*
X66605342Y-86264024D01*
X66459024Y-86410342D01*
X66344058Y-86582403D01*
X66264870Y-86773579D01*
X66264868Y-86773587D01*
X66224500Y-86976530D01*
X65600000Y-86976530D01*
X65600000Y-77433713D01*
X69899500Y-77433713D01*
X69899500Y-77646286D01*
X69926425Y-77816287D01*
X69932754Y-77856243D01*
X69987989Y-78026239D01*
X69998444Y-78058414D01*
X70094951Y-78247820D01*
X70219890Y-78419786D01*
X70333430Y-78533326D01*
X70366915Y-78594649D01*
X70361931Y-78664341D01*
X70320059Y-78720274D01*
X70289083Y-78737189D01*
X70157669Y-78786203D01*
X70157664Y-78786206D01*
X70042455Y-78872452D01*
X70042452Y-78872455D01*
X69956206Y-78987664D01*
X69956202Y-78987671D01*
X69905908Y-79122517D01*
X69899501Y-79182116D01*
X69899501Y-79182123D01*
X69899500Y-79182135D01*
X69899500Y-80977870D01*
X69899501Y-80977876D01*
X69905908Y-81037483D01*
X69956202Y-81172328D01*
X69956206Y-81172335D01*
X70042452Y-81287544D01*
X70042455Y-81287547D01*
X70157664Y-81373793D01*
X70157671Y-81373797D01*
X70292517Y-81424091D01*
X70292516Y-81424091D01*
X70299444Y-81424835D01*
X70352127Y-81430500D01*
X72147872Y-81430499D01*
X72207483Y-81424091D01*
X72342331Y-81373796D01*
X72457546Y-81287546D01*
X72543796Y-81172331D01*
X72594091Y-81037483D01*
X72600500Y-80977873D01*
X72600499Y-79182128D01*
X72594091Y-79122517D01*
X72582144Y-79090486D01*
X72543797Y-78987671D01*
X72543793Y-78987664D01*
X72457547Y-78872455D01*
X72457544Y-78872452D01*
X72342335Y-78786206D01*
X72342328Y-78786202D01*
X72210917Y-78737189D01*
X72154983Y-78695318D01*
X72130566Y-78629853D01*
X72145418Y-78561580D01*
X72166563Y-78533332D01*
X72280104Y-78419792D01*
X72405051Y-78247816D01*
X72501557Y-78058412D01*
X72567246Y-77856243D01*
X72600500Y-77646287D01*
X72600500Y-77433713D01*
X72567246Y-77223757D01*
X72501557Y-77021588D01*
X72405051Y-76832184D01*
X72405049Y-76832181D01*
X72405048Y-76832179D01*
X72280109Y-76660213D01*
X72129786Y-76509890D01*
X71957817Y-76384949D01*
X71948504Y-76380204D01*
X71897707Y-76332230D01*
X71880912Y-76264409D01*
X71903449Y-76198274D01*
X71948507Y-76159232D01*
X71957555Y-76154622D01*
X72011716Y-76115270D01*
X72011717Y-76115270D01*
X71379408Y-75482962D01*
X71442993Y-75465925D01*
X71557007Y-75400099D01*
X71650099Y-75307007D01*
X71715925Y-75192993D01*
X71732962Y-75129408D01*
X72365270Y-75761717D01*
X72365270Y-75761716D01*
X72404622Y-75707554D01*
X72501095Y-75518217D01*
X72566757Y-75316130D01*
X72566757Y-75316127D01*
X72600000Y-75106246D01*
X72600000Y-74893755D01*
X72595953Y-74868205D01*
X72595953Y-74868204D01*
X72593408Y-74852135D01*
X85399500Y-74852135D01*
X85399500Y-76647870D01*
X85399501Y-76647876D01*
X85405908Y-76707483D01*
X85456202Y-76842328D01*
X85456206Y-76842335D01*
X85542452Y-76957544D01*
X85542455Y-76957547D01*
X85657664Y-77043793D01*
X85657671Y-77043797D01*
X85792517Y-77094091D01*
X85792516Y-77094091D01*
X85799444Y-77094835D01*
X85852127Y-77100500D01*
X87647872Y-77100499D01*
X87707483Y-77094091D01*
X87842331Y-77043796D01*
X87957546Y-76957546D01*
X88043796Y-76842331D01*
X88094091Y-76707483D01*
X88100500Y-76647873D01*
X88100499Y-74853713D01*
X95149500Y-74853713D01*
X95149500Y-75066286D01*
X95176352Y-75235826D01*
X95182754Y-75276243D01*
X95247986Y-75477007D01*
X95248444Y-75478414D01*
X95344951Y-75667820D01*
X95469890Y-75839786D01*
X95583430Y-75953326D01*
X95616915Y-76014649D01*
X95611931Y-76084341D01*
X95570059Y-76140274D01*
X95539083Y-76157189D01*
X95407669Y-76206203D01*
X95407664Y-76206206D01*
X95292455Y-76292452D01*
X95292452Y-76292455D01*
X95206206Y-76407664D01*
X95206202Y-76407671D01*
X95155908Y-76542517D01*
X95154572Y-76554949D01*
X95149501Y-76602123D01*
X95149500Y-76602135D01*
X95149500Y-78397870D01*
X95149501Y-78397876D01*
X95155908Y-78457483D01*
X95206202Y-78592328D01*
X95206206Y-78592335D01*
X95292452Y-78707544D01*
X95292455Y-78707547D01*
X95407664Y-78793793D01*
X95407671Y-78793797D01*
X95542517Y-78844091D01*
X95542516Y-78844091D01*
X95549444Y-78844835D01*
X95602127Y-78850500D01*
X97397872Y-78850499D01*
X97457483Y-78844091D01*
X97592331Y-78793796D01*
X97707546Y-78707546D01*
X97793796Y-78592331D01*
X97844091Y-78457483D01*
X97850500Y-78397873D01*
X97850499Y-76602128D01*
X97844091Y-76542517D01*
X97831924Y-76509896D01*
X97793797Y-76407671D01*
X97793793Y-76407664D01*
X97707547Y-76292455D01*
X97707544Y-76292452D01*
X97592335Y-76206206D01*
X97592328Y-76206202D01*
X97460917Y-76157189D01*
X97404983Y-76115318D01*
X97380566Y-76049853D01*
X97395418Y-75981580D01*
X97416563Y-75953332D01*
X97530104Y-75839792D01*
X97655051Y-75667816D01*
X97751557Y-75478412D01*
X97817246Y-75276243D01*
X97850500Y-75066287D01*
X97850500Y-74853713D01*
X97817246Y-74643757D01*
X97751557Y-74441588D01*
X97655051Y-74252184D01*
X97655049Y-74252181D01*
X97655048Y-74252179D01*
X97530109Y-74080213D01*
X97379786Y-73929890D01*
X97207819Y-73804951D01*
X97207818Y-73804950D01*
X97207816Y-73804949D01*
X97160025Y-73780598D01*
X97131045Y-73765832D01*
X97080249Y-73717857D01*
X97063454Y-73650036D01*
X97085992Y-73583901D01*
X97140707Y-73540450D01*
X97163140Y-73533731D01*
X97233497Y-73519737D01*
X97379179Y-73459394D01*
X97414176Y-73436010D01*
X97510875Y-73371398D01*
X97577553Y-73350520D01*
X97579766Y-73350500D01*
X98420939Y-73350500D01*
X98420943Y-73350501D01*
X98579057Y-73350501D01*
X98579061Y-73350500D01*
X102489903Y-73350500D01*
X102556942Y-73370185D01*
X102577584Y-73386819D01*
X106416241Y-77225476D01*
X106449726Y-77286799D01*
X106446492Y-77351473D01*
X106432753Y-77393757D01*
X106399500Y-77603713D01*
X106399500Y-77816287D01*
X106432754Y-78026243D01*
X106443206Y-78058412D01*
X106498444Y-78228414D01*
X106594951Y-78417820D01*
X106719890Y-78589786D01*
X106870213Y-78740109D01*
X107042182Y-78865050D01*
X107050946Y-78869516D01*
X107101742Y-78917491D01*
X107118536Y-78985312D01*
X107095998Y-79051447D01*
X107050946Y-79090484D01*
X107042182Y-79094949D01*
X106870213Y-79219890D01*
X106719890Y-79370213D01*
X106594951Y-79542179D01*
X106498444Y-79731585D01*
X106432753Y-79933760D01*
X106399500Y-80143713D01*
X106399500Y-80356286D01*
X106432753Y-80566239D01*
X106498444Y-80768414D01*
X106594951Y-80957820D01*
X106719890Y-81129786D01*
X106833430Y-81243326D01*
X106866915Y-81304649D01*
X106861931Y-81374341D01*
X106820059Y-81430274D01*
X106789083Y-81447189D01*
X106657669Y-81496203D01*
X106657664Y-81496206D01*
X106542455Y-81582452D01*
X106542452Y-81582455D01*
X106456206Y-81697664D01*
X106456202Y-81697671D01*
X106405908Y-81832517D01*
X106399501Y-81892116D01*
X106399501Y-81892123D01*
X106399500Y-81892135D01*
X106399500Y-83687870D01*
X106399501Y-83687876D01*
X106405908Y-83747483D01*
X106456202Y-83882328D01*
X106456206Y-83882335D01*
X106542452Y-83997544D01*
X106542455Y-83997547D01*
X106657664Y-84083793D01*
X106657671Y-84083797D01*
X106792517Y-84134091D01*
X106792516Y-84134091D01*
X106799444Y-84134835D01*
X106852127Y-84140500D01*
X108647872Y-84140499D01*
X108707483Y-84134091D01*
X108842331Y-84083796D01*
X108957546Y-83997546D01*
X109043796Y-83882331D01*
X109094091Y-83747483D01*
X109100500Y-83687873D01*
X109100499Y-81892128D01*
X109094091Y-81832517D01*
X109043796Y-81697669D01*
X109043795Y-81697668D01*
X109043793Y-81697664D01*
X108957547Y-81582455D01*
X108957544Y-81582452D01*
X108842335Y-81496206D01*
X108842328Y-81496202D01*
X108710917Y-81447189D01*
X108654983Y-81405318D01*
X108630566Y-81339853D01*
X108645418Y-81271580D01*
X108666563Y-81243332D01*
X108780104Y-81129792D01*
X108905051Y-80957816D01*
X109001557Y-80768412D01*
X109067246Y-80566243D01*
X109100500Y-80356287D01*
X109100500Y-80143713D01*
X109067246Y-79933757D01*
X109001557Y-79731588D01*
X108905051Y-79542184D01*
X108905049Y-79542181D01*
X108905048Y-79542179D01*
X108780109Y-79370213D01*
X108629786Y-79219890D01*
X108457820Y-79094951D01*
X108457115Y-79094591D01*
X108449054Y-79090485D01*
X108398259Y-79042512D01*
X108381463Y-78974692D01*
X108403999Y-78908556D01*
X108449054Y-78869515D01*
X108457816Y-78865051D01*
X108486665Y-78844091D01*
X108629786Y-78740109D01*
X108629788Y-78740106D01*
X108629792Y-78740104D01*
X108780104Y-78589792D01*
X108780106Y-78589788D01*
X108780109Y-78589786D01*
X108905048Y-78417820D01*
X108905047Y-78417820D01*
X108905051Y-78417816D01*
X109001557Y-78228412D01*
X109067246Y-78026243D01*
X109100500Y-77816287D01*
X109100500Y-77603713D01*
X109067246Y-77393757D01*
X109001557Y-77191588D01*
X108905051Y-77002184D01*
X108905049Y-77002181D01*
X108905048Y-77002179D01*
X108780109Y-76830213D01*
X108629786Y-76679890D01*
X108457817Y-76554949D01*
X108448504Y-76550204D01*
X108397707Y-76502230D01*
X108380912Y-76434409D01*
X108403449Y-76368274D01*
X108448507Y-76329232D01*
X108457555Y-76324622D01*
X108511716Y-76285270D01*
X108511717Y-76285270D01*
X107879408Y-75652962D01*
X107942993Y-75635925D01*
X108057007Y-75570099D01*
X108150099Y-75477007D01*
X108215925Y-75362993D01*
X108232962Y-75299409D01*
X108865270Y-75931717D01*
X108865270Y-75931716D01*
X108904622Y-75877554D01*
X109001095Y-75688217D01*
X109066757Y-75486130D01*
X109066757Y-75486127D01*
X109100000Y-75276246D01*
X109100000Y-75063753D01*
X109066757Y-74853872D01*
X109066757Y-74853869D01*
X109001095Y-74651782D01*
X108904624Y-74462449D01*
X108865270Y-74408282D01*
X108865269Y-74408282D01*
X108232962Y-75040590D01*
X108215925Y-74977007D01*
X108150099Y-74862993D01*
X108057007Y-74769901D01*
X107942993Y-74704075D01*
X107879409Y-74687037D01*
X108511716Y-74054728D01*
X108457550Y-74015375D01*
X108268217Y-73918904D01*
X108066129Y-73853242D01*
X107856246Y-73820000D01*
X107643754Y-73820000D01*
X107433872Y-73853242D01*
X107433869Y-73853242D01*
X107231782Y-73918904D01*
X107042439Y-74015380D01*
X106988282Y-74054727D01*
X106988282Y-74054728D01*
X107620591Y-74687037D01*
X107557007Y-74704075D01*
X107442993Y-74769901D01*
X107349901Y-74862993D01*
X107284075Y-74977007D01*
X107267037Y-75040591D01*
X106634728Y-74408282D01*
X106634727Y-74408282D01*
X106595380Y-74462439D01*
X106498904Y-74651782D01*
X106433242Y-74853869D01*
X106433242Y-74853872D01*
X106400000Y-75063753D01*
X106400000Y-75211403D01*
X106380315Y-75278442D01*
X106327511Y-75324197D01*
X106258353Y-75334141D01*
X106194797Y-75305116D01*
X106188319Y-75299084D01*
X103277590Y-72388355D01*
X103277588Y-72388352D01*
X103158717Y-72269481D01*
X103158716Y-72269480D01*
X103071904Y-72219360D01*
X103071904Y-72219359D01*
X103071900Y-72219358D01*
X103021785Y-72190423D01*
X102869057Y-72149499D01*
X102710943Y-72149499D01*
X102703347Y-72149499D01*
X102703331Y-72149500D01*
X100249097Y-72149500D01*
X100182058Y-72129815D01*
X100136303Y-72077011D01*
X100126359Y-72007853D01*
X100155384Y-71944297D01*
X100161416Y-71937819D01*
X106187819Y-65911415D01*
X106249142Y-65877930D01*
X106318834Y-65882914D01*
X106374767Y-65924786D01*
X106399184Y-65990250D01*
X106399500Y-65999096D01*
X106399500Y-66146286D01*
X106432753Y-66356239D01*
X106498444Y-66558414D01*
X106594951Y-66747820D01*
X106719890Y-66919786D01*
X106833430Y-67033326D01*
X106866915Y-67094649D01*
X106861931Y-67164341D01*
X106820059Y-67220274D01*
X106789083Y-67237189D01*
X106657669Y-67286203D01*
X106657664Y-67286206D01*
X106542455Y-67372452D01*
X106542452Y-67372455D01*
X106456206Y-67487664D01*
X106456202Y-67487671D01*
X106405908Y-67622517D01*
X106399501Y-67682116D01*
X106399501Y-67682123D01*
X106399500Y-67682135D01*
X106399500Y-69477870D01*
X106399501Y-69477876D01*
X106405908Y-69537483D01*
X106456202Y-69672328D01*
X106456206Y-69672335D01*
X106542452Y-69787544D01*
X106542455Y-69787547D01*
X106657664Y-69873793D01*
X106657671Y-69873797D01*
X106792517Y-69924091D01*
X106792516Y-69924091D01*
X106799444Y-69924835D01*
X106852127Y-69930500D01*
X108647872Y-69930499D01*
X108707483Y-69924091D01*
X108842331Y-69873796D01*
X108957546Y-69787546D01*
X109043796Y-69672331D01*
X109094091Y-69537483D01*
X109100500Y-69477873D01*
X109100499Y-67682128D01*
X109094091Y-67622517D01*
X109043796Y-67487669D01*
X109043795Y-67487668D01*
X109043793Y-67487664D01*
X108957547Y-67372455D01*
X108957544Y-67372452D01*
X108842335Y-67286206D01*
X108842328Y-67286202D01*
X108710917Y-67237189D01*
X108654983Y-67195318D01*
X108630566Y-67129853D01*
X108645418Y-67061580D01*
X108666563Y-67033332D01*
X108780104Y-66919792D01*
X108905051Y-66747816D01*
X109001557Y-66558412D01*
X109067246Y-66356243D01*
X109100500Y-66146287D01*
X109100500Y-65933713D01*
X109067246Y-65723757D01*
X109001557Y-65521588D01*
X108905051Y-65332184D01*
X108905049Y-65332181D01*
X108905048Y-65332179D01*
X108780109Y-65160213D01*
X108629786Y-65009890D01*
X108457820Y-64884951D01*
X108457115Y-64884591D01*
X108449054Y-64880485D01*
X108398259Y-64832512D01*
X108381463Y-64764692D01*
X108403999Y-64698556D01*
X108449054Y-64659515D01*
X108457816Y-64655051D01*
X108559018Y-64581524D01*
X108629786Y-64530109D01*
X108629788Y-64530106D01*
X108629792Y-64530104D01*
X108780104Y-64379792D01*
X108780106Y-64379788D01*
X108780109Y-64379786D01*
X108905048Y-64207820D01*
X108905047Y-64207820D01*
X108905051Y-64207816D01*
X109001557Y-64018412D01*
X109067246Y-63816243D01*
X109100500Y-63606287D01*
X109100500Y-63393713D01*
X109067246Y-63183757D01*
X109001557Y-62981588D01*
X108905051Y-62792184D01*
X108905049Y-62792181D01*
X108905048Y-62792179D01*
X108780109Y-62620213D01*
X108629786Y-62469890D01*
X108457817Y-62344949D01*
X108448504Y-62340204D01*
X108397707Y-62292230D01*
X108380912Y-62224409D01*
X108403449Y-62158274D01*
X108448507Y-62119232D01*
X108457555Y-62114622D01*
X108511716Y-62075270D01*
X108511717Y-62075270D01*
X107879408Y-61442962D01*
X107942993Y-61425925D01*
X108057007Y-61360099D01*
X108150099Y-61267007D01*
X108215925Y-61152993D01*
X108232962Y-61089409D01*
X108865270Y-61721717D01*
X108865270Y-61721716D01*
X108904622Y-61667554D01*
X109001095Y-61478217D01*
X109066757Y-61276130D01*
X109066757Y-61276127D01*
X109100000Y-61066246D01*
X109100000Y-60853753D01*
X109066757Y-60643872D01*
X109066757Y-60643869D01*
X109001095Y-60441782D01*
X108904624Y-60252449D01*
X108865270Y-60198282D01*
X108865269Y-60198282D01*
X108232962Y-60830590D01*
X108215925Y-60767007D01*
X108150099Y-60652993D01*
X108057007Y-60559901D01*
X107942993Y-60494075D01*
X107879409Y-60477037D01*
X108511716Y-59844728D01*
X108457550Y-59805375D01*
X108268217Y-59708904D01*
X108066129Y-59643242D01*
X107856246Y-59610000D01*
X107643754Y-59610000D01*
X107433872Y-59643242D01*
X107433869Y-59643242D01*
X107231782Y-59708904D01*
X107042439Y-59805380D01*
X106988282Y-59844727D01*
X106988282Y-59844728D01*
X107620591Y-60477037D01*
X107557007Y-60494075D01*
X107442993Y-60559901D01*
X107349901Y-60652993D01*
X107284075Y-60767007D01*
X107267037Y-60830591D01*
X106634728Y-60198282D01*
X106634727Y-60198282D01*
X106595380Y-60252439D01*
X106498904Y-60441782D01*
X106433242Y-60643869D01*
X106433242Y-60643872D01*
X106400000Y-60853753D01*
X106400000Y-61066246D01*
X106433242Y-61276127D01*
X106433242Y-61276130D01*
X106498904Y-61478217D01*
X106595375Y-61667550D01*
X106634728Y-61721716D01*
X107267037Y-61089408D01*
X107284075Y-61152993D01*
X107349901Y-61267007D01*
X107442993Y-61360099D01*
X107557007Y-61425925D01*
X107620590Y-61442962D01*
X106988282Y-62075269D01*
X106988282Y-62075270D01*
X107042452Y-62114626D01*
X107042451Y-62114626D01*
X107051495Y-62119234D01*
X107102292Y-62167208D01*
X107119087Y-62235029D01*
X107096550Y-62301164D01*
X107051499Y-62340202D01*
X107042182Y-62344949D01*
X106870213Y-62469890D01*
X106719890Y-62620213D01*
X106594951Y-62792179D01*
X106498444Y-62981585D01*
X106432753Y-63183760D01*
X106399500Y-63393713D01*
X106399500Y-63606286D01*
X106432754Y-63816244D01*
X106432754Y-63816247D01*
X106446491Y-63858523D01*
X106448486Y-63928364D01*
X106416241Y-63984522D01*
X98287584Y-72113181D01*
X98226261Y-72146666D01*
X98199903Y-72149500D01*
X97579766Y-72149500D01*
X97512727Y-72129815D01*
X97510875Y-72128602D01*
X97379185Y-72040609D01*
X97379172Y-72040602D01*
X97233501Y-71980264D01*
X97233489Y-71980261D01*
X97078845Y-71949500D01*
X97078842Y-71949500D01*
X96921158Y-71949500D01*
X96921155Y-71949500D01*
X96766510Y-71980261D01*
X96766498Y-71980264D01*
X96620827Y-72040602D01*
X96620814Y-72040609D01*
X96489711Y-72128210D01*
X96489707Y-72128213D01*
X96378213Y-72239707D01*
X96378210Y-72239711D01*
X96290609Y-72370814D01*
X96290602Y-72370827D01*
X96230264Y-72516498D01*
X96230261Y-72516510D01*
X96199500Y-72671153D01*
X96199500Y-72828846D01*
X96230261Y-72983489D01*
X96230264Y-72983501D01*
X96290602Y-73129172D01*
X96290609Y-73129185D01*
X96378210Y-73260288D01*
X96378213Y-73260292D01*
X96489707Y-73371786D01*
X96489711Y-73371789D01*
X96505588Y-73382398D01*
X96550393Y-73436010D01*
X96559100Y-73505335D01*
X96528946Y-73568362D01*
X96469503Y-73605082D01*
X96436697Y-73609500D01*
X96393713Y-73609500D01*
X96345042Y-73617208D01*
X96183760Y-73642753D01*
X95981585Y-73708444D01*
X95792179Y-73804951D01*
X95620213Y-73929890D01*
X95469890Y-74080213D01*
X95344951Y-74252179D01*
X95248444Y-74441585D01*
X95182753Y-74643760D01*
X95149500Y-74853713D01*
X88100499Y-74853713D01*
X88100499Y-74852128D01*
X88094091Y-74792517D01*
X88061104Y-74704075D01*
X88043797Y-74657671D01*
X88043793Y-74657664D01*
X87957547Y-74542455D01*
X87957544Y-74542452D01*
X87842335Y-74456206D01*
X87842328Y-74456202D01*
X87707482Y-74405908D01*
X87707483Y-74405908D01*
X87647883Y-74399501D01*
X87647881Y-74399500D01*
X87647873Y-74399500D01*
X87647864Y-74399500D01*
X85852129Y-74399500D01*
X85852123Y-74399501D01*
X85792516Y-74405908D01*
X85657671Y-74456202D01*
X85657664Y-74456206D01*
X85542455Y-74542452D01*
X85542452Y-74542455D01*
X85456206Y-74657664D01*
X85456202Y-74657671D01*
X85405908Y-74792517D01*
X85403336Y-74816446D01*
X85399501Y-74852123D01*
X85399500Y-74852135D01*
X72593408Y-74852135D01*
X72566757Y-74683872D01*
X72566757Y-74683869D01*
X72501095Y-74481782D01*
X72404624Y-74292449D01*
X72365270Y-74238282D01*
X72365269Y-74238282D01*
X71732962Y-74870590D01*
X71715925Y-74807007D01*
X71650099Y-74692993D01*
X71557007Y-74599901D01*
X71442993Y-74534075D01*
X71379409Y-74517037D01*
X72011716Y-73884728D01*
X71957550Y-73845375D01*
X71768217Y-73748904D01*
X71566129Y-73683242D01*
X71356246Y-73650000D01*
X71143754Y-73650000D01*
X70933872Y-73683242D01*
X70933869Y-73683242D01*
X70731782Y-73748904D01*
X70542439Y-73845380D01*
X70488282Y-73884727D01*
X70488282Y-73884728D01*
X71120591Y-74517037D01*
X71057007Y-74534075D01*
X70942993Y-74599901D01*
X70849901Y-74692993D01*
X70784075Y-74807007D01*
X70767037Y-74870591D01*
X70134728Y-74238282D01*
X70134727Y-74238282D01*
X70095380Y-74292439D01*
X69998904Y-74481782D01*
X69933242Y-74683869D01*
X69933242Y-74683872D01*
X69900000Y-74893753D01*
X69900000Y-75106246D01*
X69933242Y-75316127D01*
X69933242Y-75316130D01*
X69998904Y-75518217D01*
X70095375Y-75707550D01*
X70134728Y-75761716D01*
X70767037Y-75129408D01*
X70784075Y-75192993D01*
X70849901Y-75307007D01*
X70942993Y-75400099D01*
X71057007Y-75465925D01*
X71120590Y-75482962D01*
X70488282Y-76115269D01*
X70488282Y-76115270D01*
X70542452Y-76154626D01*
X70542451Y-76154626D01*
X70551495Y-76159234D01*
X70602292Y-76207208D01*
X70619087Y-76275029D01*
X70596550Y-76341164D01*
X70551499Y-76380202D01*
X70542182Y-76384949D01*
X70370213Y-76509890D01*
X70219890Y-76660213D01*
X70094951Y-76832179D01*
X69998444Y-77021585D01*
X69932753Y-77223760D01*
X69899500Y-77433713D01*
X65600000Y-77433713D01*
X65600000Y-59147648D01*
X69949500Y-59147648D01*
X69949500Y-59352351D01*
X69981522Y-59554534D01*
X70044781Y-59749223D01*
X70093444Y-59844727D01*
X70117277Y-59891503D01*
X70137715Y-59931613D01*
X70258028Y-60097213D01*
X70402786Y-60241971D01*
X70557749Y-60354556D01*
X70568390Y-60362287D01*
X70684607Y-60421503D01*
X70750776Y-60455218D01*
X70750778Y-60455218D01*
X70750781Y-60455220D01*
X70855137Y-60489127D01*
X70945465Y-60518477D01*
X71046557Y-60534488D01*
X71147648Y-60550500D01*
X71147649Y-60550500D01*
X71352351Y-60550500D01*
X71352352Y-60550500D01*
X71554534Y-60518477D01*
X71749219Y-60455220D01*
X71931610Y-60362287D01*
X72024590Y-60294732D01*
X72097213Y-60241971D01*
X72097215Y-60241968D01*
X72097219Y-60241966D01*
X72241966Y-60097219D01*
X72241968Y-60097215D01*
X72241971Y-60097213D01*
X72294732Y-60024590D01*
X72362287Y-59931610D01*
X72455220Y-59749219D01*
X72518477Y-59554534D01*
X72550500Y-59352352D01*
X72550500Y-59147648D01*
X72518477Y-58945466D01*
X72455220Y-58750781D01*
X72455218Y-58750778D01*
X72455218Y-58750776D01*
X72381986Y-58607052D01*
X72362287Y-58568390D01*
X72310303Y-58496839D01*
X72241971Y-58402786D01*
X72097213Y-58258028D01*
X71931613Y-58137715D01*
X71931612Y-58137714D01*
X71931610Y-58137713D01*
X71850890Y-58096584D01*
X71749223Y-58044781D01*
X71554534Y-57981522D01*
X71379995Y-57953878D01*
X71352352Y-57949500D01*
X71147648Y-57949500D01*
X71123329Y-57953351D01*
X70945465Y-57981522D01*
X70750776Y-58044781D01*
X70568386Y-58137715D01*
X70402786Y-58258028D01*
X70258028Y-58402786D01*
X70137715Y-58568386D01*
X70044781Y-58750776D01*
X69981522Y-58945465D01*
X69949500Y-59147648D01*
X65600000Y-59147648D01*
X65600000Y-56147682D01*
X69950000Y-56147682D01*
X69950000Y-56352317D01*
X69982009Y-56554417D01*
X70045244Y-56749031D01*
X70138141Y-56931350D01*
X70138147Y-56931359D01*
X70170523Y-56975921D01*
X70170524Y-56975922D01*
X70850000Y-56296446D01*
X70850000Y-56302661D01*
X70877259Y-56404394D01*
X70929920Y-56495606D01*
X71004394Y-56570080D01*
X71095606Y-56622741D01*
X71197339Y-56650000D01*
X71203553Y-56650000D01*
X70524076Y-57329474D01*
X70568650Y-57361859D01*
X70750968Y-57454755D01*
X70945582Y-57517990D01*
X71147683Y-57550000D01*
X71352317Y-57550000D01*
X71554417Y-57517990D01*
X71749031Y-57454755D01*
X71931349Y-57361859D01*
X71975921Y-57329474D01*
X71296447Y-56650000D01*
X71302661Y-56650000D01*
X71404394Y-56622741D01*
X71495606Y-56570080D01*
X71570080Y-56495606D01*
X71622741Y-56404394D01*
X71650000Y-56302661D01*
X71650000Y-56296447D01*
X72329474Y-56975921D01*
X72361859Y-56931349D01*
X72454755Y-56749031D01*
X72517990Y-56554417D01*
X72550000Y-56352317D01*
X72550000Y-56147682D01*
X72517990Y-55945582D01*
X72454755Y-55750968D01*
X72361859Y-55568650D01*
X72329474Y-55524077D01*
X72329474Y-55524076D01*
X71650000Y-56203551D01*
X71650000Y-56197339D01*
X71622741Y-56095606D01*
X71570080Y-56004394D01*
X71495606Y-55929920D01*
X71404394Y-55877259D01*
X71302661Y-55850000D01*
X71296446Y-55850000D01*
X71975922Y-55170524D01*
X71975921Y-55170523D01*
X71931359Y-55138147D01*
X71931350Y-55138141D01*
X71749031Y-55045244D01*
X71554417Y-54982009D01*
X71352317Y-54950000D01*
X71147683Y-54950000D01*
X70945582Y-54982009D01*
X70750968Y-55045244D01*
X70568644Y-55138143D01*
X70524077Y-55170523D01*
X70524077Y-55170524D01*
X71203554Y-55850000D01*
X71197339Y-55850000D01*
X71095606Y-55877259D01*
X71004394Y-55929920D01*
X70929920Y-56004394D01*
X70877259Y-56095606D01*
X70850000Y-56197339D01*
X70850000Y-56203553D01*
X70170524Y-55524077D01*
X70170523Y-55524077D01*
X70138143Y-55568644D01*
X70045244Y-55750968D01*
X69982009Y-55945582D01*
X69950000Y-56147682D01*
X65600000Y-56147682D01*
X65600000Y-44643713D01*
X76069500Y-44643713D01*
X76069500Y-44856286D01*
X76102753Y-45066239D01*
X76168444Y-45268414D01*
X76264951Y-45457820D01*
X76389890Y-45629786D01*
X76540213Y-45780109D01*
X76712179Y-45905048D01*
X76712181Y-45905049D01*
X76712184Y-45905051D01*
X76901588Y-46001557D01*
X77103757Y-46067246D01*
X77313713Y-46100500D01*
X77313714Y-46100500D01*
X77526286Y-46100500D01*
X77526287Y-46100500D01*
X77736243Y-46067246D01*
X77938412Y-46001557D01*
X78127816Y-45905051D01*
X78214138Y-45842335D01*
X78299786Y-45780109D01*
X78299788Y-45780106D01*
X78299792Y-45780104D01*
X78450104Y-45629792D01*
X78450106Y-45629788D01*
X78450109Y-45629786D01*
X78575048Y-45457820D01*
X78575047Y-45457820D01*
X78575051Y-45457816D01*
X78579514Y-45449054D01*
X78627488Y-45398259D01*
X78695308Y-45381463D01*
X78761444Y-45403999D01*
X78800486Y-45449056D01*
X78804951Y-45457820D01*
X78929890Y-45629786D01*
X79080213Y-45780109D01*
X79252179Y-45905048D01*
X79252181Y-45905049D01*
X79252184Y-45905051D01*
X79441588Y-46001557D01*
X79643757Y-46067246D01*
X79853713Y-46100500D01*
X79853714Y-46100500D01*
X80066286Y-46100500D01*
X80066287Y-46100500D01*
X80276243Y-46067246D01*
X80478412Y-46001557D01*
X80667816Y-45905051D01*
X80754138Y-45842335D01*
X80839786Y-45780109D01*
X80839788Y-45780106D01*
X80839792Y-45780104D01*
X80990104Y-45629792D01*
X80990106Y-45629788D01*
X80990109Y-45629786D01*
X81115048Y-45457820D01*
X81115047Y-45457820D01*
X81115051Y-45457816D01*
X81119514Y-45449054D01*
X81167488Y-45398259D01*
X81235308Y-45381463D01*
X81301444Y-45403999D01*
X81340486Y-45449056D01*
X81344951Y-45457820D01*
X81469890Y-45629786D01*
X81620213Y-45780109D01*
X81792179Y-45905048D01*
X81792181Y-45905049D01*
X81792184Y-45905051D01*
X81981588Y-46001557D01*
X82183757Y-46067246D01*
X82393713Y-46100500D01*
X82393714Y-46100500D01*
X82606286Y-46100500D01*
X82606287Y-46100500D01*
X82816243Y-46067246D01*
X83018412Y-46001557D01*
X83207816Y-45905051D01*
X83294138Y-45842335D01*
X83379786Y-45780109D01*
X83379788Y-45780106D01*
X83379792Y-45780104D01*
X83530104Y-45629792D01*
X83530106Y-45629788D01*
X83530109Y-45629786D01*
X83655048Y-45457820D01*
X83655047Y-45457820D01*
X83655051Y-45457816D01*
X83659514Y-45449054D01*
X83707488Y-45398259D01*
X83775308Y-45381463D01*
X83841444Y-45403999D01*
X83880486Y-45449056D01*
X83884951Y-45457820D01*
X84009890Y-45629786D01*
X84160213Y-45780109D01*
X84332179Y-45905048D01*
X84332181Y-45905049D01*
X84332184Y-45905051D01*
X84521588Y-46001557D01*
X84723757Y-46067246D01*
X84933713Y-46100500D01*
X84933714Y-46100500D01*
X85146286Y-46100500D01*
X85146287Y-46100500D01*
X85356243Y-46067246D01*
X85428183Y-46043870D01*
X85498023Y-46041876D01*
X85557856Y-46077956D01*
X85588684Y-46140657D01*
X85590500Y-46161802D01*
X85590500Y-58008903D01*
X85570815Y-58075942D01*
X85554181Y-58096584D01*
X84360339Y-59290425D01*
X84299016Y-59323910D01*
X84296850Y-59324361D01*
X84141508Y-59355261D01*
X84141498Y-59355264D01*
X83995827Y-59415602D01*
X83995814Y-59415609D01*
X83864711Y-59503210D01*
X83864707Y-59503213D01*
X83753213Y-59614707D01*
X83753210Y-59614711D01*
X83665609Y-59745814D01*
X83665602Y-59745827D01*
X83605264Y-59891498D01*
X83605261Y-59891510D01*
X83574500Y-60046153D01*
X83574500Y-60203846D01*
X83605261Y-60358489D01*
X83605264Y-60358501D01*
X83665602Y-60504172D01*
X83665609Y-60504185D01*
X83753210Y-60635288D01*
X83753213Y-60635292D01*
X83864707Y-60746786D01*
X83864711Y-60746789D01*
X83995814Y-60834390D01*
X83995827Y-60834397D01*
X84101603Y-60878210D01*
X84141503Y-60894737D01*
X84296153Y-60925499D01*
X84296156Y-60925500D01*
X84296158Y-60925500D01*
X84453844Y-60925500D01*
X84453845Y-60925499D01*
X84608497Y-60894737D01*
X84754179Y-60834394D01*
X84885289Y-60746789D01*
X84996789Y-60635289D01*
X85084394Y-60504179D01*
X85144737Y-60358497D01*
X85167917Y-60241966D01*
X85175638Y-60203150D01*
X85208023Y-60141239D01*
X85209519Y-60139715D01*
X86549506Y-58799727D01*
X86549511Y-58799724D01*
X86559714Y-58789520D01*
X86559716Y-58789520D01*
X86671520Y-58677716D01*
X86744947Y-58550536D01*
X86748110Y-58545056D01*
X86798675Y-58496839D01*
X86867281Y-58483613D01*
X86932147Y-58509578D01*
X86972678Y-58566490D01*
X86979500Y-58607052D01*
X86979500Y-62837059D01*
X86959815Y-62904098D01*
X86943181Y-62924740D01*
X86878213Y-62989707D01*
X86878210Y-62989711D01*
X86790609Y-63120814D01*
X86790602Y-63120827D01*
X86730264Y-63266498D01*
X86730261Y-63266510D01*
X86703571Y-63400691D01*
X86671186Y-63462602D01*
X86610471Y-63497176D01*
X86581954Y-63500500D01*
X84651097Y-63500500D01*
X84584058Y-63480815D01*
X84563416Y-63464181D01*
X82584574Y-61485339D01*
X82551089Y-61424016D01*
X82550638Y-61421849D01*
X82519738Y-61266510D01*
X82519737Y-61266503D01*
X82472720Y-61152993D01*
X82459397Y-61120827D01*
X82459390Y-61120814D01*
X82371789Y-60989711D01*
X82371786Y-60989707D01*
X82260292Y-60878213D01*
X82260288Y-60878210D01*
X82129185Y-60790609D01*
X82129172Y-60790602D01*
X81983501Y-60730264D01*
X81983489Y-60730261D01*
X81828845Y-60699500D01*
X81828842Y-60699500D01*
X81671158Y-60699500D01*
X81671155Y-60699500D01*
X81516510Y-60730261D01*
X81516498Y-60730264D01*
X81370827Y-60790602D01*
X81370814Y-60790609D01*
X81239711Y-60878210D01*
X81239707Y-60878213D01*
X81128213Y-60989707D01*
X81128210Y-60989711D01*
X81040609Y-61120814D01*
X81040602Y-61120827D01*
X80980264Y-61266498D01*
X80980261Y-61266510D01*
X80949500Y-61421153D01*
X80949500Y-61578846D01*
X80980261Y-61733489D01*
X80980264Y-61733501D01*
X81040602Y-61879172D01*
X81040609Y-61879185D01*
X81128210Y-62010288D01*
X81128213Y-62010292D01*
X81239707Y-62121786D01*
X81239711Y-62121789D01*
X81370814Y-62209390D01*
X81370827Y-62209397D01*
X81465094Y-62248443D01*
X81516503Y-62269737D01*
X81581147Y-62282595D01*
X81671849Y-62300638D01*
X81733760Y-62333023D01*
X81735339Y-62334574D01*
X83866139Y-64465374D01*
X83866149Y-64465385D01*
X83870479Y-64469715D01*
X83870480Y-64469716D01*
X83982284Y-64581520D01*
X83982286Y-64581521D01*
X83982290Y-64581524D01*
X84117375Y-64659514D01*
X84119216Y-64660577D01*
X84227158Y-64689500D01*
X84227157Y-64689500D01*
X84243549Y-64693892D01*
X84271942Y-64701500D01*
X84271943Y-64701500D01*
X94162274Y-64701500D01*
X94162290Y-64701501D01*
X94169886Y-64701501D01*
X94327997Y-64701501D01*
X94328000Y-64701501D01*
X94480728Y-64660577D01*
X94530847Y-64631639D01*
X94617659Y-64581520D01*
X94729463Y-64469716D01*
X94729463Y-64469714D01*
X94739671Y-64459507D01*
X94739673Y-64459504D01*
X102997506Y-56201671D01*
X102997511Y-56201667D01*
X103007714Y-56191463D01*
X103007716Y-56191463D01*
X103119520Y-56079659D01*
X103198577Y-55942727D01*
X103239500Y-55790000D01*
X103239500Y-54121097D01*
X103259185Y-54054058D01*
X103275819Y-54033416D01*
X106187819Y-51121416D01*
X106249142Y-51087931D01*
X106318834Y-51092915D01*
X106374767Y-51134787D01*
X106399184Y-51200251D01*
X106399500Y-51209097D01*
X106399500Y-51356286D01*
X106432753Y-51566239D01*
X106498444Y-51768414D01*
X106594951Y-51957820D01*
X106719890Y-52129786D01*
X106833430Y-52243326D01*
X106866915Y-52304649D01*
X106861931Y-52374341D01*
X106820059Y-52430274D01*
X106789083Y-52447189D01*
X106657669Y-52496203D01*
X106657664Y-52496206D01*
X106542455Y-52582452D01*
X106542452Y-52582455D01*
X106456206Y-52697664D01*
X106456202Y-52697671D01*
X106405908Y-52832517D01*
X106399501Y-52892116D01*
X106399501Y-52892123D01*
X106399500Y-52892135D01*
X106399500Y-54687870D01*
X106399501Y-54687876D01*
X106405908Y-54747483D01*
X106456202Y-54882328D01*
X106456206Y-54882335D01*
X106542452Y-54997544D01*
X106542455Y-54997547D01*
X106657664Y-55083793D01*
X106657671Y-55083797D01*
X106792517Y-55134091D01*
X106792516Y-55134091D01*
X106799444Y-55134835D01*
X106852127Y-55140500D01*
X108647872Y-55140499D01*
X108707483Y-55134091D01*
X108842331Y-55083796D01*
X108957546Y-54997546D01*
X109043796Y-54882331D01*
X109094091Y-54747483D01*
X109100500Y-54687873D01*
X109100499Y-52892128D01*
X109094091Y-52832517D01*
X109043796Y-52697669D01*
X109043795Y-52697668D01*
X109043793Y-52697664D01*
X108957547Y-52582455D01*
X108957544Y-52582452D01*
X108842335Y-52496206D01*
X108842328Y-52496202D01*
X108710917Y-52447189D01*
X108654983Y-52405318D01*
X108630566Y-52339853D01*
X108645418Y-52271580D01*
X108666563Y-52243332D01*
X108780104Y-52129792D01*
X108905051Y-51957816D01*
X109001557Y-51768412D01*
X109067246Y-51566243D01*
X109100500Y-51356287D01*
X109100500Y-51143713D01*
X109067246Y-50933757D01*
X109001557Y-50731588D01*
X108905051Y-50542184D01*
X108905049Y-50542181D01*
X108905048Y-50542179D01*
X108780109Y-50370213D01*
X108629786Y-50219890D01*
X108457820Y-50094951D01*
X108457115Y-50094591D01*
X108449054Y-50090485D01*
X108398259Y-50042512D01*
X108381463Y-49974692D01*
X108403999Y-49908556D01*
X108449054Y-49869515D01*
X108457816Y-49865051D01*
X108479789Y-49849086D01*
X108629786Y-49740109D01*
X108629788Y-49740106D01*
X108629792Y-49740104D01*
X108780104Y-49589792D01*
X108780106Y-49589788D01*
X108780109Y-49589786D01*
X108905048Y-49417820D01*
X108905047Y-49417820D01*
X108905051Y-49417816D01*
X109001557Y-49228412D01*
X109067246Y-49026243D01*
X109100500Y-48816287D01*
X109100500Y-48603713D01*
X109067246Y-48393757D01*
X109001557Y-48191588D01*
X108905051Y-48002184D01*
X108905049Y-48002181D01*
X108905048Y-48002179D01*
X108780109Y-47830213D01*
X108629786Y-47679890D01*
X108457820Y-47554951D01*
X108268414Y-47458444D01*
X108268413Y-47458443D01*
X108268412Y-47458443D01*
X108066243Y-47392754D01*
X108066241Y-47392753D01*
X108066240Y-47392753D01*
X107904957Y-47367208D01*
X107856287Y-47359500D01*
X107643713Y-47359500D01*
X107595042Y-47367208D01*
X107433760Y-47392753D01*
X107231585Y-47458444D01*
X107042179Y-47554951D01*
X106870213Y-47679890D01*
X106719890Y-47830213D01*
X106594951Y-48002179D01*
X106498444Y-48191585D01*
X106432753Y-48393760D01*
X106399500Y-48603713D01*
X106399500Y-48816286D01*
X106432754Y-49026244D01*
X106432754Y-49026247D01*
X106446491Y-49068523D01*
X106448486Y-49138364D01*
X106416241Y-49194522D01*
X102273547Y-53337216D01*
X102273540Y-53337223D01*
X102270286Y-53340478D01*
X102270284Y-53340480D01*
X102158480Y-53452284D01*
X102131991Y-53498165D01*
X102079423Y-53589215D01*
X102038499Y-53741943D01*
X102038499Y-53741945D01*
X102038499Y-53910046D01*
X102038500Y-53910059D01*
X102038500Y-55410846D01*
X102018815Y-55477885D01*
X102002181Y-55498527D01*
X96012181Y-61488527D01*
X95950858Y-61522012D01*
X95881166Y-61517028D01*
X95825233Y-61475156D01*
X95800816Y-61409692D01*
X95800500Y-61400846D01*
X95800500Y-46224499D01*
X95820185Y-46157460D01*
X95872989Y-46111705D01*
X95924500Y-46100499D01*
X96097871Y-46100499D01*
X96097872Y-46100499D01*
X96157483Y-46094091D01*
X96292331Y-46043796D01*
X96407546Y-45957546D01*
X96493796Y-45842331D01*
X96544091Y-45707483D01*
X96550500Y-45647873D01*
X96550499Y-43852128D01*
X96544091Y-43792517D01*
X96542810Y-43789083D01*
X96493797Y-43657671D01*
X96493793Y-43657664D01*
X96407547Y-43542455D01*
X96407544Y-43542452D01*
X96292335Y-43456206D01*
X96292328Y-43456202D01*
X96157482Y-43405908D01*
X96157483Y-43405908D01*
X96097883Y-43399501D01*
X96097881Y-43399500D01*
X96097873Y-43399500D01*
X96097864Y-43399500D01*
X94302129Y-43399500D01*
X94302123Y-43399501D01*
X94242516Y-43405908D01*
X94107671Y-43456202D01*
X94107664Y-43456206D01*
X93992455Y-43542452D01*
X93992452Y-43542455D01*
X93906206Y-43657664D01*
X93906203Y-43657669D01*
X93857189Y-43789083D01*
X93815317Y-43845016D01*
X93749853Y-43869433D01*
X93681580Y-43854581D01*
X93653326Y-43833430D01*
X93539786Y-43719890D01*
X93367820Y-43594951D01*
X93178414Y-43498444D01*
X93178413Y-43498443D01*
X93178412Y-43498443D01*
X92976243Y-43432754D01*
X92976241Y-43432753D01*
X92976240Y-43432753D01*
X92814957Y-43407208D01*
X92766287Y-43399500D01*
X92553713Y-43399500D01*
X92505042Y-43407208D01*
X92343760Y-43432753D01*
X92141585Y-43498444D01*
X91952179Y-43594951D01*
X91780213Y-43719890D01*
X91629890Y-43870213D01*
X91504949Y-44042182D01*
X91500484Y-44050946D01*
X91452509Y-44101742D01*
X91384688Y-44118536D01*
X91318553Y-44095998D01*
X91279516Y-44050946D01*
X91275050Y-44042182D01*
X91150109Y-43870213D01*
X90999786Y-43719890D01*
X90827820Y-43594951D01*
X90638414Y-43498444D01*
X90638413Y-43498443D01*
X90638412Y-43498443D01*
X90436243Y-43432754D01*
X90436241Y-43432753D01*
X90436240Y-43432753D01*
X90274957Y-43407208D01*
X90226287Y-43399500D01*
X90013713Y-43399500D01*
X89985006Y-43404046D01*
X89803757Y-43432753D01*
X89761473Y-43446492D01*
X89691632Y-43448486D01*
X89635476Y-43416241D01*
X89456590Y-43237355D01*
X89456588Y-43237352D01*
X89337717Y-43118481D01*
X89337716Y-43118480D01*
X89250904Y-43068360D01*
X89250904Y-43068359D01*
X89250900Y-43068358D01*
X89200785Y-43039423D01*
X89048057Y-42998499D01*
X88889943Y-42998499D01*
X88882347Y-42998499D01*
X88882331Y-42998500D01*
X87182297Y-42998500D01*
X87024183Y-42998500D01*
X86871455Y-43039423D01*
X86871454Y-43039423D01*
X86871452Y-43039424D01*
X86871449Y-43039425D01*
X86821336Y-43068359D01*
X86821335Y-43068360D01*
X86777929Y-43093420D01*
X86734525Y-43118479D01*
X86734522Y-43118481D01*
X86114131Y-43738873D01*
X86052808Y-43772358D01*
X85983116Y-43767374D01*
X85938769Y-43738873D01*
X85919786Y-43719890D01*
X85747820Y-43594951D01*
X85558414Y-43498444D01*
X85558413Y-43498443D01*
X85558412Y-43498443D01*
X85356243Y-43432754D01*
X85356241Y-43432753D01*
X85356240Y-43432753D01*
X85194957Y-43407208D01*
X85146287Y-43399500D01*
X84933713Y-43399500D01*
X84885042Y-43407208D01*
X84723760Y-43432753D01*
X84521585Y-43498444D01*
X84332179Y-43594951D01*
X84160213Y-43719890D01*
X84009890Y-43870213D01*
X83884949Y-44042182D01*
X83880484Y-44050946D01*
X83832509Y-44101742D01*
X83764688Y-44118536D01*
X83698553Y-44095998D01*
X83659516Y-44050946D01*
X83655050Y-44042182D01*
X83530109Y-43870213D01*
X83379786Y-43719890D01*
X83207820Y-43594951D01*
X83018414Y-43498444D01*
X83018413Y-43498443D01*
X83018412Y-43498443D01*
X82816243Y-43432754D01*
X82816241Y-43432753D01*
X82816240Y-43432753D01*
X82654957Y-43407208D01*
X82606287Y-43399500D01*
X82393713Y-43399500D01*
X82345042Y-43407208D01*
X82183760Y-43432753D01*
X81981585Y-43498444D01*
X81792179Y-43594951D01*
X81620213Y-43719890D01*
X81469890Y-43870213D01*
X81344949Y-44042182D01*
X81340484Y-44050946D01*
X81292509Y-44101742D01*
X81224688Y-44118536D01*
X81158553Y-44095998D01*
X81119516Y-44050946D01*
X81115050Y-44042182D01*
X80990109Y-43870213D01*
X80839786Y-43719890D01*
X80667820Y-43594951D01*
X80478414Y-43498444D01*
X80478413Y-43498443D01*
X80478412Y-43498443D01*
X80276243Y-43432754D01*
X80276241Y-43432753D01*
X80276240Y-43432753D01*
X80114957Y-43407208D01*
X80066287Y-43399500D01*
X79853713Y-43399500D01*
X79805042Y-43407208D01*
X79643760Y-43432753D01*
X79441585Y-43498444D01*
X79252179Y-43594951D01*
X79080213Y-43719890D01*
X78929890Y-43870213D01*
X78804949Y-44042182D01*
X78800484Y-44050946D01*
X78752509Y-44101742D01*
X78684688Y-44118536D01*
X78618553Y-44095998D01*
X78579516Y-44050946D01*
X78575050Y-44042182D01*
X78450109Y-43870213D01*
X78299786Y-43719890D01*
X78127820Y-43594951D01*
X77938414Y-43498444D01*
X77938413Y-43498443D01*
X77938412Y-43498443D01*
X77736243Y-43432754D01*
X77736241Y-43432753D01*
X77736240Y-43432753D01*
X77574957Y-43407208D01*
X77526287Y-43399500D01*
X77313713Y-43399500D01*
X77265042Y-43407208D01*
X77103760Y-43432753D01*
X76901585Y-43498444D01*
X76712179Y-43594951D01*
X76540213Y-43719890D01*
X76389890Y-43870213D01*
X76264951Y-44042179D01*
X76168444Y-44231585D01*
X76102753Y-44433760D01*
X76069500Y-44643713D01*
X65600000Y-44643713D01*
X65600000Y-41124500D01*
X65619685Y-41057461D01*
X65672489Y-41011706D01*
X65724000Y-41000500D01*
X110375500Y-41000500D01*
X110442539Y-41020185D01*
G37*
%TD.AperFunction*%
%TD*%
M02*
