%TF.GenerationSoftware,KiCad,Pcbnew,9.0.3-9.0.3-0~ubuntu24.04.1*%
%TF.CreationDate,2025-09-08T16:14:00+01:00*%
%TF.ProjectId,pcb,7063622e-6b69-4636-9164-5f7063625858,rev?*%
%TF.SameCoordinates,Original*%
%TF.FileFunction,Paste,Top*%
%TF.FilePolarity,Positive*%
%FSLAX46Y46*%
G04 Gerber Fmt 4.6, Leading zero omitted, Abs format (unit mm)*
G04 Created by KiCad (PCBNEW 9.0.3-9.0.3-0~ubuntu24.04.1) date 2025-09-08 16:14:00*
%MOMM*%
%LPD*%
G01*
G04 APERTURE LIST*
G04 Aperture macros list*
%AMRoundRect*
0 Rectangle with rounded corners*
0 $1 Rounding radius*
0 $2 $3 $4 $5 $6 $7 $8 $9 X,Y pos of 4 corners*
0 Add a 4 corners polygon primitive as box body*
4,1,4,$2,$3,$4,$5,$6,$7,$8,$9,$2,$3,0*
0 Add four circle primitives for the rounded corners*
1,1,$1+$1,$2,$3*
1,1,$1+$1,$4,$5*
1,1,$1+$1,$6,$7*
1,1,$1+$1,$8,$9*
0 Add four rect primitives between the rounded corners*
20,1,$1+$1,$2,$3,$4,$5,0*
20,1,$1+$1,$4,$5,$6,$7,0*
20,1,$1+$1,$6,$7,$8,$9,0*
20,1,$1+$1,$8,$9,$2,$3,0*%
G04 Aperture macros list end*
%ADD10RoundRect,0.237500X0.300000X0.237500X-0.300000X0.237500X-0.300000X-0.237500X0.300000X-0.237500X0*%
%ADD11RoundRect,0.237500X-0.300000X-0.237500X0.300000X-0.237500X0.300000X0.237500X-0.300000X0.237500X0*%
%ADD12RoundRect,0.237500X0.287500X0.237500X-0.287500X0.237500X-0.287500X-0.237500X0.287500X-0.237500X0*%
%ADD13RoundRect,0.237500X0.237500X-0.250000X0.237500X0.250000X-0.237500X0.250000X-0.237500X-0.250000X0*%
%ADD14RoundRect,0.237500X-0.287500X-0.237500X0.287500X-0.237500X0.287500X0.237500X-0.287500X0.237500X0*%
%ADD15RoundRect,0.150000X0.512500X0.150000X-0.512500X0.150000X-0.512500X-0.150000X0.512500X-0.150000X0*%
%ADD16RoundRect,0.200000X-0.200000X-0.275000X0.200000X-0.275000X0.200000X0.275000X-0.200000X0.275000X0*%
%ADD17R,1.140000X1.470000*%
%ADD18RoundRect,0.237500X-0.237500X0.300000X-0.237500X-0.300000X0.237500X-0.300000X0.237500X0.300000X0*%
%ADD19R,1.200000X1.200000*%
%ADD20R,1.500000X1.600000*%
%ADD21RoundRect,0.237500X0.250000X0.237500X-0.250000X0.237500X-0.250000X-0.237500X0.250000X-0.237500X0*%
%ADD22RoundRect,0.075000X-0.700000X-0.075000X0.700000X-0.075000X0.700000X0.075000X-0.700000X0.075000X0*%
%ADD23RoundRect,0.075000X-0.075000X-0.700000X0.075000X-0.700000X0.075000X0.700000X-0.075000X0.700000X0*%
%ADD24RoundRect,0.250000X-1.000000X-0.650000X1.000000X-0.650000X1.000000X0.650000X-1.000000X0.650000X0*%
%ADD25RoundRect,0.237500X0.237500X-0.300000X0.237500X0.300000X-0.237500X0.300000X-0.237500X-0.300000X0*%
%ADD26RoundRect,0.175000X-0.425000X0.175000X-0.425000X-0.175000X0.425000X-0.175000X0.425000X0.175000X0*%
%ADD27RoundRect,0.190000X0.410000X-0.190000X0.410000X0.190000X-0.410000X0.190000X-0.410000X-0.190000X0*%
%ADD28RoundRect,0.200000X0.400000X-0.200000X0.400000X0.200000X-0.400000X0.200000X-0.400000X-0.200000X0*%
%ADD29RoundRect,0.175000X0.425000X-0.175000X0.425000X0.175000X-0.425000X0.175000X-0.425000X-0.175000X0*%
%ADD30RoundRect,0.190000X-0.410000X0.190000X-0.410000X-0.190000X0.410000X-0.190000X0.410000X0.190000X0*%
%ADD31RoundRect,0.200000X-0.400000X0.200000X-0.400000X-0.200000X0.400000X-0.200000X0.400000X0.200000X0*%
%ADD32O,1.700000X1.100000*%
%ADD33RoundRect,0.237500X-0.250000X-0.237500X0.250000X-0.237500X0.250000X0.237500X-0.250000X0.237500X0*%
G04 APERTURE END LIST*
D10*
%TO.C,C10*%
X81762500Y-54300000D03*
X80037500Y-54300000D03*
%TD*%
D11*
%TO.C,C6*%
X94587500Y-64500000D03*
X96312500Y-64500000D03*
%TD*%
D10*
%TO.C,C3*%
X81450000Y-60250000D03*
X79725000Y-60250000D03*
%TD*%
%TO.C,C9*%
X84312500Y-64500000D03*
X82587500Y-64500000D03*
%TD*%
D11*
%TO.C,C5*%
X95700000Y-53000000D03*
X97425000Y-53000000D03*
%TD*%
D10*
%TO.C,C7*%
X80362500Y-58700000D03*
X78637500Y-58700000D03*
%TD*%
D12*
%TO.C,D1*%
X96850000Y-80300000D03*
X95100000Y-80300000D03*
%TD*%
D13*
%TO.C,R13*%
X88000000Y-78912500D03*
X88000000Y-77087500D03*
%TD*%
D14*
%TO.C,D2*%
X85925000Y-69600000D03*
X87675000Y-69600000D03*
%TD*%
D15*
%TO.C,U5*%
X83175000Y-84200000D03*
X83175000Y-83250000D03*
X83175000Y-82300000D03*
X80900000Y-82300000D03*
X80900000Y-84200000D03*
%TD*%
D10*
%TO.C,C17*%
X83800000Y-76800000D03*
X82075000Y-76800000D03*
%TD*%
D16*
%TO.C,R7*%
X71675000Y-61100000D03*
X73325000Y-61100000D03*
%TD*%
D13*
%TO.C,R12*%
X77700000Y-65712500D03*
X77700000Y-63887500D03*
%TD*%
D17*
%TO.C,FB1*%
X72810000Y-88900000D03*
X74590000Y-88900000D03*
%TD*%
D18*
%TO.C,C1*%
X96100000Y-89700000D03*
X96100000Y-91425000D03*
%TD*%
D19*
%TO.C,RV1*%
X69900000Y-46600000D03*
D20*
X73150000Y-47600000D03*
D19*
X69900000Y-48600000D03*
%TD*%
D18*
%TO.C,C16*%
X79000000Y-83400000D03*
X79000000Y-85125000D03*
%TD*%
D12*
%TO.C,L3*%
X89875000Y-84200000D03*
X88125000Y-84200000D03*
%TD*%
D13*
%TO.C,R8*%
X82499000Y-94313500D03*
X82499000Y-92488500D03*
%TD*%
%TO.C,R5*%
X87800000Y-68025000D03*
X87800000Y-66200000D03*
%TD*%
D21*
%TO.C,R1*%
X99700000Y-95500000D03*
X97875000Y-95500000D03*
%TD*%
%TO.C,R4*%
X93100000Y-80300000D03*
X91275000Y-80300000D03*
%TD*%
D14*
%TO.C,L1*%
X100050000Y-87400000D03*
X101800000Y-87400000D03*
%TD*%
D22*
%TO.C,U2*%
X83775000Y-54675000D03*
X83775000Y-55175000D03*
X83775000Y-55675000D03*
X83775000Y-56175000D03*
X83775000Y-56675000D03*
X83775000Y-57175000D03*
X83775000Y-57675000D03*
X83775000Y-58175000D03*
X83775000Y-58675000D03*
X83775000Y-59175000D03*
X83775000Y-59675000D03*
X83775000Y-60175000D03*
X83775000Y-60675000D03*
X83775000Y-61175000D03*
X83775000Y-61675000D03*
X83775000Y-62175000D03*
D23*
X85700000Y-64100000D03*
X86200000Y-64100000D03*
X86700000Y-64100000D03*
X87200000Y-64100000D03*
X87700000Y-64100000D03*
X88200000Y-64100000D03*
X88700000Y-64100000D03*
X89200000Y-64100000D03*
X89700000Y-64100000D03*
X90200000Y-64100000D03*
X90700000Y-64100000D03*
X91200000Y-64100000D03*
X91700000Y-64100000D03*
X92200000Y-64100000D03*
X92700000Y-64100000D03*
X93200000Y-64100000D03*
D22*
X95125000Y-62175000D03*
X95125000Y-61675000D03*
X95125000Y-61175000D03*
X95125000Y-60675000D03*
X95125000Y-60175000D03*
X95125000Y-59675000D03*
X95125000Y-59175000D03*
X95125000Y-58675000D03*
X95125000Y-58175000D03*
X95125000Y-57675000D03*
X95125000Y-57175000D03*
X95125000Y-56675000D03*
X95125000Y-56175000D03*
X95125000Y-55675000D03*
X95125000Y-55175000D03*
X95125000Y-54675000D03*
D23*
X93200000Y-52750000D03*
X92700000Y-52750000D03*
X92200000Y-52750000D03*
X91700000Y-52750000D03*
X91200000Y-52750000D03*
X90700000Y-52750000D03*
X90200000Y-52750000D03*
X89700000Y-52750000D03*
X89200000Y-52750000D03*
X88700000Y-52750000D03*
X88200000Y-52750000D03*
X87700000Y-52750000D03*
X87200000Y-52750000D03*
X86700000Y-52750000D03*
X86200000Y-52750000D03*
X85700000Y-52750000D03*
%TD*%
D15*
%TO.C,U3*%
X82374000Y-90688500D03*
X82374000Y-89738500D03*
X82374000Y-88788500D03*
X80099000Y-88788500D03*
X80099000Y-90688500D03*
%TD*%
D24*
%TO.C,D5*%
X81000000Y-79400000D03*
X85000000Y-79400000D03*
%TD*%
D18*
%TO.C,C12*%
X77799000Y-89026000D03*
X77799000Y-90751000D03*
%TD*%
D25*
%TO.C,C4*%
X84500000Y-50500000D03*
X84500000Y-48775000D03*
%TD*%
D13*
%TO.C,R10*%
X74600000Y-86812500D03*
X74600000Y-84987500D03*
%TD*%
D26*
%TO.C,J1*%
X70480000Y-88280000D03*
D27*
X70480000Y-90300000D03*
D28*
X70480000Y-91530000D03*
D29*
X70480000Y-89280000D03*
D30*
X70480000Y-87260000D03*
D31*
X70480000Y-86030000D03*
D32*
X70400000Y-84460000D03*
X66600000Y-84460000D03*
X70400000Y-93100000D03*
X66600000Y-93100000D03*
%TD*%
D18*
%TO.C,C11*%
X84799000Y-88826000D03*
X84799000Y-90551000D03*
%TD*%
D33*
%TO.C,R2*%
X97887500Y-93500000D03*
X99712500Y-93500000D03*
%TD*%
D12*
%TO.C,D3*%
X80674000Y-94388500D03*
X78924000Y-94388500D03*
%TD*%
D11*
%TO.C,C8*%
X91637500Y-67650000D03*
X93362500Y-67650000D03*
%TD*%
D15*
%TO.C,U1*%
X100400000Y-91500000D03*
X100400000Y-90550000D03*
X100400000Y-89600000D03*
X98125000Y-89600000D03*
X98125000Y-91500000D03*
%TD*%
D21*
%TO.C,R11*%
X79512500Y-67400000D03*
X77687500Y-67400000D03*
%TD*%
D18*
%TO.C,C2*%
X103400000Y-89900000D03*
X103400000Y-91625000D03*
%TD*%
D21*
%TO.C,R9*%
X80711500Y-92588500D03*
X78886500Y-92588500D03*
%TD*%
M02*
