%TF.GenerationSoftware,KiCad,Pcbnew,9.0.2-9.0.2-0~ubuntu22.04.1*%
%TF.CreationDate,2025-06-30T18:31:47+01:00*%
%TF.ProjectId,pcb,7063622e-6b69-4636-9164-5f7063625858,rev?*%
%TF.SameCoordinates,Original*%
%TF.FileFunction,Soldermask,Top*%
%TF.FilePolarity,Negative*%
%FSLAX46Y46*%
G04 Gerber Fmt 4.6, Leading zero omitted, Abs format (unit mm)*
G04 Created by KiCad (PCBNEW 9.0.2-9.0.2-0~ubuntu22.04.1) date 2025-06-30 18:31:47*
%MOMM*%
%LPD*%
G01*
G04 APERTURE LIST*
G04 Aperture macros list*
%AMRoundRect*
0 Rectangle with rounded corners*
0 $1 Rounding radius*
0 $2 $3 $4 $5 $6 $7 $8 $9 X,Y pos of 4 corners*
0 Add a 4 corners polygon primitive as box body*
4,1,4,$2,$3,$4,$5,$6,$7,$8,$9,$2,$3,0*
0 Add four circle primitives for the rounded corners*
1,1,$1+$1,$2,$3*
1,1,$1+$1,$4,$5*
1,1,$1+$1,$6,$7*
1,1,$1+$1,$8,$9*
0 Add four rect primitives between the rounded corners*
20,1,$1+$1,$2,$3,$4,$5,0*
20,1,$1+$1,$4,$5,$6,$7,0*
20,1,$1+$1,$6,$7,$8,$9,0*
20,1,$1+$1,$8,$9,$2,$3,0*%
G04 Aperture macros list end*
%ADD10C,2.200000*%
%ADD11RoundRect,0.237500X-0.237500X0.300000X-0.237500X-0.300000X0.237500X-0.300000X0.237500X0.300000X0*%
%ADD12RoundRect,0.237500X0.300000X0.237500X-0.300000X0.237500X-0.300000X-0.237500X0.300000X-0.237500X0*%
%ADD13RoundRect,0.237500X-0.300000X-0.237500X0.300000X-0.237500X0.300000X0.237500X-0.300000X0.237500X0*%
%ADD14RoundRect,0.237500X0.237500X-0.287500X0.237500X0.287500X-0.237500X0.287500X-0.237500X-0.287500X0*%
%ADD15RoundRect,0.200000X0.200000X0.275000X-0.200000X0.275000X-0.200000X-0.275000X0.200000X-0.275000X0*%
%ADD16R,1.700000X1.700000*%
%ADD17C,1.700000*%
%ADD18C,1.600000*%
%ADD19RoundRect,0.237500X0.237500X-0.250000X0.237500X0.250000X-0.237500X0.250000X-0.237500X-0.250000X0*%
%ADD20RoundRect,0.237500X0.250000X0.237500X-0.250000X0.237500X-0.250000X-0.237500X0.250000X-0.237500X0*%
%ADD21RoundRect,0.237500X-0.287500X-0.237500X0.287500X-0.237500X0.287500X0.237500X-0.287500X0.237500X0*%
%ADD22RoundRect,0.075000X-0.700000X-0.075000X0.700000X-0.075000X0.700000X0.075000X-0.700000X0.075000X0*%
%ADD23RoundRect,0.075000X-0.075000X-0.700000X0.075000X-0.700000X0.075000X0.700000X-0.075000X0.700000X0*%
%ADD24RoundRect,0.150000X0.512500X0.150000X-0.512500X0.150000X-0.512500X-0.150000X0.512500X-0.150000X0*%
%ADD25RoundRect,0.250000X-0.625000X0.350000X-0.625000X-0.350000X0.625000X-0.350000X0.625000X0.350000X0*%
%ADD26O,1.750000X1.200000*%
%ADD27RoundRect,0.237500X0.237500X-0.300000X0.237500X0.300000X-0.237500X0.300000X-0.237500X-0.300000X0*%
%ADD28RoundRect,0.175000X-0.425000X0.175000X-0.425000X-0.175000X0.425000X-0.175000X0.425000X0.175000X0*%
%ADD29RoundRect,0.190000X0.410000X-0.190000X0.410000X0.190000X-0.410000X0.190000X-0.410000X-0.190000X0*%
%ADD30RoundRect,0.200000X0.400000X-0.200000X0.400000X0.200000X-0.400000X0.200000X-0.400000X-0.200000X0*%
%ADD31RoundRect,0.175000X0.425000X-0.175000X0.425000X0.175000X-0.425000X0.175000X-0.425000X-0.175000X0*%
%ADD32RoundRect,0.190000X-0.410000X0.190000X-0.410000X-0.190000X0.410000X-0.190000X0.410000X0.190000X0*%
%ADD33RoundRect,0.200000X-0.400000X0.200000X-0.400000X-0.200000X0.400000X-0.200000X0.400000X0.200000X0*%
%ADD34O,1.700000X1.100000*%
%ADD35RoundRect,0.237500X-0.250000X-0.237500X0.250000X-0.237500X0.250000X0.237500X-0.250000X0.237500X0*%
%ADD36RoundRect,0.237500X0.287500X0.237500X-0.287500X0.237500X-0.287500X-0.237500X0.287500X-0.237500X0*%
G04 APERTURE END LIST*
D10*
%TO.C,REF\u002A\u002A*%
X109000000Y-96500000D03*
%TD*%
D11*
%TO.C,C8*%
X88100000Y-71437500D03*
X88100000Y-73162500D03*
%TD*%
D12*
%TO.C,C10*%
X78862500Y-58000000D03*
X77137500Y-58000000D03*
%TD*%
D13*
%TO.C,C6*%
X90887500Y-69250000D03*
X92612500Y-69250000D03*
%TD*%
D12*
%TO.C,C3*%
X77750000Y-65000000D03*
X76025000Y-65000000D03*
%TD*%
%TO.C,C9*%
X80612500Y-69250000D03*
X78887500Y-69250000D03*
%TD*%
D13*
%TO.C,C5*%
X92000000Y-57750000D03*
X93725000Y-57750000D03*
%TD*%
D12*
%TO.C,C7*%
X77162500Y-62500000D03*
X75437500Y-62500000D03*
%TD*%
D14*
%TO.C,D1*%
X101275000Y-79500000D03*
X101275000Y-77750000D03*
%TD*%
D10*
%TO.C,2.2mm*%
X67000000Y-42500000D03*
%TD*%
D14*
%TO.C,D2*%
X82900000Y-80050000D03*
X82900000Y-78300000D03*
%TD*%
D15*
%TO.C,R7*%
X72075000Y-65000000D03*
X70425000Y-65000000D03*
%TD*%
D16*
%TO.C,J5*%
X71400000Y-76640000D03*
D17*
X71400000Y-74100000D03*
X71400000Y-71560000D03*
%TD*%
D10*
%TO.C,REF\u002A\u002A*%
X67000000Y-96500000D03*
%TD*%
D11*
%TO.C,C1*%
X96100000Y-89700000D03*
X96100000Y-91425000D03*
%TD*%
D16*
%TO.C,J7*%
X107750000Y-53790000D03*
D17*
X107750000Y-51250000D03*
X107750000Y-48710000D03*
%TD*%
D18*
%TO.C,R6*%
X71250000Y-59250000D03*
X71250000Y-56250000D03*
%TD*%
D16*
%TO.C,J4*%
X107750000Y-82790000D03*
D17*
X107750000Y-80250000D03*
X107750000Y-77710000D03*
X107750000Y-75170000D03*
%TD*%
D19*
%TO.C,R8*%
X81025000Y-94387500D03*
X81025000Y-92562500D03*
%TD*%
D16*
%TO.C,SW1*%
X96500000Y-77500000D03*
D17*
X96500000Y-74960000D03*
%TD*%
D19*
%TO.C,R5*%
X82900000Y-76525000D03*
X82900000Y-74700000D03*
%TD*%
D20*
%TO.C,R1*%
X99700000Y-95500000D03*
X97875000Y-95500000D03*
%TD*%
D19*
%TO.C,R4*%
X101275000Y-75750000D03*
X101275000Y-73925000D03*
%TD*%
D21*
%TO.C,L1*%
X100050000Y-87400000D03*
X101800000Y-87400000D03*
%TD*%
D16*
%TO.C,J9*%
X86750000Y-75750000D03*
%TD*%
D22*
%TO.C,U2*%
X80075000Y-59425000D03*
X80075000Y-59925000D03*
X80075000Y-60425000D03*
X80075000Y-60925000D03*
X80075000Y-61425000D03*
X80075000Y-61925000D03*
X80075000Y-62425000D03*
X80075000Y-62925000D03*
X80075000Y-63425000D03*
X80075000Y-63925000D03*
X80075000Y-64425000D03*
X80075000Y-64925000D03*
X80075000Y-65425000D03*
X80075000Y-65925000D03*
X80075000Y-66425000D03*
X80075000Y-66925000D03*
D23*
X82000000Y-68850000D03*
X82500000Y-68850000D03*
X83000000Y-68850000D03*
X83500000Y-68850000D03*
X84000000Y-68850000D03*
X84500000Y-68850000D03*
X85000000Y-68850000D03*
X85500000Y-68850000D03*
X86000000Y-68850000D03*
X86500000Y-68850000D03*
X87000000Y-68850000D03*
X87500000Y-68850000D03*
X88000000Y-68850000D03*
X88500000Y-68850000D03*
X89000000Y-68850000D03*
X89500000Y-68850000D03*
D22*
X91425000Y-66925000D03*
X91425000Y-66425000D03*
X91425000Y-65925000D03*
X91425000Y-65425000D03*
X91425000Y-64925000D03*
X91425000Y-64425000D03*
X91425000Y-63925000D03*
X91425000Y-63425000D03*
X91425000Y-62925000D03*
X91425000Y-62425000D03*
X91425000Y-61925000D03*
X91425000Y-61425000D03*
X91425000Y-60925000D03*
X91425000Y-60425000D03*
X91425000Y-59925000D03*
X91425000Y-59425000D03*
D23*
X89500000Y-57500000D03*
X89000000Y-57500000D03*
X88500000Y-57500000D03*
X88000000Y-57500000D03*
X87500000Y-57500000D03*
X87000000Y-57500000D03*
X86500000Y-57500000D03*
X86000000Y-57500000D03*
X85500000Y-57500000D03*
X85000000Y-57500000D03*
X84500000Y-57500000D03*
X84000000Y-57500000D03*
X83500000Y-57500000D03*
X83000000Y-57500000D03*
X82500000Y-57500000D03*
X82000000Y-57500000D03*
%TD*%
D24*
%TO.C,U3*%
X80900000Y-90762500D03*
X80900000Y-89812500D03*
X80900000Y-88862500D03*
X78625000Y-88862500D03*
X78625000Y-90762500D03*
%TD*%
D11*
%TO.C,C12*%
X76325000Y-89100000D03*
X76325000Y-90825000D03*
%TD*%
D25*
%TO.C,BT1*%
X88176000Y-91074000D03*
D26*
X88176000Y-93074000D03*
%TD*%
D16*
%TO.C,J6*%
X107750000Y-68580000D03*
D17*
X107750000Y-66040000D03*
X107750000Y-63500000D03*
X107750000Y-60960000D03*
%TD*%
D27*
%TO.C,C4*%
X82000000Y-54862500D03*
X82000000Y-53137500D03*
%TD*%
D28*
%TO.C,J1*%
X71500000Y-88250000D03*
D29*
X71500000Y-90270000D03*
D30*
X71500000Y-91500000D03*
D31*
X71500000Y-89250000D03*
D32*
X71500000Y-87230000D03*
D33*
X71500000Y-86000000D03*
D34*
X71420000Y-84430000D03*
X67620000Y-84430000D03*
X71420000Y-93070000D03*
X67620000Y-93070000D03*
%TD*%
D11*
%TO.C,C11*%
X83325000Y-88900000D03*
X83325000Y-90625000D03*
%TD*%
D10*
%TO.C,REF\u002A\u002A*%
X109000000Y-42500000D03*
%TD*%
D35*
%TO.C,R2*%
X97887500Y-93500000D03*
X99712500Y-93500000D03*
%TD*%
D36*
%TO.C,D3*%
X79200000Y-94462500D03*
X77450000Y-94462500D03*
%TD*%
D24*
%TO.C,U1*%
X100400000Y-91500000D03*
X100400000Y-90550000D03*
X100400000Y-89600000D03*
X98125000Y-89600000D03*
X98125000Y-91500000D03*
%TD*%
D11*
%TO.C,C2*%
X103400000Y-89900000D03*
X103400000Y-91625000D03*
%TD*%
D20*
%TO.C,R9*%
X79237500Y-92662500D03*
X77412500Y-92662500D03*
%TD*%
D16*
%TO.C,J3*%
X95200000Y-44750000D03*
D17*
X92660000Y-44750000D03*
X90120000Y-44750000D03*
X87580000Y-44750000D03*
X85040000Y-44750000D03*
X82500000Y-44750000D03*
X79960000Y-44750000D03*
X77420000Y-44750000D03*
%TD*%
M02*
