%TF.GenerationSoftware,KiCad,Pcbnew,9.0.4-9.0.4-0~ubuntu22.04.1*%
%TF.CreationDate,2025-09-21T14:17:20+01:00*%
%TF.ProjectId,pcb,7063622e-6b69-4636-9164-5f7063625858,rev?*%
%TF.SameCoordinates,Original*%
%TF.FileFunction,Legend,Top*%
%TF.FilePolarity,Positive*%
%FSLAX46Y46*%
G04 Gerber Fmt 4.6, Leading zero omitted, Abs format (unit mm)*
G04 Created by KiCad (PCBNEW 9.0.4-9.0.4-0~ubuntu22.04.1) date 2025-09-21 14:17:20*
%MOMM*%
%LPD*%
G01*
G04 APERTURE LIST*
G04 Aperture macros list*
%AMRoundRect*
0 Rectangle with rounded corners*
0 $1 Rounding radius*
0 $2 $3 $4 $5 $6 $7 $8 $9 X,Y pos of 4 corners*
0 Add a 4 corners polygon primitive as box body*
4,1,4,$2,$3,$4,$5,$6,$7,$8,$9,$2,$3,0*
0 Add four circle primitives for the rounded corners*
1,1,$1+$1,$2,$3*
1,1,$1+$1,$4,$5*
1,1,$1+$1,$6,$7*
1,1,$1+$1,$8,$9*
0 Add four rect primitives between the rounded corners*
20,1,$1+$1,$2,$3,$4,$5,0*
20,1,$1+$1,$4,$5,$6,$7,0*
20,1,$1+$1,$6,$7,$8,$9,0*
20,1,$1+$1,$8,$9,$2,$3,0*%
G04 Aperture macros list end*
%ADD10C,0.093750*%
%ADD11C,0.150000*%
%ADD12C,0.100000*%
%ADD13C,0.120000*%
%ADD14RoundRect,0.237500X0.300000X0.237500X-0.300000X0.237500X-0.300000X-0.237500X0.300000X-0.237500X0*%
%ADD15RoundRect,0.237500X-0.300000X-0.237500X0.300000X-0.237500X0.300000X0.237500X-0.300000X0.237500X0*%
%ADD16RoundRect,0.237500X-0.237500X0.250000X-0.237500X-0.250000X0.237500X-0.250000X0.237500X0.250000X0*%
%ADD17RoundRect,0.237500X0.237500X-0.250000X0.237500X0.250000X-0.237500X0.250000X-0.237500X-0.250000X0*%
%ADD18RoundRect,0.237500X0.287500X0.237500X-0.287500X0.237500X-0.287500X-0.237500X0.287500X-0.237500X0*%
%ADD19R,1.700000X1.700000*%
%ADD20C,1.700000*%
%ADD21RoundRect,0.237500X0.237500X-0.300000X0.237500X0.300000X-0.237500X0.300000X-0.237500X-0.300000X0*%
%ADD22C,2.200000*%
%ADD23RoundRect,0.237500X-0.287500X-0.237500X0.287500X-0.237500X0.287500X0.237500X-0.287500X0.237500X0*%
%ADD24RoundRect,0.150000X0.512500X0.150000X-0.512500X0.150000X-0.512500X-0.150000X0.512500X-0.150000X0*%
%ADD25RoundRect,0.200000X-0.200000X-0.275000X0.200000X-0.275000X0.200000X0.275000X-0.200000X0.275000X0*%
%ADD26RoundRect,0.225000X1.775000X0.525000X-1.775000X0.525000X-1.775000X-0.525000X1.775000X-0.525000X0*%
%ADD27RoundRect,0.102000X-0.570000X-0.735000X0.570000X-0.735000X0.570000X0.735000X-0.570000X0.735000X0*%
%ADD28RoundRect,0.237500X-0.237500X0.300000X-0.237500X-0.300000X0.237500X-0.300000X0.237500X0.300000X0*%
%ADD29R,1.200000X1.200000*%
%ADD30R,1.500000X1.600000*%
%ADD31C,1.600000*%
%ADD32RoundRect,0.237500X0.250000X0.237500X-0.250000X0.237500X-0.250000X-0.237500X0.250000X-0.237500X0*%
%ADD33RoundRect,0.075000X-0.700000X-0.075000X0.700000X-0.075000X0.700000X0.075000X-0.700000X0.075000X0*%
%ADD34RoundRect,0.075000X-0.075000X-0.700000X0.075000X-0.700000X0.075000X0.700000X-0.075000X0.700000X0*%
%ADD35RoundRect,0.250000X-1.000000X-0.650000X1.000000X-0.650000X1.000000X0.650000X-1.000000X0.650000X0*%
%ADD36RoundRect,0.250000X-0.625000X0.350000X-0.625000X-0.350000X0.625000X-0.350000X0.625000X0.350000X0*%
%ADD37O,1.750000X1.200000*%
%ADD38RoundRect,0.175000X-0.425000X0.175000X-0.425000X-0.175000X0.425000X-0.175000X0.425000X0.175000X0*%
%ADD39RoundRect,0.190000X0.410000X-0.190000X0.410000X0.190000X-0.410000X0.190000X-0.410000X-0.190000X0*%
%ADD40RoundRect,0.200000X0.400000X-0.200000X0.400000X0.200000X-0.400000X0.200000X-0.400000X-0.200000X0*%
%ADD41RoundRect,0.175000X0.425000X-0.175000X0.425000X0.175000X-0.425000X0.175000X-0.425000X-0.175000X0*%
%ADD42RoundRect,0.190000X-0.410000X0.190000X-0.410000X-0.190000X0.410000X-0.190000X0.410000X0.190000X0*%
%ADD43RoundRect,0.200000X-0.400000X0.200000X-0.400000X-0.200000X0.400000X-0.200000X0.400000X0.200000X0*%
%ADD44O,1.700000X1.100000*%
%ADD45RoundRect,0.237500X-0.250000X-0.237500X0.250000X-0.237500X0.250000X0.237500X-0.250000X0.237500X0*%
G04 APERTURE END LIST*
D10*
X101446428Y-46342089D02*
X101446428Y-45592089D01*
X101446428Y-45592089D02*
X101624999Y-45592089D01*
X101624999Y-45592089D02*
X101732142Y-45627803D01*
X101732142Y-45627803D02*
X101803571Y-45699232D01*
X101803571Y-45699232D02*
X101839285Y-45770660D01*
X101839285Y-45770660D02*
X101874999Y-45913517D01*
X101874999Y-45913517D02*
X101874999Y-46020660D01*
X101874999Y-46020660D02*
X101839285Y-46163517D01*
X101839285Y-46163517D02*
X101803571Y-46234946D01*
X101803571Y-46234946D02*
X101732142Y-46306375D01*
X101732142Y-46306375D02*
X101624999Y-46342089D01*
X101624999Y-46342089D02*
X101446428Y-46342089D01*
X102339285Y-45592089D02*
X102410714Y-45592089D01*
X102410714Y-45592089D02*
X102482142Y-45627803D01*
X102482142Y-45627803D02*
X102517857Y-45663517D01*
X102517857Y-45663517D02*
X102553571Y-45734946D01*
X102553571Y-45734946D02*
X102589285Y-45877803D01*
X102589285Y-45877803D02*
X102589285Y-46056375D01*
X102589285Y-46056375D02*
X102553571Y-46199232D01*
X102553571Y-46199232D02*
X102517857Y-46270660D01*
X102517857Y-46270660D02*
X102482142Y-46306375D01*
X102482142Y-46306375D02*
X102410714Y-46342089D01*
X102410714Y-46342089D02*
X102339285Y-46342089D01*
X102339285Y-46342089D02*
X102267857Y-46306375D01*
X102267857Y-46306375D02*
X102232142Y-46270660D01*
X102232142Y-46270660D02*
X102196428Y-46199232D01*
X102196428Y-46199232D02*
X102160714Y-46056375D01*
X102160714Y-46056375D02*
X102160714Y-45877803D01*
X102160714Y-45877803D02*
X102196428Y-45734946D01*
X102196428Y-45734946D02*
X102232142Y-45663517D01*
X102232142Y-45663517D02*
X102267857Y-45627803D01*
X102267857Y-45627803D02*
X102339285Y-45592089D01*
X93746428Y-46342089D02*
X93746428Y-45592089D01*
X93746428Y-45592089D02*
X93924999Y-45592089D01*
X93924999Y-45592089D02*
X94032142Y-45627803D01*
X94032142Y-45627803D02*
X94103571Y-45699232D01*
X94103571Y-45699232D02*
X94139285Y-45770660D01*
X94139285Y-45770660D02*
X94174999Y-45913517D01*
X94174999Y-45913517D02*
X94174999Y-46020660D01*
X94174999Y-46020660D02*
X94139285Y-46163517D01*
X94139285Y-46163517D02*
X94103571Y-46234946D01*
X94103571Y-46234946D02*
X94032142Y-46306375D01*
X94032142Y-46306375D02*
X93924999Y-46342089D01*
X93924999Y-46342089D02*
X93746428Y-46342089D01*
X94424999Y-45592089D02*
X94889285Y-45592089D01*
X94889285Y-45592089D02*
X94639285Y-45877803D01*
X94639285Y-45877803D02*
X94746428Y-45877803D01*
X94746428Y-45877803D02*
X94817857Y-45913517D01*
X94817857Y-45913517D02*
X94853571Y-45949232D01*
X94853571Y-45949232D02*
X94889285Y-46020660D01*
X94889285Y-46020660D02*
X94889285Y-46199232D01*
X94889285Y-46199232D02*
X94853571Y-46270660D01*
X94853571Y-46270660D02*
X94817857Y-46306375D01*
X94817857Y-46306375D02*
X94746428Y-46342089D01*
X94746428Y-46342089D02*
X94532142Y-46342089D01*
X94532142Y-46342089D02*
X94460714Y-46306375D01*
X94460714Y-46306375D02*
X94424999Y-46270660D01*
X66514286Y-72127803D02*
X66871429Y-72127803D01*
X66442857Y-72342089D02*
X66692857Y-71592089D01*
X66692857Y-71592089D02*
X66942857Y-72342089D01*
X67192857Y-72342089D02*
X67192857Y-71592089D01*
X67192857Y-71592089D02*
X67371428Y-71592089D01*
X67371428Y-71592089D02*
X67478571Y-71627803D01*
X67478571Y-71627803D02*
X67550000Y-71699232D01*
X67550000Y-71699232D02*
X67585714Y-71770660D01*
X67585714Y-71770660D02*
X67621428Y-71913517D01*
X67621428Y-71913517D02*
X67621428Y-72020660D01*
X67621428Y-72020660D02*
X67585714Y-72163517D01*
X67585714Y-72163517D02*
X67550000Y-72234946D01*
X67550000Y-72234946D02*
X67478571Y-72306375D01*
X67478571Y-72306375D02*
X67371428Y-72342089D01*
X67371428Y-72342089D02*
X67192857Y-72342089D01*
X68371428Y-72270660D02*
X68335714Y-72306375D01*
X68335714Y-72306375D02*
X68228571Y-72342089D01*
X68228571Y-72342089D02*
X68157143Y-72342089D01*
X68157143Y-72342089D02*
X68050000Y-72306375D01*
X68050000Y-72306375D02*
X67978571Y-72234946D01*
X67978571Y-72234946D02*
X67942857Y-72163517D01*
X67942857Y-72163517D02*
X67907143Y-72020660D01*
X67907143Y-72020660D02*
X67907143Y-71913517D01*
X67907143Y-71913517D02*
X67942857Y-71770660D01*
X67942857Y-71770660D02*
X67978571Y-71699232D01*
X67978571Y-71699232D02*
X68050000Y-71627803D01*
X68050000Y-71627803D02*
X68157143Y-71592089D01*
X68157143Y-71592089D02*
X68228571Y-71592089D01*
X68228571Y-71592089D02*
X68335714Y-71627803D01*
X68335714Y-71627803D02*
X68371428Y-71663517D01*
X68657143Y-71663517D02*
X68692857Y-71627803D01*
X68692857Y-71627803D02*
X68764286Y-71592089D01*
X68764286Y-71592089D02*
X68942857Y-71592089D01*
X68942857Y-71592089D02*
X69014286Y-71627803D01*
X69014286Y-71627803D02*
X69050000Y-71663517D01*
X69050000Y-71663517D02*
X69085714Y-71734946D01*
X69085714Y-71734946D02*
X69085714Y-71806375D01*
X69085714Y-71806375D02*
X69050000Y-71913517D01*
X69050000Y-71913517D02*
X68621428Y-72342089D01*
X68621428Y-72342089D02*
X69085714Y-72342089D01*
X83646428Y-46242089D02*
X83646428Y-45492089D01*
X83646428Y-45492089D02*
X83824999Y-45492089D01*
X83824999Y-45492089D02*
X83932142Y-45527803D01*
X83932142Y-45527803D02*
X84003571Y-45599232D01*
X84003571Y-45599232D02*
X84039285Y-45670660D01*
X84039285Y-45670660D02*
X84074999Y-45813517D01*
X84074999Y-45813517D02*
X84074999Y-45920660D01*
X84074999Y-45920660D02*
X84039285Y-46063517D01*
X84039285Y-46063517D02*
X84003571Y-46134946D01*
X84003571Y-46134946D02*
X83932142Y-46206375D01*
X83932142Y-46206375D02*
X83824999Y-46242089D01*
X83824999Y-46242089D02*
X83646428Y-46242089D01*
X84324999Y-45492089D02*
X84824999Y-45492089D01*
X84824999Y-45492089D02*
X84503571Y-46242089D01*
D11*
X106114285Y-77131009D02*
X106257142Y-77178628D01*
X106257142Y-77178628D02*
X106304761Y-77226247D01*
X106304761Y-77226247D02*
X106352380Y-77321485D01*
X106352380Y-77321485D02*
X106352380Y-77464342D01*
X106352380Y-77464342D02*
X106304761Y-77559580D01*
X106304761Y-77559580D02*
X106257142Y-77607200D01*
X106257142Y-77607200D02*
X106161904Y-77654819D01*
X106161904Y-77654819D02*
X105780952Y-77654819D01*
X105780952Y-77654819D02*
X105780952Y-76654819D01*
X105780952Y-76654819D02*
X106114285Y-76654819D01*
X106114285Y-76654819D02*
X106209523Y-76702438D01*
X106209523Y-76702438D02*
X106257142Y-76750057D01*
X106257142Y-76750057D02*
X106304761Y-76845295D01*
X106304761Y-76845295D02*
X106304761Y-76940533D01*
X106304761Y-76940533D02*
X106257142Y-77035771D01*
X106257142Y-77035771D02*
X106209523Y-77083390D01*
X106209523Y-77083390D02*
X106114285Y-77131009D01*
X106114285Y-77131009D02*
X105780952Y-77131009D01*
X107257142Y-77654819D02*
X106780952Y-77654819D01*
X106780952Y-77654819D02*
X106780952Y-76654819D01*
X107590476Y-77131009D02*
X107923809Y-77131009D01*
X108066666Y-77654819D02*
X107590476Y-77654819D01*
X107590476Y-77654819D02*
X107590476Y-76654819D01*
X107590476Y-76654819D02*
X108066666Y-76654819D01*
D10*
X66100000Y-69456375D02*
X66671429Y-69456375D01*
X66385714Y-69742089D02*
X66385714Y-69170660D01*
X66957142Y-68992089D02*
X67421428Y-68992089D01*
X67421428Y-68992089D02*
X67171428Y-69277803D01*
X67171428Y-69277803D02*
X67278571Y-69277803D01*
X67278571Y-69277803D02*
X67350000Y-69313517D01*
X67350000Y-69313517D02*
X67385714Y-69349232D01*
X67385714Y-69349232D02*
X67421428Y-69420660D01*
X67421428Y-69420660D02*
X67421428Y-69599232D01*
X67421428Y-69599232D02*
X67385714Y-69670660D01*
X67385714Y-69670660D02*
X67350000Y-69706375D01*
X67350000Y-69706375D02*
X67278571Y-69742089D01*
X67278571Y-69742089D02*
X67064285Y-69742089D01*
X67064285Y-69742089D02*
X66992857Y-69706375D01*
X66992857Y-69706375D02*
X66957142Y-69670660D01*
X67742857Y-69670660D02*
X67778571Y-69706375D01*
X67778571Y-69706375D02*
X67742857Y-69742089D01*
X67742857Y-69742089D02*
X67707143Y-69706375D01*
X67707143Y-69706375D02*
X67742857Y-69670660D01*
X67742857Y-69670660D02*
X67742857Y-69742089D01*
X68028571Y-68992089D02*
X68492857Y-68992089D01*
X68492857Y-68992089D02*
X68242857Y-69277803D01*
X68242857Y-69277803D02*
X68350000Y-69277803D01*
X68350000Y-69277803D02*
X68421429Y-69313517D01*
X68421429Y-69313517D02*
X68457143Y-69349232D01*
X68457143Y-69349232D02*
X68492857Y-69420660D01*
X68492857Y-69420660D02*
X68492857Y-69599232D01*
X68492857Y-69599232D02*
X68457143Y-69670660D01*
X68457143Y-69670660D02*
X68421429Y-69706375D01*
X68421429Y-69706375D02*
X68350000Y-69742089D01*
X68350000Y-69742089D02*
X68135714Y-69742089D01*
X68135714Y-69742089D02*
X68064286Y-69706375D01*
X68064286Y-69706375D02*
X68028571Y-69670660D01*
X68707143Y-68992089D02*
X68957143Y-69742089D01*
X68957143Y-69742089D02*
X69207143Y-68992089D01*
X103685714Y-62856375D02*
X104257143Y-62856375D01*
X103971428Y-63142089D02*
X103971428Y-62570660D01*
X104971428Y-62392089D02*
X104614285Y-62392089D01*
X104614285Y-62392089D02*
X104578571Y-62749232D01*
X104578571Y-62749232D02*
X104614285Y-62713517D01*
X104614285Y-62713517D02*
X104685714Y-62677803D01*
X104685714Y-62677803D02*
X104864285Y-62677803D01*
X104864285Y-62677803D02*
X104935714Y-62713517D01*
X104935714Y-62713517D02*
X104971428Y-62749232D01*
X104971428Y-62749232D02*
X105007142Y-62820660D01*
X105007142Y-62820660D02*
X105007142Y-62999232D01*
X105007142Y-62999232D02*
X104971428Y-63070660D01*
X104971428Y-63070660D02*
X104935714Y-63106375D01*
X104935714Y-63106375D02*
X104864285Y-63142089D01*
X104864285Y-63142089D02*
X104685714Y-63142089D01*
X104685714Y-63142089D02*
X104614285Y-63106375D01*
X104614285Y-63106375D02*
X104578571Y-63070660D01*
X105221428Y-62392089D02*
X105471428Y-63142089D01*
X105471428Y-63142089D02*
X105721428Y-62392089D01*
X96246428Y-46342089D02*
X96246428Y-45592089D01*
X96246428Y-45592089D02*
X96424999Y-45592089D01*
X96424999Y-45592089D02*
X96532142Y-45627803D01*
X96532142Y-45627803D02*
X96603571Y-45699232D01*
X96603571Y-45699232D02*
X96639285Y-45770660D01*
X96639285Y-45770660D02*
X96674999Y-45913517D01*
X96674999Y-45913517D02*
X96674999Y-46020660D01*
X96674999Y-46020660D02*
X96639285Y-46163517D01*
X96639285Y-46163517D02*
X96603571Y-46234946D01*
X96603571Y-46234946D02*
X96532142Y-46306375D01*
X96532142Y-46306375D02*
X96424999Y-46342089D01*
X96424999Y-46342089D02*
X96246428Y-46342089D01*
X96960714Y-45663517D02*
X96996428Y-45627803D01*
X96996428Y-45627803D02*
X97067857Y-45592089D01*
X97067857Y-45592089D02*
X97246428Y-45592089D01*
X97246428Y-45592089D02*
X97317857Y-45627803D01*
X97317857Y-45627803D02*
X97353571Y-45663517D01*
X97353571Y-45663517D02*
X97389285Y-45734946D01*
X97389285Y-45734946D02*
X97389285Y-45806375D01*
X97389285Y-45806375D02*
X97353571Y-45913517D01*
X97353571Y-45913517D02*
X96924999Y-46342089D01*
X96924999Y-46342089D02*
X97389285Y-46342089D01*
X76496428Y-98142089D02*
X76496428Y-97642089D01*
X76496428Y-97784946D02*
X76532142Y-97713517D01*
X76532142Y-97713517D02*
X76567857Y-97677803D01*
X76567857Y-97677803D02*
X76639285Y-97642089D01*
X76639285Y-97642089D02*
X76710714Y-97642089D01*
X77246428Y-98106375D02*
X77175000Y-98142089D01*
X77175000Y-98142089D02*
X77032143Y-98142089D01*
X77032143Y-98142089D02*
X76960714Y-98106375D01*
X76960714Y-98106375D02*
X76925000Y-98034946D01*
X76925000Y-98034946D02*
X76925000Y-97749232D01*
X76925000Y-97749232D02*
X76960714Y-97677803D01*
X76960714Y-97677803D02*
X77032143Y-97642089D01*
X77032143Y-97642089D02*
X77175000Y-97642089D01*
X77175000Y-97642089D02*
X77246428Y-97677803D01*
X77246428Y-97677803D02*
X77282143Y-97749232D01*
X77282143Y-97749232D02*
X77282143Y-97820660D01*
X77282143Y-97820660D02*
X76925000Y-97892089D01*
X77532142Y-97642089D02*
X77710714Y-98142089D01*
X77710714Y-98142089D02*
X77889285Y-97642089D01*
X79067858Y-97642089D02*
X79067858Y-98142089D01*
X78889286Y-97356375D02*
X78710715Y-97892089D01*
X78710715Y-97892089D02*
X79175000Y-97892089D01*
X104028571Y-59977803D02*
X103957143Y-59942089D01*
X103957143Y-59942089D02*
X103850000Y-59942089D01*
X103850000Y-59942089D02*
X103742857Y-59977803D01*
X103742857Y-59977803D02*
X103671428Y-60049232D01*
X103671428Y-60049232D02*
X103635714Y-60120660D01*
X103635714Y-60120660D02*
X103600000Y-60263517D01*
X103600000Y-60263517D02*
X103600000Y-60370660D01*
X103600000Y-60370660D02*
X103635714Y-60513517D01*
X103635714Y-60513517D02*
X103671428Y-60584946D01*
X103671428Y-60584946D02*
X103742857Y-60656375D01*
X103742857Y-60656375D02*
X103850000Y-60692089D01*
X103850000Y-60692089D02*
X103921428Y-60692089D01*
X103921428Y-60692089D02*
X104028571Y-60656375D01*
X104028571Y-60656375D02*
X104064285Y-60620660D01*
X104064285Y-60620660D02*
X104064285Y-60370660D01*
X104064285Y-60370660D02*
X103921428Y-60370660D01*
X104385714Y-60692089D02*
X104385714Y-59942089D01*
X104385714Y-59942089D02*
X104814285Y-60692089D01*
X104814285Y-60692089D02*
X104814285Y-59942089D01*
X105171428Y-60692089D02*
X105171428Y-59942089D01*
X105171428Y-59942089D02*
X105349999Y-59942089D01*
X105349999Y-59942089D02*
X105457142Y-59977803D01*
X105457142Y-59977803D02*
X105528571Y-60049232D01*
X105528571Y-60049232D02*
X105564285Y-60120660D01*
X105564285Y-60120660D02*
X105599999Y-60263517D01*
X105599999Y-60263517D02*
X105599999Y-60370660D01*
X105599999Y-60370660D02*
X105564285Y-60513517D01*
X105564285Y-60513517D02*
X105528571Y-60584946D01*
X105528571Y-60584946D02*
X105457142Y-60656375D01*
X105457142Y-60656375D02*
X105349999Y-60692089D01*
X105349999Y-60692089D02*
X105171428Y-60692089D01*
X73528571Y-94770660D02*
X73492857Y-94806375D01*
X73492857Y-94806375D02*
X73385714Y-94842089D01*
X73385714Y-94842089D02*
X73314286Y-94842089D01*
X73314286Y-94842089D02*
X73207143Y-94806375D01*
X73207143Y-94806375D02*
X73135714Y-94734946D01*
X73135714Y-94734946D02*
X73100000Y-94663517D01*
X73100000Y-94663517D02*
X73064286Y-94520660D01*
X73064286Y-94520660D02*
X73064286Y-94413517D01*
X73064286Y-94413517D02*
X73100000Y-94270660D01*
X73100000Y-94270660D02*
X73135714Y-94199232D01*
X73135714Y-94199232D02*
X73207143Y-94127803D01*
X73207143Y-94127803D02*
X73314286Y-94092089D01*
X73314286Y-94092089D02*
X73385714Y-94092089D01*
X73385714Y-94092089D02*
X73492857Y-94127803D01*
X73492857Y-94127803D02*
X73528571Y-94163517D01*
X73850000Y-94842089D02*
X73850000Y-94092089D01*
X73850000Y-94449232D02*
X74278571Y-94449232D01*
X74278571Y-94842089D02*
X74278571Y-94092089D01*
X74600000Y-94627803D02*
X74957143Y-94627803D01*
X74528571Y-94842089D02*
X74778571Y-94092089D01*
X74778571Y-94092089D02*
X75028571Y-94842089D01*
X75707142Y-94842089D02*
X75457142Y-94484946D01*
X75278571Y-94842089D02*
X75278571Y-94092089D01*
X75278571Y-94092089D02*
X75564285Y-94092089D01*
X75564285Y-94092089D02*
X75635714Y-94127803D01*
X75635714Y-94127803D02*
X75671428Y-94163517D01*
X75671428Y-94163517D02*
X75707142Y-94234946D01*
X75707142Y-94234946D02*
X75707142Y-94342089D01*
X75707142Y-94342089D02*
X75671428Y-94413517D01*
X75671428Y-94413517D02*
X75635714Y-94449232D01*
X75635714Y-94449232D02*
X75564285Y-94484946D01*
X75564285Y-94484946D02*
X75278571Y-94484946D01*
X76421428Y-94127803D02*
X76350000Y-94092089D01*
X76350000Y-94092089D02*
X76242857Y-94092089D01*
X76242857Y-94092089D02*
X76135714Y-94127803D01*
X76135714Y-94127803D02*
X76064285Y-94199232D01*
X76064285Y-94199232D02*
X76028571Y-94270660D01*
X76028571Y-94270660D02*
X75992857Y-94413517D01*
X75992857Y-94413517D02*
X75992857Y-94520660D01*
X75992857Y-94520660D02*
X76028571Y-94663517D01*
X76028571Y-94663517D02*
X76064285Y-94734946D01*
X76064285Y-94734946D02*
X76135714Y-94806375D01*
X76135714Y-94806375D02*
X76242857Y-94842089D01*
X76242857Y-94842089D02*
X76314285Y-94842089D01*
X76314285Y-94842089D02*
X76421428Y-94806375D01*
X76421428Y-94806375D02*
X76457142Y-94770660D01*
X76457142Y-94770660D02*
X76457142Y-94520660D01*
X76457142Y-94520660D02*
X76314285Y-94520660D01*
X76778571Y-94449232D02*
X77028571Y-94449232D01*
X77135714Y-94842089D02*
X76778571Y-94842089D01*
X76778571Y-94842089D02*
X76778571Y-94092089D01*
X76778571Y-94092089D02*
X77135714Y-94092089D01*
X91146428Y-46342089D02*
X91146428Y-45592089D01*
X91146428Y-45592089D02*
X91324999Y-45592089D01*
X91324999Y-45592089D02*
X91432142Y-45627803D01*
X91432142Y-45627803D02*
X91503571Y-45699232D01*
X91503571Y-45699232D02*
X91539285Y-45770660D01*
X91539285Y-45770660D02*
X91574999Y-45913517D01*
X91574999Y-45913517D02*
X91574999Y-46020660D01*
X91574999Y-46020660D02*
X91539285Y-46163517D01*
X91539285Y-46163517D02*
X91503571Y-46234946D01*
X91503571Y-46234946D02*
X91432142Y-46306375D01*
X91432142Y-46306375D02*
X91324999Y-46342089D01*
X91324999Y-46342089D02*
X91146428Y-46342089D01*
X92217857Y-45842089D02*
X92217857Y-46342089D01*
X92039285Y-45556375D02*
X91860714Y-46092089D01*
X91860714Y-46092089D02*
X92324999Y-46092089D01*
X102364285Y-68442089D02*
X102007142Y-68442089D01*
X102007142Y-68442089D02*
X102007142Y-67692089D01*
X103042856Y-68370660D02*
X103007142Y-68406375D01*
X103007142Y-68406375D02*
X102899999Y-68442089D01*
X102899999Y-68442089D02*
X102828571Y-68442089D01*
X102828571Y-68442089D02*
X102721428Y-68406375D01*
X102721428Y-68406375D02*
X102649999Y-68334946D01*
X102649999Y-68334946D02*
X102614285Y-68263517D01*
X102614285Y-68263517D02*
X102578571Y-68120660D01*
X102578571Y-68120660D02*
X102578571Y-68013517D01*
X102578571Y-68013517D02*
X102614285Y-67870660D01*
X102614285Y-67870660D02*
X102649999Y-67799232D01*
X102649999Y-67799232D02*
X102721428Y-67727803D01*
X102721428Y-67727803D02*
X102828571Y-67692089D01*
X102828571Y-67692089D02*
X102899999Y-67692089D01*
X102899999Y-67692089D02*
X103007142Y-67727803D01*
X103007142Y-67727803D02*
X103042856Y-67763517D01*
X103364285Y-68442089D02*
X103364285Y-67692089D01*
X103364285Y-67692089D02*
X103542856Y-67692089D01*
X103542856Y-67692089D02*
X103649999Y-67727803D01*
X103649999Y-67727803D02*
X103721428Y-67799232D01*
X103721428Y-67799232D02*
X103757142Y-67870660D01*
X103757142Y-67870660D02*
X103792856Y-68013517D01*
X103792856Y-68013517D02*
X103792856Y-68120660D01*
X103792856Y-68120660D02*
X103757142Y-68263517D01*
X103757142Y-68263517D02*
X103721428Y-68334946D01*
X103721428Y-68334946D02*
X103649999Y-68406375D01*
X103649999Y-68406375D02*
X103542856Y-68442089D01*
X103542856Y-68442089D02*
X103364285Y-68442089D01*
X105114285Y-68442089D02*
X104864285Y-68084946D01*
X104685714Y-68442089D02*
X104685714Y-67692089D01*
X104685714Y-67692089D02*
X104971428Y-67692089D01*
X104971428Y-67692089D02*
X105042857Y-67727803D01*
X105042857Y-67727803D02*
X105078571Y-67763517D01*
X105078571Y-67763517D02*
X105114285Y-67834946D01*
X105114285Y-67834946D02*
X105114285Y-67942089D01*
X105114285Y-67942089D02*
X105078571Y-68013517D01*
X105078571Y-68013517D02*
X105042857Y-68049232D01*
X105042857Y-68049232D02*
X104971428Y-68084946D01*
X104971428Y-68084946D02*
X104685714Y-68084946D01*
X105400000Y-68406375D02*
X105507143Y-68442089D01*
X105507143Y-68442089D02*
X105685714Y-68442089D01*
X105685714Y-68442089D02*
X105757143Y-68406375D01*
X105757143Y-68406375D02*
X105792857Y-68370660D01*
X105792857Y-68370660D02*
X105828571Y-68299232D01*
X105828571Y-68299232D02*
X105828571Y-68227803D01*
X105828571Y-68227803D02*
X105792857Y-68156375D01*
X105792857Y-68156375D02*
X105757143Y-68120660D01*
X105757143Y-68120660D02*
X105685714Y-68084946D01*
X105685714Y-68084946D02*
X105542857Y-68049232D01*
X105542857Y-68049232D02*
X105471428Y-68013517D01*
X105471428Y-68013517D02*
X105435714Y-67977803D01*
X105435714Y-67977803D02*
X105400000Y-67906375D01*
X105400000Y-67906375D02*
X105400000Y-67834946D01*
X105400000Y-67834946D02*
X105435714Y-67763517D01*
X105435714Y-67763517D02*
X105471428Y-67727803D01*
X105471428Y-67727803D02*
X105542857Y-67692089D01*
X105542857Y-67692089D02*
X105721428Y-67692089D01*
X105721428Y-67692089D02*
X105828571Y-67727803D01*
D11*
X88409523Y-41254819D02*
X87933333Y-41254819D01*
X87933333Y-41254819D02*
X87933333Y-40254819D01*
X89314285Y-41159580D02*
X89266666Y-41207200D01*
X89266666Y-41207200D02*
X89123809Y-41254819D01*
X89123809Y-41254819D02*
X89028571Y-41254819D01*
X89028571Y-41254819D02*
X88885714Y-41207200D01*
X88885714Y-41207200D02*
X88790476Y-41111961D01*
X88790476Y-41111961D02*
X88742857Y-41016723D01*
X88742857Y-41016723D02*
X88695238Y-40826247D01*
X88695238Y-40826247D02*
X88695238Y-40683390D01*
X88695238Y-40683390D02*
X88742857Y-40492914D01*
X88742857Y-40492914D02*
X88790476Y-40397676D01*
X88790476Y-40397676D02*
X88885714Y-40302438D01*
X88885714Y-40302438D02*
X89028571Y-40254819D01*
X89028571Y-40254819D02*
X89123809Y-40254819D01*
X89123809Y-40254819D02*
X89266666Y-40302438D01*
X89266666Y-40302438D02*
X89314285Y-40350057D01*
X89742857Y-41254819D02*
X89742857Y-40254819D01*
X89742857Y-40254819D02*
X89980952Y-40254819D01*
X89980952Y-40254819D02*
X90123809Y-40302438D01*
X90123809Y-40302438D02*
X90219047Y-40397676D01*
X90219047Y-40397676D02*
X90266666Y-40492914D01*
X90266666Y-40492914D02*
X90314285Y-40683390D01*
X90314285Y-40683390D02*
X90314285Y-40826247D01*
X90314285Y-40826247D02*
X90266666Y-41016723D01*
X90266666Y-41016723D02*
X90219047Y-41111961D01*
X90219047Y-41111961D02*
X90123809Y-41207200D01*
X90123809Y-41207200D02*
X89980952Y-41254819D01*
X89980952Y-41254819D02*
X89742857Y-41254819D01*
X83900000Y-53516033D02*
X83500000Y-53516033D01*
X83700000Y-53516033D02*
X83700000Y-52816033D01*
X83700000Y-52816033D02*
X83633333Y-52916033D01*
X83633333Y-52916033D02*
X83566667Y-52982700D01*
X83566667Y-52982700D02*
X83500000Y-53016033D01*
X106909523Y-58354819D02*
X106433333Y-58354819D01*
X106433333Y-58354819D02*
X106433333Y-57354819D01*
X107814285Y-58259580D02*
X107766666Y-58307200D01*
X107766666Y-58307200D02*
X107623809Y-58354819D01*
X107623809Y-58354819D02*
X107528571Y-58354819D01*
X107528571Y-58354819D02*
X107385714Y-58307200D01*
X107385714Y-58307200D02*
X107290476Y-58211961D01*
X107290476Y-58211961D02*
X107242857Y-58116723D01*
X107242857Y-58116723D02*
X107195238Y-57926247D01*
X107195238Y-57926247D02*
X107195238Y-57783390D01*
X107195238Y-57783390D02*
X107242857Y-57592914D01*
X107242857Y-57592914D02*
X107290476Y-57497676D01*
X107290476Y-57497676D02*
X107385714Y-57402438D01*
X107385714Y-57402438D02*
X107528571Y-57354819D01*
X107528571Y-57354819D02*
X107623809Y-57354819D01*
X107623809Y-57354819D02*
X107766666Y-57402438D01*
X107766666Y-57402438D02*
X107814285Y-57450057D01*
X108242857Y-58354819D02*
X108242857Y-57354819D01*
X108242857Y-57354819D02*
X108480952Y-57354819D01*
X108480952Y-57354819D02*
X108623809Y-57402438D01*
X108623809Y-57402438D02*
X108719047Y-57497676D01*
X108719047Y-57497676D02*
X108766666Y-57592914D01*
X108766666Y-57592914D02*
X108814285Y-57783390D01*
X108814285Y-57783390D02*
X108814285Y-57926247D01*
X108814285Y-57926247D02*
X108766666Y-58116723D01*
X108766666Y-58116723D02*
X108719047Y-58211961D01*
X108719047Y-58211961D02*
X108623809Y-58307200D01*
X108623809Y-58307200D02*
X108480952Y-58354819D01*
X108480952Y-58354819D02*
X108242857Y-58354819D01*
D10*
X78228571Y-45527803D02*
X78157143Y-45492089D01*
X78157143Y-45492089D02*
X78050000Y-45492089D01*
X78050000Y-45492089D02*
X77942857Y-45527803D01*
X77942857Y-45527803D02*
X77871428Y-45599232D01*
X77871428Y-45599232D02*
X77835714Y-45670660D01*
X77835714Y-45670660D02*
X77800000Y-45813517D01*
X77800000Y-45813517D02*
X77800000Y-45920660D01*
X77800000Y-45920660D02*
X77835714Y-46063517D01*
X77835714Y-46063517D02*
X77871428Y-46134946D01*
X77871428Y-46134946D02*
X77942857Y-46206375D01*
X77942857Y-46206375D02*
X78050000Y-46242089D01*
X78050000Y-46242089D02*
X78121428Y-46242089D01*
X78121428Y-46242089D02*
X78228571Y-46206375D01*
X78228571Y-46206375D02*
X78264285Y-46170660D01*
X78264285Y-46170660D02*
X78264285Y-45920660D01*
X78264285Y-45920660D02*
X78121428Y-45920660D01*
X78585714Y-46242089D02*
X78585714Y-45492089D01*
X78585714Y-45492089D02*
X79014285Y-46242089D01*
X79014285Y-46242089D02*
X79014285Y-45492089D01*
X79371428Y-46242089D02*
X79371428Y-45492089D01*
X79371428Y-45492089D02*
X79549999Y-45492089D01*
X79549999Y-45492089D02*
X79657142Y-45527803D01*
X79657142Y-45527803D02*
X79728571Y-45599232D01*
X79728571Y-45599232D02*
X79764285Y-45670660D01*
X79764285Y-45670660D02*
X79799999Y-45813517D01*
X79799999Y-45813517D02*
X79799999Y-45920660D01*
X79799999Y-45920660D02*
X79764285Y-46063517D01*
X79764285Y-46063517D02*
X79728571Y-46134946D01*
X79728571Y-46134946D02*
X79657142Y-46206375D01*
X79657142Y-46206375D02*
X79549999Y-46242089D01*
X79549999Y-46242089D02*
X79371428Y-46242089D01*
X67728571Y-66327803D02*
X67657143Y-66292089D01*
X67657143Y-66292089D02*
X67550000Y-66292089D01*
X67550000Y-66292089D02*
X67442857Y-66327803D01*
X67442857Y-66327803D02*
X67371428Y-66399232D01*
X67371428Y-66399232D02*
X67335714Y-66470660D01*
X67335714Y-66470660D02*
X67300000Y-66613517D01*
X67300000Y-66613517D02*
X67300000Y-66720660D01*
X67300000Y-66720660D02*
X67335714Y-66863517D01*
X67335714Y-66863517D02*
X67371428Y-66934946D01*
X67371428Y-66934946D02*
X67442857Y-67006375D01*
X67442857Y-67006375D02*
X67550000Y-67042089D01*
X67550000Y-67042089D02*
X67621428Y-67042089D01*
X67621428Y-67042089D02*
X67728571Y-67006375D01*
X67728571Y-67006375D02*
X67764285Y-66970660D01*
X67764285Y-66970660D02*
X67764285Y-66720660D01*
X67764285Y-66720660D02*
X67621428Y-66720660D01*
X68085714Y-67042089D02*
X68085714Y-66292089D01*
X68085714Y-66292089D02*
X68514285Y-67042089D01*
X68514285Y-67042089D02*
X68514285Y-66292089D01*
X68871428Y-67042089D02*
X68871428Y-66292089D01*
X68871428Y-66292089D02*
X69049999Y-66292089D01*
X69049999Y-66292089D02*
X69157142Y-66327803D01*
X69157142Y-66327803D02*
X69228571Y-66399232D01*
X69228571Y-66399232D02*
X69264285Y-66470660D01*
X69264285Y-66470660D02*
X69299999Y-66613517D01*
X69299999Y-66613517D02*
X69299999Y-66720660D01*
X69299999Y-66720660D02*
X69264285Y-66863517D01*
X69264285Y-66863517D02*
X69228571Y-66934946D01*
X69228571Y-66934946D02*
X69157142Y-67006375D01*
X69157142Y-67006375D02*
X69049999Y-67042089D01*
X69049999Y-67042089D02*
X68871428Y-67042089D01*
X75892857Y-45492089D02*
X76142857Y-46242089D01*
X76142857Y-46242089D02*
X76392857Y-45492089D01*
X76785714Y-45492089D02*
X76857143Y-45492089D01*
X76857143Y-45492089D02*
X76928571Y-45527803D01*
X76928571Y-45527803D02*
X76964286Y-45563517D01*
X76964286Y-45563517D02*
X77000000Y-45634946D01*
X77000000Y-45634946D02*
X77035714Y-45777803D01*
X77035714Y-45777803D02*
X77035714Y-45956375D01*
X77035714Y-45956375D02*
X77000000Y-46099232D01*
X77000000Y-46099232D02*
X76964286Y-46170660D01*
X76964286Y-46170660D02*
X76928571Y-46206375D01*
X76928571Y-46206375D02*
X76857143Y-46242089D01*
X76857143Y-46242089D02*
X76785714Y-46242089D01*
X76785714Y-46242089D02*
X76714286Y-46206375D01*
X76714286Y-46206375D02*
X76678571Y-46170660D01*
X76678571Y-46170660D02*
X76642857Y-46099232D01*
X76642857Y-46099232D02*
X76607143Y-45956375D01*
X76607143Y-45956375D02*
X76607143Y-45777803D01*
X76607143Y-45777803D02*
X76642857Y-45634946D01*
X76642857Y-45634946D02*
X76678571Y-45563517D01*
X76678571Y-45563517D02*
X76714286Y-45527803D01*
X76714286Y-45527803D02*
X76785714Y-45492089D01*
X102228571Y-54527803D02*
X102157143Y-54492089D01*
X102157143Y-54492089D02*
X102050000Y-54492089D01*
X102050000Y-54492089D02*
X101942857Y-54527803D01*
X101942857Y-54527803D02*
X101871428Y-54599232D01*
X101871428Y-54599232D02*
X101835714Y-54670660D01*
X101835714Y-54670660D02*
X101800000Y-54813517D01*
X101800000Y-54813517D02*
X101800000Y-54920660D01*
X101800000Y-54920660D02*
X101835714Y-55063517D01*
X101835714Y-55063517D02*
X101871428Y-55134946D01*
X101871428Y-55134946D02*
X101942857Y-55206375D01*
X101942857Y-55206375D02*
X102050000Y-55242089D01*
X102050000Y-55242089D02*
X102121428Y-55242089D01*
X102121428Y-55242089D02*
X102228571Y-55206375D01*
X102228571Y-55206375D02*
X102264285Y-55170660D01*
X102264285Y-55170660D02*
X102264285Y-54920660D01*
X102264285Y-54920660D02*
X102121428Y-54920660D01*
X102585714Y-55242089D02*
X102585714Y-54492089D01*
X102585714Y-54492089D02*
X103014285Y-55242089D01*
X103014285Y-55242089D02*
X103014285Y-54492089D01*
X103371428Y-55242089D02*
X103371428Y-54492089D01*
X103371428Y-54492089D02*
X103549999Y-54492089D01*
X103549999Y-54492089D02*
X103657142Y-54527803D01*
X103657142Y-54527803D02*
X103728571Y-54599232D01*
X103728571Y-54599232D02*
X103764285Y-54670660D01*
X103764285Y-54670660D02*
X103799999Y-54813517D01*
X103799999Y-54813517D02*
X103799999Y-54920660D01*
X103799999Y-54920660D02*
X103764285Y-55063517D01*
X103764285Y-55063517D02*
X103728571Y-55134946D01*
X103728571Y-55134946D02*
X103657142Y-55206375D01*
X103657142Y-55206375D02*
X103549999Y-55242089D01*
X103549999Y-55242089D02*
X103371428Y-55242089D01*
X101210714Y-47506375D02*
X101317857Y-47542089D01*
X101317857Y-47542089D02*
X101496428Y-47542089D01*
X101496428Y-47542089D02*
X101567857Y-47506375D01*
X101567857Y-47506375D02*
X101603571Y-47470660D01*
X101603571Y-47470660D02*
X101639285Y-47399232D01*
X101639285Y-47399232D02*
X101639285Y-47327803D01*
X101639285Y-47327803D02*
X101603571Y-47256375D01*
X101603571Y-47256375D02*
X101567857Y-47220660D01*
X101567857Y-47220660D02*
X101496428Y-47184946D01*
X101496428Y-47184946D02*
X101353571Y-47149232D01*
X101353571Y-47149232D02*
X101282142Y-47113517D01*
X101282142Y-47113517D02*
X101246428Y-47077803D01*
X101246428Y-47077803D02*
X101210714Y-47006375D01*
X101210714Y-47006375D02*
X101210714Y-46934946D01*
X101210714Y-46934946D02*
X101246428Y-46863517D01*
X101246428Y-46863517D02*
X101282142Y-46827803D01*
X101282142Y-46827803D02*
X101353571Y-46792089D01*
X101353571Y-46792089D02*
X101532142Y-46792089D01*
X101532142Y-46792089D02*
X101639285Y-46827803D01*
X101889285Y-46792089D02*
X102067857Y-47542089D01*
X102067857Y-47542089D02*
X102210714Y-47006375D01*
X102210714Y-47006375D02*
X102353571Y-47542089D01*
X102353571Y-47542089D02*
X102532143Y-46792089D01*
X102817857Y-47542089D02*
X102817857Y-46792089D01*
X102817857Y-46792089D02*
X102996428Y-46792089D01*
X102996428Y-46792089D02*
X103103571Y-46827803D01*
X103103571Y-46827803D02*
X103175000Y-46899232D01*
X103175000Y-46899232D02*
X103210714Y-46970660D01*
X103210714Y-46970660D02*
X103246428Y-47113517D01*
X103246428Y-47113517D02*
X103246428Y-47220660D01*
X103246428Y-47220660D02*
X103210714Y-47363517D01*
X103210714Y-47363517D02*
X103175000Y-47434946D01*
X103175000Y-47434946D02*
X103103571Y-47506375D01*
X103103571Y-47506375D02*
X102996428Y-47542089D01*
X102996428Y-47542089D02*
X102817857Y-47542089D01*
X103567857Y-47542089D02*
X103567857Y-46792089D01*
X104067857Y-46792089D02*
X104210714Y-46792089D01*
X104210714Y-46792089D02*
X104282143Y-46827803D01*
X104282143Y-46827803D02*
X104353571Y-46899232D01*
X104353571Y-46899232D02*
X104389286Y-47042089D01*
X104389286Y-47042089D02*
X104389286Y-47292089D01*
X104389286Y-47292089D02*
X104353571Y-47434946D01*
X104353571Y-47434946D02*
X104282143Y-47506375D01*
X104282143Y-47506375D02*
X104210714Y-47542089D01*
X104210714Y-47542089D02*
X104067857Y-47542089D01*
X104067857Y-47542089D02*
X103996429Y-47506375D01*
X103996429Y-47506375D02*
X103925000Y-47434946D01*
X103925000Y-47434946D02*
X103889286Y-47292089D01*
X103889286Y-47292089D02*
X103889286Y-47042089D01*
X103889286Y-47042089D02*
X103925000Y-46899232D01*
X103925000Y-46899232D02*
X103996429Y-46827803D01*
X103996429Y-46827803D02*
X104067857Y-46792089D01*
X86146428Y-46242089D02*
X86146428Y-45492089D01*
X86146428Y-45492089D02*
X86324999Y-45492089D01*
X86324999Y-45492089D02*
X86432142Y-45527803D01*
X86432142Y-45527803D02*
X86503571Y-45599232D01*
X86503571Y-45599232D02*
X86539285Y-45670660D01*
X86539285Y-45670660D02*
X86574999Y-45813517D01*
X86574999Y-45813517D02*
X86574999Y-45920660D01*
X86574999Y-45920660D02*
X86539285Y-46063517D01*
X86539285Y-46063517D02*
X86503571Y-46134946D01*
X86503571Y-46134946D02*
X86432142Y-46206375D01*
X86432142Y-46206375D02*
X86324999Y-46242089D01*
X86324999Y-46242089D02*
X86146428Y-46242089D01*
X87217857Y-45492089D02*
X87074999Y-45492089D01*
X87074999Y-45492089D02*
X87003571Y-45527803D01*
X87003571Y-45527803D02*
X86967857Y-45563517D01*
X86967857Y-45563517D02*
X86896428Y-45670660D01*
X86896428Y-45670660D02*
X86860714Y-45813517D01*
X86860714Y-45813517D02*
X86860714Y-46099232D01*
X86860714Y-46099232D02*
X86896428Y-46170660D01*
X86896428Y-46170660D02*
X86932142Y-46206375D01*
X86932142Y-46206375D02*
X87003571Y-46242089D01*
X87003571Y-46242089D02*
X87146428Y-46242089D01*
X87146428Y-46242089D02*
X87217857Y-46206375D01*
X87217857Y-46206375D02*
X87253571Y-46170660D01*
X87253571Y-46170660D02*
X87289285Y-46099232D01*
X87289285Y-46099232D02*
X87289285Y-45920660D01*
X87289285Y-45920660D02*
X87253571Y-45849232D01*
X87253571Y-45849232D02*
X87217857Y-45813517D01*
X87217857Y-45813517D02*
X87146428Y-45777803D01*
X87146428Y-45777803D02*
X87003571Y-45777803D01*
X87003571Y-45777803D02*
X86932142Y-45813517D01*
X86932142Y-45813517D02*
X86896428Y-45849232D01*
X86896428Y-45849232D02*
X86860714Y-45920660D01*
X88746428Y-46342089D02*
X88746428Y-45592089D01*
X88746428Y-45592089D02*
X88924999Y-45592089D01*
X88924999Y-45592089D02*
X89032142Y-45627803D01*
X89032142Y-45627803D02*
X89103571Y-45699232D01*
X89103571Y-45699232D02*
X89139285Y-45770660D01*
X89139285Y-45770660D02*
X89174999Y-45913517D01*
X89174999Y-45913517D02*
X89174999Y-46020660D01*
X89174999Y-46020660D02*
X89139285Y-46163517D01*
X89139285Y-46163517D02*
X89103571Y-46234946D01*
X89103571Y-46234946D02*
X89032142Y-46306375D01*
X89032142Y-46306375D02*
X88924999Y-46342089D01*
X88924999Y-46342089D02*
X88746428Y-46342089D01*
X89853571Y-45592089D02*
X89496428Y-45592089D01*
X89496428Y-45592089D02*
X89460714Y-45949232D01*
X89460714Y-45949232D02*
X89496428Y-45913517D01*
X89496428Y-45913517D02*
X89567857Y-45877803D01*
X89567857Y-45877803D02*
X89746428Y-45877803D01*
X89746428Y-45877803D02*
X89817857Y-45913517D01*
X89817857Y-45913517D02*
X89853571Y-45949232D01*
X89853571Y-45949232D02*
X89889285Y-46020660D01*
X89889285Y-46020660D02*
X89889285Y-46199232D01*
X89889285Y-46199232D02*
X89853571Y-46270660D01*
X89853571Y-46270660D02*
X89817857Y-46306375D01*
X89817857Y-46306375D02*
X89746428Y-46342089D01*
X89746428Y-46342089D02*
X89567857Y-46342089D01*
X89567857Y-46342089D02*
X89496428Y-46306375D01*
X89496428Y-46306375D02*
X89460714Y-46270660D01*
X103157143Y-65742089D02*
X102800000Y-65742089D01*
X102800000Y-65742089D02*
X102800000Y-64992089D01*
X103835714Y-65670660D02*
X103800000Y-65706375D01*
X103800000Y-65706375D02*
X103692857Y-65742089D01*
X103692857Y-65742089D02*
X103621429Y-65742089D01*
X103621429Y-65742089D02*
X103514286Y-65706375D01*
X103514286Y-65706375D02*
X103442857Y-65634946D01*
X103442857Y-65634946D02*
X103407143Y-65563517D01*
X103407143Y-65563517D02*
X103371429Y-65420660D01*
X103371429Y-65420660D02*
X103371429Y-65313517D01*
X103371429Y-65313517D02*
X103407143Y-65170660D01*
X103407143Y-65170660D02*
X103442857Y-65099232D01*
X103442857Y-65099232D02*
X103514286Y-65027803D01*
X103514286Y-65027803D02*
X103621429Y-64992089D01*
X103621429Y-64992089D02*
X103692857Y-64992089D01*
X103692857Y-64992089D02*
X103800000Y-65027803D01*
X103800000Y-65027803D02*
X103835714Y-65063517D01*
X104157143Y-65742089D02*
X104157143Y-64992089D01*
X104157143Y-64992089D02*
X104335714Y-64992089D01*
X104335714Y-64992089D02*
X104442857Y-65027803D01*
X104442857Y-65027803D02*
X104514286Y-65099232D01*
X104514286Y-65099232D02*
X104550000Y-65170660D01*
X104550000Y-65170660D02*
X104585714Y-65313517D01*
X104585714Y-65313517D02*
X104585714Y-65420660D01*
X104585714Y-65420660D02*
X104550000Y-65563517D01*
X104550000Y-65563517D02*
X104514286Y-65634946D01*
X104514286Y-65634946D02*
X104442857Y-65706375D01*
X104442857Y-65706375D02*
X104335714Y-65742089D01*
X104335714Y-65742089D02*
X104157143Y-65742089D01*
X105478572Y-65349232D02*
X105728572Y-65349232D01*
X105835715Y-65742089D02*
X105478572Y-65742089D01*
X105478572Y-65742089D02*
X105478572Y-64992089D01*
X105478572Y-64992089D02*
X105835715Y-64992089D01*
X80435714Y-45956375D02*
X81007143Y-45956375D01*
X80721428Y-46242089D02*
X80721428Y-45670660D01*
X81721428Y-45492089D02*
X81364285Y-45492089D01*
X81364285Y-45492089D02*
X81328571Y-45849232D01*
X81328571Y-45849232D02*
X81364285Y-45813517D01*
X81364285Y-45813517D02*
X81435714Y-45777803D01*
X81435714Y-45777803D02*
X81614285Y-45777803D01*
X81614285Y-45777803D02*
X81685714Y-45813517D01*
X81685714Y-45813517D02*
X81721428Y-45849232D01*
X81721428Y-45849232D02*
X81757142Y-45920660D01*
X81757142Y-45920660D02*
X81757142Y-46099232D01*
X81757142Y-46099232D02*
X81721428Y-46170660D01*
X81721428Y-46170660D02*
X81685714Y-46206375D01*
X81685714Y-46206375D02*
X81614285Y-46242089D01*
X81614285Y-46242089D02*
X81435714Y-46242089D01*
X81435714Y-46242089D02*
X81364285Y-46206375D01*
X81364285Y-46206375D02*
X81328571Y-46170660D01*
X81971428Y-45492089D02*
X82221428Y-46242089D01*
X82221428Y-46242089D02*
X82471428Y-45492089D01*
X98846428Y-46342089D02*
X98846428Y-45592089D01*
X98846428Y-45592089D02*
X99024999Y-45592089D01*
X99024999Y-45592089D02*
X99132142Y-45627803D01*
X99132142Y-45627803D02*
X99203571Y-45699232D01*
X99203571Y-45699232D02*
X99239285Y-45770660D01*
X99239285Y-45770660D02*
X99274999Y-45913517D01*
X99274999Y-45913517D02*
X99274999Y-46020660D01*
X99274999Y-46020660D02*
X99239285Y-46163517D01*
X99239285Y-46163517D02*
X99203571Y-46234946D01*
X99203571Y-46234946D02*
X99132142Y-46306375D01*
X99132142Y-46306375D02*
X99024999Y-46342089D01*
X99024999Y-46342089D02*
X98846428Y-46342089D01*
X99989285Y-46342089D02*
X99560714Y-46342089D01*
X99774999Y-46342089D02*
X99774999Y-45592089D01*
X99774999Y-45592089D02*
X99703571Y-45699232D01*
X99703571Y-45699232D02*
X99632142Y-45770660D01*
X99632142Y-45770660D02*
X99560714Y-45806375D01*
X94267857Y-78942089D02*
X94267857Y-78192089D01*
X94267857Y-78192089D02*
X94553571Y-78192089D01*
X94553571Y-78192089D02*
X94625000Y-78227803D01*
X94625000Y-78227803D02*
X94660714Y-78263517D01*
X94660714Y-78263517D02*
X94696428Y-78334946D01*
X94696428Y-78334946D02*
X94696428Y-78442089D01*
X94696428Y-78442089D02*
X94660714Y-78513517D01*
X94660714Y-78513517D02*
X94625000Y-78549232D01*
X94625000Y-78549232D02*
X94553571Y-78584946D01*
X94553571Y-78584946D02*
X94267857Y-78584946D01*
X95160714Y-78192089D02*
X95303571Y-78192089D01*
X95303571Y-78192089D02*
X95375000Y-78227803D01*
X95375000Y-78227803D02*
X95446428Y-78299232D01*
X95446428Y-78299232D02*
X95482143Y-78442089D01*
X95482143Y-78442089D02*
X95482143Y-78692089D01*
X95482143Y-78692089D02*
X95446428Y-78834946D01*
X95446428Y-78834946D02*
X95375000Y-78906375D01*
X95375000Y-78906375D02*
X95303571Y-78942089D01*
X95303571Y-78942089D02*
X95160714Y-78942089D01*
X95160714Y-78942089D02*
X95089286Y-78906375D01*
X95089286Y-78906375D02*
X95017857Y-78834946D01*
X95017857Y-78834946D02*
X94982143Y-78692089D01*
X94982143Y-78692089D02*
X94982143Y-78442089D01*
X94982143Y-78442089D02*
X95017857Y-78299232D01*
X95017857Y-78299232D02*
X95089286Y-78227803D01*
X95089286Y-78227803D02*
X95160714Y-78192089D01*
X95732142Y-78192089D02*
X95910714Y-78942089D01*
X95910714Y-78942089D02*
X96053571Y-78406375D01*
X96053571Y-78406375D02*
X96196428Y-78942089D01*
X96196428Y-78942089D02*
X96375000Y-78192089D01*
X96660714Y-78549232D02*
X96910714Y-78549232D01*
X97017857Y-78942089D02*
X96660714Y-78942089D01*
X96660714Y-78942089D02*
X96660714Y-78192089D01*
X96660714Y-78192089D02*
X97017857Y-78192089D01*
X97767856Y-78942089D02*
X97517856Y-78584946D01*
X97339285Y-78942089D02*
X97339285Y-78192089D01*
X97339285Y-78192089D02*
X97624999Y-78192089D01*
X97624999Y-78192089D02*
X97696428Y-78227803D01*
X97696428Y-78227803D02*
X97732142Y-78263517D01*
X97732142Y-78263517D02*
X97767856Y-78334946D01*
X97767856Y-78334946D02*
X97767856Y-78442089D01*
X97767856Y-78442089D02*
X97732142Y-78513517D01*
X97732142Y-78513517D02*
X97696428Y-78549232D01*
X97696428Y-78549232D02*
X97624999Y-78584946D01*
X97624999Y-78584946D02*
X97339285Y-78584946D01*
X101567857Y-52642089D02*
X101567857Y-51892089D01*
X101567857Y-51892089D02*
X101996428Y-52642089D01*
X101996428Y-52642089D02*
X101996428Y-51892089D01*
X102782142Y-52642089D02*
X102532142Y-52284946D01*
X102353571Y-52642089D02*
X102353571Y-51892089D01*
X102353571Y-51892089D02*
X102639285Y-51892089D01*
X102639285Y-51892089D02*
X102710714Y-51927803D01*
X102710714Y-51927803D02*
X102746428Y-51963517D01*
X102746428Y-51963517D02*
X102782142Y-52034946D01*
X102782142Y-52034946D02*
X102782142Y-52142089D01*
X102782142Y-52142089D02*
X102746428Y-52213517D01*
X102746428Y-52213517D02*
X102710714Y-52249232D01*
X102710714Y-52249232D02*
X102639285Y-52284946D01*
X102639285Y-52284946D02*
X102353571Y-52284946D01*
X103067857Y-52606375D02*
X103175000Y-52642089D01*
X103175000Y-52642089D02*
X103353571Y-52642089D01*
X103353571Y-52642089D02*
X103425000Y-52606375D01*
X103425000Y-52606375D02*
X103460714Y-52570660D01*
X103460714Y-52570660D02*
X103496428Y-52499232D01*
X103496428Y-52499232D02*
X103496428Y-52427803D01*
X103496428Y-52427803D02*
X103460714Y-52356375D01*
X103460714Y-52356375D02*
X103425000Y-52320660D01*
X103425000Y-52320660D02*
X103353571Y-52284946D01*
X103353571Y-52284946D02*
X103210714Y-52249232D01*
X103210714Y-52249232D02*
X103139285Y-52213517D01*
X103139285Y-52213517D02*
X103103571Y-52177803D01*
X103103571Y-52177803D02*
X103067857Y-52106375D01*
X103067857Y-52106375D02*
X103067857Y-52034946D01*
X103067857Y-52034946D02*
X103103571Y-51963517D01*
X103103571Y-51963517D02*
X103139285Y-51927803D01*
X103139285Y-51927803D02*
X103210714Y-51892089D01*
X103210714Y-51892089D02*
X103389285Y-51892089D01*
X103389285Y-51892089D02*
X103496428Y-51927803D01*
X103710714Y-51892089D02*
X104139286Y-51892089D01*
X103925000Y-52642089D02*
X103925000Y-51892089D01*
X69960713Y-98106375D02*
X69889285Y-98142089D01*
X69889285Y-98142089D02*
X69746428Y-98142089D01*
X69746428Y-98142089D02*
X69674999Y-98106375D01*
X69674999Y-98106375D02*
X69639285Y-98034946D01*
X69639285Y-98034946D02*
X69639285Y-97749232D01*
X69639285Y-97749232D02*
X69674999Y-97677803D01*
X69674999Y-97677803D02*
X69746428Y-97642089D01*
X69746428Y-97642089D02*
X69889285Y-97642089D01*
X69889285Y-97642089D02*
X69960713Y-97677803D01*
X69960713Y-97677803D02*
X69996428Y-97749232D01*
X69996428Y-97749232D02*
X69996428Y-97820660D01*
X69996428Y-97820660D02*
X69639285Y-97892089D01*
X70639285Y-98142089D02*
X70639285Y-97392089D01*
X70639285Y-98106375D02*
X70567856Y-98142089D01*
X70567856Y-98142089D02*
X70424999Y-98142089D01*
X70424999Y-98142089D02*
X70353570Y-98106375D01*
X70353570Y-98106375D02*
X70317856Y-98070660D01*
X70317856Y-98070660D02*
X70282142Y-97999232D01*
X70282142Y-97999232D02*
X70282142Y-97784946D01*
X70282142Y-97784946D02*
X70317856Y-97713517D01*
X70317856Y-97713517D02*
X70353570Y-97677803D01*
X70353570Y-97677803D02*
X70424999Y-97642089D01*
X70424999Y-97642089D02*
X70567856Y-97642089D01*
X70567856Y-97642089D02*
X70639285Y-97677803D01*
X71389284Y-98142089D02*
X70960713Y-98142089D01*
X71174998Y-98142089D02*
X71174998Y-97392089D01*
X71174998Y-97392089D02*
X71103570Y-97499232D01*
X71103570Y-97499232D02*
X71032141Y-97570660D01*
X71032141Y-97570660D02*
X70960713Y-97606375D01*
X71674999Y-97463517D02*
X71710713Y-97427803D01*
X71710713Y-97427803D02*
X71782142Y-97392089D01*
X71782142Y-97392089D02*
X71960713Y-97392089D01*
X71960713Y-97392089D02*
X72032142Y-97427803D01*
X72032142Y-97427803D02*
X72067856Y-97463517D01*
X72067856Y-97463517D02*
X72103570Y-97534946D01*
X72103570Y-97534946D02*
X72103570Y-97606375D01*
X72103570Y-97606375D02*
X72067856Y-97713517D01*
X72067856Y-97713517D02*
X71639284Y-98142089D01*
X71639284Y-98142089D02*
X72103570Y-98142089D01*
X72353570Y-97392089D02*
X72817856Y-97392089D01*
X72817856Y-97392089D02*
X72567856Y-97677803D01*
X72567856Y-97677803D02*
X72674999Y-97677803D01*
X72674999Y-97677803D02*
X72746428Y-97713517D01*
X72746428Y-97713517D02*
X72782142Y-97749232D01*
X72782142Y-97749232D02*
X72817856Y-97820660D01*
X72817856Y-97820660D02*
X72817856Y-97999232D01*
X72817856Y-97999232D02*
X72782142Y-98070660D01*
X72782142Y-98070660D02*
X72746428Y-98106375D01*
X72746428Y-98106375D02*
X72674999Y-98142089D01*
X72674999Y-98142089D02*
X72460713Y-98142089D01*
X72460713Y-98142089D02*
X72389285Y-98106375D01*
X72389285Y-98106375D02*
X72353570Y-98070660D01*
X73103571Y-97463517D02*
X73139285Y-97427803D01*
X73139285Y-97427803D02*
X73210714Y-97392089D01*
X73210714Y-97392089D02*
X73389285Y-97392089D01*
X73389285Y-97392089D02*
X73460714Y-97427803D01*
X73460714Y-97427803D02*
X73496428Y-97463517D01*
X73496428Y-97463517D02*
X73532142Y-97534946D01*
X73532142Y-97534946D02*
X73532142Y-97606375D01*
X73532142Y-97606375D02*
X73496428Y-97713517D01*
X73496428Y-97713517D02*
X73067856Y-98142089D01*
X73067856Y-98142089D02*
X73532142Y-98142089D01*
X74246428Y-98142089D02*
X73817857Y-98142089D01*
X74032142Y-98142089D02*
X74032142Y-97392089D01*
X74032142Y-97392089D02*
X73960714Y-97499232D01*
X73960714Y-97499232D02*
X73889285Y-97570660D01*
X73889285Y-97570660D02*
X73817857Y-97606375D01*
X74496428Y-97392089D02*
X74960714Y-97392089D01*
X74960714Y-97392089D02*
X74710714Y-97677803D01*
X74710714Y-97677803D02*
X74817857Y-97677803D01*
X74817857Y-97677803D02*
X74889286Y-97713517D01*
X74889286Y-97713517D02*
X74925000Y-97749232D01*
X74925000Y-97749232D02*
X74960714Y-97820660D01*
X74960714Y-97820660D02*
X74960714Y-97999232D01*
X74960714Y-97999232D02*
X74925000Y-98070660D01*
X74925000Y-98070660D02*
X74889286Y-98106375D01*
X74889286Y-98106375D02*
X74817857Y-98142089D01*
X74817857Y-98142089D02*
X74603571Y-98142089D01*
X74603571Y-98142089D02*
X74532143Y-98106375D01*
X74532143Y-98106375D02*
X74496428Y-98070660D01*
X88864286Y-72142089D02*
X88507143Y-72142089D01*
X88507143Y-72142089D02*
X88507143Y-71392089D01*
X89257143Y-71392089D02*
X89400000Y-71392089D01*
X89400000Y-71392089D02*
X89471429Y-71427803D01*
X89471429Y-71427803D02*
X89542857Y-71499232D01*
X89542857Y-71499232D02*
X89578572Y-71642089D01*
X89578572Y-71642089D02*
X89578572Y-71892089D01*
X89578572Y-71892089D02*
X89542857Y-72034946D01*
X89542857Y-72034946D02*
X89471429Y-72106375D01*
X89471429Y-72106375D02*
X89400000Y-72142089D01*
X89400000Y-72142089D02*
X89257143Y-72142089D01*
X89257143Y-72142089D02*
X89185715Y-72106375D01*
X89185715Y-72106375D02*
X89114286Y-72034946D01*
X89114286Y-72034946D02*
X89078572Y-71892089D01*
X89078572Y-71892089D02*
X89078572Y-71642089D01*
X89078572Y-71642089D02*
X89114286Y-71499232D01*
X89114286Y-71499232D02*
X89185715Y-71427803D01*
X89185715Y-71427803D02*
X89257143Y-71392089D01*
X90292857Y-71427803D02*
X90221429Y-71392089D01*
X90221429Y-71392089D02*
X90114286Y-71392089D01*
X90114286Y-71392089D02*
X90007143Y-71427803D01*
X90007143Y-71427803D02*
X89935714Y-71499232D01*
X89935714Y-71499232D02*
X89900000Y-71570660D01*
X89900000Y-71570660D02*
X89864286Y-71713517D01*
X89864286Y-71713517D02*
X89864286Y-71820660D01*
X89864286Y-71820660D02*
X89900000Y-71963517D01*
X89900000Y-71963517D02*
X89935714Y-72034946D01*
X89935714Y-72034946D02*
X90007143Y-72106375D01*
X90007143Y-72106375D02*
X90114286Y-72142089D01*
X90114286Y-72142089D02*
X90185714Y-72142089D01*
X90185714Y-72142089D02*
X90292857Y-72106375D01*
X90292857Y-72106375D02*
X90328571Y-72070660D01*
X90328571Y-72070660D02*
X90328571Y-71820660D01*
X90328571Y-71820660D02*
X90185714Y-71820660D01*
X101103571Y-49706375D02*
X101210714Y-49742089D01*
X101210714Y-49742089D02*
X101389285Y-49742089D01*
X101389285Y-49742089D02*
X101460714Y-49706375D01*
X101460714Y-49706375D02*
X101496428Y-49670660D01*
X101496428Y-49670660D02*
X101532142Y-49599232D01*
X101532142Y-49599232D02*
X101532142Y-49527803D01*
X101532142Y-49527803D02*
X101496428Y-49456375D01*
X101496428Y-49456375D02*
X101460714Y-49420660D01*
X101460714Y-49420660D02*
X101389285Y-49384946D01*
X101389285Y-49384946D02*
X101246428Y-49349232D01*
X101246428Y-49349232D02*
X101174999Y-49313517D01*
X101174999Y-49313517D02*
X101139285Y-49277803D01*
X101139285Y-49277803D02*
X101103571Y-49206375D01*
X101103571Y-49206375D02*
X101103571Y-49134946D01*
X101103571Y-49134946D02*
X101139285Y-49063517D01*
X101139285Y-49063517D02*
X101174999Y-49027803D01*
X101174999Y-49027803D02*
X101246428Y-48992089D01*
X101246428Y-48992089D02*
X101424999Y-48992089D01*
X101424999Y-48992089D02*
X101532142Y-49027803D01*
X101782142Y-48992089D02*
X101960714Y-49742089D01*
X101960714Y-49742089D02*
X102103571Y-49206375D01*
X102103571Y-49206375D02*
X102246428Y-49742089D01*
X102246428Y-49742089D02*
X102425000Y-48992089D01*
X103139285Y-49670660D02*
X103103571Y-49706375D01*
X103103571Y-49706375D02*
X102996428Y-49742089D01*
X102996428Y-49742089D02*
X102925000Y-49742089D01*
X102925000Y-49742089D02*
X102817857Y-49706375D01*
X102817857Y-49706375D02*
X102746428Y-49634946D01*
X102746428Y-49634946D02*
X102710714Y-49563517D01*
X102710714Y-49563517D02*
X102675000Y-49420660D01*
X102675000Y-49420660D02*
X102675000Y-49313517D01*
X102675000Y-49313517D02*
X102710714Y-49170660D01*
X102710714Y-49170660D02*
X102746428Y-49099232D01*
X102746428Y-49099232D02*
X102817857Y-49027803D01*
X102817857Y-49027803D02*
X102925000Y-48992089D01*
X102925000Y-48992089D02*
X102996428Y-48992089D01*
X102996428Y-48992089D02*
X103103571Y-49027803D01*
X103103571Y-49027803D02*
X103139285Y-49063517D01*
X103817857Y-49742089D02*
X103460714Y-49742089D01*
X103460714Y-49742089D02*
X103460714Y-48992089D01*
X104067857Y-49742089D02*
X104067857Y-48992089D01*
X104496428Y-49742089D02*
X104175000Y-49313517D01*
X104496428Y-48992089D02*
X104067857Y-49420660D01*
X91828571Y-71427803D02*
X91757143Y-71392089D01*
X91757143Y-71392089D02*
X91650000Y-71392089D01*
X91650000Y-71392089D02*
X91542857Y-71427803D01*
X91542857Y-71427803D02*
X91471428Y-71499232D01*
X91471428Y-71499232D02*
X91435714Y-71570660D01*
X91435714Y-71570660D02*
X91400000Y-71713517D01*
X91400000Y-71713517D02*
X91400000Y-71820660D01*
X91400000Y-71820660D02*
X91435714Y-71963517D01*
X91435714Y-71963517D02*
X91471428Y-72034946D01*
X91471428Y-72034946D02*
X91542857Y-72106375D01*
X91542857Y-72106375D02*
X91650000Y-72142089D01*
X91650000Y-72142089D02*
X91721428Y-72142089D01*
X91721428Y-72142089D02*
X91828571Y-72106375D01*
X91828571Y-72106375D02*
X91864285Y-72070660D01*
X91864285Y-72070660D02*
X91864285Y-71820660D01*
X91864285Y-71820660D02*
X91721428Y-71820660D01*
X92185714Y-72142089D02*
X92185714Y-71392089D01*
X92185714Y-71392089D02*
X92614285Y-72142089D01*
X92614285Y-72142089D02*
X92614285Y-71392089D01*
X92971428Y-72142089D02*
X92971428Y-71392089D01*
X92971428Y-71392089D02*
X93149999Y-71392089D01*
X93149999Y-71392089D02*
X93257142Y-71427803D01*
X93257142Y-71427803D02*
X93328571Y-71499232D01*
X93328571Y-71499232D02*
X93364285Y-71570660D01*
X93364285Y-71570660D02*
X93399999Y-71713517D01*
X93399999Y-71713517D02*
X93399999Y-71820660D01*
X93399999Y-71820660D02*
X93364285Y-71963517D01*
X93364285Y-71963517D02*
X93328571Y-72034946D01*
X93328571Y-72034946D02*
X93257142Y-72106375D01*
X93257142Y-72106375D02*
X93149999Y-72142089D01*
X93149999Y-72142089D02*
X92971428Y-72142089D01*
D11*
X80157142Y-53059580D02*
X80109523Y-53107200D01*
X80109523Y-53107200D02*
X79966666Y-53154819D01*
X79966666Y-53154819D02*
X79871428Y-53154819D01*
X79871428Y-53154819D02*
X79728571Y-53107200D01*
X79728571Y-53107200D02*
X79633333Y-53011961D01*
X79633333Y-53011961D02*
X79585714Y-52916723D01*
X79585714Y-52916723D02*
X79538095Y-52726247D01*
X79538095Y-52726247D02*
X79538095Y-52583390D01*
X79538095Y-52583390D02*
X79585714Y-52392914D01*
X79585714Y-52392914D02*
X79633333Y-52297676D01*
X79633333Y-52297676D02*
X79728571Y-52202438D01*
X79728571Y-52202438D02*
X79871428Y-52154819D01*
X79871428Y-52154819D02*
X79966666Y-52154819D01*
X79966666Y-52154819D02*
X80109523Y-52202438D01*
X80109523Y-52202438D02*
X80157142Y-52250057D01*
X81109523Y-53154819D02*
X80538095Y-53154819D01*
X80823809Y-53154819D02*
X80823809Y-52154819D01*
X80823809Y-52154819D02*
X80728571Y-52297676D01*
X80728571Y-52297676D02*
X80633333Y-52392914D01*
X80633333Y-52392914D02*
X80538095Y-52440533D01*
X81728571Y-52154819D02*
X81823809Y-52154819D01*
X81823809Y-52154819D02*
X81919047Y-52202438D01*
X81919047Y-52202438D02*
X81966666Y-52250057D01*
X81966666Y-52250057D02*
X82014285Y-52345295D01*
X82014285Y-52345295D02*
X82061904Y-52535771D01*
X82061904Y-52535771D02*
X82061904Y-52773866D01*
X82061904Y-52773866D02*
X82014285Y-52964342D01*
X82014285Y-52964342D02*
X81966666Y-53059580D01*
X81966666Y-53059580D02*
X81919047Y-53107200D01*
X81919047Y-53107200D02*
X81823809Y-53154819D01*
X81823809Y-53154819D02*
X81728571Y-53154819D01*
X81728571Y-53154819D02*
X81633333Y-53107200D01*
X81633333Y-53107200D02*
X81585714Y-53059580D01*
X81585714Y-53059580D02*
X81538095Y-52964342D01*
X81538095Y-52964342D02*
X81490476Y-52773866D01*
X81490476Y-52773866D02*
X81490476Y-52535771D01*
X81490476Y-52535771D02*
X81538095Y-52345295D01*
X81538095Y-52345295D02*
X81585714Y-52250057D01*
X81585714Y-52250057D02*
X81633333Y-52202438D01*
X81633333Y-52202438D02*
X81728571Y-52154819D01*
X98033333Y-64859580D02*
X97985714Y-64907200D01*
X97985714Y-64907200D02*
X97842857Y-64954819D01*
X97842857Y-64954819D02*
X97747619Y-64954819D01*
X97747619Y-64954819D02*
X97604762Y-64907200D01*
X97604762Y-64907200D02*
X97509524Y-64811961D01*
X97509524Y-64811961D02*
X97461905Y-64716723D01*
X97461905Y-64716723D02*
X97414286Y-64526247D01*
X97414286Y-64526247D02*
X97414286Y-64383390D01*
X97414286Y-64383390D02*
X97461905Y-64192914D01*
X97461905Y-64192914D02*
X97509524Y-64097676D01*
X97509524Y-64097676D02*
X97604762Y-64002438D01*
X97604762Y-64002438D02*
X97747619Y-63954819D01*
X97747619Y-63954819D02*
X97842857Y-63954819D01*
X97842857Y-63954819D02*
X97985714Y-64002438D01*
X97985714Y-64002438D02*
X98033333Y-64050057D01*
X98890476Y-63954819D02*
X98700000Y-63954819D01*
X98700000Y-63954819D02*
X98604762Y-64002438D01*
X98604762Y-64002438D02*
X98557143Y-64050057D01*
X98557143Y-64050057D02*
X98461905Y-64192914D01*
X98461905Y-64192914D02*
X98414286Y-64383390D01*
X98414286Y-64383390D02*
X98414286Y-64764342D01*
X98414286Y-64764342D02*
X98461905Y-64859580D01*
X98461905Y-64859580D02*
X98509524Y-64907200D01*
X98509524Y-64907200D02*
X98604762Y-64954819D01*
X98604762Y-64954819D02*
X98795238Y-64954819D01*
X98795238Y-64954819D02*
X98890476Y-64907200D01*
X98890476Y-64907200D02*
X98938095Y-64859580D01*
X98938095Y-64859580D02*
X98985714Y-64764342D01*
X98985714Y-64764342D02*
X98985714Y-64526247D01*
X98985714Y-64526247D02*
X98938095Y-64431009D01*
X98938095Y-64431009D02*
X98890476Y-64383390D01*
X98890476Y-64383390D02*
X98795238Y-64335771D01*
X98795238Y-64335771D02*
X98604762Y-64335771D01*
X98604762Y-64335771D02*
X98509524Y-64383390D01*
X98509524Y-64383390D02*
X98461905Y-64431009D01*
X98461905Y-64431009D02*
X98414286Y-64526247D01*
X80333333Y-62059580D02*
X80285714Y-62107200D01*
X80285714Y-62107200D02*
X80142857Y-62154819D01*
X80142857Y-62154819D02*
X80047619Y-62154819D01*
X80047619Y-62154819D02*
X79904762Y-62107200D01*
X79904762Y-62107200D02*
X79809524Y-62011961D01*
X79809524Y-62011961D02*
X79761905Y-61916723D01*
X79761905Y-61916723D02*
X79714286Y-61726247D01*
X79714286Y-61726247D02*
X79714286Y-61583390D01*
X79714286Y-61583390D02*
X79761905Y-61392914D01*
X79761905Y-61392914D02*
X79809524Y-61297676D01*
X79809524Y-61297676D02*
X79904762Y-61202438D01*
X79904762Y-61202438D02*
X80047619Y-61154819D01*
X80047619Y-61154819D02*
X80142857Y-61154819D01*
X80142857Y-61154819D02*
X80285714Y-61202438D01*
X80285714Y-61202438D02*
X80333333Y-61250057D01*
X80666667Y-61154819D02*
X81285714Y-61154819D01*
X81285714Y-61154819D02*
X80952381Y-61535771D01*
X80952381Y-61535771D02*
X81095238Y-61535771D01*
X81095238Y-61535771D02*
X81190476Y-61583390D01*
X81190476Y-61583390D02*
X81238095Y-61631009D01*
X81238095Y-61631009D02*
X81285714Y-61726247D01*
X81285714Y-61726247D02*
X81285714Y-61964342D01*
X81285714Y-61964342D02*
X81238095Y-62059580D01*
X81238095Y-62059580D02*
X81190476Y-62107200D01*
X81190476Y-62107200D02*
X81095238Y-62154819D01*
X81095238Y-62154819D02*
X80809524Y-62154819D01*
X80809524Y-62154819D02*
X80714286Y-62107200D01*
X80714286Y-62107200D02*
X80666667Y-62059580D01*
X81459580Y-64566666D02*
X81507200Y-64614285D01*
X81507200Y-64614285D02*
X81554819Y-64757142D01*
X81554819Y-64757142D02*
X81554819Y-64852380D01*
X81554819Y-64852380D02*
X81507200Y-64995237D01*
X81507200Y-64995237D02*
X81411961Y-65090475D01*
X81411961Y-65090475D02*
X81316723Y-65138094D01*
X81316723Y-65138094D02*
X81126247Y-65185713D01*
X81126247Y-65185713D02*
X80983390Y-65185713D01*
X80983390Y-65185713D02*
X80792914Y-65138094D01*
X80792914Y-65138094D02*
X80697676Y-65090475D01*
X80697676Y-65090475D02*
X80602438Y-64995237D01*
X80602438Y-64995237D02*
X80554819Y-64852380D01*
X80554819Y-64852380D02*
X80554819Y-64757142D01*
X80554819Y-64757142D02*
X80602438Y-64614285D01*
X80602438Y-64614285D02*
X80650057Y-64566666D01*
X81554819Y-64090475D02*
X81554819Y-63899999D01*
X81554819Y-63899999D02*
X81507200Y-63804761D01*
X81507200Y-63804761D02*
X81459580Y-63757142D01*
X81459580Y-63757142D02*
X81316723Y-63661904D01*
X81316723Y-63661904D02*
X81126247Y-63614285D01*
X81126247Y-63614285D02*
X80745295Y-63614285D01*
X80745295Y-63614285D02*
X80650057Y-63661904D01*
X80650057Y-63661904D02*
X80602438Y-63709523D01*
X80602438Y-63709523D02*
X80554819Y-63804761D01*
X80554819Y-63804761D02*
X80554819Y-63995237D01*
X80554819Y-63995237D02*
X80602438Y-64090475D01*
X80602438Y-64090475D02*
X80650057Y-64138094D01*
X80650057Y-64138094D02*
X80745295Y-64185713D01*
X80745295Y-64185713D02*
X80983390Y-64185713D01*
X80983390Y-64185713D02*
X81078628Y-64138094D01*
X81078628Y-64138094D02*
X81126247Y-64090475D01*
X81126247Y-64090475D02*
X81173866Y-63995237D01*
X81173866Y-63995237D02*
X81173866Y-63804761D01*
X81173866Y-63804761D02*
X81126247Y-63709523D01*
X81126247Y-63709523D02*
X81078628Y-63661904D01*
X81078628Y-63661904D02*
X80983390Y-63614285D01*
X96395833Y-51929580D02*
X96348214Y-51977200D01*
X96348214Y-51977200D02*
X96205357Y-52024819D01*
X96205357Y-52024819D02*
X96110119Y-52024819D01*
X96110119Y-52024819D02*
X95967262Y-51977200D01*
X95967262Y-51977200D02*
X95872024Y-51881961D01*
X95872024Y-51881961D02*
X95824405Y-51786723D01*
X95824405Y-51786723D02*
X95776786Y-51596247D01*
X95776786Y-51596247D02*
X95776786Y-51453390D01*
X95776786Y-51453390D02*
X95824405Y-51262914D01*
X95824405Y-51262914D02*
X95872024Y-51167676D01*
X95872024Y-51167676D02*
X95967262Y-51072438D01*
X95967262Y-51072438D02*
X96110119Y-51024819D01*
X96110119Y-51024819D02*
X96205357Y-51024819D01*
X96205357Y-51024819D02*
X96348214Y-51072438D01*
X96348214Y-51072438D02*
X96395833Y-51120057D01*
X97300595Y-51024819D02*
X96824405Y-51024819D01*
X96824405Y-51024819D02*
X96776786Y-51501009D01*
X96776786Y-51501009D02*
X96824405Y-51453390D01*
X96824405Y-51453390D02*
X96919643Y-51405771D01*
X96919643Y-51405771D02*
X97157738Y-51405771D01*
X97157738Y-51405771D02*
X97252976Y-51453390D01*
X97252976Y-51453390D02*
X97300595Y-51501009D01*
X97300595Y-51501009D02*
X97348214Y-51596247D01*
X97348214Y-51596247D02*
X97348214Y-51834342D01*
X97348214Y-51834342D02*
X97300595Y-51929580D01*
X97300595Y-51929580D02*
X97252976Y-51977200D01*
X97252976Y-51977200D02*
X97157738Y-52024819D01*
X97157738Y-52024819D02*
X96919643Y-52024819D01*
X96919643Y-52024819D02*
X96824405Y-51977200D01*
X96824405Y-51977200D02*
X96776786Y-51929580D01*
X100134819Y-69742857D02*
X99658628Y-70076190D01*
X100134819Y-70314285D02*
X99134819Y-70314285D01*
X99134819Y-70314285D02*
X99134819Y-69933333D01*
X99134819Y-69933333D02*
X99182438Y-69838095D01*
X99182438Y-69838095D02*
X99230057Y-69790476D01*
X99230057Y-69790476D02*
X99325295Y-69742857D01*
X99325295Y-69742857D02*
X99468152Y-69742857D01*
X99468152Y-69742857D02*
X99563390Y-69790476D01*
X99563390Y-69790476D02*
X99611009Y-69838095D01*
X99611009Y-69838095D02*
X99658628Y-69933333D01*
X99658628Y-69933333D02*
X99658628Y-70314285D01*
X100134819Y-68790476D02*
X100134819Y-69361904D01*
X100134819Y-69076190D02*
X99134819Y-69076190D01*
X99134819Y-69076190D02*
X99277676Y-69171428D01*
X99277676Y-69171428D02*
X99372914Y-69266666D01*
X99372914Y-69266666D02*
X99420533Y-69361904D01*
X99134819Y-68457142D02*
X99134819Y-67838095D01*
X99134819Y-67838095D02*
X99515771Y-68171428D01*
X99515771Y-68171428D02*
X99515771Y-68028571D01*
X99515771Y-68028571D02*
X99563390Y-67933333D01*
X99563390Y-67933333D02*
X99611009Y-67885714D01*
X99611009Y-67885714D02*
X99706247Y-67838095D01*
X99706247Y-67838095D02*
X99944342Y-67838095D01*
X99944342Y-67838095D02*
X100039580Y-67885714D01*
X100039580Y-67885714D02*
X100087200Y-67933333D01*
X100087200Y-67933333D02*
X100134819Y-68028571D01*
X100134819Y-68028571D02*
X100134819Y-68314285D01*
X100134819Y-68314285D02*
X100087200Y-68409523D01*
X100087200Y-68409523D02*
X100039580Y-68457142D01*
X76633333Y-59159580D02*
X76585714Y-59207200D01*
X76585714Y-59207200D02*
X76442857Y-59254819D01*
X76442857Y-59254819D02*
X76347619Y-59254819D01*
X76347619Y-59254819D02*
X76204762Y-59207200D01*
X76204762Y-59207200D02*
X76109524Y-59111961D01*
X76109524Y-59111961D02*
X76061905Y-59016723D01*
X76061905Y-59016723D02*
X76014286Y-58826247D01*
X76014286Y-58826247D02*
X76014286Y-58683390D01*
X76014286Y-58683390D02*
X76061905Y-58492914D01*
X76061905Y-58492914D02*
X76109524Y-58397676D01*
X76109524Y-58397676D02*
X76204762Y-58302438D01*
X76204762Y-58302438D02*
X76347619Y-58254819D01*
X76347619Y-58254819D02*
X76442857Y-58254819D01*
X76442857Y-58254819D02*
X76585714Y-58302438D01*
X76585714Y-58302438D02*
X76633333Y-58350057D01*
X76966667Y-58254819D02*
X77633333Y-58254819D01*
X77633333Y-58254819D02*
X77204762Y-59254819D01*
X97274819Y-74742857D02*
X96798628Y-75076190D01*
X97274819Y-75314285D02*
X96274819Y-75314285D01*
X96274819Y-75314285D02*
X96274819Y-74933333D01*
X96274819Y-74933333D02*
X96322438Y-74838095D01*
X96322438Y-74838095D02*
X96370057Y-74790476D01*
X96370057Y-74790476D02*
X96465295Y-74742857D01*
X96465295Y-74742857D02*
X96608152Y-74742857D01*
X96608152Y-74742857D02*
X96703390Y-74790476D01*
X96703390Y-74790476D02*
X96751009Y-74838095D01*
X96751009Y-74838095D02*
X96798628Y-74933333D01*
X96798628Y-74933333D02*
X96798628Y-75314285D01*
X97274819Y-73790476D02*
X97274819Y-74361904D01*
X97274819Y-74076190D02*
X96274819Y-74076190D01*
X96274819Y-74076190D02*
X96417676Y-74171428D01*
X96417676Y-74171428D02*
X96512914Y-74266666D01*
X96512914Y-74266666D02*
X96560533Y-74361904D01*
X96608152Y-72933333D02*
X97274819Y-72933333D01*
X96227200Y-73171428D02*
X96941485Y-73409523D01*
X96941485Y-73409523D02*
X96941485Y-72790476D01*
X98161905Y-80854819D02*
X98161905Y-79854819D01*
X98161905Y-79854819D02*
X98400000Y-79854819D01*
X98400000Y-79854819D02*
X98542857Y-79902438D01*
X98542857Y-79902438D02*
X98638095Y-79997676D01*
X98638095Y-79997676D02*
X98685714Y-80092914D01*
X98685714Y-80092914D02*
X98733333Y-80283390D01*
X98733333Y-80283390D02*
X98733333Y-80426247D01*
X98733333Y-80426247D02*
X98685714Y-80616723D01*
X98685714Y-80616723D02*
X98638095Y-80711961D01*
X98638095Y-80711961D02*
X98542857Y-80807200D01*
X98542857Y-80807200D02*
X98400000Y-80854819D01*
X98400000Y-80854819D02*
X98161905Y-80854819D01*
X99685714Y-80854819D02*
X99114286Y-80854819D01*
X99400000Y-80854819D02*
X99400000Y-79854819D01*
X99400000Y-79854819D02*
X99304762Y-79997676D01*
X99304762Y-79997676D02*
X99209524Y-80092914D01*
X99209524Y-80092914D02*
X99114286Y-80140533D01*
X90054819Y-78655357D02*
X89578628Y-78988690D01*
X90054819Y-79226785D02*
X89054819Y-79226785D01*
X89054819Y-79226785D02*
X89054819Y-78845833D01*
X89054819Y-78845833D02*
X89102438Y-78750595D01*
X89102438Y-78750595D02*
X89150057Y-78702976D01*
X89150057Y-78702976D02*
X89245295Y-78655357D01*
X89245295Y-78655357D02*
X89388152Y-78655357D01*
X89388152Y-78655357D02*
X89483390Y-78702976D01*
X89483390Y-78702976D02*
X89531009Y-78750595D01*
X89531009Y-78750595D02*
X89578628Y-78845833D01*
X89578628Y-78845833D02*
X89578628Y-79226785D01*
X90054819Y-77702976D02*
X90054819Y-78274404D01*
X90054819Y-77988690D02*
X89054819Y-77988690D01*
X89054819Y-77988690D02*
X89197676Y-78083928D01*
X89197676Y-78083928D02*
X89292914Y-78179166D01*
X89292914Y-78179166D02*
X89340533Y-78274404D01*
X89054819Y-77369642D02*
X89054819Y-76750595D01*
X89054819Y-76750595D02*
X89435771Y-77083928D01*
X89435771Y-77083928D02*
X89435771Y-76941071D01*
X89435771Y-76941071D02*
X89483390Y-76845833D01*
X89483390Y-76845833D02*
X89531009Y-76798214D01*
X89531009Y-76798214D02*
X89626247Y-76750595D01*
X89626247Y-76750595D02*
X89864342Y-76750595D01*
X89864342Y-76750595D02*
X89959580Y-76798214D01*
X89959580Y-76798214D02*
X90007200Y-76845833D01*
X90007200Y-76845833D02*
X90054819Y-76941071D01*
X90054819Y-76941071D02*
X90054819Y-77226785D01*
X90054819Y-77226785D02*
X90007200Y-77322023D01*
X90007200Y-77322023D02*
X89959580Y-77369642D01*
X88629580Y-82242857D02*
X88677200Y-82290476D01*
X88677200Y-82290476D02*
X88724819Y-82433333D01*
X88724819Y-82433333D02*
X88724819Y-82528571D01*
X88724819Y-82528571D02*
X88677200Y-82671428D01*
X88677200Y-82671428D02*
X88581961Y-82766666D01*
X88581961Y-82766666D02*
X88486723Y-82814285D01*
X88486723Y-82814285D02*
X88296247Y-82861904D01*
X88296247Y-82861904D02*
X88153390Y-82861904D01*
X88153390Y-82861904D02*
X87962914Y-82814285D01*
X87962914Y-82814285D02*
X87867676Y-82766666D01*
X87867676Y-82766666D02*
X87772438Y-82671428D01*
X87772438Y-82671428D02*
X87724819Y-82528571D01*
X87724819Y-82528571D02*
X87724819Y-82433333D01*
X87724819Y-82433333D02*
X87772438Y-82290476D01*
X87772438Y-82290476D02*
X87820057Y-82242857D01*
X88724819Y-81290476D02*
X88724819Y-81861904D01*
X88724819Y-81576190D02*
X87724819Y-81576190D01*
X87724819Y-81576190D02*
X87867676Y-81671428D01*
X87867676Y-81671428D02*
X87962914Y-81766666D01*
X87962914Y-81766666D02*
X88010533Y-81861904D01*
X87724819Y-80385714D02*
X87724819Y-80861904D01*
X87724819Y-80861904D02*
X88201009Y-80909523D01*
X88201009Y-80909523D02*
X88153390Y-80861904D01*
X88153390Y-80861904D02*
X88105771Y-80766666D01*
X88105771Y-80766666D02*
X88105771Y-80528571D01*
X88105771Y-80528571D02*
X88153390Y-80433333D01*
X88153390Y-80433333D02*
X88201009Y-80385714D01*
X88201009Y-80385714D02*
X88296247Y-80338095D01*
X88296247Y-80338095D02*
X88534342Y-80338095D01*
X88534342Y-80338095D02*
X88629580Y-80385714D01*
X88629580Y-80385714D02*
X88677200Y-80433333D01*
X88677200Y-80433333D02*
X88724819Y-80528571D01*
X88724819Y-80528571D02*
X88724819Y-80766666D01*
X88724819Y-80766666D02*
X88677200Y-80861904D01*
X88677200Y-80861904D02*
X88629580Y-80909523D01*
D10*
X82350000Y-71642089D02*
X82350000Y-70892089D01*
X82350000Y-70892089D02*
X82528571Y-70892089D01*
X82528571Y-70892089D02*
X82635714Y-70927803D01*
X82635714Y-70927803D02*
X82707143Y-70999232D01*
X82707143Y-70999232D02*
X82742857Y-71070660D01*
X82742857Y-71070660D02*
X82778571Y-71213517D01*
X82778571Y-71213517D02*
X82778571Y-71320660D01*
X82778571Y-71320660D02*
X82742857Y-71463517D01*
X82742857Y-71463517D02*
X82707143Y-71534946D01*
X82707143Y-71534946D02*
X82635714Y-71606375D01*
X82635714Y-71606375D02*
X82528571Y-71642089D01*
X82528571Y-71642089D02*
X82350000Y-71642089D01*
X83350000Y-71249232D02*
X83457143Y-71284946D01*
X83457143Y-71284946D02*
X83492857Y-71320660D01*
X83492857Y-71320660D02*
X83528571Y-71392089D01*
X83528571Y-71392089D02*
X83528571Y-71499232D01*
X83528571Y-71499232D02*
X83492857Y-71570660D01*
X83492857Y-71570660D02*
X83457143Y-71606375D01*
X83457143Y-71606375D02*
X83385714Y-71642089D01*
X83385714Y-71642089D02*
X83100000Y-71642089D01*
X83100000Y-71642089D02*
X83100000Y-70892089D01*
X83100000Y-70892089D02*
X83350000Y-70892089D01*
X83350000Y-70892089D02*
X83421429Y-70927803D01*
X83421429Y-70927803D02*
X83457143Y-70963517D01*
X83457143Y-70963517D02*
X83492857Y-71034946D01*
X83492857Y-71034946D02*
X83492857Y-71106375D01*
X83492857Y-71106375D02*
X83457143Y-71177803D01*
X83457143Y-71177803D02*
X83421429Y-71213517D01*
X83421429Y-71213517D02*
X83350000Y-71249232D01*
X83350000Y-71249232D02*
X83100000Y-71249232D01*
X84242857Y-70927803D02*
X84171429Y-70892089D01*
X84171429Y-70892089D02*
X84064286Y-70892089D01*
X84064286Y-70892089D02*
X83957143Y-70927803D01*
X83957143Y-70927803D02*
X83885714Y-70999232D01*
X83885714Y-70999232D02*
X83850000Y-71070660D01*
X83850000Y-71070660D02*
X83814286Y-71213517D01*
X83814286Y-71213517D02*
X83814286Y-71320660D01*
X83814286Y-71320660D02*
X83850000Y-71463517D01*
X83850000Y-71463517D02*
X83885714Y-71534946D01*
X83885714Y-71534946D02*
X83957143Y-71606375D01*
X83957143Y-71606375D02*
X84064286Y-71642089D01*
X84064286Y-71642089D02*
X84135714Y-71642089D01*
X84135714Y-71642089D02*
X84242857Y-71606375D01*
X84242857Y-71606375D02*
X84278571Y-71570660D01*
X84278571Y-71570660D02*
X84278571Y-71320660D01*
X84278571Y-71320660D02*
X84135714Y-71320660D01*
X85528572Y-71642089D02*
X85171429Y-71642089D01*
X85171429Y-71642089D02*
X85171429Y-70892089D01*
X85778572Y-71249232D02*
X86028572Y-71249232D01*
X86135715Y-71642089D02*
X85778572Y-71642089D01*
X85778572Y-71642089D02*
X85778572Y-70892089D01*
X85778572Y-70892089D02*
X86135715Y-70892089D01*
X86457143Y-71642089D02*
X86457143Y-70892089D01*
X86457143Y-70892089D02*
X86635714Y-70892089D01*
X86635714Y-70892089D02*
X86742857Y-70927803D01*
X86742857Y-70927803D02*
X86814286Y-70999232D01*
X86814286Y-70999232D02*
X86850000Y-71070660D01*
X86850000Y-71070660D02*
X86885714Y-71213517D01*
X86885714Y-71213517D02*
X86885714Y-71320660D01*
X86885714Y-71320660D02*
X86850000Y-71463517D01*
X86850000Y-71463517D02*
X86814286Y-71534946D01*
X86814286Y-71534946D02*
X86742857Y-71606375D01*
X86742857Y-71606375D02*
X86635714Y-71642089D01*
X86635714Y-71642089D02*
X86457143Y-71642089D01*
X81466071Y-85192089D02*
X81466071Y-85799232D01*
X81466071Y-85799232D02*
X81501785Y-85870660D01*
X81501785Y-85870660D02*
X81537500Y-85906375D01*
X81537500Y-85906375D02*
X81608928Y-85942089D01*
X81608928Y-85942089D02*
X81751785Y-85942089D01*
X81751785Y-85942089D02*
X81823214Y-85906375D01*
X81823214Y-85906375D02*
X81858928Y-85870660D01*
X81858928Y-85870660D02*
X81894642Y-85799232D01*
X81894642Y-85799232D02*
X81894642Y-85192089D01*
X82608928Y-85192089D02*
X82251785Y-85192089D01*
X82251785Y-85192089D02*
X82216071Y-85549232D01*
X82216071Y-85549232D02*
X82251785Y-85513517D01*
X82251785Y-85513517D02*
X82323214Y-85477803D01*
X82323214Y-85477803D02*
X82501785Y-85477803D01*
X82501785Y-85477803D02*
X82573214Y-85513517D01*
X82573214Y-85513517D02*
X82608928Y-85549232D01*
X82608928Y-85549232D02*
X82644642Y-85620660D01*
X82644642Y-85620660D02*
X82644642Y-85799232D01*
X82644642Y-85799232D02*
X82608928Y-85870660D01*
X82608928Y-85870660D02*
X82573214Y-85906375D01*
X82573214Y-85906375D02*
X82501785Y-85942089D01*
X82501785Y-85942089D02*
X82323214Y-85942089D01*
X82323214Y-85942089D02*
X82251785Y-85906375D01*
X82251785Y-85906375D02*
X82216071Y-85870660D01*
D11*
X79157142Y-77259580D02*
X79109523Y-77307200D01*
X79109523Y-77307200D02*
X78966666Y-77354819D01*
X78966666Y-77354819D02*
X78871428Y-77354819D01*
X78871428Y-77354819D02*
X78728571Y-77307200D01*
X78728571Y-77307200D02*
X78633333Y-77211961D01*
X78633333Y-77211961D02*
X78585714Y-77116723D01*
X78585714Y-77116723D02*
X78538095Y-76926247D01*
X78538095Y-76926247D02*
X78538095Y-76783390D01*
X78538095Y-76783390D02*
X78585714Y-76592914D01*
X78585714Y-76592914D02*
X78633333Y-76497676D01*
X78633333Y-76497676D02*
X78728571Y-76402438D01*
X78728571Y-76402438D02*
X78871428Y-76354819D01*
X78871428Y-76354819D02*
X78966666Y-76354819D01*
X78966666Y-76354819D02*
X79109523Y-76402438D01*
X79109523Y-76402438D02*
X79157142Y-76450057D01*
X80109523Y-77354819D02*
X79538095Y-77354819D01*
X79823809Y-77354819D02*
X79823809Y-76354819D01*
X79823809Y-76354819D02*
X79728571Y-76497676D01*
X79728571Y-76497676D02*
X79633333Y-76592914D01*
X79633333Y-76592914D02*
X79538095Y-76640533D01*
X80442857Y-76354819D02*
X81109523Y-76354819D01*
X81109523Y-76354819D02*
X80680952Y-77354819D01*
X72333333Y-60124819D02*
X72000000Y-59648628D01*
X71761905Y-60124819D02*
X71761905Y-59124819D01*
X71761905Y-59124819D02*
X72142857Y-59124819D01*
X72142857Y-59124819D02*
X72238095Y-59172438D01*
X72238095Y-59172438D02*
X72285714Y-59220057D01*
X72285714Y-59220057D02*
X72333333Y-59315295D01*
X72333333Y-59315295D02*
X72333333Y-59458152D01*
X72333333Y-59458152D02*
X72285714Y-59553390D01*
X72285714Y-59553390D02*
X72238095Y-59601009D01*
X72238095Y-59601009D02*
X72142857Y-59648628D01*
X72142857Y-59648628D02*
X71761905Y-59648628D01*
X72666667Y-59124819D02*
X73333333Y-59124819D01*
X73333333Y-59124819D02*
X72904762Y-60124819D01*
X68595238Y-64554819D02*
X68595238Y-63554819D01*
X68595238Y-63554819D02*
X68928571Y-64269104D01*
X68928571Y-64269104D02*
X69261904Y-63554819D01*
X69261904Y-63554819D02*
X69261904Y-64554819D01*
X69880952Y-64554819D02*
X69785714Y-64507200D01*
X69785714Y-64507200D02*
X69738095Y-64459580D01*
X69738095Y-64459580D02*
X69690476Y-64364342D01*
X69690476Y-64364342D02*
X69690476Y-64078628D01*
X69690476Y-64078628D02*
X69738095Y-63983390D01*
X69738095Y-63983390D02*
X69785714Y-63935771D01*
X69785714Y-63935771D02*
X69880952Y-63888152D01*
X69880952Y-63888152D02*
X70023809Y-63888152D01*
X70023809Y-63888152D02*
X70119047Y-63935771D01*
X70119047Y-63935771D02*
X70166666Y-63983390D01*
X70166666Y-63983390D02*
X70214285Y-64078628D01*
X70214285Y-64078628D02*
X70214285Y-64364342D01*
X70214285Y-64364342D02*
X70166666Y-64459580D01*
X70166666Y-64459580D02*
X70119047Y-64507200D01*
X70119047Y-64507200D02*
X70023809Y-64554819D01*
X70023809Y-64554819D02*
X69880952Y-64554819D01*
X70642857Y-64554819D02*
X70642857Y-63888152D01*
X70642857Y-63554819D02*
X70595238Y-63602438D01*
X70595238Y-63602438D02*
X70642857Y-63650057D01*
X70642857Y-63650057D02*
X70690476Y-63602438D01*
X70690476Y-63602438D02*
X70642857Y-63554819D01*
X70642857Y-63554819D02*
X70642857Y-63650057D01*
X71071428Y-64507200D02*
X71166666Y-64554819D01*
X71166666Y-64554819D02*
X71357142Y-64554819D01*
X71357142Y-64554819D02*
X71452380Y-64507200D01*
X71452380Y-64507200D02*
X71499999Y-64411961D01*
X71499999Y-64411961D02*
X71499999Y-64364342D01*
X71499999Y-64364342D02*
X71452380Y-64269104D01*
X71452380Y-64269104D02*
X71357142Y-64221485D01*
X71357142Y-64221485D02*
X71214285Y-64221485D01*
X71214285Y-64221485D02*
X71119047Y-64173866D01*
X71119047Y-64173866D02*
X71071428Y-64078628D01*
X71071428Y-64078628D02*
X71071428Y-64031009D01*
X71071428Y-64031009D02*
X71119047Y-63935771D01*
X71119047Y-63935771D02*
X71214285Y-63888152D01*
X71214285Y-63888152D02*
X71357142Y-63888152D01*
X71357142Y-63888152D02*
X71452380Y-63935771D01*
X71785714Y-63888152D02*
X72166666Y-63888152D01*
X71928571Y-63554819D02*
X71928571Y-64411961D01*
X71928571Y-64411961D02*
X71976190Y-64507200D01*
X71976190Y-64507200D02*
X72071428Y-64554819D01*
X72071428Y-64554819D02*
X72166666Y-64554819D01*
X72928571Y-63888152D02*
X72928571Y-64554819D01*
X72500000Y-63888152D02*
X72500000Y-64411961D01*
X72500000Y-64411961D02*
X72547619Y-64507200D01*
X72547619Y-64507200D02*
X72642857Y-64554819D01*
X72642857Y-64554819D02*
X72785714Y-64554819D01*
X72785714Y-64554819D02*
X72880952Y-64507200D01*
X72880952Y-64507200D02*
X72928571Y-64459580D01*
X73404762Y-64554819D02*
X73404762Y-63888152D01*
X73404762Y-64078628D02*
X73452381Y-63983390D01*
X73452381Y-63983390D02*
X73500000Y-63935771D01*
X73500000Y-63935771D02*
X73595238Y-63888152D01*
X73595238Y-63888152D02*
X73690476Y-63888152D01*
X74404762Y-64507200D02*
X74309524Y-64554819D01*
X74309524Y-64554819D02*
X74119048Y-64554819D01*
X74119048Y-64554819D02*
X74023810Y-64507200D01*
X74023810Y-64507200D02*
X73976191Y-64411961D01*
X73976191Y-64411961D02*
X73976191Y-64031009D01*
X73976191Y-64031009D02*
X74023810Y-63935771D01*
X74023810Y-63935771D02*
X74119048Y-63888152D01*
X74119048Y-63888152D02*
X74309524Y-63888152D01*
X74309524Y-63888152D02*
X74404762Y-63935771D01*
X74404762Y-63935771D02*
X74452381Y-64031009D01*
X74452381Y-64031009D02*
X74452381Y-64126247D01*
X74452381Y-64126247D02*
X73976191Y-64221485D01*
D10*
X76642089Y-65282143D02*
X76284946Y-65532143D01*
X76642089Y-65710714D02*
X75892089Y-65710714D01*
X75892089Y-65710714D02*
X75892089Y-65425000D01*
X75892089Y-65425000D02*
X75927803Y-65353571D01*
X75927803Y-65353571D02*
X75963517Y-65317857D01*
X75963517Y-65317857D02*
X76034946Y-65282143D01*
X76034946Y-65282143D02*
X76142089Y-65282143D01*
X76142089Y-65282143D02*
X76213517Y-65317857D01*
X76213517Y-65317857D02*
X76249232Y-65353571D01*
X76249232Y-65353571D02*
X76284946Y-65425000D01*
X76284946Y-65425000D02*
X76284946Y-65710714D01*
X76642089Y-64567857D02*
X76642089Y-64996428D01*
X76642089Y-64782143D02*
X75892089Y-64782143D01*
X75892089Y-64782143D02*
X75999232Y-64853571D01*
X75999232Y-64853571D02*
X76070660Y-64925000D01*
X76070660Y-64925000D02*
X76106375Y-64996428D01*
X75963517Y-64282142D02*
X75927803Y-64246428D01*
X75927803Y-64246428D02*
X75892089Y-64175000D01*
X75892089Y-64175000D02*
X75892089Y-63996428D01*
X75892089Y-63996428D02*
X75927803Y-63925000D01*
X75927803Y-63925000D02*
X75963517Y-63889285D01*
X75963517Y-63889285D02*
X76034946Y-63853571D01*
X76034946Y-63853571D02*
X76106375Y-63853571D01*
X76106375Y-63853571D02*
X76213517Y-63889285D01*
X76213517Y-63889285D02*
X76642089Y-64317857D01*
X76642089Y-64317857D02*
X76642089Y-63853571D01*
D12*
X110142580Y-76866666D02*
X109428295Y-76866666D01*
X109428295Y-76866666D02*
X109285438Y-76819047D01*
X109285438Y-76819047D02*
X109190200Y-76723809D01*
X109190200Y-76723809D02*
X109142580Y-76580952D01*
X109142580Y-76580952D02*
X109142580Y-76485714D01*
X110047342Y-77295238D02*
X110094961Y-77342857D01*
X110094961Y-77342857D02*
X110142580Y-77438095D01*
X110142580Y-77438095D02*
X110142580Y-77676190D01*
X110142580Y-77676190D02*
X110094961Y-77771428D01*
X110094961Y-77771428D02*
X110047342Y-77819047D01*
X110047342Y-77819047D02*
X109952104Y-77866666D01*
X109952104Y-77866666D02*
X109856866Y-77866666D01*
X109856866Y-77866666D02*
X109714009Y-77819047D01*
X109714009Y-77819047D02*
X109142580Y-77247619D01*
X109142580Y-77247619D02*
X109142580Y-77866666D01*
D10*
X73175000Y-90549232D02*
X72925000Y-90549232D01*
X72925000Y-90942089D02*
X72925000Y-90192089D01*
X72925000Y-90192089D02*
X73282143Y-90192089D01*
X73817857Y-90549232D02*
X73925000Y-90584946D01*
X73925000Y-90584946D02*
X73960714Y-90620660D01*
X73960714Y-90620660D02*
X73996428Y-90692089D01*
X73996428Y-90692089D02*
X73996428Y-90799232D01*
X73996428Y-90799232D02*
X73960714Y-90870660D01*
X73960714Y-90870660D02*
X73925000Y-90906375D01*
X73925000Y-90906375D02*
X73853571Y-90942089D01*
X73853571Y-90942089D02*
X73567857Y-90942089D01*
X73567857Y-90942089D02*
X73567857Y-90192089D01*
X73567857Y-90192089D02*
X73817857Y-90192089D01*
X73817857Y-90192089D02*
X73889286Y-90227803D01*
X73889286Y-90227803D02*
X73925000Y-90263517D01*
X73925000Y-90263517D02*
X73960714Y-90334946D01*
X73960714Y-90334946D02*
X73960714Y-90406375D01*
X73960714Y-90406375D02*
X73925000Y-90477803D01*
X73925000Y-90477803D02*
X73889286Y-90513517D01*
X73889286Y-90513517D02*
X73817857Y-90549232D01*
X73817857Y-90549232D02*
X73567857Y-90549232D01*
X74710714Y-90942089D02*
X74282143Y-90942089D01*
X74496428Y-90942089D02*
X74496428Y-90192089D01*
X74496428Y-90192089D02*
X74425000Y-90299232D01*
X74425000Y-90299232D02*
X74353571Y-90370660D01*
X74353571Y-90370660D02*
X74282143Y-90406375D01*
D11*
X94033333Y-90859580D02*
X93985714Y-90907200D01*
X93985714Y-90907200D02*
X93842857Y-90954819D01*
X93842857Y-90954819D02*
X93747619Y-90954819D01*
X93747619Y-90954819D02*
X93604762Y-90907200D01*
X93604762Y-90907200D02*
X93509524Y-90811961D01*
X93509524Y-90811961D02*
X93461905Y-90716723D01*
X93461905Y-90716723D02*
X93414286Y-90526247D01*
X93414286Y-90526247D02*
X93414286Y-90383390D01*
X93414286Y-90383390D02*
X93461905Y-90192914D01*
X93461905Y-90192914D02*
X93509524Y-90097676D01*
X93509524Y-90097676D02*
X93604762Y-90002438D01*
X93604762Y-90002438D02*
X93747619Y-89954819D01*
X93747619Y-89954819D02*
X93842857Y-89954819D01*
X93842857Y-89954819D02*
X93985714Y-90002438D01*
X93985714Y-90002438D02*
X94033333Y-90050057D01*
X94985714Y-90954819D02*
X94414286Y-90954819D01*
X94700000Y-90954819D02*
X94700000Y-89954819D01*
X94700000Y-89954819D02*
X94604762Y-90097676D01*
X94604762Y-90097676D02*
X94509524Y-90192914D01*
X94509524Y-90192914D02*
X94414286Y-90240533D01*
X71104761Y-45554819D02*
X70771428Y-45078628D01*
X70533333Y-45554819D02*
X70533333Y-44554819D01*
X70533333Y-44554819D02*
X70914285Y-44554819D01*
X70914285Y-44554819D02*
X71009523Y-44602438D01*
X71009523Y-44602438D02*
X71057142Y-44650057D01*
X71057142Y-44650057D02*
X71104761Y-44745295D01*
X71104761Y-44745295D02*
X71104761Y-44888152D01*
X71104761Y-44888152D02*
X71057142Y-44983390D01*
X71057142Y-44983390D02*
X71009523Y-45031009D01*
X71009523Y-45031009D02*
X70914285Y-45078628D01*
X70914285Y-45078628D02*
X70533333Y-45078628D01*
X71390476Y-44554819D02*
X71723809Y-45554819D01*
X71723809Y-45554819D02*
X72057142Y-44554819D01*
X72914285Y-45554819D02*
X72342857Y-45554819D01*
X72628571Y-45554819D02*
X72628571Y-44554819D01*
X72628571Y-44554819D02*
X72533333Y-44697676D01*
X72533333Y-44697676D02*
X72438095Y-44792914D01*
X72438095Y-44792914D02*
X72342857Y-44840533D01*
X77659580Y-85042857D02*
X77707200Y-85090476D01*
X77707200Y-85090476D02*
X77754819Y-85233333D01*
X77754819Y-85233333D02*
X77754819Y-85328571D01*
X77754819Y-85328571D02*
X77707200Y-85471428D01*
X77707200Y-85471428D02*
X77611961Y-85566666D01*
X77611961Y-85566666D02*
X77516723Y-85614285D01*
X77516723Y-85614285D02*
X77326247Y-85661904D01*
X77326247Y-85661904D02*
X77183390Y-85661904D01*
X77183390Y-85661904D02*
X76992914Y-85614285D01*
X76992914Y-85614285D02*
X76897676Y-85566666D01*
X76897676Y-85566666D02*
X76802438Y-85471428D01*
X76802438Y-85471428D02*
X76754819Y-85328571D01*
X76754819Y-85328571D02*
X76754819Y-85233333D01*
X76754819Y-85233333D02*
X76802438Y-85090476D01*
X76802438Y-85090476D02*
X76850057Y-85042857D01*
X77754819Y-84090476D02*
X77754819Y-84661904D01*
X77754819Y-84376190D02*
X76754819Y-84376190D01*
X76754819Y-84376190D02*
X76897676Y-84471428D01*
X76897676Y-84471428D02*
X76992914Y-84566666D01*
X76992914Y-84566666D02*
X77040533Y-84661904D01*
X76754819Y-83233333D02*
X76754819Y-83423809D01*
X76754819Y-83423809D02*
X76802438Y-83519047D01*
X76802438Y-83519047D02*
X76850057Y-83566666D01*
X76850057Y-83566666D02*
X76992914Y-83661904D01*
X76992914Y-83661904D02*
X77183390Y-83709523D01*
X77183390Y-83709523D02*
X77564342Y-83709523D01*
X77564342Y-83709523D02*
X77659580Y-83661904D01*
X77659580Y-83661904D02*
X77707200Y-83614285D01*
X77707200Y-83614285D02*
X77754819Y-83519047D01*
X77754819Y-83519047D02*
X77754819Y-83328571D01*
X77754819Y-83328571D02*
X77707200Y-83233333D01*
X77707200Y-83233333D02*
X77659580Y-83185714D01*
X77659580Y-83185714D02*
X77564342Y-83138095D01*
X77564342Y-83138095D02*
X77326247Y-83138095D01*
X77326247Y-83138095D02*
X77231009Y-83185714D01*
X77231009Y-83185714D02*
X77183390Y-83233333D01*
X77183390Y-83233333D02*
X77135771Y-83328571D01*
X77135771Y-83328571D02*
X77135771Y-83519047D01*
X77135771Y-83519047D02*
X77183390Y-83614285D01*
X77183390Y-83614285D02*
X77231009Y-83661904D01*
X77231009Y-83661904D02*
X77326247Y-83709523D01*
X88833333Y-86084819D02*
X88357143Y-86084819D01*
X88357143Y-86084819D02*
X88357143Y-85084819D01*
X89071429Y-85084819D02*
X89690476Y-85084819D01*
X89690476Y-85084819D02*
X89357143Y-85465771D01*
X89357143Y-85465771D02*
X89500000Y-85465771D01*
X89500000Y-85465771D02*
X89595238Y-85513390D01*
X89595238Y-85513390D02*
X89642857Y-85561009D01*
X89642857Y-85561009D02*
X89690476Y-85656247D01*
X89690476Y-85656247D02*
X89690476Y-85894342D01*
X89690476Y-85894342D02*
X89642857Y-85989580D01*
X89642857Y-85989580D02*
X89595238Y-86037200D01*
X89595238Y-86037200D02*
X89500000Y-86084819D01*
X89500000Y-86084819D02*
X89214286Y-86084819D01*
X89214286Y-86084819D02*
X89119048Y-86037200D01*
X89119048Y-86037200D02*
X89071429Y-85989580D01*
X68404819Y-55316666D02*
X67928628Y-55649999D01*
X68404819Y-55888094D02*
X67404819Y-55888094D01*
X67404819Y-55888094D02*
X67404819Y-55507142D01*
X67404819Y-55507142D02*
X67452438Y-55411904D01*
X67452438Y-55411904D02*
X67500057Y-55364285D01*
X67500057Y-55364285D02*
X67595295Y-55316666D01*
X67595295Y-55316666D02*
X67738152Y-55316666D01*
X67738152Y-55316666D02*
X67833390Y-55364285D01*
X67833390Y-55364285D02*
X67881009Y-55411904D01*
X67881009Y-55411904D02*
X67928628Y-55507142D01*
X67928628Y-55507142D02*
X67928628Y-55888094D01*
X67404819Y-54459523D02*
X67404819Y-54649999D01*
X67404819Y-54649999D02*
X67452438Y-54745237D01*
X67452438Y-54745237D02*
X67500057Y-54792856D01*
X67500057Y-54792856D02*
X67642914Y-54888094D01*
X67642914Y-54888094D02*
X67833390Y-54935713D01*
X67833390Y-54935713D02*
X68214342Y-54935713D01*
X68214342Y-54935713D02*
X68309580Y-54888094D01*
X68309580Y-54888094D02*
X68357200Y-54840475D01*
X68357200Y-54840475D02*
X68404819Y-54745237D01*
X68404819Y-54745237D02*
X68404819Y-54554761D01*
X68404819Y-54554761D02*
X68357200Y-54459523D01*
X68357200Y-54459523D02*
X68309580Y-54411904D01*
X68309580Y-54411904D02*
X68214342Y-54364285D01*
X68214342Y-54364285D02*
X67976247Y-54364285D01*
X67976247Y-54364285D02*
X67881009Y-54411904D01*
X67881009Y-54411904D02*
X67833390Y-54459523D01*
X67833390Y-54459523D02*
X67785771Y-54554761D01*
X67785771Y-54554761D02*
X67785771Y-54745237D01*
X67785771Y-54745237D02*
X67833390Y-54840475D01*
X67833390Y-54840475D02*
X67881009Y-54888094D01*
X67881009Y-54888094D02*
X67976247Y-54935713D01*
X82332333Y-96343319D02*
X81999000Y-95867128D01*
X81760905Y-96343319D02*
X81760905Y-95343319D01*
X81760905Y-95343319D02*
X82141857Y-95343319D01*
X82141857Y-95343319D02*
X82237095Y-95390938D01*
X82237095Y-95390938D02*
X82284714Y-95438557D01*
X82284714Y-95438557D02*
X82332333Y-95533795D01*
X82332333Y-95533795D02*
X82332333Y-95676652D01*
X82332333Y-95676652D02*
X82284714Y-95771890D01*
X82284714Y-95771890D02*
X82237095Y-95819509D01*
X82237095Y-95819509D02*
X82141857Y-95867128D01*
X82141857Y-95867128D02*
X81760905Y-95867128D01*
X82903762Y-95771890D02*
X82808524Y-95724271D01*
X82808524Y-95724271D02*
X82760905Y-95676652D01*
X82760905Y-95676652D02*
X82713286Y-95581414D01*
X82713286Y-95581414D02*
X82713286Y-95533795D01*
X82713286Y-95533795D02*
X82760905Y-95438557D01*
X82760905Y-95438557D02*
X82808524Y-95390938D01*
X82808524Y-95390938D02*
X82903762Y-95343319D01*
X82903762Y-95343319D02*
X83094238Y-95343319D01*
X83094238Y-95343319D02*
X83189476Y-95390938D01*
X83189476Y-95390938D02*
X83237095Y-95438557D01*
X83237095Y-95438557D02*
X83284714Y-95533795D01*
X83284714Y-95533795D02*
X83284714Y-95581414D01*
X83284714Y-95581414D02*
X83237095Y-95676652D01*
X83237095Y-95676652D02*
X83189476Y-95724271D01*
X83189476Y-95724271D02*
X83094238Y-95771890D01*
X83094238Y-95771890D02*
X82903762Y-95771890D01*
X82903762Y-95771890D02*
X82808524Y-95819509D01*
X82808524Y-95819509D02*
X82760905Y-95867128D01*
X82760905Y-95867128D02*
X82713286Y-95962366D01*
X82713286Y-95962366D02*
X82713286Y-96152842D01*
X82713286Y-96152842D02*
X82760905Y-96248080D01*
X82760905Y-96248080D02*
X82808524Y-96295700D01*
X82808524Y-96295700D02*
X82903762Y-96343319D01*
X82903762Y-96343319D02*
X83094238Y-96343319D01*
X83094238Y-96343319D02*
X83189476Y-96295700D01*
X83189476Y-96295700D02*
X83237095Y-96248080D01*
X83237095Y-96248080D02*
X83284714Y-96152842D01*
X83284714Y-96152842D02*
X83284714Y-95962366D01*
X83284714Y-95962366D02*
X83237095Y-95867128D01*
X83237095Y-95867128D02*
X83189476Y-95819509D01*
X83189476Y-95819509D02*
X83094238Y-95771890D01*
X98234700Y-84550832D02*
X98282319Y-84407975D01*
X98282319Y-84407975D02*
X98282319Y-84169880D01*
X98282319Y-84169880D02*
X98234700Y-84074642D01*
X98234700Y-84074642D02*
X98187080Y-84027023D01*
X98187080Y-84027023D02*
X98091842Y-83979404D01*
X98091842Y-83979404D02*
X97996604Y-83979404D01*
X97996604Y-83979404D02*
X97901366Y-84027023D01*
X97901366Y-84027023D02*
X97853747Y-84074642D01*
X97853747Y-84074642D02*
X97806128Y-84169880D01*
X97806128Y-84169880D02*
X97758509Y-84360356D01*
X97758509Y-84360356D02*
X97710890Y-84455594D01*
X97710890Y-84455594D02*
X97663271Y-84503213D01*
X97663271Y-84503213D02*
X97568033Y-84550832D01*
X97568033Y-84550832D02*
X97472795Y-84550832D01*
X97472795Y-84550832D02*
X97377557Y-84503213D01*
X97377557Y-84503213D02*
X97329938Y-84455594D01*
X97329938Y-84455594D02*
X97282319Y-84360356D01*
X97282319Y-84360356D02*
X97282319Y-84122261D01*
X97282319Y-84122261D02*
X97329938Y-83979404D01*
X97282319Y-83646070D02*
X98282319Y-83407975D01*
X98282319Y-83407975D02*
X97568033Y-83217499D01*
X97568033Y-83217499D02*
X98282319Y-83027023D01*
X98282319Y-83027023D02*
X97282319Y-82788928D01*
X98282319Y-81884166D02*
X98282319Y-82455594D01*
X98282319Y-82169880D02*
X97282319Y-82169880D01*
X97282319Y-82169880D02*
X97425176Y-82265118D01*
X97425176Y-82265118D02*
X97520414Y-82360356D01*
X97520414Y-82360356D02*
X97568033Y-82455594D01*
X85854819Y-67404166D02*
X85378628Y-67737499D01*
X85854819Y-67975594D02*
X84854819Y-67975594D01*
X84854819Y-67975594D02*
X84854819Y-67594642D01*
X84854819Y-67594642D02*
X84902438Y-67499404D01*
X84902438Y-67499404D02*
X84950057Y-67451785D01*
X84950057Y-67451785D02*
X85045295Y-67404166D01*
X85045295Y-67404166D02*
X85188152Y-67404166D01*
X85188152Y-67404166D02*
X85283390Y-67451785D01*
X85283390Y-67451785D02*
X85331009Y-67499404D01*
X85331009Y-67499404D02*
X85378628Y-67594642D01*
X85378628Y-67594642D02*
X85378628Y-67975594D01*
X84854819Y-66499404D02*
X84854819Y-66975594D01*
X84854819Y-66975594D02*
X85331009Y-67023213D01*
X85331009Y-67023213D02*
X85283390Y-66975594D01*
X85283390Y-66975594D02*
X85235771Y-66880356D01*
X85235771Y-66880356D02*
X85235771Y-66642261D01*
X85235771Y-66642261D02*
X85283390Y-66547023D01*
X85283390Y-66547023D02*
X85331009Y-66499404D01*
X85331009Y-66499404D02*
X85426247Y-66451785D01*
X85426247Y-66451785D02*
X85664342Y-66451785D01*
X85664342Y-66451785D02*
X85759580Y-66499404D01*
X85759580Y-66499404D02*
X85807200Y-66547023D01*
X85807200Y-66547023D02*
X85854819Y-66642261D01*
X85854819Y-66642261D02*
X85854819Y-66880356D01*
X85854819Y-66880356D02*
X85807200Y-66975594D01*
X85807200Y-66975594D02*
X85759580Y-67023213D01*
X95833333Y-95954819D02*
X95500000Y-95478628D01*
X95261905Y-95954819D02*
X95261905Y-94954819D01*
X95261905Y-94954819D02*
X95642857Y-94954819D01*
X95642857Y-94954819D02*
X95738095Y-95002438D01*
X95738095Y-95002438D02*
X95785714Y-95050057D01*
X95785714Y-95050057D02*
X95833333Y-95145295D01*
X95833333Y-95145295D02*
X95833333Y-95288152D01*
X95833333Y-95288152D02*
X95785714Y-95383390D01*
X95785714Y-95383390D02*
X95738095Y-95431009D01*
X95738095Y-95431009D02*
X95642857Y-95478628D01*
X95642857Y-95478628D02*
X95261905Y-95478628D01*
X96785714Y-95954819D02*
X96214286Y-95954819D01*
X96500000Y-95954819D02*
X96500000Y-94954819D01*
X96500000Y-94954819D02*
X96404762Y-95097676D01*
X96404762Y-95097676D02*
X96309524Y-95192914D01*
X96309524Y-95192914D02*
X96214286Y-95240533D01*
X92020833Y-79354819D02*
X91687500Y-78878628D01*
X91449405Y-79354819D02*
X91449405Y-78354819D01*
X91449405Y-78354819D02*
X91830357Y-78354819D01*
X91830357Y-78354819D02*
X91925595Y-78402438D01*
X91925595Y-78402438D02*
X91973214Y-78450057D01*
X91973214Y-78450057D02*
X92020833Y-78545295D01*
X92020833Y-78545295D02*
X92020833Y-78688152D01*
X92020833Y-78688152D02*
X91973214Y-78783390D01*
X91973214Y-78783390D02*
X91925595Y-78831009D01*
X91925595Y-78831009D02*
X91830357Y-78878628D01*
X91830357Y-78878628D02*
X91449405Y-78878628D01*
X92877976Y-78688152D02*
X92877976Y-79354819D01*
X92639881Y-78307200D02*
X92401786Y-79021485D01*
X92401786Y-79021485D02*
X93020833Y-79021485D01*
X100733333Y-86354819D02*
X100257143Y-86354819D01*
X100257143Y-86354819D02*
X100257143Y-85354819D01*
X101590476Y-86354819D02*
X101019048Y-86354819D01*
X101304762Y-86354819D02*
X101304762Y-85354819D01*
X101304762Y-85354819D02*
X101209524Y-85497676D01*
X101209524Y-85497676D02*
X101114286Y-85592914D01*
X101114286Y-85592914D02*
X101019048Y-85640533D01*
X88688095Y-57879819D02*
X88688095Y-58689342D01*
X88688095Y-58689342D02*
X88735714Y-58784580D01*
X88735714Y-58784580D02*
X88783333Y-58832200D01*
X88783333Y-58832200D02*
X88878571Y-58879819D01*
X88878571Y-58879819D02*
X89069047Y-58879819D01*
X89069047Y-58879819D02*
X89164285Y-58832200D01*
X89164285Y-58832200D02*
X89211904Y-58784580D01*
X89211904Y-58784580D02*
X89259523Y-58689342D01*
X89259523Y-58689342D02*
X89259523Y-57879819D01*
X89688095Y-57975057D02*
X89735714Y-57927438D01*
X89735714Y-57927438D02*
X89830952Y-57879819D01*
X89830952Y-57879819D02*
X90069047Y-57879819D01*
X90069047Y-57879819D02*
X90164285Y-57927438D01*
X90164285Y-57927438D02*
X90211904Y-57975057D01*
X90211904Y-57975057D02*
X90259523Y-58070295D01*
X90259523Y-58070295D02*
X90259523Y-58165533D01*
X90259523Y-58165533D02*
X90211904Y-58308390D01*
X90211904Y-58308390D02*
X89640476Y-58879819D01*
X89640476Y-58879819D02*
X90259523Y-58879819D01*
D10*
X80402571Y-89330589D02*
X80402571Y-89937732D01*
X80402571Y-89937732D02*
X80438285Y-90009160D01*
X80438285Y-90009160D02*
X80474000Y-90044875D01*
X80474000Y-90044875D02*
X80545428Y-90080589D01*
X80545428Y-90080589D02*
X80688285Y-90080589D01*
X80688285Y-90080589D02*
X80759714Y-90044875D01*
X80759714Y-90044875D02*
X80795428Y-90009160D01*
X80795428Y-90009160D02*
X80831142Y-89937732D01*
X80831142Y-89937732D02*
X80831142Y-89330589D01*
X81116856Y-89330589D02*
X81581142Y-89330589D01*
X81581142Y-89330589D02*
X81331142Y-89616303D01*
X81331142Y-89616303D02*
X81438285Y-89616303D01*
X81438285Y-89616303D02*
X81509714Y-89652017D01*
X81509714Y-89652017D02*
X81545428Y-89687732D01*
X81545428Y-89687732D02*
X81581142Y-89759160D01*
X81581142Y-89759160D02*
X81581142Y-89937732D01*
X81581142Y-89937732D02*
X81545428Y-90009160D01*
X81545428Y-90009160D02*
X81509714Y-90044875D01*
X81509714Y-90044875D02*
X81438285Y-90080589D01*
X81438285Y-90080589D02*
X81223999Y-90080589D01*
X81223999Y-90080589D02*
X81152571Y-90044875D01*
X81152571Y-90044875D02*
X81116856Y-90009160D01*
D11*
X77561905Y-79854819D02*
X77561905Y-78854819D01*
X77561905Y-78854819D02*
X77800000Y-78854819D01*
X77800000Y-78854819D02*
X77942857Y-78902438D01*
X77942857Y-78902438D02*
X78038095Y-78997676D01*
X78038095Y-78997676D02*
X78085714Y-79092914D01*
X78085714Y-79092914D02*
X78133333Y-79283390D01*
X78133333Y-79283390D02*
X78133333Y-79426247D01*
X78133333Y-79426247D02*
X78085714Y-79616723D01*
X78085714Y-79616723D02*
X78038095Y-79711961D01*
X78038095Y-79711961D02*
X77942857Y-79807200D01*
X77942857Y-79807200D02*
X77800000Y-79854819D01*
X77800000Y-79854819D02*
X77561905Y-79854819D01*
X79038095Y-78854819D02*
X78561905Y-78854819D01*
X78561905Y-78854819D02*
X78514286Y-79331009D01*
X78514286Y-79331009D02*
X78561905Y-79283390D01*
X78561905Y-79283390D02*
X78657143Y-79235771D01*
X78657143Y-79235771D02*
X78895238Y-79235771D01*
X78895238Y-79235771D02*
X78990476Y-79283390D01*
X78990476Y-79283390D02*
X79038095Y-79331009D01*
X79038095Y-79331009D02*
X79085714Y-79426247D01*
X79085714Y-79426247D02*
X79085714Y-79664342D01*
X79085714Y-79664342D02*
X79038095Y-79759580D01*
X79038095Y-79759580D02*
X78990476Y-79807200D01*
X78990476Y-79807200D02*
X78895238Y-79854819D01*
X78895238Y-79854819D02*
X78657143Y-79854819D01*
X78657143Y-79854819D02*
X78561905Y-79807200D01*
X78561905Y-79807200D02*
X78514286Y-79759580D01*
X77057142Y-87859580D02*
X77009523Y-87907200D01*
X77009523Y-87907200D02*
X76866666Y-87954819D01*
X76866666Y-87954819D02*
X76771428Y-87954819D01*
X76771428Y-87954819D02*
X76628571Y-87907200D01*
X76628571Y-87907200D02*
X76533333Y-87811961D01*
X76533333Y-87811961D02*
X76485714Y-87716723D01*
X76485714Y-87716723D02*
X76438095Y-87526247D01*
X76438095Y-87526247D02*
X76438095Y-87383390D01*
X76438095Y-87383390D02*
X76485714Y-87192914D01*
X76485714Y-87192914D02*
X76533333Y-87097676D01*
X76533333Y-87097676D02*
X76628571Y-87002438D01*
X76628571Y-87002438D02*
X76771428Y-86954819D01*
X76771428Y-86954819D02*
X76866666Y-86954819D01*
X76866666Y-86954819D02*
X77009523Y-87002438D01*
X77009523Y-87002438D02*
X77057142Y-87050057D01*
X78009523Y-87954819D02*
X77438095Y-87954819D01*
X77723809Y-87954819D02*
X77723809Y-86954819D01*
X77723809Y-86954819D02*
X77628571Y-87097676D01*
X77628571Y-87097676D02*
X77533333Y-87192914D01*
X77533333Y-87192914D02*
X77438095Y-87240533D01*
X78390476Y-87050057D02*
X78438095Y-87002438D01*
X78438095Y-87002438D02*
X78533333Y-86954819D01*
X78533333Y-86954819D02*
X78771428Y-86954819D01*
X78771428Y-86954819D02*
X78866666Y-87002438D01*
X78866666Y-87002438D02*
X78914285Y-87050057D01*
X78914285Y-87050057D02*
X78961904Y-87145295D01*
X78961904Y-87145295D02*
X78961904Y-87240533D01*
X78961904Y-87240533D02*
X78914285Y-87383390D01*
X78914285Y-87383390D02*
X78342857Y-87954819D01*
X78342857Y-87954819D02*
X78961904Y-87954819D01*
X88364285Y-96631009D02*
X88507142Y-96678628D01*
X88507142Y-96678628D02*
X88554761Y-96726247D01*
X88554761Y-96726247D02*
X88602380Y-96821485D01*
X88602380Y-96821485D02*
X88602380Y-96964342D01*
X88602380Y-96964342D02*
X88554761Y-97059580D01*
X88554761Y-97059580D02*
X88507142Y-97107200D01*
X88507142Y-97107200D02*
X88411904Y-97154819D01*
X88411904Y-97154819D02*
X88030952Y-97154819D01*
X88030952Y-97154819D02*
X88030952Y-96154819D01*
X88030952Y-96154819D02*
X88364285Y-96154819D01*
X88364285Y-96154819D02*
X88459523Y-96202438D01*
X88459523Y-96202438D02*
X88507142Y-96250057D01*
X88507142Y-96250057D02*
X88554761Y-96345295D01*
X88554761Y-96345295D02*
X88554761Y-96440533D01*
X88554761Y-96440533D02*
X88507142Y-96535771D01*
X88507142Y-96535771D02*
X88459523Y-96583390D01*
X88459523Y-96583390D02*
X88364285Y-96631009D01*
X88364285Y-96631009D02*
X88030952Y-96631009D01*
X88888095Y-96154819D02*
X89459523Y-96154819D01*
X89173809Y-97154819D02*
X89173809Y-96154819D01*
X90316666Y-97154819D02*
X89745238Y-97154819D01*
X90030952Y-97154819D02*
X90030952Y-96154819D01*
X90030952Y-96154819D02*
X89935714Y-96297676D01*
X89935714Y-96297676D02*
X89840476Y-96392914D01*
X89840476Y-96392914D02*
X89745238Y-96440533D01*
X83159580Y-49566666D02*
X83207200Y-49614285D01*
X83207200Y-49614285D02*
X83254819Y-49757142D01*
X83254819Y-49757142D02*
X83254819Y-49852380D01*
X83254819Y-49852380D02*
X83207200Y-49995237D01*
X83207200Y-49995237D02*
X83111961Y-50090475D01*
X83111961Y-50090475D02*
X83016723Y-50138094D01*
X83016723Y-50138094D02*
X82826247Y-50185713D01*
X82826247Y-50185713D02*
X82683390Y-50185713D01*
X82683390Y-50185713D02*
X82492914Y-50138094D01*
X82492914Y-50138094D02*
X82397676Y-50090475D01*
X82397676Y-50090475D02*
X82302438Y-49995237D01*
X82302438Y-49995237D02*
X82254819Y-49852380D01*
X82254819Y-49852380D02*
X82254819Y-49757142D01*
X82254819Y-49757142D02*
X82302438Y-49614285D01*
X82302438Y-49614285D02*
X82350057Y-49566666D01*
X82588152Y-48709523D02*
X83254819Y-48709523D01*
X82207200Y-48947618D02*
X82921485Y-49185713D01*
X82921485Y-49185713D02*
X82921485Y-48566666D01*
X74057142Y-83954819D02*
X73723809Y-83478628D01*
X73485714Y-83954819D02*
X73485714Y-82954819D01*
X73485714Y-82954819D02*
X73866666Y-82954819D01*
X73866666Y-82954819D02*
X73961904Y-83002438D01*
X73961904Y-83002438D02*
X74009523Y-83050057D01*
X74009523Y-83050057D02*
X74057142Y-83145295D01*
X74057142Y-83145295D02*
X74057142Y-83288152D01*
X74057142Y-83288152D02*
X74009523Y-83383390D01*
X74009523Y-83383390D02*
X73961904Y-83431009D01*
X73961904Y-83431009D02*
X73866666Y-83478628D01*
X73866666Y-83478628D02*
X73485714Y-83478628D01*
X75009523Y-83954819D02*
X74438095Y-83954819D01*
X74723809Y-83954819D02*
X74723809Y-82954819D01*
X74723809Y-82954819D02*
X74628571Y-83097676D01*
X74628571Y-83097676D02*
X74533333Y-83192914D01*
X74533333Y-83192914D02*
X74438095Y-83240533D01*
X75628571Y-82954819D02*
X75723809Y-82954819D01*
X75723809Y-82954819D02*
X75819047Y-83002438D01*
X75819047Y-83002438D02*
X75866666Y-83050057D01*
X75866666Y-83050057D02*
X75914285Y-83145295D01*
X75914285Y-83145295D02*
X75961904Y-83335771D01*
X75961904Y-83335771D02*
X75961904Y-83573866D01*
X75961904Y-83573866D02*
X75914285Y-83764342D01*
X75914285Y-83764342D02*
X75866666Y-83859580D01*
X75866666Y-83859580D02*
X75819047Y-83907200D01*
X75819047Y-83907200D02*
X75723809Y-83954819D01*
X75723809Y-83954819D02*
X75628571Y-83954819D01*
X75628571Y-83954819D02*
X75533333Y-83907200D01*
X75533333Y-83907200D02*
X75485714Y-83859580D01*
X75485714Y-83859580D02*
X75438095Y-83764342D01*
X75438095Y-83764342D02*
X75390476Y-83573866D01*
X75390476Y-83573866D02*
X75390476Y-83335771D01*
X75390476Y-83335771D02*
X75438095Y-83145295D01*
X75438095Y-83145295D02*
X75485714Y-83050057D01*
X75485714Y-83050057D02*
X75533333Y-83002438D01*
X75533333Y-83002438D02*
X75628571Y-82954819D01*
X67291666Y-88234819D02*
X67291666Y-88949104D01*
X67291666Y-88949104D02*
X67244047Y-89091961D01*
X67244047Y-89091961D02*
X67148809Y-89187200D01*
X67148809Y-89187200D02*
X67005952Y-89234819D01*
X67005952Y-89234819D02*
X66910714Y-89234819D01*
X68291666Y-89234819D02*
X67720238Y-89234819D01*
X68005952Y-89234819D02*
X68005952Y-88234819D01*
X68005952Y-88234819D02*
X67910714Y-88377676D01*
X67910714Y-88377676D02*
X67815476Y-88472914D01*
X67815476Y-88472914D02*
X67720238Y-88520533D01*
X84156142Y-87585580D02*
X84108523Y-87633200D01*
X84108523Y-87633200D02*
X83965666Y-87680819D01*
X83965666Y-87680819D02*
X83870428Y-87680819D01*
X83870428Y-87680819D02*
X83727571Y-87633200D01*
X83727571Y-87633200D02*
X83632333Y-87537961D01*
X83632333Y-87537961D02*
X83584714Y-87442723D01*
X83584714Y-87442723D02*
X83537095Y-87252247D01*
X83537095Y-87252247D02*
X83537095Y-87109390D01*
X83537095Y-87109390D02*
X83584714Y-86918914D01*
X83584714Y-86918914D02*
X83632333Y-86823676D01*
X83632333Y-86823676D02*
X83727571Y-86728438D01*
X83727571Y-86728438D02*
X83870428Y-86680819D01*
X83870428Y-86680819D02*
X83965666Y-86680819D01*
X83965666Y-86680819D02*
X84108523Y-86728438D01*
X84108523Y-86728438D02*
X84156142Y-86776057D01*
X85108523Y-87680819D02*
X84537095Y-87680819D01*
X84822809Y-87680819D02*
X84822809Y-86680819D01*
X84822809Y-86680819D02*
X84727571Y-86823676D01*
X84727571Y-86823676D02*
X84632333Y-86918914D01*
X84632333Y-86918914D02*
X84537095Y-86966533D01*
X86060904Y-87680819D02*
X85489476Y-87680819D01*
X85775190Y-87680819D02*
X85775190Y-86680819D01*
X85775190Y-86680819D02*
X85679952Y-86823676D01*
X85679952Y-86823676D02*
X85584714Y-86918914D01*
X85584714Y-86918914D02*
X85489476Y-86966533D01*
X108638095Y-50814819D02*
X108638095Y-49814819D01*
X108638095Y-49814819D02*
X108876190Y-49814819D01*
X108876190Y-49814819D02*
X109019047Y-49862438D01*
X109019047Y-49862438D02*
X109114285Y-49957676D01*
X109114285Y-49957676D02*
X109161904Y-50052914D01*
X109161904Y-50052914D02*
X109209523Y-50243390D01*
X109209523Y-50243390D02*
X109209523Y-50386247D01*
X109209523Y-50386247D02*
X109161904Y-50576723D01*
X109161904Y-50576723D02*
X109114285Y-50671961D01*
X109114285Y-50671961D02*
X109019047Y-50767200D01*
X109019047Y-50767200D02*
X108876190Y-50814819D01*
X108876190Y-50814819D02*
X108638095Y-50814819D01*
X109971428Y-50291009D02*
X110114285Y-50338628D01*
X110114285Y-50338628D02*
X110161904Y-50386247D01*
X110161904Y-50386247D02*
X110209523Y-50481485D01*
X110209523Y-50481485D02*
X110209523Y-50624342D01*
X110209523Y-50624342D02*
X110161904Y-50719580D01*
X110161904Y-50719580D02*
X110114285Y-50767200D01*
X110114285Y-50767200D02*
X110019047Y-50814819D01*
X110019047Y-50814819D02*
X109638095Y-50814819D01*
X109638095Y-50814819D02*
X109638095Y-49814819D01*
X109638095Y-49814819D02*
X109971428Y-49814819D01*
X109971428Y-49814819D02*
X110066666Y-49862438D01*
X110066666Y-49862438D02*
X110114285Y-49910057D01*
X110114285Y-49910057D02*
X110161904Y-50005295D01*
X110161904Y-50005295D02*
X110161904Y-50100533D01*
X110161904Y-50100533D02*
X110114285Y-50195771D01*
X110114285Y-50195771D02*
X110066666Y-50243390D01*
X110066666Y-50243390D02*
X109971428Y-50291009D01*
X109971428Y-50291009D02*
X109638095Y-50291009D01*
X111161904Y-49862438D02*
X111066666Y-49814819D01*
X111066666Y-49814819D02*
X110923809Y-49814819D01*
X110923809Y-49814819D02*
X110780952Y-49862438D01*
X110780952Y-49862438D02*
X110685714Y-49957676D01*
X110685714Y-49957676D02*
X110638095Y-50052914D01*
X110638095Y-50052914D02*
X110590476Y-50243390D01*
X110590476Y-50243390D02*
X110590476Y-50386247D01*
X110590476Y-50386247D02*
X110638095Y-50576723D01*
X110638095Y-50576723D02*
X110685714Y-50671961D01*
X110685714Y-50671961D02*
X110780952Y-50767200D01*
X110780952Y-50767200D02*
X110923809Y-50814819D01*
X110923809Y-50814819D02*
X111019047Y-50814819D01*
X111019047Y-50814819D02*
X111161904Y-50767200D01*
X111161904Y-50767200D02*
X111209523Y-50719580D01*
X111209523Y-50719580D02*
X111209523Y-50386247D01*
X111209523Y-50386247D02*
X111019047Y-50386247D01*
X95833333Y-93954819D02*
X95500000Y-93478628D01*
X95261905Y-93954819D02*
X95261905Y-92954819D01*
X95261905Y-92954819D02*
X95642857Y-92954819D01*
X95642857Y-92954819D02*
X95738095Y-93002438D01*
X95738095Y-93002438D02*
X95785714Y-93050057D01*
X95785714Y-93050057D02*
X95833333Y-93145295D01*
X95833333Y-93145295D02*
X95833333Y-93288152D01*
X95833333Y-93288152D02*
X95785714Y-93383390D01*
X95785714Y-93383390D02*
X95738095Y-93431009D01*
X95738095Y-93431009D02*
X95642857Y-93478628D01*
X95642857Y-93478628D02*
X95261905Y-93478628D01*
X96214286Y-93050057D02*
X96261905Y-93002438D01*
X96261905Y-93002438D02*
X96357143Y-92954819D01*
X96357143Y-92954819D02*
X96595238Y-92954819D01*
X96595238Y-92954819D02*
X96690476Y-93002438D01*
X96690476Y-93002438D02*
X96738095Y-93050057D01*
X96738095Y-93050057D02*
X96785714Y-93145295D01*
X96785714Y-93145295D02*
X96785714Y-93240533D01*
X96785714Y-93240533D02*
X96738095Y-93383390D01*
X96738095Y-93383390D02*
X96166667Y-93954819D01*
X96166667Y-93954819D02*
X96785714Y-93954819D01*
X78961905Y-96454819D02*
X78961905Y-95454819D01*
X78961905Y-95454819D02*
X79200000Y-95454819D01*
X79200000Y-95454819D02*
X79342857Y-95502438D01*
X79342857Y-95502438D02*
X79438095Y-95597676D01*
X79438095Y-95597676D02*
X79485714Y-95692914D01*
X79485714Y-95692914D02*
X79533333Y-95883390D01*
X79533333Y-95883390D02*
X79533333Y-96026247D01*
X79533333Y-96026247D02*
X79485714Y-96216723D01*
X79485714Y-96216723D02*
X79438095Y-96311961D01*
X79438095Y-96311961D02*
X79342857Y-96407200D01*
X79342857Y-96407200D02*
X79200000Y-96454819D01*
X79200000Y-96454819D02*
X78961905Y-96454819D01*
X79866667Y-95454819D02*
X80485714Y-95454819D01*
X80485714Y-95454819D02*
X80152381Y-95835771D01*
X80152381Y-95835771D02*
X80295238Y-95835771D01*
X80295238Y-95835771D02*
X80390476Y-95883390D01*
X80390476Y-95883390D02*
X80438095Y-95931009D01*
X80438095Y-95931009D02*
X80485714Y-96026247D01*
X80485714Y-96026247D02*
X80485714Y-96264342D01*
X80485714Y-96264342D02*
X80438095Y-96359580D01*
X80438095Y-96359580D02*
X80390476Y-96407200D01*
X80390476Y-96407200D02*
X80295238Y-96454819D01*
X80295238Y-96454819D02*
X80009524Y-96454819D01*
X80009524Y-96454819D02*
X79914286Y-96407200D01*
X79914286Y-96407200D02*
X79866667Y-96359580D01*
X95170833Y-66859580D02*
X95123214Y-66907200D01*
X95123214Y-66907200D02*
X94980357Y-66954819D01*
X94980357Y-66954819D02*
X94885119Y-66954819D01*
X94885119Y-66954819D02*
X94742262Y-66907200D01*
X94742262Y-66907200D02*
X94647024Y-66811961D01*
X94647024Y-66811961D02*
X94599405Y-66716723D01*
X94599405Y-66716723D02*
X94551786Y-66526247D01*
X94551786Y-66526247D02*
X94551786Y-66383390D01*
X94551786Y-66383390D02*
X94599405Y-66192914D01*
X94599405Y-66192914D02*
X94647024Y-66097676D01*
X94647024Y-66097676D02*
X94742262Y-66002438D01*
X94742262Y-66002438D02*
X94885119Y-65954819D01*
X94885119Y-65954819D02*
X94980357Y-65954819D01*
X94980357Y-65954819D02*
X95123214Y-66002438D01*
X95123214Y-66002438D02*
X95170833Y-66050057D01*
X95742262Y-66383390D02*
X95647024Y-66335771D01*
X95647024Y-66335771D02*
X95599405Y-66288152D01*
X95599405Y-66288152D02*
X95551786Y-66192914D01*
X95551786Y-66192914D02*
X95551786Y-66145295D01*
X95551786Y-66145295D02*
X95599405Y-66050057D01*
X95599405Y-66050057D02*
X95647024Y-66002438D01*
X95647024Y-66002438D02*
X95742262Y-65954819D01*
X95742262Y-65954819D02*
X95932738Y-65954819D01*
X95932738Y-65954819D02*
X96027976Y-66002438D01*
X96027976Y-66002438D02*
X96075595Y-66050057D01*
X96075595Y-66050057D02*
X96123214Y-66145295D01*
X96123214Y-66145295D02*
X96123214Y-66192914D01*
X96123214Y-66192914D02*
X96075595Y-66288152D01*
X96075595Y-66288152D02*
X96027976Y-66335771D01*
X96027976Y-66335771D02*
X95932738Y-66383390D01*
X95932738Y-66383390D02*
X95742262Y-66383390D01*
X95742262Y-66383390D02*
X95647024Y-66431009D01*
X95647024Y-66431009D02*
X95599405Y-66478628D01*
X95599405Y-66478628D02*
X95551786Y-66573866D01*
X95551786Y-66573866D02*
X95551786Y-66764342D01*
X95551786Y-66764342D02*
X95599405Y-66859580D01*
X95599405Y-66859580D02*
X95647024Y-66907200D01*
X95647024Y-66907200D02*
X95742262Y-66954819D01*
X95742262Y-66954819D02*
X95932738Y-66954819D01*
X95932738Y-66954819D02*
X96027976Y-66907200D01*
X96027976Y-66907200D02*
X96075595Y-66859580D01*
X96075595Y-66859580D02*
X96123214Y-66764342D01*
X96123214Y-66764342D02*
X96123214Y-66573866D01*
X96123214Y-66573866D02*
X96075595Y-66478628D01*
X96075595Y-66478628D02*
X96027976Y-66431009D01*
X96027976Y-66431009D02*
X95932738Y-66383390D01*
D10*
X98428571Y-90142089D02*
X98428571Y-90749232D01*
X98428571Y-90749232D02*
X98464285Y-90820660D01*
X98464285Y-90820660D02*
X98500000Y-90856375D01*
X98500000Y-90856375D02*
X98571428Y-90892089D01*
X98571428Y-90892089D02*
X98714285Y-90892089D01*
X98714285Y-90892089D02*
X98785714Y-90856375D01*
X98785714Y-90856375D02*
X98821428Y-90820660D01*
X98821428Y-90820660D02*
X98857142Y-90749232D01*
X98857142Y-90749232D02*
X98857142Y-90142089D01*
X99607142Y-90892089D02*
X99178571Y-90892089D01*
X99392856Y-90892089D02*
X99392856Y-90142089D01*
X99392856Y-90142089D02*
X99321428Y-90249232D01*
X99321428Y-90249232D02*
X99249999Y-90320660D01*
X99249999Y-90320660D02*
X99178571Y-90356375D01*
X77917856Y-69242089D02*
X77667856Y-68884946D01*
X77489285Y-69242089D02*
X77489285Y-68492089D01*
X77489285Y-68492089D02*
X77774999Y-68492089D01*
X77774999Y-68492089D02*
X77846428Y-68527803D01*
X77846428Y-68527803D02*
X77882142Y-68563517D01*
X77882142Y-68563517D02*
X77917856Y-68634946D01*
X77917856Y-68634946D02*
X77917856Y-68742089D01*
X77917856Y-68742089D02*
X77882142Y-68813517D01*
X77882142Y-68813517D02*
X77846428Y-68849232D01*
X77846428Y-68849232D02*
X77774999Y-68884946D01*
X77774999Y-68884946D02*
X77489285Y-68884946D01*
X78632142Y-69242089D02*
X78203571Y-69242089D01*
X78417856Y-69242089D02*
X78417856Y-68492089D01*
X78417856Y-68492089D02*
X78346428Y-68599232D01*
X78346428Y-68599232D02*
X78274999Y-68670660D01*
X78274999Y-68670660D02*
X78203571Y-68706375D01*
X79346428Y-69242089D02*
X78917857Y-69242089D01*
X79132142Y-69242089D02*
X79132142Y-68492089D01*
X79132142Y-68492089D02*
X79060714Y-68599232D01*
X79060714Y-68599232D02*
X78989285Y-68670660D01*
X78989285Y-68670660D02*
X78917857Y-68706375D01*
D11*
X105033333Y-90659580D02*
X104985714Y-90707200D01*
X104985714Y-90707200D02*
X104842857Y-90754819D01*
X104842857Y-90754819D02*
X104747619Y-90754819D01*
X104747619Y-90754819D02*
X104604762Y-90707200D01*
X104604762Y-90707200D02*
X104509524Y-90611961D01*
X104509524Y-90611961D02*
X104461905Y-90516723D01*
X104461905Y-90516723D02*
X104414286Y-90326247D01*
X104414286Y-90326247D02*
X104414286Y-90183390D01*
X104414286Y-90183390D02*
X104461905Y-89992914D01*
X104461905Y-89992914D02*
X104509524Y-89897676D01*
X104509524Y-89897676D02*
X104604762Y-89802438D01*
X104604762Y-89802438D02*
X104747619Y-89754819D01*
X104747619Y-89754819D02*
X104842857Y-89754819D01*
X104842857Y-89754819D02*
X104985714Y-89802438D01*
X104985714Y-89802438D02*
X105033333Y-89850057D01*
X105414286Y-89850057D02*
X105461905Y-89802438D01*
X105461905Y-89802438D02*
X105557143Y-89754819D01*
X105557143Y-89754819D02*
X105795238Y-89754819D01*
X105795238Y-89754819D02*
X105890476Y-89802438D01*
X105890476Y-89802438D02*
X105938095Y-89850057D01*
X105938095Y-89850057D02*
X105985714Y-89945295D01*
X105985714Y-89945295D02*
X105985714Y-90040533D01*
X105985714Y-90040533D02*
X105938095Y-90183390D01*
X105938095Y-90183390D02*
X105366667Y-90754819D01*
X105366667Y-90754819D02*
X105985714Y-90754819D01*
X77666319Y-92755166D02*
X77190128Y-93088499D01*
X77666319Y-93326594D02*
X76666319Y-93326594D01*
X76666319Y-93326594D02*
X76666319Y-92945642D01*
X76666319Y-92945642D02*
X76713938Y-92850404D01*
X76713938Y-92850404D02*
X76761557Y-92802785D01*
X76761557Y-92802785D02*
X76856795Y-92755166D01*
X76856795Y-92755166D02*
X76999652Y-92755166D01*
X76999652Y-92755166D02*
X77094890Y-92802785D01*
X77094890Y-92802785D02*
X77142509Y-92850404D01*
X77142509Y-92850404D02*
X77190128Y-92945642D01*
X77190128Y-92945642D02*
X77190128Y-93326594D01*
X77666319Y-92278975D02*
X77666319Y-92088499D01*
X77666319Y-92088499D02*
X77618700Y-91993261D01*
X77618700Y-91993261D02*
X77571080Y-91945642D01*
X77571080Y-91945642D02*
X77428223Y-91850404D01*
X77428223Y-91850404D02*
X77237747Y-91802785D01*
X77237747Y-91802785D02*
X76856795Y-91802785D01*
X76856795Y-91802785D02*
X76761557Y-91850404D01*
X76761557Y-91850404D02*
X76713938Y-91898023D01*
X76713938Y-91898023D02*
X76666319Y-91993261D01*
X76666319Y-91993261D02*
X76666319Y-92183737D01*
X76666319Y-92183737D02*
X76713938Y-92278975D01*
X76713938Y-92278975D02*
X76761557Y-92326594D01*
X76761557Y-92326594D02*
X76856795Y-92374213D01*
X76856795Y-92374213D02*
X77094890Y-92374213D01*
X77094890Y-92374213D02*
X77190128Y-92326594D01*
X77190128Y-92326594D02*
X77237747Y-92278975D01*
X77237747Y-92278975D02*
X77285366Y-92183737D01*
X77285366Y-92183737D02*
X77285366Y-91993261D01*
X77285366Y-91993261D02*
X77237747Y-91898023D01*
X77237747Y-91898023D02*
X77190128Y-91850404D01*
X77190128Y-91850404D02*
X77094890Y-91802785D01*
D13*
%TO.C,C10*%
X81046267Y-53790000D02*
X80753733Y-53790000D01*
X81046267Y-54810000D02*
X80753733Y-54810000D01*
%TO.C,C6*%
X95303733Y-63990000D02*
X95596267Y-63990000D01*
X95303733Y-65010000D02*
X95596267Y-65010000D01*
%TO.C,C3*%
X80733767Y-59740000D02*
X80441233Y-59740000D01*
X80733767Y-60760000D02*
X80441233Y-60760000D01*
%TO.C,C9*%
X83596267Y-63990000D02*
X83303733Y-63990000D01*
X83596267Y-65010000D02*
X83303733Y-65010000D01*
%TO.C,C5*%
X96416233Y-52490000D02*
X96708767Y-52490000D01*
X96416233Y-53510000D02*
X96708767Y-53510000D01*
%TO.C,R13*%
X97727500Y-68845276D02*
X97727500Y-69354724D01*
X98772500Y-68845276D02*
X98772500Y-69354724D01*
%TO.C,C7*%
X79646267Y-58190000D02*
X79353733Y-58190000D01*
X79646267Y-59210000D02*
X79353733Y-59210000D01*
%TO.C,R14*%
X97727500Y-74354724D02*
X97727500Y-73845276D01*
X98772500Y-74354724D02*
X98772500Y-73845276D01*
%TO.C,D1*%
X95175000Y-81035000D02*
X97635000Y-81035000D01*
X97635000Y-79565000D02*
X95175000Y-79565000D01*
X97635000Y-81035000D02*
X97635000Y-79565000D01*
%TO.C,R13*%
X87477500Y-78254724D02*
X87477500Y-77745276D01*
X88522500Y-78254724D02*
X88522500Y-77745276D01*
%TO.C,J6*%
X88220000Y-70780000D02*
X88220000Y-69400000D01*
X89600000Y-70780000D02*
X88220000Y-70780000D01*
X90870000Y-68020000D02*
X93520000Y-68020000D01*
X90870000Y-70780000D02*
X90870000Y-68020000D01*
X90870000Y-70780000D02*
X93520000Y-70780000D01*
X93520000Y-70780000D02*
X93520000Y-68020000D01*
%TO.C,C15*%
X89190000Y-81746267D02*
X89190000Y-81453733D01*
X90210000Y-81746267D02*
X90210000Y-81453733D01*
%TO.C,D2*%
X83540000Y-68965000D02*
X83540000Y-70435000D01*
X83540000Y-70435000D02*
X86000000Y-70435000D01*
X86000000Y-68965000D02*
X83540000Y-68965000D01*
%TO.C,J4*%
X106320000Y-66830000D02*
X106320000Y-59100000D01*
X109080000Y-59100000D02*
X106320000Y-59100000D01*
X109080000Y-66830000D02*
X106320000Y-66830000D01*
X109080000Y-66830000D02*
X109080000Y-59100000D01*
X109080000Y-68100000D02*
X109080000Y-69480000D01*
X109080000Y-69480000D02*
X107700000Y-69480000D01*
%TO.C,U5*%
X82037500Y-81690000D02*
X81237500Y-81690000D01*
X82037500Y-81690000D02*
X82837500Y-81690000D01*
X82037500Y-84810000D02*
X81237500Y-84810000D01*
X82037500Y-84810000D02*
X82837500Y-84810000D01*
X83577500Y-85090000D02*
X83097500Y-85090000D01*
X83337500Y-84760000D01*
X83577500Y-85090000D01*
G36*
X83577500Y-85090000D02*
G01*
X83097500Y-85090000D01*
X83337500Y-84760000D01*
X83577500Y-85090000D01*
G37*
%TO.C,C17*%
X83083767Y-76290000D02*
X82791233Y-76290000D01*
X83083767Y-77310000D02*
X82791233Y-77310000D01*
%TO.C,R7*%
X72262742Y-60577500D02*
X72737258Y-60577500D01*
X72262742Y-61622500D02*
X72737258Y-61622500D01*
%TO.C,J5*%
X70020000Y-70570000D02*
X70020000Y-65380000D01*
X72780000Y-65380000D02*
X70020000Y-65380000D01*
X72780000Y-70570000D02*
X70020000Y-70570000D01*
X72780000Y-70570000D02*
X72780000Y-65380000D01*
X72780000Y-71840000D02*
X72780000Y-73220000D01*
X72780000Y-73220000D02*
X71400000Y-73220000D01*
%TO.C,R12*%
X77177500Y-65054724D02*
X77177500Y-64545276D01*
X78222500Y-65054724D02*
X78222500Y-64545276D01*
%TO.C,J2*%
X75220000Y-42020000D02*
X75220000Y-44780000D01*
X100730000Y-42020000D02*
X75220000Y-42020000D01*
X100730000Y-42020000D02*
X100730000Y-44780000D01*
X100730000Y-44780000D02*
X75220000Y-44780000D01*
X102000000Y-42020000D02*
X103380000Y-42020000D01*
X103380000Y-42020000D02*
X103380000Y-43400000D01*
D12*
X111900000Y-70400000D02*
X100900000Y-70400000D01*
X100900000Y-84000000D01*
X111900000Y-84000000D01*
X111900000Y-70400000D01*
D13*
%TO.C,C1*%
X95590000Y-90416233D02*
X95590000Y-90708767D01*
X96610000Y-90416233D02*
X96610000Y-90708767D01*
%TO.C,RV1*%
X69100000Y-45800000D02*
X69100000Y-46500000D01*
X69600000Y-47400000D02*
X69600000Y-47800000D01*
X69800000Y-45800000D02*
X69100000Y-45800000D01*
X70700000Y-46000000D02*
X73600000Y-46000000D01*
X70700000Y-49200000D02*
X73600000Y-49200000D01*
X73600000Y-46000000D02*
X73600000Y-46600000D01*
X73600000Y-49200000D02*
X73600000Y-48600000D01*
%TO.C,C16*%
X78490000Y-84116233D02*
X78490000Y-84408767D01*
X79510000Y-84116233D02*
X79510000Y-84408767D01*
%TO.C,L3*%
X89171267Y-83690000D02*
X88828733Y-83690000D01*
X89171267Y-84710000D02*
X88828733Y-84710000D01*
%TO.C,R6*%
X69300000Y-56600000D02*
X69300000Y-53800000D01*
X73500000Y-56600000D02*
X73500000Y-53800000D01*
X69300000Y-53800000D02*
G75*
G02*
X73509242Y-53813963I2100000J-1400000D01*
G01*
X73500000Y-56600000D02*
G75*
G02*
X69290758Y-56586037I-2100000J1400000D01*
G01*
%TO.C,R8*%
X81976500Y-93655724D02*
X81976500Y-93146276D01*
X83021500Y-93655724D02*
X83021500Y-93146276D01*
%TO.C,SW1*%
X91187500Y-81887500D02*
X91187500Y-84547500D01*
X93787500Y-81887500D02*
X91187500Y-81887500D01*
X93787500Y-81887500D02*
X93787500Y-84547500D01*
X93787500Y-84547500D02*
X91187500Y-84547500D01*
X96387500Y-83217500D02*
X96387500Y-84547500D01*
X96387500Y-84547500D02*
X95057500Y-84547500D01*
%TO.C,R5*%
X86577500Y-67454724D02*
X86577500Y-66945276D01*
X87622500Y-67454724D02*
X87622500Y-66945276D01*
%TO.C,R1*%
X99042224Y-94977500D02*
X98532776Y-94977500D01*
X99042224Y-96022500D02*
X98532776Y-96022500D01*
%TO.C,R4*%
X92442224Y-79777500D02*
X91932776Y-79777500D01*
X92442224Y-80822500D02*
X91932776Y-80822500D01*
%TO.C,L1*%
X100753733Y-86890000D02*
X101096267Y-86890000D01*
X100753733Y-87910000D02*
X101096267Y-87910000D01*
%TO.C,U2*%
X84340000Y-53315000D02*
X84340000Y-54265000D01*
X84340000Y-63535000D02*
X84340000Y-62585000D01*
X85290000Y-53315000D02*
X84340000Y-53315000D01*
X85290000Y-63535000D02*
X84340000Y-63535000D01*
X93610000Y-53315000D02*
X94560000Y-53315000D01*
X93610000Y-63535000D02*
X94560000Y-63535000D01*
X94560000Y-53315000D02*
X94560000Y-54265000D01*
X94560000Y-63535000D02*
X94560000Y-62585000D01*
X83725000Y-54265000D02*
X83385000Y-53795000D01*
X84065000Y-53795000D01*
X83725000Y-54265000D01*
G36*
X83725000Y-54265000D02*
G01*
X83385000Y-53795000D01*
X84065000Y-53795000D01*
X83725000Y-54265000D01*
G37*
%TO.C,U3*%
X81236500Y-88178500D02*
X80436500Y-88178500D01*
X81236500Y-88178500D02*
X82036500Y-88178500D01*
X81236500Y-91298500D02*
X80436500Y-91298500D01*
X81236500Y-91298500D02*
X82036500Y-91298500D01*
X82776500Y-91578500D02*
X82296500Y-91578500D01*
X82536500Y-91248500D01*
X82776500Y-91578500D01*
G36*
X82776500Y-91578500D02*
G01*
X82296500Y-91578500D01*
X82536500Y-91248500D01*
X82776500Y-91578500D01*
G37*
%TO.C,D5*%
X79490000Y-77750000D02*
X79490000Y-81050000D01*
X79490000Y-77750000D02*
X85000000Y-77750000D01*
X79490000Y-81050000D02*
X85000000Y-81050000D01*
%TO.C,C12*%
X77289000Y-89742233D02*
X77289000Y-90034767D01*
X78309000Y-89742233D02*
X78309000Y-90034767D01*
%TO.C,BT1*%
X86740000Y-88940000D02*
X86740000Y-95060000D01*
X86740000Y-95060000D02*
X91460000Y-95060000D01*
X87350000Y-89550000D02*
X87350000Y-94450000D01*
X87350000Y-91900000D02*
X87850000Y-91900000D01*
X87350000Y-92000000D02*
X87850000Y-92000000D01*
X87350000Y-94450000D02*
X90850000Y-94450000D01*
X87850000Y-91900000D02*
X87850000Y-92100000D01*
X87850000Y-92100000D02*
X87350000Y-92100000D01*
X88850000Y-88940000D02*
X88850000Y-89550000D01*
X88850000Y-95060000D02*
X88850000Y-94450000D01*
X90150000Y-88940000D02*
X90150000Y-89550000D01*
X90150000Y-95060000D02*
X90150000Y-94450000D01*
X90850000Y-89550000D02*
X87350000Y-89550000D01*
X90850000Y-91500000D02*
X90850000Y-89550000D01*
X90850000Y-92500000D02*
X91460000Y-92500000D01*
X90850000Y-94450000D02*
X90850000Y-92500000D01*
X91460000Y-88940000D02*
X86740000Y-88940000D01*
X91460000Y-90700000D02*
X91660000Y-90700000D01*
X91460000Y-91500000D02*
X90850000Y-91500000D01*
X91460000Y-95060000D02*
X91460000Y-88940000D01*
X91560000Y-90700000D02*
X91560000Y-90400000D01*
X91660000Y-90400000D02*
X91460000Y-90400000D01*
X91660000Y-90700000D02*
X91660000Y-90400000D01*
X91760000Y-88640000D02*
X90510000Y-88640000D01*
X91760000Y-89890000D02*
X91760000Y-88640000D01*
%TO.C,C4*%
X83990000Y-49783767D02*
X83990000Y-49491233D01*
X85010000Y-49783767D02*
X85010000Y-49491233D01*
%TO.C,R10*%
X74077500Y-86154724D02*
X74077500Y-85645276D01*
X75122500Y-86154724D02*
X75122500Y-85645276D01*
%TO.C,J1*%
X67650000Y-84110000D02*
X69350000Y-84110000D01*
X67650000Y-93450000D02*
X69350000Y-93450000D01*
%TO.C,C11*%
X84289000Y-89542233D02*
X84289000Y-89834767D01*
X85309000Y-89542233D02*
X85309000Y-89834767D01*
%TO.C,DBG*%
X105220000Y-45180000D02*
X106600000Y-45180000D01*
X105220000Y-46560000D02*
X105220000Y-45180000D01*
X105220000Y-47830000D02*
X105220000Y-55560000D01*
X105220000Y-47830000D02*
X107980000Y-47830000D01*
X105220000Y-55560000D02*
X107980000Y-55560000D01*
X107980000Y-47830000D02*
X107980000Y-55560000D01*
%TO.C,R2*%
X98545276Y-92977500D02*
X99054724Y-92977500D01*
X98545276Y-94022500D02*
X99054724Y-94022500D01*
%TO.C,D3*%
X78999000Y-95123500D02*
X81459000Y-95123500D01*
X81459000Y-93653500D02*
X78999000Y-93653500D01*
X81459000Y-95123500D02*
X81459000Y-93653500D01*
%TO.C,C8*%
X92491233Y-65990000D02*
X92783767Y-65990000D01*
X92491233Y-67010000D02*
X92783767Y-67010000D01*
%TO.C,U1*%
X99262500Y-88990000D02*
X98462500Y-88990000D01*
X99262500Y-88990000D02*
X100062500Y-88990000D01*
X99262500Y-92110000D02*
X98462500Y-92110000D01*
X99262500Y-92110000D02*
X100062500Y-92110000D01*
X100802500Y-92390000D02*
X100322500Y-92390000D01*
X100562500Y-92060000D01*
X100802500Y-92390000D01*
G36*
X100802500Y-92390000D02*
G01*
X100322500Y-92390000D01*
X100562500Y-92060000D01*
X100802500Y-92390000D01*
G37*
%TO.C,R11*%
X78854724Y-66877500D02*
X78345276Y-66877500D01*
X78854724Y-67922500D02*
X78345276Y-67922500D01*
%TO.C,C2*%
X102890000Y-90616233D02*
X102890000Y-90908767D01*
X103910000Y-90616233D02*
X103910000Y-90908767D01*
%TO.C,R9*%
X80053724Y-92066000D02*
X79544276Y-92066000D01*
X80053724Y-93111000D02*
X79544276Y-93111000D01*
%TD*%
%LPC*%
D14*
%TO.C,C10*%
X81762500Y-54300000D03*
X80037500Y-54300000D03*
%TD*%
D15*
%TO.C,C6*%
X94587500Y-64500000D03*
X96312500Y-64500000D03*
%TD*%
D14*
%TO.C,C3*%
X81450000Y-60250000D03*
X79725000Y-60250000D03*
%TD*%
%TO.C,C9*%
X84312500Y-64500000D03*
X82587500Y-64500000D03*
%TD*%
D15*
%TO.C,C5*%
X95700000Y-53000000D03*
X97425000Y-53000000D03*
%TD*%
D16*
%TO.C,R13*%
X98250000Y-68187500D03*
X98250000Y-70012500D03*
%TD*%
D14*
%TO.C,C7*%
X80362500Y-58700000D03*
X78637500Y-58700000D03*
%TD*%
D17*
%TO.C,R14*%
X98250000Y-75012500D03*
X98250000Y-73187500D03*
%TD*%
D18*
%TO.C,D1*%
X96850000Y-80300000D03*
X95100000Y-80300000D03*
%TD*%
D17*
%TO.C,R13*%
X88000000Y-78912500D03*
X88000000Y-77087500D03*
%TD*%
D19*
%TO.C,J6*%
X89600000Y-69400000D03*
D20*
X92140000Y-69400000D03*
%TD*%
D21*
%TO.C,C15*%
X89700000Y-82462500D03*
X89700000Y-80737500D03*
%TD*%
D22*
%TO.C,2.2mm*%
X67000000Y-42500000D03*
%TD*%
D23*
%TO.C,D2*%
X84325000Y-69700000D03*
X86075000Y-69700000D03*
%TD*%
D19*
%TO.C,J4*%
X107700000Y-68100000D03*
D20*
X107700000Y-65560000D03*
X107700000Y-63020000D03*
X107700000Y-60480000D03*
%TD*%
D24*
%TO.C,U5*%
X83175000Y-84200000D03*
X83175000Y-83250000D03*
X83175000Y-82300000D03*
X80900000Y-82300000D03*
X80900000Y-84200000D03*
%TD*%
D14*
%TO.C,C17*%
X83800000Y-76800000D03*
X82075000Y-76800000D03*
%TD*%
D25*
%TO.C,R7*%
X71675000Y-61100000D03*
X73325000Y-61100000D03*
%TD*%
D19*
%TO.C,J5*%
X71400000Y-71840000D03*
D20*
X71400000Y-69300000D03*
X71400000Y-66760000D03*
%TD*%
D17*
%TO.C,R12*%
X77700000Y-65712500D03*
X77700000Y-63887500D03*
%TD*%
D22*
%TO.C,REF\u002A\u002A*%
X67000000Y-96500000D03*
%TD*%
D19*
%TO.C,J2*%
X102000000Y-43400000D03*
D20*
X99460000Y-43400000D03*
X96920000Y-43400000D03*
X94380000Y-43400000D03*
X91840000Y-43400000D03*
X89300000Y-43400000D03*
X86760000Y-43400000D03*
X84220000Y-43400000D03*
X81680000Y-43400000D03*
X79140000Y-43400000D03*
X76600000Y-43400000D03*
%TD*%
D26*
%TO.C,J2*%
X103100000Y-72120000D03*
X103100000Y-74660000D03*
X103100000Y-77200000D03*
X103100000Y-79740000D03*
X103110000Y-82280000D03*
%TD*%
D27*
%TO.C,FB1*%
X72810000Y-88900000D03*
X74590000Y-88900000D03*
%TD*%
D28*
%TO.C,C1*%
X96100000Y-89700000D03*
X96100000Y-91425000D03*
%TD*%
D29*
%TO.C,RV1*%
X69900000Y-46600000D03*
D30*
X73150000Y-47600000D03*
D29*
X69900000Y-48600000D03*
%TD*%
D28*
%TO.C,C16*%
X79000000Y-83400000D03*
X79000000Y-85125000D03*
%TD*%
D18*
%TO.C,L3*%
X89875000Y-84200000D03*
X88125000Y-84200000D03*
%TD*%
D31*
%TO.C,R6*%
X71400000Y-56700000D03*
X71400000Y-53700000D03*
%TD*%
D17*
%TO.C,R8*%
X82499000Y-94313500D03*
X82499000Y-92488500D03*
%TD*%
D19*
%TO.C,SW1*%
X95057500Y-83217500D03*
D20*
X92517500Y-83217500D03*
%TD*%
D17*
%TO.C,R5*%
X87100000Y-68112500D03*
X87100000Y-66287500D03*
%TD*%
D32*
%TO.C,R1*%
X99700000Y-95500000D03*
X97875000Y-95500000D03*
%TD*%
%TO.C,R4*%
X93100000Y-80300000D03*
X91275000Y-80300000D03*
%TD*%
D23*
%TO.C,L1*%
X100050000Y-87400000D03*
X101800000Y-87400000D03*
%TD*%
D33*
%TO.C,U2*%
X83775000Y-54675000D03*
X83775000Y-55175000D03*
X83775000Y-55675000D03*
X83775000Y-56175000D03*
X83775000Y-56675000D03*
X83775000Y-57175000D03*
X83775000Y-57675000D03*
X83775000Y-58175000D03*
X83775000Y-58675000D03*
X83775000Y-59175000D03*
X83775000Y-59675000D03*
X83775000Y-60175000D03*
X83775000Y-60675000D03*
X83775000Y-61175000D03*
X83775000Y-61675000D03*
X83775000Y-62175000D03*
D34*
X85700000Y-64100000D03*
X86200000Y-64100000D03*
X86700000Y-64100000D03*
X87200000Y-64100000D03*
X87700000Y-64100000D03*
X88200000Y-64100000D03*
X88700000Y-64100000D03*
X89200000Y-64100000D03*
X89700000Y-64100000D03*
X90200000Y-64100000D03*
X90700000Y-64100000D03*
X91200000Y-64100000D03*
X91700000Y-64100000D03*
X92200000Y-64100000D03*
X92700000Y-64100000D03*
X93200000Y-64100000D03*
D33*
X95125000Y-62175000D03*
X95125000Y-61675000D03*
X95125000Y-61175000D03*
X95125000Y-60675000D03*
X95125000Y-60175000D03*
X95125000Y-59675000D03*
X95125000Y-59175000D03*
X95125000Y-58675000D03*
X95125000Y-58175000D03*
X95125000Y-57675000D03*
X95125000Y-57175000D03*
X95125000Y-56675000D03*
X95125000Y-56175000D03*
X95125000Y-55675000D03*
X95125000Y-55175000D03*
X95125000Y-54675000D03*
D34*
X93200000Y-52750000D03*
X92700000Y-52750000D03*
X92200000Y-52750000D03*
X91700000Y-52750000D03*
X91200000Y-52750000D03*
X90700000Y-52750000D03*
X90200000Y-52750000D03*
X89700000Y-52750000D03*
X89200000Y-52750000D03*
X88700000Y-52750000D03*
X88200000Y-52750000D03*
X87700000Y-52750000D03*
X87200000Y-52750000D03*
X86700000Y-52750000D03*
X86200000Y-52750000D03*
X85700000Y-52750000D03*
%TD*%
D24*
%TO.C,U3*%
X82374000Y-90688500D03*
X82374000Y-89738500D03*
X82374000Y-88788500D03*
X80099000Y-88788500D03*
X80099000Y-90688500D03*
%TD*%
D35*
%TO.C,D5*%
X81000000Y-79400000D03*
X85000000Y-79400000D03*
%TD*%
D28*
%TO.C,C12*%
X77799000Y-89026000D03*
X77799000Y-90751000D03*
%TD*%
D36*
%TO.C,BT1*%
X89650000Y-91000000D03*
D37*
X89650000Y-93000000D03*
%TD*%
D21*
%TO.C,C4*%
X84500000Y-50500000D03*
X84500000Y-48775000D03*
%TD*%
D17*
%TO.C,R10*%
X74600000Y-86812500D03*
X74600000Y-84987500D03*
%TD*%
D38*
%TO.C,J1*%
X70480000Y-88280000D03*
D39*
X70480000Y-90300000D03*
D40*
X70480000Y-91530000D03*
D41*
X70480000Y-89280000D03*
D42*
X70480000Y-87260000D03*
D43*
X70480000Y-86030000D03*
D44*
X70400000Y-84460000D03*
X66600000Y-84460000D03*
X70400000Y-93100000D03*
X66600000Y-93100000D03*
%TD*%
D28*
%TO.C,C11*%
X84799000Y-88826000D03*
X84799000Y-90551000D03*
%TD*%
D19*
%TO.C,DBG*%
X106600000Y-46560000D03*
D20*
X106600000Y-49100000D03*
X106600000Y-51640000D03*
X106600000Y-54180000D03*
%TD*%
D22*
%TO.C,REF\u002A\u002A*%
X109000000Y-42500000D03*
%TD*%
D45*
%TO.C,R2*%
X97887500Y-93500000D03*
X99712500Y-93500000D03*
%TD*%
D18*
%TO.C,D3*%
X80674000Y-94388500D03*
X78924000Y-94388500D03*
%TD*%
D15*
%TO.C,C8*%
X91775000Y-66500000D03*
X93500000Y-66500000D03*
%TD*%
D22*
%TO.C,REF\u002A\u002A*%
X109000000Y-96500000D03*
%TD*%
D24*
%TO.C,U1*%
X100400000Y-91500000D03*
X100400000Y-90550000D03*
X100400000Y-89600000D03*
X98125000Y-89600000D03*
X98125000Y-91500000D03*
%TD*%
D32*
%TO.C,R11*%
X79512500Y-67400000D03*
X77687500Y-67400000D03*
%TD*%
D28*
%TO.C,C2*%
X103400000Y-89900000D03*
X103400000Y-91625000D03*
%TD*%
D32*
%TO.C,R9*%
X80711500Y-92588500D03*
X78886500Y-92588500D03*
%TD*%
%LPD*%
M02*
