%TF.GenerationSoftware,KiCad,Pcbnew,9.0.4-9.0.4-0~ubuntu22.04.1*%
%TF.CreationDate,2025-09-21T14:17:20+01:00*%
%TF.ProjectId,pcb,7063622e-6b69-4636-9164-5f7063625858,rev?*%
%TF.SameCoordinates,Original*%
%TF.FileFunction,Copper,L2,Bot*%
%TF.FilePolarity,Positive*%
%FSLAX46Y46*%
G04 Gerber Fmt 4.6, Leading zero omitted, Abs format (unit mm)*
G04 Created by KiCad (PCBNEW 9.0.4-9.0.4-0~ubuntu22.04.1) date 2025-09-21 14:17:20*
%MOMM*%
%LPD*%
G01*
G04 APERTURE LIST*
G04 Aperture macros list*
%AMRoundRect*
0 Rectangle with rounded corners*
0 $1 Rounding radius*
0 $2 $3 $4 $5 $6 $7 $8 $9 X,Y pos of 4 corners*
0 Add a 4 corners polygon primitive as box body*
4,1,4,$2,$3,$4,$5,$6,$7,$8,$9,$2,$3,0*
0 Add four circle primitives for the rounded corners*
1,1,$1+$1,$2,$3*
1,1,$1+$1,$4,$5*
1,1,$1+$1,$6,$7*
1,1,$1+$1,$8,$9*
0 Add four rect primitives between the rounded corners*
20,1,$1+$1,$2,$3,$4,$5,0*
20,1,$1+$1,$4,$5,$6,$7,0*
20,1,$1+$1,$6,$7,$8,$9,0*
20,1,$1+$1,$8,$9,$2,$3,0*%
G04 Aperture macros list end*
%TA.AperFunction,ComponentPad*%
%ADD10R,1.700000X1.700000*%
%TD*%
%TA.AperFunction,ComponentPad*%
%ADD11C,1.700000*%
%TD*%
%TA.AperFunction,ComponentPad*%
%ADD12C,1.600000*%
%TD*%
%TA.AperFunction,ComponentPad*%
%ADD13RoundRect,0.250000X-0.625000X0.350000X-0.625000X-0.350000X0.625000X-0.350000X0.625000X0.350000X0*%
%TD*%
%TA.AperFunction,ComponentPad*%
%ADD14O,1.750000X1.200000*%
%TD*%
%TA.AperFunction,HeatsinkPad*%
%ADD15O,1.700000X1.100000*%
%TD*%
%TA.AperFunction,ViaPad*%
%ADD16C,0.600000*%
%TD*%
%TA.AperFunction,Conductor*%
%ADD17C,0.200000*%
%TD*%
G04 APERTURE END LIST*
D10*
%TO.P,J6,1,Pin_1*%
%TO.N,USART3 TX*%
X89600000Y-69400000D03*
D11*
%TO.P,J6,2,Pin_2*%
%TO.N,GND*%
X92140000Y-69400000D03*
%TD*%
D10*
%TO.P,J4,1,Pin_1*%
%TO.N,LCD RS*%
X107700000Y-68100000D03*
D11*
%TO.P,J4,2,Pin_2*%
%TO.N,LCD E*%
X107700000Y-65560000D03*
%TO.P,J4,3,Pin_3*%
%TO.N,+5V*%
X107700000Y-63020000D03*
%TO.P,J4,4,Pin_4*%
%TO.N,GND*%
X107700000Y-60480000D03*
%TD*%
D10*
%TO.P,J5,1,Pin_1*%
%TO.N,ADC2*%
X71400000Y-71840000D03*
D11*
%TO.P,J5,2,Pin_2*%
%TO.N,+3.3V*%
X71400000Y-69300000D03*
%TO.P,J5,3,Pin_3*%
%TO.N,GND*%
X71400000Y-66760000D03*
%TD*%
D10*
%TO.P,J2,1,Pin_1*%
%TO.N,LCD D1*%
X102000000Y-43400000D03*
D11*
%TO.P,J2,2,Pin_2*%
%TO.N,LCD D2*%
X99460000Y-43400000D03*
%TO.P,J2,3,Pin_3*%
%TO.N,LCD D3*%
X96920000Y-43400000D03*
%TO.P,J2,4,Pin_4*%
%TO.N,LCD D4*%
X94380000Y-43400000D03*
%TO.P,J2,5,Pin_5*%
%TO.N,LCD D5*%
X91840000Y-43400000D03*
%TO.P,J2,6,Pin_6*%
%TO.N,LCD D6*%
X89300000Y-43400000D03*
%TO.P,J2,7,Pin_7*%
%TO.N,LCD D7*%
X86760000Y-43400000D03*
%TO.P,J2,8,Pin_8*%
%TO.N,LCD D8*%
X84220000Y-43400000D03*
%TO.P,J2,9,Pin_9*%
%TO.N,+5V*%
X81680000Y-43400000D03*
%TO.P,J2,10,Pin_10*%
%TO.N,GND*%
X79140000Y-43400000D03*
%TO.P,J2,11,Pin_11*%
%TO.N,Net-(J2-Pin_11)*%
X76600000Y-43400000D03*
%TD*%
D12*
%TO.P,R6,1*%
%TO.N,ADC1*%
X71400000Y-56700000D03*
%TO.P,R6,2*%
%TO.N,GND*%
X71400000Y-53700000D03*
%TD*%
D10*
%TO.P,SW1,1,A*%
%TO.N,+3.3Vswin*%
X95057500Y-83217500D03*
D11*
%TO.P,SW1,2,B*%
%TO.N,+3.3V*%
X92517500Y-83217500D03*
%TD*%
D13*
%TO.P,BT1,1,+*%
%TO.N,+Vbat*%
X89650000Y-91000000D03*
D14*
%TO.P,BT1,2,-*%
%TO.N,GND*%
X89650000Y-93000000D03*
%TD*%
D15*
%TO.P,J1,S1,SHIELD*%
%TO.N,unconnected-(J1-SHIELD-PadS1)_1*%
X70400000Y-84460000D03*
%TO.N,unconnected-(J1-SHIELD-PadS1)*%
X66600000Y-84460000D03*
%TO.N,unconnected-(J1-SHIELD-PadS1)_3*%
X70400000Y-93100000D03*
%TO.N,unconnected-(J1-SHIELD-PadS1)_2*%
X66600000Y-93100000D03*
%TD*%
D10*
%TO.P,DBG,1,Pin_1*%
%TO.N,SWDIO*%
X106600000Y-46560000D03*
D11*
%TO.P,DBG,2,Pin_2*%
%TO.N,SWCLK*%
X106600000Y-49100000D03*
%TO.P,DBG,3,Pin_3*%
%TO.N,NRST*%
X106600000Y-51640000D03*
%TO.P,DBG,4,Pin_4*%
%TO.N,GND*%
X106600000Y-54180000D03*
%TD*%
D16*
%TO.N,GND*%
X99400000Y-75700000D03*
X83100000Y-78000000D03*
X67600000Y-75950000D03*
X98100000Y-85200000D03*
X98100000Y-80300000D03*
X95300000Y-46500000D03*
X73000000Y-90500000D03*
X72950000Y-87300000D03*
X98100000Y-48900000D03*
X80074000Y-89726000D03*
X99900000Y-51800000D03*
X101200000Y-83900000D03*
X101000000Y-94200000D03*
X78500000Y-70500000D03*
X100300000Y-77200000D03*
X81174000Y-89726000D03*
X83200000Y-74500000D03*
X95300000Y-49000000D03*
X69800000Y-55450000D03*
X92300000Y-81400000D03*
X96000000Y-81500000D03*
X99550000Y-65600000D03*
X75700000Y-80500000D03*
X84800000Y-53800000D03*
X102400000Y-70500000D03*
X78400000Y-60800000D03*
X88400000Y-66300000D03*
X85900000Y-50700000D03*
X105100000Y-69000000D03*
X106000000Y-82700000D03*
X102000000Y-54000000D03*
X97300000Y-49800000D03*
X100600000Y-57050000D03*
X98150000Y-59300000D03*
X85900000Y-67400000D03*
X83800000Y-81200000D03*
X103000000Y-95300000D03*
X83800000Y-95258546D03*
X70500000Y-58700000D03*
X97300000Y-66800000D03*
X78874000Y-91526000D03*
X75000000Y-70500000D03*
X100000000Y-46800000D03*
X83100000Y-70800000D03*
X97900000Y-54300000D03*
X103300000Y-59750000D03*
X95700000Y-70500000D03*
X92000000Y-57000000D03*
X101800000Y-63200000D03*
X88700000Y-59000000D03*
X97400000Y-54900000D03*
X83100000Y-72500000D03*
X106600000Y-41300000D03*
X75500000Y-90500000D03*
X80900000Y-83200000D03*
X96600000Y-46600000D03*
X98300000Y-56400000D03*
X88800000Y-51100000D03*
X104600000Y-91600000D03*
X66800000Y-48200000D03*
X98900000Y-45200000D03*
X106300000Y-78650000D03*
X98200000Y-46700000D03*
X105500000Y-64600000D03*
X99200000Y-66800000D03*
X69300000Y-65900000D03*
X100200000Y-73800000D03*
X81100000Y-70400000D03*
X88000000Y-74400000D03*
X72000000Y-62600000D03*
X73500000Y-45100000D03*
X78874000Y-89726000D03*
X82100000Y-55650000D03*
X89600000Y-45000000D03*
X95700000Y-66000000D03*
X77400000Y-72300000D03*
X82200000Y-58800000D03*
X95700000Y-68000000D03*
X103300000Y-64900000D03*
X80900000Y-74329568D03*
X79300000Y-52700000D03*
X80700000Y-40900000D03*
X84900000Y-86200000D03*
X83000000Y-79400000D03*
X99300000Y-92400000D03*
X92100000Y-75500000D03*
X87800000Y-69300000D03*
X87300000Y-72500000D03*
X89500000Y-72700000D03*
X67500000Y-55500000D03*
X100600000Y-62000000D03*
X80500000Y-64500000D03*
X104500000Y-49600000D03*
X75000000Y-68500000D03*
X88500000Y-60500000D03*
X100200000Y-80000000D03*
X76100000Y-62600000D03*
X80600000Y-66300000D03*
X99320005Y-90479997D03*
X74000000Y-72300000D03*
X68100000Y-49900000D03*
X88100000Y-42100000D03*
X85300000Y-55600000D03*
X102000000Y-49600000D03*
X80400000Y-72300000D03*
X82100000Y-81400000D03*
X100500000Y-70600000D03*
X86500000Y-58700000D03*
X78500000Y-68500000D03*
X77300000Y-74400000D03*
X99400000Y-83500000D03*
X103250000Y-66650000D03*
X99300000Y-81600000D03*
X95700000Y-73400000D03*
X93500000Y-73300000D03*
X85500000Y-42100000D03*
X90100000Y-48000000D03*
X108000000Y-85700000D03*
X105550000Y-66500000D03*
X110500000Y-61700000D03*
X76100000Y-93600000D03*
X75550000Y-91950000D03*
X84700000Y-45200000D03*
X76100000Y-60800000D03*
X72800000Y-78300000D03*
X81600000Y-91600000D03*
X77000000Y-86000000D03*
X82037500Y-83250000D03*
X93600000Y-50500000D03*
X98100000Y-77900000D03*
X96500000Y-76150000D03*
X67500000Y-78900000D03*
X75600000Y-52700000D03*
X88700000Y-56500000D03*
X88300000Y-67900000D03*
X92200000Y-79100000D03*
X82750000Y-50650000D03*
X96200000Y-63200000D03*
X75000000Y-46300000D03*
X90000000Y-65700000D03*
X90300000Y-79200000D03*
X96000000Y-79100000D03*
X99900000Y-54000000D03*
X73800000Y-44200000D03*
X104800000Y-51700000D03*
X90200000Y-76600000D03*
X96800000Y-51800000D03*
X86500000Y-61200000D03*
X79200000Y-56900000D03*
X108700000Y-52100000D03*
X83800000Y-52500000D03*
X75700000Y-78300000D03*
X87200000Y-86300000D03*
X94800000Y-90900000D03*
X84100000Y-83300000D03*
X104900000Y-42600000D03*
X109100000Y-46900000D03*
X99320005Y-88900000D03*
X82700000Y-40800000D03*
X99200000Y-71600000D03*
X77574000Y-92126000D03*
X72700000Y-80500000D03*
X99300000Y-58200000D03*
X84900000Y-68500000D03*
X81100000Y-85400000D03*
X105900000Y-75500000D03*
X85100000Y-62400000D03*
X79400000Y-50550000D03*
X66200000Y-77500000D03*
X106200000Y-73300000D03*
X98300000Y-61600000D03*
X108700000Y-49400000D03*
X96750000Y-94450000D03*
X102000000Y-61100000D03*
X109900000Y-68900000D03*
X100400000Y-90550000D03*
X97500000Y-90600000D03*
X75650000Y-50500000D03*
X86100000Y-90000000D03*
X78400000Y-62600000D03*
X68400000Y-59650000D03*
X68900000Y-77200000D03*
X90500000Y-55000000D03*
X69200000Y-80500000D03*
X106400000Y-70400000D03*
X72200000Y-42800000D03*
X109800000Y-65200000D03*
X89700000Y-85500000D03*
X69300000Y-62600000D03*
X87300000Y-70800000D03*
X72200000Y-58500000D03*
X110200000Y-44900000D03*
X87500000Y-57500000D03*
X104700000Y-67200000D03*
X103400000Y-93000000D03*
X87100000Y-45000000D03*
X95500000Y-77300000D03*
X99900000Y-48900000D03*
X92600000Y-91000000D03*
X82800000Y-53300000D03*
X70000000Y-78300000D03*
X98100000Y-51700000D03*
X84200000Y-66600000D03*
X83000000Y-75600000D03*
X83700000Y-91600000D03*
X72700000Y-83500000D03*
X74000000Y-74500000D03*
X88800000Y-49300000D03*
X93800000Y-62700000D03*
X69000000Y-83500000D03*
X77500000Y-95100000D03*
X90800000Y-46200000D03*
X80500000Y-68400000D03*
X90500000Y-57000000D03*
X88800000Y-55000000D03*
X89500000Y-62500000D03*
X101200000Y-93100000D03*
X102450000Y-68450000D03*
X81500000Y-56900000D03*
X92600000Y-85700000D03*
X102000000Y-51800000D03*
X75700000Y-83500000D03*
X85500000Y-59000000D03*
X85500000Y-60175000D03*
X100600000Y-68800000D03*
X103200000Y-62200000D03*
X97100000Y-92400000D03*
X85800000Y-68400000D03*
X108100000Y-90900000D03*
X67300000Y-66000000D03*
X82200000Y-68500000D03*
X100500000Y-64100000D03*
X93500000Y-61000000D03*
X84000000Y-63100000D03*
X97300000Y-71600000D03*
X102100000Y-56600000D03*
%TO.N,LCD D1*%
X98650000Y-55050000D03*
X96800000Y-58275000D03*
%TO.N,LCD D4*%
X91200000Y-58750000D03*
X92800000Y-49200000D03*
%TO.N,LCD D2*%
X92700000Y-55300000D03*
X92200000Y-58250000D03*
%TO.N,NRST*%
X85450000Y-56750000D03*
X99889000Y-53089000D03*
%TO.N,USART1 TX*%
X101500000Y-67100000D03*
X102124265Y-65975735D03*
X99700000Y-61275000D03*
X99700000Y-60075000D03*
%TO.N,SWCLK*%
X95850000Y-51550000D03*
X100150000Y-50550000D03*
X98200000Y-50700000D03*
X93800000Y-51700000D03*
%TO.N,+Vbat*%
X93819457Y-74781957D03*
X100280331Y-84819669D03*
X98200000Y-86900000D03*
X79500000Y-70100000D03*
X94861352Y-75861384D03*
X79500000Y-68900000D03*
X101400000Y-91500000D03*
%TO.N,BT CONNECT*%
X97575000Y-60075000D03*
X97200000Y-62800000D03*
%TD*%
D17*
%TO.N,LCD D1*%
X96800000Y-56900000D02*
X98650000Y-55050000D01*
X96800000Y-58275000D02*
X96800000Y-56900000D01*
%TO.N,LCD D4*%
X91280000Y-58670000D02*
X91200000Y-58750000D01*
X92800000Y-54300000D02*
X91200000Y-55900000D01*
X92800000Y-49200000D02*
X92800000Y-54300000D01*
X91200000Y-55900000D02*
X91200000Y-58750000D01*
%TO.N,LCD D2*%
X92700000Y-55300000D02*
X92700000Y-57750000D01*
X92700000Y-57750000D02*
X92200000Y-58250000D01*
%TO.N,NRST*%
X98210943Y-53089000D02*
X99889000Y-53089000D01*
X91399943Y-59900000D02*
X88600000Y-59900000D01*
X98210943Y-53089000D02*
X91399943Y-59900000D01*
X85450000Y-56750000D02*
X88600000Y-59900000D01*
%TO.N,USART1 TX*%
X102124265Y-65975735D02*
X101500000Y-66600000D01*
X101500000Y-66600000D02*
X101500000Y-67100000D01*
X99700000Y-60075000D02*
X99700000Y-61275000D01*
%TO.N,SWCLK*%
X100000000Y-50700000D02*
X98200000Y-50700000D01*
X95700000Y-51700000D02*
X95850000Y-51550000D01*
X100150000Y-50550000D02*
X100000000Y-50700000D01*
X93800000Y-51700000D02*
X95700000Y-51700000D01*
%TO.N,+Vbat*%
X79500000Y-70100000D02*
X79500000Y-68900000D01*
X93831901Y-74781957D02*
X94861352Y-75811408D01*
X101400000Y-89800000D02*
X98500000Y-86900000D01*
X98500000Y-86900000D02*
X98200000Y-86900000D01*
X100280331Y-84819669D02*
X98200000Y-86900000D01*
X94861352Y-75811408D02*
X94861352Y-75861384D01*
X101400000Y-91500000D02*
X101400000Y-89800000D01*
X93819457Y-74781957D02*
X93831901Y-74781957D01*
%TO.N,BT CONNECT*%
X97700000Y-60200000D02*
X97575000Y-60075000D01*
X97200000Y-62800000D02*
X97700000Y-62300000D01*
X97700000Y-62300000D02*
X97700000Y-60200000D01*
%TD*%
%TA.AperFunction,Conductor*%
%TO.N,GND*%
G36*
X92018834Y-56032915D02*
G01*
X92074767Y-56074787D01*
X92099184Y-56140251D01*
X92099500Y-56149097D01*
X92099500Y-57352044D01*
X92090950Y-57381159D01*
X92084670Y-57410848D01*
X92081203Y-57414354D01*
X92079815Y-57419083D01*
X92056889Y-57438948D01*
X92035548Y-57460535D01*
X92029194Y-57462946D01*
X92027011Y-57464838D01*
X92008213Y-57470908D01*
X92002550Y-57473058D01*
X92001138Y-57473373D01*
X91966503Y-57480263D01*
X91962031Y-57482114D01*
X91951550Y-57484458D01*
X91881831Y-57479872D01*
X91825659Y-57438321D01*
X91800869Y-57372997D01*
X91800500Y-57363444D01*
X91800500Y-56200097D01*
X91820185Y-56133058D01*
X91836819Y-56112416D01*
X91887819Y-56061416D01*
X91949142Y-56027931D01*
X92018834Y-56032915D01*
G37*
%TD.AperFunction*%
%TA.AperFunction,Conductor*%
G36*
X111442539Y-40020185D02*
G01*
X111488294Y-40072989D01*
X111499500Y-40124500D01*
X111499500Y-60250761D01*
X111499494Y-60251977D01*
X111495109Y-60699207D01*
X111401965Y-70199643D01*
X111401204Y-70277216D01*
X111380863Y-70344059D01*
X111327613Y-70389294D01*
X111277210Y-70400000D01*
X106600000Y-70400000D01*
X106500000Y-84000000D01*
X111076000Y-84000000D01*
X111143039Y-84019685D01*
X111188794Y-84072489D01*
X111200000Y-84124000D01*
X111200000Y-98374854D01*
X111180315Y-98441893D01*
X111127511Y-98487648D01*
X111076805Y-98498851D01*
X64825016Y-98799188D01*
X64757850Y-98779940D01*
X64711753Y-98727434D01*
X64700211Y-98674983D01*
X64704071Y-96393713D01*
X65649500Y-96393713D01*
X65649500Y-96606286D01*
X65682753Y-96816239D01*
X65748444Y-97018414D01*
X65844951Y-97207820D01*
X65969890Y-97379786D01*
X66120213Y-97530109D01*
X66292179Y-97655048D01*
X66292181Y-97655049D01*
X66292184Y-97655051D01*
X66481588Y-97751557D01*
X66683757Y-97817246D01*
X66893713Y-97850500D01*
X66893714Y-97850500D01*
X67106286Y-97850500D01*
X67106287Y-97850500D01*
X67316243Y-97817246D01*
X67518412Y-97751557D01*
X67707816Y-97655051D01*
X67729789Y-97639086D01*
X67879786Y-97530109D01*
X67879788Y-97530106D01*
X67879792Y-97530104D01*
X68030104Y-97379792D01*
X68030106Y-97379788D01*
X68030109Y-97379786D01*
X68155048Y-97207820D01*
X68155047Y-97207820D01*
X68155051Y-97207816D01*
X68251557Y-97018412D01*
X68317246Y-96816243D01*
X68350500Y-96606287D01*
X68350500Y-96393713D01*
X107649500Y-96393713D01*
X107649500Y-96606286D01*
X107682753Y-96816239D01*
X107748444Y-97018414D01*
X107844951Y-97207820D01*
X107969890Y-97379786D01*
X108120213Y-97530109D01*
X108292179Y-97655048D01*
X108292181Y-97655049D01*
X108292184Y-97655051D01*
X108481588Y-97751557D01*
X108683757Y-97817246D01*
X108893713Y-97850500D01*
X108893714Y-97850500D01*
X109106286Y-97850500D01*
X109106287Y-97850500D01*
X109316243Y-97817246D01*
X109518412Y-97751557D01*
X109707816Y-97655051D01*
X109729789Y-97639086D01*
X109879786Y-97530109D01*
X109879788Y-97530106D01*
X109879792Y-97530104D01*
X110030104Y-97379792D01*
X110030106Y-97379788D01*
X110030109Y-97379786D01*
X110155048Y-97207820D01*
X110155047Y-97207820D01*
X110155051Y-97207816D01*
X110251557Y-97018412D01*
X110317246Y-96816243D01*
X110350500Y-96606287D01*
X110350500Y-96393713D01*
X110317246Y-96183757D01*
X110251557Y-95981588D01*
X110155051Y-95792184D01*
X110155049Y-95792181D01*
X110155048Y-95792179D01*
X110030109Y-95620213D01*
X109879786Y-95469890D01*
X109707820Y-95344951D01*
X109518414Y-95248444D01*
X109518413Y-95248443D01*
X109518412Y-95248443D01*
X109316243Y-95182754D01*
X109316241Y-95182753D01*
X109316240Y-95182753D01*
X109154957Y-95157208D01*
X109106287Y-95149500D01*
X108893713Y-95149500D01*
X108845042Y-95157208D01*
X108683760Y-95182753D01*
X108481585Y-95248444D01*
X108292179Y-95344951D01*
X108120213Y-95469890D01*
X107969890Y-95620213D01*
X107844951Y-95792179D01*
X107748444Y-95981585D01*
X107682753Y-96183760D01*
X107649500Y-96393713D01*
X68350500Y-96393713D01*
X68317246Y-96183757D01*
X68251557Y-95981588D01*
X68155051Y-95792184D01*
X68155049Y-95792181D01*
X68155048Y-95792179D01*
X68030109Y-95620213D01*
X67879786Y-95469890D01*
X67707820Y-95344951D01*
X67518414Y-95248444D01*
X67518413Y-95248443D01*
X67518412Y-95248443D01*
X67316243Y-95182754D01*
X67316241Y-95182753D01*
X67316240Y-95182753D01*
X67154957Y-95157208D01*
X67106287Y-95149500D01*
X66893713Y-95149500D01*
X66845042Y-95157208D01*
X66683760Y-95182753D01*
X66481585Y-95248444D01*
X66292179Y-95344951D01*
X66120213Y-95469890D01*
X65969890Y-95620213D01*
X65844951Y-95792179D01*
X65748444Y-95981585D01*
X65682753Y-96183760D01*
X65649500Y-96393713D01*
X64704071Y-96393713D01*
X64709819Y-92996530D01*
X65249500Y-92996530D01*
X65249500Y-93203469D01*
X65289868Y-93406412D01*
X65289870Y-93406420D01*
X65369058Y-93597596D01*
X65484024Y-93769657D01*
X65630342Y-93915975D01*
X65630345Y-93915977D01*
X65802402Y-94030941D01*
X65993580Y-94110130D01*
X66196530Y-94150499D01*
X66196534Y-94150500D01*
X66196535Y-94150500D01*
X67003466Y-94150500D01*
X67003467Y-94150499D01*
X67206420Y-94110130D01*
X67397598Y-94030941D01*
X67569655Y-93915977D01*
X67715977Y-93769655D01*
X67830941Y-93597598D01*
X67910130Y-93406420D01*
X67950500Y-93203465D01*
X67950500Y-92996535D01*
X67950499Y-92996530D01*
X69049500Y-92996530D01*
X69049500Y-93203469D01*
X69089868Y-93406412D01*
X69089870Y-93406420D01*
X69169058Y-93597596D01*
X69284024Y-93769657D01*
X69430342Y-93915975D01*
X69430345Y-93915977D01*
X69602402Y-94030941D01*
X69793580Y-94110130D01*
X69996530Y-94150499D01*
X69996534Y-94150500D01*
X69996535Y-94150500D01*
X70803466Y-94150500D01*
X70803467Y-94150499D01*
X71006420Y-94110130D01*
X71197598Y-94030941D01*
X71369655Y-93915977D01*
X71515977Y-93769655D01*
X71630941Y-93597598D01*
X71710130Y-93406420D01*
X71745171Y-93230255D01*
X71750500Y-93203467D01*
X71750500Y-92996534D01*
X71750499Y-92996530D01*
X71710131Y-92793587D01*
X71710130Y-92793580D01*
X71630941Y-92602402D01*
X71515977Y-92430345D01*
X71515975Y-92430342D01*
X71369657Y-92284024D01*
X71283626Y-92226541D01*
X71197598Y-92169059D01*
X71006420Y-92089870D01*
X71006412Y-92089868D01*
X70803469Y-92049500D01*
X70803465Y-92049500D01*
X69996535Y-92049500D01*
X69996530Y-92049500D01*
X69793587Y-92089868D01*
X69793579Y-92089870D01*
X69602403Y-92169058D01*
X69430342Y-92284024D01*
X69284024Y-92430342D01*
X69169058Y-92602403D01*
X69089870Y-92793579D01*
X69089868Y-92793587D01*
X69049500Y-92996530D01*
X67950499Y-92996530D01*
X67910130Y-92793580D01*
X67830941Y-92602402D01*
X67715977Y-92430345D01*
X67715975Y-92430342D01*
X67569657Y-92284024D01*
X67483626Y-92226541D01*
X67397598Y-92169059D01*
X67206420Y-92089870D01*
X67206412Y-92089868D01*
X67003469Y-92049500D01*
X67003465Y-92049500D01*
X66196535Y-92049500D01*
X66196530Y-92049500D01*
X65993587Y-92089868D01*
X65993579Y-92089870D01*
X65802403Y-92169058D01*
X65630342Y-92284024D01*
X65484024Y-92430342D01*
X65369058Y-92602403D01*
X65289870Y-92793579D01*
X65289868Y-92793587D01*
X65249500Y-92996530D01*
X64709819Y-92996530D01*
X64713874Y-90599983D01*
X88274500Y-90599983D01*
X88274500Y-91400001D01*
X88274501Y-91400019D01*
X88285000Y-91502796D01*
X88285001Y-91502799D01*
X88310201Y-91578846D01*
X88340186Y-91669334D01*
X88432288Y-91818656D01*
X88556344Y-91942712D01*
X88620981Y-91982580D01*
X88667705Y-92034526D01*
X88678928Y-92103489D01*
X88651085Y-92167571D01*
X88643566Y-92175799D01*
X88535964Y-92283401D01*
X88434195Y-92423475D01*
X88355591Y-92577744D01*
X88302085Y-92742415D01*
X88300884Y-92749999D01*
X88300885Y-92750000D01*
X89369670Y-92750000D01*
X89349925Y-92769745D01*
X89300556Y-92855255D01*
X89275000Y-92950630D01*
X89275000Y-93049370D01*
X89300556Y-93144745D01*
X89349925Y-93230255D01*
X89369670Y-93250000D01*
X88300885Y-93250000D01*
X88302085Y-93257584D01*
X88355591Y-93422255D01*
X88434195Y-93576524D01*
X88535967Y-93716602D01*
X88658397Y-93839032D01*
X88798475Y-93940804D01*
X88952742Y-94019408D01*
X89117415Y-94072914D01*
X89288429Y-94100000D01*
X89400000Y-94100000D01*
X89400000Y-93280330D01*
X89419745Y-93300075D01*
X89505255Y-93349444D01*
X89600630Y-93375000D01*
X89699370Y-93375000D01*
X89794745Y-93349444D01*
X89880255Y-93300075D01*
X89900000Y-93280330D01*
X89900000Y-94100000D01*
X90011571Y-94100000D01*
X90182584Y-94072914D01*
X90347257Y-94019408D01*
X90501524Y-93940804D01*
X90641602Y-93839032D01*
X90764032Y-93716602D01*
X90865804Y-93576524D01*
X90944408Y-93422255D01*
X90997914Y-93257584D01*
X90999115Y-93250000D01*
X89930330Y-93250000D01*
X89950075Y-93230255D01*
X89999444Y-93144745D01*
X90025000Y-93049370D01*
X90025000Y-92950630D01*
X89999444Y-92855255D01*
X89950075Y-92769745D01*
X89930330Y-92750000D01*
X90999115Y-92750000D01*
X90999115Y-92749999D01*
X90997914Y-92742415D01*
X90944408Y-92577744D01*
X90865804Y-92423475D01*
X90764032Y-92283397D01*
X90656434Y-92175799D01*
X90622949Y-92114476D01*
X90627933Y-92044784D01*
X90669805Y-91988851D01*
X90678995Y-91982594D01*
X90743656Y-91942712D01*
X90867712Y-91818656D01*
X90959814Y-91669334D01*
X91014999Y-91502797D01*
X91025500Y-91400009D01*
X91025499Y-90599992D01*
X91014999Y-90497203D01*
X90959814Y-90330666D01*
X90867712Y-90181344D01*
X90743656Y-90057288D01*
X90594334Y-89965186D01*
X90427797Y-89910001D01*
X90427795Y-89910000D01*
X90325010Y-89899500D01*
X88974998Y-89899500D01*
X88974981Y-89899501D01*
X88872203Y-89910000D01*
X88872200Y-89910001D01*
X88705668Y-89965185D01*
X88705663Y-89965187D01*
X88556342Y-90057289D01*
X88432289Y-90181342D01*
X88340187Y-90330663D01*
X88340186Y-90330666D01*
X88285001Y-90497203D01*
X88285001Y-90497204D01*
X88285000Y-90497204D01*
X88274500Y-90599983D01*
X64713874Y-90599983D01*
X64716048Y-89315139D01*
X64720268Y-86821153D01*
X97399500Y-86821153D01*
X97399500Y-86978846D01*
X97430261Y-87133489D01*
X97430264Y-87133501D01*
X97490602Y-87279172D01*
X97490609Y-87279185D01*
X97578210Y-87410288D01*
X97578213Y-87410292D01*
X97689707Y-87521786D01*
X97689711Y-87521789D01*
X97820814Y-87609390D01*
X97820827Y-87609397D01*
X97966498Y-87669735D01*
X97966503Y-87669737D01*
X98121153Y-87700499D01*
X98121156Y-87700500D01*
X98121158Y-87700500D01*
X98278843Y-87700500D01*
X98291982Y-87697886D01*
X98357653Y-87684823D01*
X98427242Y-87691049D01*
X98469524Y-87718759D01*
X100763181Y-90012416D01*
X100796666Y-90073739D01*
X100799500Y-90100097D01*
X100799500Y-90920234D01*
X100779815Y-90987273D01*
X100778602Y-90989125D01*
X100690609Y-91120814D01*
X100690602Y-91120827D01*
X100630264Y-91266498D01*
X100630261Y-91266510D01*
X100599500Y-91421153D01*
X100599500Y-91578846D01*
X100630261Y-91733489D01*
X100630264Y-91733501D01*
X100690602Y-91879172D01*
X100690609Y-91879185D01*
X100778210Y-92010288D01*
X100778213Y-92010292D01*
X100889707Y-92121786D01*
X100889711Y-92121789D01*
X101020814Y-92209390D01*
X101020827Y-92209397D01*
X101166498Y-92269735D01*
X101166503Y-92269737D01*
X101321153Y-92300499D01*
X101321156Y-92300500D01*
X101321158Y-92300500D01*
X101478844Y-92300500D01*
X101478845Y-92300499D01*
X101633497Y-92269737D01*
X101779179Y-92209394D01*
X101910289Y-92121789D01*
X102021789Y-92010289D01*
X102109394Y-91879179D01*
X102169737Y-91733497D01*
X102200500Y-91578842D01*
X102200500Y-91421158D01*
X102200500Y-91421155D01*
X102200499Y-91421153D01*
X102169738Y-91266510D01*
X102169737Y-91266503D01*
X102169735Y-91266498D01*
X102109397Y-91120827D01*
X102109390Y-91120814D01*
X102021398Y-90989125D01*
X102000520Y-90922447D01*
X102000500Y-90920234D01*
X102000500Y-89720945D01*
X102000500Y-89720943D01*
X101959577Y-89568216D01*
X101959573Y-89568209D01*
X101880524Y-89431290D01*
X101880521Y-89431286D01*
X101880520Y-89431284D01*
X101768716Y-89319480D01*
X101768715Y-89319479D01*
X101764385Y-89315149D01*
X101764374Y-89315139D01*
X99286916Y-86837681D01*
X99253431Y-86776358D01*
X99258415Y-86706666D01*
X99286916Y-86662319D01*
X99758633Y-86190602D01*
X100294993Y-85654241D01*
X100356314Y-85620758D01*
X100358481Y-85620307D01*
X100416416Y-85608782D01*
X100513828Y-85589406D01*
X100659510Y-85529063D01*
X100790620Y-85441458D01*
X100902120Y-85329958D01*
X100989725Y-85198848D01*
X101050068Y-85053166D01*
X101080831Y-84898511D01*
X101080831Y-84740827D01*
X101080831Y-84740824D01*
X101080830Y-84740822D01*
X101050069Y-84586179D01*
X101050069Y-84586177D01*
X101050068Y-84586172D01*
X101019054Y-84511296D01*
X100989728Y-84440496D01*
X100989721Y-84440483D01*
X100902120Y-84309380D01*
X100902117Y-84309376D01*
X100790623Y-84197882D01*
X100790619Y-84197879D01*
X100659516Y-84110278D01*
X100659503Y-84110271D01*
X100513832Y-84049933D01*
X100513820Y-84049930D01*
X100359176Y-84019169D01*
X100359173Y-84019169D01*
X100201489Y-84019169D01*
X100201486Y-84019169D01*
X100046841Y-84049930D01*
X100046829Y-84049933D01*
X99901158Y-84110271D01*
X99901145Y-84110278D01*
X99770042Y-84197879D01*
X99770038Y-84197882D01*
X99658544Y-84309376D01*
X99658541Y-84309380D01*
X99570940Y-84440483D01*
X99570933Y-84440496D01*
X99510595Y-84586167D01*
X99510592Y-84586177D01*
X99479692Y-84741519D01*
X99447307Y-84803430D01*
X99445756Y-84805008D01*
X98185339Y-86065425D01*
X98124016Y-86098910D01*
X98121850Y-86099361D01*
X97966508Y-86130261D01*
X97966498Y-86130264D01*
X97820827Y-86190602D01*
X97820814Y-86190609D01*
X97689711Y-86278210D01*
X97689707Y-86278213D01*
X97578213Y-86389707D01*
X97578210Y-86389711D01*
X97490609Y-86520814D01*
X97490602Y-86520827D01*
X97430264Y-86666498D01*
X97430261Y-86666510D01*
X97399500Y-86821153D01*
X64720268Y-86821153D01*
X64720279Y-86814856D01*
X64724438Y-84356530D01*
X65249500Y-84356530D01*
X65249500Y-84563469D01*
X65289868Y-84766412D01*
X65289870Y-84766420D01*
X65369058Y-84957596D01*
X65484024Y-85129657D01*
X65630342Y-85275975D01*
X65630345Y-85275977D01*
X65802402Y-85390941D01*
X65993580Y-85470130D01*
X66196530Y-85510499D01*
X66196534Y-85510500D01*
X66196535Y-85510500D01*
X67003466Y-85510500D01*
X67003467Y-85510499D01*
X67206420Y-85470130D01*
X67397598Y-85390941D01*
X67569655Y-85275977D01*
X67715977Y-85129655D01*
X67830941Y-84957598D01*
X67910130Y-84766420D01*
X67950500Y-84563465D01*
X67950500Y-84356535D01*
X67950499Y-84356530D01*
X69049500Y-84356530D01*
X69049500Y-84563469D01*
X69089868Y-84766412D01*
X69089870Y-84766420D01*
X69169058Y-84957596D01*
X69284024Y-85129657D01*
X69430342Y-85275975D01*
X69430345Y-85275977D01*
X69602402Y-85390941D01*
X69793580Y-85470130D01*
X69996530Y-85510499D01*
X69996534Y-85510500D01*
X69996535Y-85510500D01*
X70803466Y-85510500D01*
X70803467Y-85510499D01*
X71006420Y-85470130D01*
X71197598Y-85390941D01*
X71369655Y-85275977D01*
X71515977Y-85129655D01*
X71630941Y-84957598D01*
X71710130Y-84766420D01*
X71750500Y-84563465D01*
X71750500Y-84356535D01*
X71710130Y-84153580D01*
X71630941Y-83962402D01*
X71515977Y-83790345D01*
X71515975Y-83790342D01*
X71369657Y-83644024D01*
X71204602Y-83533739D01*
X71197598Y-83529059D01*
X71006420Y-83449870D01*
X71006412Y-83449868D01*
X70803469Y-83409500D01*
X70803465Y-83409500D01*
X69996535Y-83409500D01*
X69996530Y-83409500D01*
X69793587Y-83449868D01*
X69793579Y-83449870D01*
X69602403Y-83529058D01*
X69430342Y-83644024D01*
X69284024Y-83790342D01*
X69169058Y-83962403D01*
X69089870Y-84153579D01*
X69089868Y-84153587D01*
X69049500Y-84356530D01*
X67950499Y-84356530D01*
X67910130Y-84153580D01*
X67830941Y-83962402D01*
X67715977Y-83790345D01*
X67715975Y-83790342D01*
X67569657Y-83644024D01*
X67404602Y-83533739D01*
X67397598Y-83529059D01*
X67206420Y-83449870D01*
X67206412Y-83449868D01*
X67003469Y-83409500D01*
X67003465Y-83409500D01*
X66196535Y-83409500D01*
X66196530Y-83409500D01*
X65993587Y-83449868D01*
X65993579Y-83449870D01*
X65802403Y-83529058D01*
X65630342Y-83644024D01*
X65484024Y-83790342D01*
X65369058Y-83962403D01*
X65289870Y-84153579D01*
X65289868Y-84153587D01*
X65249500Y-84356530D01*
X64724438Y-84356530D01*
X64724449Y-84350233D01*
X64726545Y-83111213D01*
X91167000Y-83111213D01*
X91167000Y-83323787D01*
X91200254Y-83533743D01*
X91236086Y-83644023D01*
X91265944Y-83735914D01*
X91362451Y-83925320D01*
X91487390Y-84097286D01*
X91637713Y-84247609D01*
X91809679Y-84372548D01*
X91809681Y-84372549D01*
X91809684Y-84372551D01*
X91999088Y-84469057D01*
X92201257Y-84534746D01*
X92411213Y-84568000D01*
X92411214Y-84568000D01*
X92623786Y-84568000D01*
X92623787Y-84568000D01*
X92833743Y-84534746D01*
X93035912Y-84469057D01*
X93225316Y-84372551D01*
X93397292Y-84247604D01*
X93510829Y-84134066D01*
X93572148Y-84100584D01*
X93641840Y-84105568D01*
X93697774Y-84147439D01*
X93714689Y-84178417D01*
X93763702Y-84309828D01*
X93763706Y-84309835D01*
X93849952Y-84425044D01*
X93849955Y-84425047D01*
X93965164Y-84511293D01*
X93965171Y-84511297D01*
X94100017Y-84561591D01*
X94100016Y-84561591D01*
X94106944Y-84562335D01*
X94159627Y-84568000D01*
X95955372Y-84567999D01*
X96014983Y-84561591D01*
X96149831Y-84511296D01*
X96265046Y-84425046D01*
X96351296Y-84309831D01*
X96401591Y-84174983D01*
X96408000Y-84115373D01*
X96407999Y-82319628D01*
X96401591Y-82260017D01*
X96400310Y-82256583D01*
X96351297Y-82125171D01*
X96351293Y-82125164D01*
X96265047Y-82009955D01*
X96265044Y-82009952D01*
X96149835Y-81923706D01*
X96149828Y-81923702D01*
X96014982Y-81873408D01*
X96014983Y-81873408D01*
X95955383Y-81867001D01*
X95955381Y-81867000D01*
X95955373Y-81867000D01*
X95955364Y-81867000D01*
X94159629Y-81867000D01*
X94159623Y-81867001D01*
X94100016Y-81873408D01*
X93965171Y-81923702D01*
X93965164Y-81923706D01*
X93849955Y-82009952D01*
X93849952Y-82009955D01*
X93763706Y-82125164D01*
X93763703Y-82125169D01*
X93714689Y-82256583D01*
X93672817Y-82312516D01*
X93607353Y-82336933D01*
X93539080Y-82322081D01*
X93510826Y-82300930D01*
X93397286Y-82187390D01*
X93225320Y-82062451D01*
X93035914Y-81965944D01*
X93035913Y-81965943D01*
X93035912Y-81965943D01*
X92833743Y-81900254D01*
X92833741Y-81900253D01*
X92833740Y-81900253D01*
X92672457Y-81874708D01*
X92623787Y-81867000D01*
X92411213Y-81867000D01*
X92362542Y-81874708D01*
X92201260Y-81900253D01*
X91999085Y-81965944D01*
X91809679Y-82062451D01*
X91637713Y-82187390D01*
X91487390Y-82337713D01*
X91362451Y-82509679D01*
X91265944Y-82699085D01*
X91200253Y-82901260D01*
X91167805Y-83106131D01*
X91167000Y-83111213D01*
X64726545Y-83111213D01*
X64726554Y-83106131D01*
X64740772Y-74703110D01*
X93018957Y-74703110D01*
X93018957Y-74860803D01*
X93049718Y-75015446D01*
X93049721Y-75015458D01*
X93110059Y-75161129D01*
X93110066Y-75161142D01*
X93197667Y-75292245D01*
X93197670Y-75292249D01*
X93309164Y-75403743D01*
X93309168Y-75403746D01*
X93440271Y-75491347D01*
X93440284Y-75491354D01*
X93585955Y-75551692D01*
X93585960Y-75551694D01*
X93740615Y-75582457D01*
X93740620Y-75582457D01*
X93743659Y-75582757D01*
X93745153Y-75583360D01*
X93746589Y-75583646D01*
X93746534Y-75583918D01*
X93808447Y-75608917D01*
X93819188Y-75618479D01*
X94024533Y-75823824D01*
X94058018Y-75885147D01*
X94060852Y-75911505D01*
X94060852Y-75940230D01*
X94091613Y-76094873D01*
X94091616Y-76094885D01*
X94151954Y-76240556D01*
X94151961Y-76240569D01*
X94239562Y-76371672D01*
X94239565Y-76371676D01*
X94351059Y-76483170D01*
X94351063Y-76483173D01*
X94482166Y-76570774D01*
X94482179Y-76570781D01*
X94627850Y-76631119D01*
X94627855Y-76631121D01*
X94782505Y-76661883D01*
X94782508Y-76661884D01*
X94782510Y-76661884D01*
X94940196Y-76661884D01*
X94940197Y-76661883D01*
X95094849Y-76631121D01*
X95240531Y-76570778D01*
X95371641Y-76483173D01*
X95483141Y-76371673D01*
X95570746Y-76240563D01*
X95631089Y-76094881D01*
X95661852Y-75940226D01*
X95661852Y-75782542D01*
X95661852Y-75782539D01*
X95661851Y-75782537D01*
X95631090Y-75627894D01*
X95631089Y-75627887D01*
X95627192Y-75618479D01*
X95570749Y-75482211D01*
X95570742Y-75482198D01*
X95483141Y-75351095D01*
X95483138Y-75351091D01*
X95371644Y-75239597D01*
X95371640Y-75239594D01*
X95240537Y-75151993D01*
X95240524Y-75151986D01*
X95094853Y-75091648D01*
X95094843Y-75091645D01*
X95001888Y-75073155D01*
X94939977Y-75040770D01*
X94938399Y-75039219D01*
X94650940Y-74751760D01*
X94617455Y-74690437D01*
X94617004Y-74688270D01*
X94589195Y-74548467D01*
X94589194Y-74548460D01*
X94589192Y-74548455D01*
X94528854Y-74402784D01*
X94528847Y-74402771D01*
X94441246Y-74271668D01*
X94441243Y-74271664D01*
X94329749Y-74160170D01*
X94329745Y-74160167D01*
X94198642Y-74072566D01*
X94198629Y-74072559D01*
X94052958Y-74012221D01*
X94052946Y-74012218D01*
X93898302Y-73981457D01*
X93898299Y-73981457D01*
X93740615Y-73981457D01*
X93740612Y-73981457D01*
X93585967Y-74012218D01*
X93585955Y-74012221D01*
X93440284Y-74072559D01*
X93440271Y-74072566D01*
X93309168Y-74160167D01*
X93309164Y-74160170D01*
X93197670Y-74271664D01*
X93197667Y-74271668D01*
X93110066Y-74402771D01*
X93110059Y-74402784D01*
X93049721Y-74548455D01*
X93049718Y-74548467D01*
X93018957Y-74703110D01*
X64740772Y-74703110D01*
X64740783Y-74696813D01*
X64750094Y-69193713D01*
X70049500Y-69193713D01*
X70049500Y-69406286D01*
X70079071Y-69592993D01*
X70082754Y-69616243D01*
X70127369Y-69753554D01*
X70148444Y-69818414D01*
X70244951Y-70007820D01*
X70369890Y-70179786D01*
X70483430Y-70293326D01*
X70516915Y-70354649D01*
X70511931Y-70424341D01*
X70470059Y-70480274D01*
X70439083Y-70497189D01*
X70307669Y-70546203D01*
X70307664Y-70546206D01*
X70192455Y-70632452D01*
X70192452Y-70632455D01*
X70106206Y-70747664D01*
X70106202Y-70747671D01*
X70055908Y-70882517D01*
X70049501Y-70942116D01*
X70049501Y-70942123D01*
X70049500Y-70942135D01*
X70049500Y-72737870D01*
X70049501Y-72737876D01*
X70055908Y-72797483D01*
X70106202Y-72932328D01*
X70106206Y-72932335D01*
X70192452Y-73047544D01*
X70192455Y-73047547D01*
X70307664Y-73133793D01*
X70307671Y-73133797D01*
X70442517Y-73184091D01*
X70442516Y-73184091D01*
X70449444Y-73184835D01*
X70502127Y-73190500D01*
X72297872Y-73190499D01*
X72357483Y-73184091D01*
X72492331Y-73133796D01*
X72607546Y-73047546D01*
X72693796Y-72932331D01*
X72744091Y-72797483D01*
X72750500Y-72737873D01*
X72750499Y-70942128D01*
X72744091Y-70882517D01*
X72739324Y-70869737D01*
X72693797Y-70747671D01*
X72693793Y-70747664D01*
X72607547Y-70632455D01*
X72607544Y-70632452D01*
X72492335Y-70546206D01*
X72492328Y-70546202D01*
X72360917Y-70497189D01*
X72304983Y-70455318D01*
X72280566Y-70389853D01*
X72295418Y-70321580D01*
X72316563Y-70293332D01*
X72430104Y-70179792D01*
X72555051Y-70007816D01*
X72651557Y-69818412D01*
X72717246Y-69616243D01*
X72750500Y-69406287D01*
X72750500Y-69193713D01*
X72717246Y-68983757D01*
X72664413Y-68821153D01*
X78699500Y-68821153D01*
X78699500Y-68978846D01*
X78730261Y-69133489D01*
X78730264Y-69133501D01*
X78790600Y-69279167D01*
X78790609Y-69279185D01*
X78878602Y-69410874D01*
X78884252Y-69428920D01*
X78894477Y-69444830D01*
X78898928Y-69475789D01*
X78899480Y-69477551D01*
X78899500Y-69479765D01*
X78899500Y-69520234D01*
X78879815Y-69587273D01*
X78878602Y-69589125D01*
X78790609Y-69720814D01*
X78790602Y-69720827D01*
X78730264Y-69866498D01*
X78730261Y-69866510D01*
X78699500Y-70021153D01*
X78699500Y-70178846D01*
X78730261Y-70333489D01*
X78730264Y-70333501D01*
X78790602Y-70479172D01*
X78790609Y-70479185D01*
X78878210Y-70610288D01*
X78878213Y-70610292D01*
X78989707Y-70721786D01*
X78989711Y-70721789D01*
X79120814Y-70809390D01*
X79120827Y-70809397D01*
X79266498Y-70869735D01*
X79266503Y-70869737D01*
X79421153Y-70900499D01*
X79421156Y-70900500D01*
X79421158Y-70900500D01*
X79578844Y-70900500D01*
X79578845Y-70900499D01*
X79733497Y-70869737D01*
X79879179Y-70809394D01*
X80010289Y-70721789D01*
X80121789Y-70610289D01*
X80209394Y-70479179D01*
X80219278Y-70455318D01*
X80246625Y-70389294D01*
X80269737Y-70333497D01*
X80300500Y-70178842D01*
X80300500Y-70021158D01*
X80300500Y-70021155D01*
X80300499Y-70021153D01*
X80297846Y-70007816D01*
X80269737Y-69866503D01*
X80242232Y-69800099D01*
X80209397Y-69720827D01*
X80209390Y-69720814D01*
X80121398Y-69589125D01*
X80115747Y-69571078D01*
X80105523Y-69555169D01*
X80101071Y-69524207D01*
X80100520Y-69522447D01*
X80100500Y-69520234D01*
X80100500Y-69479765D01*
X80120185Y-69412726D01*
X80121398Y-69410874D01*
X80128665Y-69399999D01*
X80209394Y-69279179D01*
X80209395Y-69279174D01*
X80209400Y-69279167D01*
X80269735Y-69133501D01*
X80269737Y-69133497D01*
X80300500Y-68978842D01*
X80300500Y-68821158D01*
X80300500Y-68821155D01*
X80300499Y-68821153D01*
X80269738Y-68666510D01*
X80269737Y-68666503D01*
X80242345Y-68600372D01*
X80219931Y-68546258D01*
X80209395Y-68520824D01*
X80209394Y-68520821D01*
X80209392Y-68520818D01*
X80209390Y-68520814D01*
X80196909Y-68502135D01*
X88249500Y-68502135D01*
X88249500Y-70297870D01*
X88249501Y-70297876D01*
X88255908Y-70357483D01*
X88306202Y-70492328D01*
X88306206Y-70492335D01*
X88392452Y-70607544D01*
X88392455Y-70607547D01*
X88507664Y-70693793D01*
X88507671Y-70693797D01*
X88642517Y-70744091D01*
X88642516Y-70744091D01*
X88649444Y-70744835D01*
X88702127Y-70750500D01*
X90497872Y-70750499D01*
X90557483Y-70744091D01*
X90692331Y-70693796D01*
X90807546Y-70607546D01*
X90893796Y-70492331D01*
X90944091Y-70357483D01*
X90950500Y-70297873D01*
X90950499Y-70273979D01*
X90953330Y-70260963D01*
X90963940Y-70241525D01*
X90970179Y-70220275D01*
X90986803Y-70199643D01*
X90986808Y-70199636D01*
X90986811Y-70199634D01*
X90986818Y-70199626D01*
X91657037Y-69529408D01*
X91674075Y-69592993D01*
X91739901Y-69707007D01*
X91832993Y-69800099D01*
X91947007Y-69865925D01*
X92010590Y-69882962D01*
X91378282Y-70515269D01*
X91378282Y-70515270D01*
X91432449Y-70554624D01*
X91621782Y-70651095D01*
X91823870Y-70716757D01*
X92033754Y-70750000D01*
X92246246Y-70750000D01*
X92456127Y-70716757D01*
X92456130Y-70716757D01*
X92658217Y-70651095D01*
X92847554Y-70554622D01*
X92901716Y-70515270D01*
X92901717Y-70515270D01*
X92269408Y-69882962D01*
X92332993Y-69865925D01*
X92447007Y-69800099D01*
X92540099Y-69707007D01*
X92605925Y-69592993D01*
X92622962Y-69529408D01*
X93255270Y-70161717D01*
X93255270Y-70161716D01*
X93294622Y-70107554D01*
X93391095Y-69918217D01*
X93456757Y-69716130D01*
X93456757Y-69716127D01*
X93490000Y-69506246D01*
X93490000Y-69293753D01*
X93456757Y-69083872D01*
X93456757Y-69083869D01*
X93391095Y-68881782D01*
X93294624Y-68692449D01*
X93255270Y-68638282D01*
X93255269Y-68638282D01*
X92622962Y-69270590D01*
X92605925Y-69207007D01*
X92540099Y-69092993D01*
X92447007Y-68999901D01*
X92332993Y-68934075D01*
X92269409Y-68917037D01*
X92901716Y-68284728D01*
X92847550Y-68245375D01*
X92658217Y-68148904D01*
X92456129Y-68083242D01*
X92246246Y-68050000D01*
X92033754Y-68050000D01*
X91823872Y-68083242D01*
X91823869Y-68083242D01*
X91621782Y-68148904D01*
X91432439Y-68245380D01*
X91378282Y-68284727D01*
X91378282Y-68284728D01*
X92010591Y-68917037D01*
X91947007Y-68934075D01*
X91832993Y-68999901D01*
X91739901Y-69092993D01*
X91674075Y-69207007D01*
X91657037Y-69270591D01*
X90986818Y-68600372D01*
X90953333Y-68539049D01*
X90953330Y-68539036D01*
X90950499Y-68526015D01*
X90950499Y-68502128D01*
X90944091Y-68442517D01*
X90915926Y-68367002D01*
X90893798Y-68307673D01*
X90893793Y-68307664D01*
X90807547Y-68192455D01*
X90807544Y-68192452D01*
X90692335Y-68106206D01*
X90692328Y-68106202D01*
X90557482Y-68055908D01*
X90557483Y-68055908D01*
X90497883Y-68049501D01*
X90497881Y-68049500D01*
X90497873Y-68049500D01*
X90497864Y-68049500D01*
X88702129Y-68049500D01*
X88702123Y-68049501D01*
X88642516Y-68055908D01*
X88507671Y-68106202D01*
X88507664Y-68106206D01*
X88392455Y-68192452D01*
X88392452Y-68192455D01*
X88306206Y-68307664D01*
X88306202Y-68307671D01*
X88255908Y-68442517D01*
X88249501Y-68502116D01*
X88249500Y-68502135D01*
X80196909Y-68502135D01*
X80121789Y-68389711D01*
X80121786Y-68389707D01*
X80010292Y-68278213D01*
X80010288Y-68278210D01*
X79879185Y-68190609D01*
X79879172Y-68190602D01*
X79733501Y-68130264D01*
X79733489Y-68130261D01*
X79578845Y-68099500D01*
X79578842Y-68099500D01*
X79421158Y-68099500D01*
X79421155Y-68099500D01*
X79266510Y-68130261D01*
X79266498Y-68130264D01*
X79120827Y-68190602D01*
X79120814Y-68190609D01*
X78989711Y-68278210D01*
X78989707Y-68278213D01*
X78878213Y-68389707D01*
X78878210Y-68389711D01*
X78790609Y-68520814D01*
X78790602Y-68520827D01*
X78730264Y-68666498D01*
X78730261Y-68666510D01*
X78699500Y-68821153D01*
X72664413Y-68821153D01*
X72651557Y-68781588D01*
X72651555Y-68781585D01*
X72651555Y-68781583D01*
X72555048Y-68592179D01*
X72430109Y-68420213D01*
X72279786Y-68269890D01*
X72107817Y-68144949D01*
X72098504Y-68140204D01*
X72047707Y-68092230D01*
X72030912Y-68024409D01*
X72053449Y-67958274D01*
X72098507Y-67919232D01*
X72107555Y-67914622D01*
X72161716Y-67875270D01*
X72161717Y-67875270D01*
X71529408Y-67242962D01*
X71592993Y-67225925D01*
X71707007Y-67160099D01*
X71800099Y-67067007D01*
X71865925Y-66952993D01*
X71882962Y-66889408D01*
X72515270Y-67521717D01*
X72515270Y-67521716D01*
X72554622Y-67467554D01*
X72651095Y-67278217D01*
X72716757Y-67076130D01*
X72716758Y-67076126D01*
X72725465Y-67021153D01*
X100699500Y-67021153D01*
X100699500Y-67178846D01*
X100730261Y-67333489D01*
X100730264Y-67333501D01*
X100790602Y-67479172D01*
X100790609Y-67479185D01*
X100878210Y-67610288D01*
X100878213Y-67610292D01*
X100989707Y-67721786D01*
X100989711Y-67721789D01*
X101120814Y-67809390D01*
X101120827Y-67809397D01*
X101266498Y-67869735D01*
X101266503Y-67869737D01*
X101421153Y-67900499D01*
X101421156Y-67900500D01*
X101421158Y-67900500D01*
X101578844Y-67900500D01*
X101578845Y-67900499D01*
X101733497Y-67869737D01*
X101879179Y-67809394D01*
X102010289Y-67721789D01*
X102121789Y-67610289D01*
X102209394Y-67479179D01*
X102269737Y-67333497D01*
X102300500Y-67178842D01*
X102300500Y-67021158D01*
X102300500Y-67021155D01*
X102274899Y-66892454D01*
X102273967Y-66887768D01*
X102280194Y-66818178D01*
X102323057Y-66763001D01*
X102352410Y-66748470D01*
X102352134Y-66747803D01*
X102503437Y-66685132D01*
X102503437Y-66685131D01*
X102503444Y-66685129D01*
X102634554Y-66597524D01*
X102746054Y-66486024D01*
X102833659Y-66354914D01*
X102894002Y-66209232D01*
X102924765Y-66054577D01*
X102924765Y-65896893D01*
X102924765Y-65896890D01*
X102924764Y-65896888D01*
X102894003Y-65742245D01*
X102894003Y-65742243D01*
X102894002Y-65742238D01*
X102873101Y-65691777D01*
X102833662Y-65596562D01*
X102833655Y-65596549D01*
X102746054Y-65465446D01*
X102746051Y-65465442D01*
X102634557Y-65353948D01*
X102634553Y-65353945D01*
X102503450Y-65266344D01*
X102503437Y-65266337D01*
X102357766Y-65205999D01*
X102357754Y-65205996D01*
X102203110Y-65175235D01*
X102203107Y-65175235D01*
X102045423Y-65175235D01*
X102045420Y-65175235D01*
X101890775Y-65205996D01*
X101890763Y-65205999D01*
X101745092Y-65266337D01*
X101745079Y-65266344D01*
X101613976Y-65353945D01*
X101613972Y-65353948D01*
X101502478Y-65465442D01*
X101502475Y-65465446D01*
X101414874Y-65596549D01*
X101414867Y-65596562D01*
X101354529Y-65742233D01*
X101354526Y-65742243D01*
X101323626Y-65897584D01*
X101314860Y-65914340D01*
X101310841Y-65932819D01*
X101292096Y-65957859D01*
X101291241Y-65959495D01*
X101289691Y-65961073D01*
X101218180Y-66032584D01*
X101131286Y-66119478D01*
X101131285Y-66119478D01*
X101131284Y-66119479D01*
X101019479Y-66231284D01*
X100998386Y-66267820D01*
X100980096Y-66299500D01*
X100948808Y-66353691D01*
X100940424Y-66368213D01*
X100899498Y-66520945D01*
X100898438Y-66529003D01*
X100896980Y-66528811D01*
X100879814Y-66587274D01*
X100878601Y-66589126D01*
X100790609Y-66720814D01*
X100790602Y-66720827D01*
X100730264Y-66866498D01*
X100730261Y-66866510D01*
X100699500Y-67021153D01*
X72725465Y-67021153D01*
X72729501Y-66995669D01*
X72729501Y-66995668D01*
X72750000Y-66866245D01*
X72750000Y-66653753D01*
X72716757Y-66443872D01*
X72716757Y-66443869D01*
X72651095Y-66241782D01*
X72554624Y-66052449D01*
X72515270Y-65998282D01*
X72515269Y-65998282D01*
X71882962Y-66630590D01*
X71865925Y-66567007D01*
X71800099Y-66452993D01*
X71707007Y-66359901D01*
X71592993Y-66294075D01*
X71529409Y-66277037D01*
X72161716Y-65644728D01*
X72107550Y-65605375D01*
X71918217Y-65508904D01*
X71716129Y-65443242D01*
X71506246Y-65410000D01*
X71293754Y-65410000D01*
X71083872Y-65443242D01*
X71083869Y-65443242D01*
X70881782Y-65508904D01*
X70692439Y-65605380D01*
X70638282Y-65644727D01*
X70638282Y-65644728D01*
X71270591Y-66277037D01*
X71207007Y-66294075D01*
X71092993Y-66359901D01*
X70999901Y-66452993D01*
X70934075Y-66567007D01*
X70917037Y-66630591D01*
X70284728Y-65998282D01*
X70284727Y-65998282D01*
X70245380Y-66052439D01*
X70148904Y-66241782D01*
X70083242Y-66443869D01*
X70083242Y-66443872D01*
X70050000Y-66653753D01*
X70050000Y-66866246D01*
X70083242Y-67076127D01*
X70083242Y-67076130D01*
X70148904Y-67278217D01*
X70245375Y-67467550D01*
X70284728Y-67521716D01*
X70917037Y-66889408D01*
X70934075Y-66952993D01*
X70999901Y-67067007D01*
X71092993Y-67160099D01*
X71207007Y-67225925D01*
X71270590Y-67242962D01*
X70638282Y-67875269D01*
X70638282Y-67875270D01*
X70692452Y-67914626D01*
X70692451Y-67914626D01*
X70701495Y-67919234D01*
X70752292Y-67967208D01*
X70769087Y-68035029D01*
X70746550Y-68101164D01*
X70701499Y-68140202D01*
X70692182Y-68144949D01*
X70520213Y-68269890D01*
X70369890Y-68420213D01*
X70244951Y-68592179D01*
X70148444Y-68781585D01*
X70148443Y-68781587D01*
X70148443Y-68781588D01*
X70135587Y-68821155D01*
X70082753Y-68983760D01*
X70049500Y-69193713D01*
X64750094Y-69193713D01*
X64750103Y-69188631D01*
X64754401Y-66648671D01*
X64756020Y-65691777D01*
X64761046Y-62721153D01*
X96399500Y-62721153D01*
X96399500Y-62878846D01*
X96430261Y-63033489D01*
X96430264Y-63033501D01*
X96490602Y-63179172D01*
X96490609Y-63179185D01*
X96578210Y-63310288D01*
X96578213Y-63310292D01*
X96689707Y-63421786D01*
X96689711Y-63421789D01*
X96820814Y-63509390D01*
X96820827Y-63509397D01*
X96966498Y-63569735D01*
X96966503Y-63569737D01*
X97121153Y-63600499D01*
X97121156Y-63600500D01*
X97121158Y-63600500D01*
X97278844Y-63600500D01*
X97278845Y-63600499D01*
X97433497Y-63569737D01*
X97579179Y-63509394D01*
X97710289Y-63421789D01*
X97821789Y-63310289D01*
X97909394Y-63179179D01*
X97969737Y-63033497D01*
X97993564Y-62913713D01*
X106349500Y-62913713D01*
X106349500Y-63126286D01*
X106378643Y-63310292D01*
X106382754Y-63336243D01*
X106439015Y-63509397D01*
X106448444Y-63538414D01*
X106544951Y-63727820D01*
X106669890Y-63899786D01*
X106820213Y-64050109D01*
X106992182Y-64175050D01*
X107000946Y-64179516D01*
X107051742Y-64227491D01*
X107068536Y-64295312D01*
X107045998Y-64361447D01*
X107000946Y-64400484D01*
X106992182Y-64404949D01*
X106820213Y-64529890D01*
X106669890Y-64680213D01*
X106544951Y-64852179D01*
X106448444Y-65041585D01*
X106382753Y-65243760D01*
X106351158Y-65443242D01*
X106349500Y-65453713D01*
X106349500Y-65666287D01*
X106382754Y-65876243D01*
X106409804Y-65959495D01*
X106448444Y-66078414D01*
X106544951Y-66267820D01*
X106669890Y-66439786D01*
X106783430Y-66553326D01*
X106816915Y-66614649D01*
X106811931Y-66684341D01*
X106770059Y-66740274D01*
X106739083Y-66757189D01*
X106607669Y-66806203D01*
X106607664Y-66806206D01*
X106492455Y-66892452D01*
X106492452Y-66892455D01*
X106406206Y-67007664D01*
X106406202Y-67007671D01*
X106355908Y-67142517D01*
X106352003Y-67178842D01*
X106349501Y-67202123D01*
X106349500Y-67202135D01*
X106349500Y-68997870D01*
X106349501Y-68997876D01*
X106355908Y-69057483D01*
X106406202Y-69192328D01*
X106406206Y-69192335D01*
X106492452Y-69307544D01*
X106492455Y-69307547D01*
X106607664Y-69393793D01*
X106607671Y-69393797D01*
X106742517Y-69444091D01*
X106742516Y-69444091D01*
X106749390Y-69444830D01*
X106802127Y-69450500D01*
X108597872Y-69450499D01*
X108657483Y-69444091D01*
X108792331Y-69393796D01*
X108907546Y-69307546D01*
X108993796Y-69192331D01*
X109044091Y-69057483D01*
X109050500Y-68997873D01*
X109050499Y-67202128D01*
X109044091Y-67142517D01*
X109019330Y-67076130D01*
X108993797Y-67007671D01*
X108993793Y-67007664D01*
X108907547Y-66892455D01*
X108907544Y-66892452D01*
X108792335Y-66806206D01*
X108792328Y-66806202D01*
X108660917Y-66757189D01*
X108604983Y-66715318D01*
X108580566Y-66649853D01*
X108595418Y-66581580D01*
X108616563Y-66553332D01*
X108730104Y-66439792D01*
X108855051Y-66267816D01*
X108951557Y-66078412D01*
X109017246Y-65876243D01*
X109050500Y-65666287D01*
X109050500Y-65453713D01*
X109017246Y-65243757D01*
X108951557Y-65041588D01*
X108855051Y-64852184D01*
X108855049Y-64852181D01*
X108855048Y-64852179D01*
X108730109Y-64680213D01*
X108579786Y-64529890D01*
X108407820Y-64404951D01*
X108407115Y-64404591D01*
X108399054Y-64400485D01*
X108348259Y-64352512D01*
X108331463Y-64284692D01*
X108353999Y-64218556D01*
X108399054Y-64179515D01*
X108407816Y-64175051D01*
X108429789Y-64159086D01*
X108579786Y-64050109D01*
X108579788Y-64050106D01*
X108579792Y-64050104D01*
X108730104Y-63899792D01*
X108730106Y-63899788D01*
X108730109Y-63899786D01*
X108855048Y-63727820D01*
X108855047Y-63727820D01*
X108855051Y-63727816D01*
X108951557Y-63538412D01*
X109017246Y-63336243D01*
X109050500Y-63126287D01*
X109050500Y-62913713D01*
X109017246Y-62703757D01*
X108951557Y-62501588D01*
X108855051Y-62312184D01*
X108855049Y-62312181D01*
X108855048Y-62312179D01*
X108730109Y-62140213D01*
X108579786Y-61989890D01*
X108407817Y-61864949D01*
X108398504Y-61860204D01*
X108347707Y-61812230D01*
X108330912Y-61744409D01*
X108353449Y-61678274D01*
X108398507Y-61639232D01*
X108407555Y-61634622D01*
X108461716Y-61595270D01*
X108461717Y-61595270D01*
X107829408Y-60962962D01*
X107892993Y-60945925D01*
X108007007Y-60880099D01*
X108100099Y-60787007D01*
X108165925Y-60672993D01*
X108182962Y-60609409D01*
X108815270Y-61241717D01*
X108815270Y-61241716D01*
X108854622Y-61187554D01*
X108951095Y-60998217D01*
X109016757Y-60796130D01*
X109016757Y-60796127D01*
X109050000Y-60586246D01*
X109050000Y-60373753D01*
X109016757Y-60163872D01*
X109016757Y-60163869D01*
X108951095Y-59961782D01*
X108854624Y-59772449D01*
X108815270Y-59718282D01*
X108815269Y-59718282D01*
X108182962Y-60350590D01*
X108165925Y-60287007D01*
X108100099Y-60172993D01*
X108007007Y-60079901D01*
X107892993Y-60014075D01*
X107829409Y-59997037D01*
X108461716Y-59364728D01*
X108407550Y-59325375D01*
X108218217Y-59228904D01*
X108016129Y-59163242D01*
X107806246Y-59130000D01*
X107593754Y-59130000D01*
X107383872Y-59163242D01*
X107383869Y-59163242D01*
X107181782Y-59228904D01*
X106992439Y-59325380D01*
X106938282Y-59364727D01*
X106938282Y-59364728D01*
X107570591Y-59997037D01*
X107507007Y-60014075D01*
X107392993Y-60079901D01*
X107299901Y-60172993D01*
X107234075Y-60287007D01*
X107217037Y-60350591D01*
X106584728Y-59718282D01*
X106584727Y-59718282D01*
X106545380Y-59772439D01*
X106448904Y-59961782D01*
X106383242Y-60163869D01*
X106383242Y-60163872D01*
X106350000Y-60373753D01*
X106350000Y-60586246D01*
X106383242Y-60796127D01*
X106383242Y-60796130D01*
X106448904Y-60998217D01*
X106545375Y-61187550D01*
X106584728Y-61241716D01*
X107217037Y-60609408D01*
X107234075Y-60672993D01*
X107299901Y-60787007D01*
X107392993Y-60880099D01*
X107507007Y-60945925D01*
X107570590Y-60962962D01*
X106938282Y-61595269D01*
X106938282Y-61595270D01*
X106992452Y-61634626D01*
X106992451Y-61634626D01*
X107001495Y-61639234D01*
X107052292Y-61687208D01*
X107069087Y-61755029D01*
X107046550Y-61821164D01*
X107001499Y-61860202D01*
X106992182Y-61864949D01*
X106820213Y-61989890D01*
X106669890Y-62140213D01*
X106544951Y-62312179D01*
X106448444Y-62501585D01*
X106382753Y-62703760D01*
X106349500Y-62913713D01*
X97993564Y-62913713D01*
X97999346Y-62884645D01*
X98000639Y-62878146D01*
X98033026Y-62816236D01*
X98034508Y-62814726D01*
X98180520Y-62668716D01*
X98259577Y-62531784D01*
X98300501Y-62379057D01*
X98300501Y-62220942D01*
X98300501Y-62213347D01*
X98300500Y-62213329D01*
X98300500Y-60439960D01*
X98309939Y-60392508D01*
X98344735Y-60308501D01*
X98344737Y-60308497D01*
X98375500Y-60153842D01*
X98375500Y-59996158D01*
X98375500Y-59996155D01*
X98375499Y-59996153D01*
X98899500Y-59996153D01*
X98899500Y-60153846D01*
X98930261Y-60308489D01*
X98930264Y-60308501D01*
X98990602Y-60454172D01*
X98990609Y-60454185D01*
X99078602Y-60585874D01*
X99084252Y-60603920D01*
X99094477Y-60619830D01*
X99098928Y-60650789D01*
X99099480Y-60652551D01*
X99099500Y-60654765D01*
X99099500Y-60695234D01*
X99079815Y-60762273D01*
X99078602Y-60764125D01*
X98990609Y-60895814D01*
X98990602Y-60895827D01*
X98930264Y-61041498D01*
X98930261Y-61041510D01*
X98899500Y-61196153D01*
X98899500Y-61353846D01*
X98930261Y-61508489D01*
X98930264Y-61508501D01*
X98990602Y-61654172D01*
X98990609Y-61654185D01*
X99078210Y-61785288D01*
X99078213Y-61785292D01*
X99189707Y-61896786D01*
X99189711Y-61896789D01*
X99320814Y-61984390D01*
X99320827Y-61984397D01*
X99466498Y-62044735D01*
X99466503Y-62044737D01*
X99621153Y-62075499D01*
X99621156Y-62075500D01*
X99621158Y-62075500D01*
X99778844Y-62075500D01*
X99778845Y-62075499D01*
X99933497Y-62044737D01*
X100065896Y-61989896D01*
X100079172Y-61984397D01*
X100079172Y-61984396D01*
X100079179Y-61984394D01*
X100210289Y-61896789D01*
X100321789Y-61785289D01*
X100409394Y-61654179D01*
X100469737Y-61508497D01*
X100500500Y-61353842D01*
X100500500Y-61196158D01*
X100500500Y-61196155D01*
X100500499Y-61196153D01*
X100469738Y-61041510D01*
X100469737Y-61041503D01*
X100469735Y-61041498D01*
X100409397Y-60895827D01*
X100409390Y-60895814D01*
X100321398Y-60764125D01*
X100315747Y-60746078D01*
X100305523Y-60730169D01*
X100301071Y-60699207D01*
X100300520Y-60697447D01*
X100300500Y-60695234D01*
X100300500Y-60654765D01*
X100320185Y-60587726D01*
X100321398Y-60585874D01*
X100409390Y-60454185D01*
X100409390Y-60454184D01*
X100409394Y-60454179D01*
X100469737Y-60308497D01*
X100500500Y-60153842D01*
X100500500Y-59996158D01*
X100500500Y-59996155D01*
X100500499Y-59996153D01*
X100469738Y-59841510D01*
X100469737Y-59841503D01*
X100418698Y-59718282D01*
X100409397Y-59695827D01*
X100409390Y-59695814D01*
X100321789Y-59564711D01*
X100321786Y-59564707D01*
X100210292Y-59453213D01*
X100210288Y-59453210D01*
X100079185Y-59365609D01*
X100079172Y-59365602D01*
X99933501Y-59305264D01*
X99933489Y-59305261D01*
X99778845Y-59274500D01*
X99778842Y-59274500D01*
X99621158Y-59274500D01*
X99621155Y-59274500D01*
X99466510Y-59305261D01*
X99466498Y-59305264D01*
X99320827Y-59365602D01*
X99320814Y-59365609D01*
X99189711Y-59453210D01*
X99189707Y-59453213D01*
X99078213Y-59564707D01*
X99078210Y-59564711D01*
X98990609Y-59695814D01*
X98990602Y-59695827D01*
X98930264Y-59841498D01*
X98930261Y-59841510D01*
X98899500Y-59996153D01*
X98375499Y-59996153D01*
X98344738Y-59841510D01*
X98344737Y-59841503D01*
X98293698Y-59718282D01*
X98284397Y-59695827D01*
X98284390Y-59695814D01*
X98196789Y-59564711D01*
X98196786Y-59564707D01*
X98085292Y-59453213D01*
X98085288Y-59453210D01*
X97954185Y-59365609D01*
X97954172Y-59365602D01*
X97808501Y-59305264D01*
X97808489Y-59305261D01*
X97653845Y-59274500D01*
X97653842Y-59274500D01*
X97496158Y-59274500D01*
X97496155Y-59274500D01*
X97341510Y-59305261D01*
X97341498Y-59305264D01*
X97195827Y-59365602D01*
X97195814Y-59365609D01*
X97064711Y-59453210D01*
X97064707Y-59453213D01*
X96953213Y-59564707D01*
X96953210Y-59564711D01*
X96865609Y-59695814D01*
X96865602Y-59695827D01*
X96805264Y-59841498D01*
X96805261Y-59841510D01*
X96774500Y-59996153D01*
X96774500Y-60153846D01*
X96805261Y-60308489D01*
X96805264Y-60308501D01*
X96865602Y-60454172D01*
X96865609Y-60454185D01*
X96953210Y-60585288D01*
X96953213Y-60585292D01*
X97063181Y-60695260D01*
X97096666Y-60756583D01*
X97099500Y-60782941D01*
X97099500Y-61902044D01*
X97079815Y-61969083D01*
X97027011Y-62014838D01*
X96999691Y-62023661D01*
X96966510Y-62030261D01*
X96966498Y-62030264D01*
X96820827Y-62090602D01*
X96820814Y-62090609D01*
X96689711Y-62178210D01*
X96689707Y-62178213D01*
X96578213Y-62289707D01*
X96578210Y-62289711D01*
X96490609Y-62420814D01*
X96490602Y-62420827D01*
X96430264Y-62566498D01*
X96430261Y-62566510D01*
X96399500Y-62721153D01*
X64761046Y-62721153D01*
X64761057Y-62714856D01*
X64771407Y-56597647D01*
X70099500Y-56597647D01*
X70099500Y-56802351D01*
X70131522Y-57004534D01*
X70194781Y-57199223D01*
X70225898Y-57260292D01*
X70287483Y-57381159D01*
X70287715Y-57381613D01*
X70408028Y-57547213D01*
X70552786Y-57691971D01*
X70707749Y-57804556D01*
X70718390Y-57812287D01*
X70834607Y-57871503D01*
X70900776Y-57905218D01*
X70900778Y-57905218D01*
X70900781Y-57905220D01*
X71005137Y-57939127D01*
X71095465Y-57968477D01*
X71196557Y-57984488D01*
X71297648Y-58000500D01*
X71297649Y-58000500D01*
X71502351Y-58000500D01*
X71502352Y-58000500D01*
X71704534Y-57968477D01*
X71899219Y-57905220D01*
X72081610Y-57812287D01*
X72176395Y-57743422D01*
X72247213Y-57691971D01*
X72247215Y-57691968D01*
X72247219Y-57691966D01*
X72391966Y-57547219D01*
X72391968Y-57547215D01*
X72391971Y-57547213D01*
X72455777Y-57459390D01*
X72512287Y-57381610D01*
X72605220Y-57199219D01*
X72668477Y-57004534D01*
X72700500Y-56802352D01*
X72700500Y-56671153D01*
X84649500Y-56671153D01*
X84649500Y-56828846D01*
X84680261Y-56983489D01*
X84680264Y-56983501D01*
X84740602Y-57129172D01*
X84740609Y-57129185D01*
X84828210Y-57260288D01*
X84828213Y-57260292D01*
X84939707Y-57371786D01*
X84939711Y-57371789D01*
X85070814Y-57459390D01*
X85070827Y-57459397D01*
X85131331Y-57484458D01*
X85216503Y-57519737D01*
X85281147Y-57532595D01*
X85371849Y-57550638D01*
X85433760Y-57583023D01*
X85435338Y-57584573D01*
X88231284Y-60380520D01*
X88231286Y-60380521D01*
X88231290Y-60380524D01*
X88334238Y-60439960D01*
X88368216Y-60459577D01*
X88520943Y-60500501D01*
X88520945Y-60500501D01*
X88686654Y-60500501D01*
X88686670Y-60500500D01*
X91313274Y-60500500D01*
X91313290Y-60500501D01*
X91320886Y-60500501D01*
X91478997Y-60500501D01*
X91479000Y-60500501D01*
X91631728Y-60459577D01*
X91681847Y-60430639D01*
X91768659Y-60380520D01*
X91880463Y-60268716D01*
X91880463Y-60268714D01*
X91890671Y-60258507D01*
X91890672Y-60258504D01*
X93953024Y-58196153D01*
X95999500Y-58196153D01*
X95999500Y-58353846D01*
X96030261Y-58508489D01*
X96030264Y-58508501D01*
X96090602Y-58654172D01*
X96090609Y-58654185D01*
X96178210Y-58785288D01*
X96178213Y-58785292D01*
X96289707Y-58896786D01*
X96289711Y-58896789D01*
X96420814Y-58984390D01*
X96420827Y-58984397D01*
X96566498Y-59044735D01*
X96566503Y-59044737D01*
X96721153Y-59075499D01*
X96721156Y-59075500D01*
X96721158Y-59075500D01*
X96878844Y-59075500D01*
X96878845Y-59075499D01*
X97033497Y-59044737D01*
X97179179Y-58984394D01*
X97310289Y-58896789D01*
X97421789Y-58785289D01*
X97509394Y-58654179D01*
X97569737Y-58508497D01*
X97600500Y-58353842D01*
X97600500Y-58196158D01*
X97600500Y-58196155D01*
X97600499Y-58196153D01*
X97569738Y-58041510D01*
X97569737Y-58041503D01*
X97539489Y-57968477D01*
X97509397Y-57895827D01*
X97509390Y-57895814D01*
X97421398Y-57764125D01*
X97400520Y-57697447D01*
X97400500Y-57695234D01*
X97400500Y-57200097D01*
X97420185Y-57133058D01*
X97436819Y-57112416D01*
X98032737Y-56516498D01*
X98664662Y-55884572D01*
X98725983Y-55851089D01*
X98728150Y-55850638D01*
X98786085Y-55839113D01*
X98883497Y-55819737D01*
X99029179Y-55759394D01*
X99160289Y-55671789D01*
X99271789Y-55560289D01*
X99359394Y-55429179D01*
X99419737Y-55283497D01*
X99450500Y-55128842D01*
X99450500Y-54971158D01*
X99450500Y-54971155D01*
X99450499Y-54971153D01*
X99440486Y-54920814D01*
X99419737Y-54816503D01*
X99417813Y-54811859D01*
X99359397Y-54670827D01*
X99359390Y-54670814D01*
X99271789Y-54539711D01*
X99271786Y-54539707D01*
X99160292Y-54428213D01*
X99160288Y-54428210D01*
X99029185Y-54340609D01*
X99029172Y-54340602D01*
X98883501Y-54280264D01*
X98883489Y-54280261D01*
X98728845Y-54249500D01*
X98728842Y-54249500D01*
X98571158Y-54249500D01*
X98571155Y-54249500D01*
X98416510Y-54280261D01*
X98416498Y-54280264D01*
X98270827Y-54340602D01*
X98270814Y-54340609D01*
X98139711Y-54428210D01*
X98139707Y-54428213D01*
X98028213Y-54539707D01*
X98028210Y-54539711D01*
X97940609Y-54670814D01*
X97940602Y-54670827D01*
X97880264Y-54816498D01*
X97880261Y-54816508D01*
X97849361Y-54971850D01*
X97816976Y-55033761D01*
X97815425Y-55035339D01*
X96319481Y-56531282D01*
X96319480Y-56531284D01*
X96281165Y-56597648D01*
X96240423Y-56668215D01*
X96199499Y-56820943D01*
X96199499Y-56820945D01*
X96199499Y-56989046D01*
X96199500Y-56989059D01*
X96199500Y-57695234D01*
X96179815Y-57762273D01*
X96178602Y-57764125D01*
X96090609Y-57895814D01*
X96090602Y-57895827D01*
X96030264Y-58041498D01*
X96030261Y-58041510D01*
X95999500Y-58196153D01*
X93953024Y-58196153D01*
X98423360Y-53725819D01*
X98484683Y-53692334D01*
X98511041Y-53689500D01*
X99309234Y-53689500D01*
X99376273Y-53709185D01*
X99378125Y-53710398D01*
X99509814Y-53798390D01*
X99509827Y-53798397D01*
X99645018Y-53854394D01*
X99655503Y-53858737D01*
X99810153Y-53889499D01*
X99810156Y-53889500D01*
X99810158Y-53889500D01*
X99967844Y-53889500D01*
X99967845Y-53889499D01*
X100122497Y-53858737D01*
X100268179Y-53798394D01*
X100399289Y-53710789D01*
X100510789Y-53599289D01*
X100598394Y-53468179D01*
X100658737Y-53322497D01*
X100689500Y-53167842D01*
X100689500Y-53010158D01*
X100689500Y-53010155D01*
X100689499Y-53010153D01*
X100682323Y-52974076D01*
X100658737Y-52855503D01*
X100651832Y-52838832D01*
X100598397Y-52709827D01*
X100598390Y-52709814D01*
X100510789Y-52578711D01*
X100510786Y-52578707D01*
X100399292Y-52467213D01*
X100399288Y-52467210D01*
X100268185Y-52379609D01*
X100268172Y-52379602D01*
X100122501Y-52319264D01*
X100122489Y-52319261D01*
X99967845Y-52288500D01*
X99967842Y-52288500D01*
X99810158Y-52288500D01*
X99810155Y-52288500D01*
X99655510Y-52319261D01*
X99655498Y-52319264D01*
X99509827Y-52379602D01*
X99509814Y-52379609D01*
X99378125Y-52467602D01*
X99311447Y-52488480D01*
X99309234Y-52488500D01*
X98297613Y-52488500D01*
X98297597Y-52488499D01*
X98290001Y-52488499D01*
X98131886Y-52488499D01*
X98087099Y-52500500D01*
X97979157Y-52529423D01*
X97979152Y-52529426D01*
X97842233Y-52608475D01*
X97842225Y-52608481D01*
X93512181Y-56938526D01*
X93450858Y-56972011D01*
X93381166Y-56967027D01*
X93325233Y-56925155D01*
X93300816Y-56859691D01*
X93300500Y-56850845D01*
X93300500Y-55879765D01*
X93320185Y-55812726D01*
X93321398Y-55810874D01*
X93409390Y-55679185D01*
X93409390Y-55679184D01*
X93409394Y-55679179D01*
X93469737Y-55533497D01*
X93500500Y-55378842D01*
X93500500Y-55221158D01*
X93500500Y-55221155D01*
X93500499Y-55221153D01*
X93469738Y-55066510D01*
X93469737Y-55066503D01*
X93428932Y-54967990D01*
X93409397Y-54920827D01*
X93409390Y-54920814D01*
X93321789Y-54789711D01*
X93321786Y-54789707D01*
X93318618Y-54786539D01*
X93285133Y-54725216D01*
X93290117Y-54655524D01*
X93298907Y-54636867D01*
X93359577Y-54531784D01*
X93400501Y-54379057D01*
X93400501Y-54220942D01*
X93400501Y-54213347D01*
X93400500Y-54213329D01*
X93400500Y-52586555D01*
X93420185Y-52519516D01*
X93472989Y-52473761D01*
X93542147Y-52463817D01*
X93560411Y-52468840D01*
X93560676Y-52467969D01*
X93566492Y-52469732D01*
X93566503Y-52469737D01*
X93721153Y-52500499D01*
X93721156Y-52500500D01*
X93721158Y-52500500D01*
X93878844Y-52500500D01*
X93878845Y-52500499D01*
X94033497Y-52469737D01*
X94179179Y-52409394D01*
X94193238Y-52400000D01*
X94310875Y-52321398D01*
X94377553Y-52300520D01*
X94379766Y-52300500D01*
X95545396Y-52300500D01*
X95592844Y-52309937D01*
X95616503Y-52319737D01*
X95616508Y-52319738D01*
X95616511Y-52319739D01*
X95771153Y-52350499D01*
X95771156Y-52350500D01*
X95771158Y-52350500D01*
X95928844Y-52350500D01*
X95928845Y-52350499D01*
X96083497Y-52319737D01*
X96229179Y-52259394D01*
X96360289Y-52171789D01*
X96471789Y-52060289D01*
X96559394Y-51929179D01*
X96619737Y-51783497D01*
X96650500Y-51628842D01*
X96650500Y-51471158D01*
X96650500Y-51471155D01*
X96650499Y-51471153D01*
X96626499Y-51350499D01*
X96619737Y-51316503D01*
X96613117Y-51300520D01*
X96559397Y-51170827D01*
X96559390Y-51170814D01*
X96471789Y-51039711D01*
X96471786Y-51039707D01*
X96360292Y-50928213D01*
X96360288Y-50928210D01*
X96229185Y-50840609D01*
X96229172Y-50840602D01*
X96083501Y-50780264D01*
X96083489Y-50780261D01*
X95928845Y-50749500D01*
X95928842Y-50749500D01*
X95771158Y-50749500D01*
X95771155Y-50749500D01*
X95616510Y-50780261D01*
X95616498Y-50780264D01*
X95470827Y-50840602D01*
X95470814Y-50840609D01*
X95339711Y-50928210D01*
X95339707Y-50928213D01*
X95228211Y-51039709D01*
X95225086Y-51044388D01*
X95171475Y-51089194D01*
X95121982Y-51099500D01*
X94379766Y-51099500D01*
X94312727Y-51079815D01*
X94310875Y-51078602D01*
X94179185Y-50990609D01*
X94179172Y-50990602D01*
X94033501Y-50930264D01*
X94033489Y-50930261D01*
X93878845Y-50899500D01*
X93878842Y-50899500D01*
X93721158Y-50899500D01*
X93721155Y-50899500D01*
X93566510Y-50930261D01*
X93560676Y-50932031D01*
X93559873Y-50929385D01*
X93539114Y-50931543D01*
X93506853Y-50936182D01*
X93504561Y-50935135D01*
X93502056Y-50935396D01*
X93472959Y-50920703D01*
X93443297Y-50907157D01*
X93441934Y-50905036D01*
X93439687Y-50903902D01*
X93423152Y-50875811D01*
X93405523Y-50848379D01*
X93405043Y-50845046D01*
X93404245Y-50843689D01*
X93400500Y-50813444D01*
X93400500Y-50621153D01*
X97399500Y-50621153D01*
X97399500Y-50778846D01*
X97430261Y-50933489D01*
X97430264Y-50933501D01*
X97490602Y-51079172D01*
X97490609Y-51079185D01*
X97578210Y-51210288D01*
X97578213Y-51210292D01*
X97689707Y-51321786D01*
X97689711Y-51321789D01*
X97820814Y-51409390D01*
X97820827Y-51409397D01*
X97966498Y-51469735D01*
X97966503Y-51469737D01*
X98121153Y-51500499D01*
X98121156Y-51500500D01*
X98121158Y-51500500D01*
X98278844Y-51500500D01*
X98278845Y-51500499D01*
X98433497Y-51469737D01*
X98579179Y-51409394D01*
X98579185Y-51409390D01*
X98710875Y-51321398D01*
X98777553Y-51300520D01*
X98779766Y-51300500D01*
X99845396Y-51300500D01*
X99892844Y-51309937D01*
X99916503Y-51319737D01*
X99916508Y-51319738D01*
X99916511Y-51319739D01*
X100071153Y-51350499D01*
X100071156Y-51350500D01*
X100071158Y-51350500D01*
X100228844Y-51350500D01*
X100228845Y-51350499D01*
X100383497Y-51319737D01*
X100529179Y-51259394D01*
X100660289Y-51171789D01*
X100771789Y-51060289D01*
X100859394Y-50929179D01*
X100919737Y-50783497D01*
X100950500Y-50628842D01*
X100950500Y-50471158D01*
X100950500Y-50471155D01*
X100950499Y-50471153D01*
X100929322Y-50364692D01*
X100919737Y-50316503D01*
X100912303Y-50298556D01*
X100859397Y-50170827D01*
X100859390Y-50170814D01*
X100771789Y-50039711D01*
X100771786Y-50039707D01*
X100660292Y-49928213D01*
X100660288Y-49928210D01*
X100529185Y-49840609D01*
X100529172Y-49840602D01*
X100383501Y-49780264D01*
X100383489Y-49780261D01*
X100228845Y-49749500D01*
X100228842Y-49749500D01*
X100071158Y-49749500D01*
X100071155Y-49749500D01*
X99916510Y-49780261D01*
X99916498Y-49780264D01*
X99770827Y-49840602D01*
X99770814Y-49840609D01*
X99639711Y-49928210D01*
X99639707Y-49928213D01*
X99528211Y-50039709D01*
X99525086Y-50044388D01*
X99471475Y-50089194D01*
X99421982Y-50099500D01*
X98779766Y-50099500D01*
X98712727Y-50079815D01*
X98710875Y-50078602D01*
X98579185Y-49990609D01*
X98579172Y-49990602D01*
X98433501Y-49930264D01*
X98433489Y-49930261D01*
X98278845Y-49899500D01*
X98278842Y-49899500D01*
X98121158Y-49899500D01*
X98121155Y-49899500D01*
X97966510Y-49930261D01*
X97966498Y-49930264D01*
X97820827Y-49990602D01*
X97820814Y-49990609D01*
X97689711Y-50078210D01*
X97689707Y-50078213D01*
X97578213Y-50189707D01*
X97578210Y-50189711D01*
X97490609Y-50320814D01*
X97490602Y-50320827D01*
X97430264Y-50466498D01*
X97430261Y-50466510D01*
X97399500Y-50621153D01*
X93400500Y-50621153D01*
X93400500Y-49779765D01*
X93420185Y-49712726D01*
X93421398Y-49710874D01*
X93509390Y-49579185D01*
X93509390Y-49579184D01*
X93509394Y-49579179D01*
X93569737Y-49433497D01*
X93600500Y-49278842D01*
X93600500Y-49121158D01*
X93600500Y-49121155D01*
X93600499Y-49121153D01*
X93569738Y-48966510D01*
X93569737Y-48966503D01*
X93569735Y-48966498D01*
X93509397Y-48820827D01*
X93509390Y-48820814D01*
X93421789Y-48689711D01*
X93421786Y-48689707D01*
X93310292Y-48578213D01*
X93310288Y-48578210D01*
X93179185Y-48490609D01*
X93179172Y-48490602D01*
X93033501Y-48430264D01*
X93033489Y-48430261D01*
X92878845Y-48399500D01*
X92878842Y-48399500D01*
X92721158Y-48399500D01*
X92721155Y-48399500D01*
X92566510Y-48430261D01*
X92566498Y-48430264D01*
X92420827Y-48490602D01*
X92420814Y-48490609D01*
X92289711Y-48578210D01*
X92289707Y-48578213D01*
X92178213Y-48689707D01*
X92178210Y-48689711D01*
X92090609Y-48820814D01*
X92090602Y-48820827D01*
X92030264Y-48966498D01*
X92030261Y-48966510D01*
X91999500Y-49121153D01*
X91999500Y-49278846D01*
X92030261Y-49433489D01*
X92030264Y-49433501D01*
X92090602Y-49579172D01*
X92090609Y-49579185D01*
X92178602Y-49710874D01*
X92199480Y-49777551D01*
X92199500Y-49779765D01*
X92199500Y-53999902D01*
X92179815Y-54066941D01*
X92163181Y-54087583D01*
X90719481Y-55531282D01*
X90719480Y-55531284D01*
X90686901Y-55587713D01*
X90640423Y-55668215D01*
X90599499Y-55820943D01*
X90599499Y-55820945D01*
X90599499Y-55989046D01*
X90599500Y-55989059D01*
X90599500Y-58170234D01*
X90579815Y-58237273D01*
X90578602Y-58239125D01*
X90490609Y-58370814D01*
X90490602Y-58370827D01*
X90430264Y-58516498D01*
X90430261Y-58516510D01*
X90399500Y-58671153D01*
X90399500Y-58828846D01*
X90430261Y-58983489D01*
X90430264Y-58983501D01*
X90490137Y-59128048D01*
X90497606Y-59197517D01*
X90466331Y-59259996D01*
X90406241Y-59295648D01*
X90375576Y-59299500D01*
X88900098Y-59299500D01*
X88833059Y-59279815D01*
X88812417Y-59263181D01*
X86284573Y-56735337D01*
X86251088Y-56674014D01*
X86250637Y-56671847D01*
X86235878Y-56597648D01*
X86219737Y-56516503D01*
X86179549Y-56419480D01*
X86159397Y-56370827D01*
X86159390Y-56370814D01*
X86071789Y-56239711D01*
X86071786Y-56239707D01*
X85960292Y-56128213D01*
X85960288Y-56128210D01*
X85829185Y-56040609D01*
X85829172Y-56040602D01*
X85683501Y-55980264D01*
X85683489Y-55980261D01*
X85528845Y-55949500D01*
X85528842Y-55949500D01*
X85371158Y-55949500D01*
X85371155Y-55949500D01*
X85216510Y-55980261D01*
X85216498Y-55980264D01*
X85070827Y-56040602D01*
X85070814Y-56040609D01*
X84939711Y-56128210D01*
X84939707Y-56128213D01*
X84828213Y-56239707D01*
X84828210Y-56239711D01*
X84740609Y-56370814D01*
X84740602Y-56370827D01*
X84680264Y-56516498D01*
X84680261Y-56516510D01*
X84649500Y-56671153D01*
X72700500Y-56671153D01*
X72700500Y-56597648D01*
X72689989Y-56531282D01*
X72668477Y-56395465D01*
X72605218Y-56200776D01*
X72560196Y-56112416D01*
X72512287Y-56018390D01*
X72484587Y-55980264D01*
X72391971Y-55852786D01*
X72247213Y-55708028D01*
X72081612Y-55587714D01*
X71899223Y-55494781D01*
X71704534Y-55431522D01*
X71529995Y-55403878D01*
X71502352Y-55399500D01*
X71297648Y-55399500D01*
X71273329Y-55403351D01*
X71095465Y-55431522D01*
X70900776Y-55494781D01*
X70718388Y-55587714D01*
X70552786Y-55708028D01*
X70408028Y-55852786D01*
X70287715Y-56018386D01*
X70194781Y-56200776D01*
X70131522Y-56395465D01*
X70099500Y-56597647D01*
X64771407Y-56597647D01*
X64771416Y-56592566D01*
X64774564Y-54732005D01*
X64776483Y-53597682D01*
X70100000Y-53597682D01*
X70100000Y-53802317D01*
X70132009Y-54004417D01*
X70195244Y-54199031D01*
X70288141Y-54381350D01*
X70288147Y-54381359D01*
X70320523Y-54425921D01*
X70320524Y-54425922D01*
X71000000Y-53746446D01*
X71000000Y-53752661D01*
X71027259Y-53854394D01*
X71079920Y-53945606D01*
X71154394Y-54020080D01*
X71245606Y-54072741D01*
X71347339Y-54100000D01*
X71353553Y-54100000D01*
X70674076Y-54779474D01*
X70718650Y-54811859D01*
X70900968Y-54904755D01*
X71095582Y-54967990D01*
X71297683Y-55000000D01*
X71502317Y-55000000D01*
X71704417Y-54967990D01*
X71899031Y-54904755D01*
X72081349Y-54811859D01*
X72125921Y-54779474D01*
X71446447Y-54100000D01*
X71452661Y-54100000D01*
X71554394Y-54072741D01*
X71645606Y-54020080D01*
X71720080Y-53945606D01*
X71772741Y-53854394D01*
X71800000Y-53752661D01*
X71800000Y-53746447D01*
X72479474Y-54425921D01*
X72511859Y-54381349D01*
X72604755Y-54199031D01*
X72667990Y-54004417D01*
X72700000Y-53802317D01*
X72700000Y-53597682D01*
X72667990Y-53395582D01*
X72604755Y-53200968D01*
X72511859Y-53018650D01*
X72479474Y-52974077D01*
X72479474Y-52974076D01*
X71800000Y-53653551D01*
X71800000Y-53647339D01*
X71772741Y-53545606D01*
X71720080Y-53454394D01*
X71645606Y-53379920D01*
X71554394Y-53327259D01*
X71452661Y-53300000D01*
X71446446Y-53300000D01*
X72125922Y-52620524D01*
X72125921Y-52620523D01*
X72081359Y-52588147D01*
X72081350Y-52588141D01*
X71899031Y-52495244D01*
X71704417Y-52432009D01*
X71502317Y-52400000D01*
X71297683Y-52400000D01*
X71095582Y-52432009D01*
X70900968Y-52495244D01*
X70718644Y-52588143D01*
X70674077Y-52620523D01*
X70674077Y-52620524D01*
X71353554Y-53300000D01*
X71347339Y-53300000D01*
X71245606Y-53327259D01*
X71154394Y-53379920D01*
X71079920Y-53454394D01*
X71027259Y-53545606D01*
X71000000Y-53647339D01*
X71000000Y-53653553D01*
X70320524Y-52974077D01*
X70320523Y-52974077D01*
X70288143Y-53018644D01*
X70195244Y-53200968D01*
X70132009Y-53395582D01*
X70100000Y-53597682D01*
X64776483Y-53597682D01*
X64776492Y-53592606D01*
X64778057Y-52667573D01*
X64789910Y-45662135D01*
X105249500Y-45662135D01*
X105249500Y-47457870D01*
X105249501Y-47457876D01*
X105255908Y-47517483D01*
X105306202Y-47652328D01*
X105306206Y-47652335D01*
X105392452Y-47767544D01*
X105392455Y-47767547D01*
X105507664Y-47853793D01*
X105507671Y-47853797D01*
X105639082Y-47902810D01*
X105695016Y-47944681D01*
X105719433Y-48010145D01*
X105704582Y-48078418D01*
X105683431Y-48106673D01*
X105569889Y-48220215D01*
X105444951Y-48392179D01*
X105348444Y-48581585D01*
X105282753Y-48783760D01*
X105249500Y-48993713D01*
X105249500Y-49206287D01*
X105282754Y-49416243D01*
X105335697Y-49579185D01*
X105348444Y-49618414D01*
X105444951Y-49807820D01*
X105569890Y-49979786D01*
X105720213Y-50130109D01*
X105892182Y-50255050D01*
X105900946Y-50259516D01*
X105951742Y-50307491D01*
X105968536Y-50375312D01*
X105945998Y-50441447D01*
X105900946Y-50480484D01*
X105892182Y-50484949D01*
X105720213Y-50609890D01*
X105569890Y-50760213D01*
X105444951Y-50932179D01*
X105348444Y-51121585D01*
X105282753Y-51323760D01*
X105259408Y-51471155D01*
X105249500Y-51533713D01*
X105249500Y-51746287D01*
X105282754Y-51956243D01*
X105316560Y-52060288D01*
X105348444Y-52158414D01*
X105444951Y-52347820D01*
X105569890Y-52519786D01*
X105720213Y-52670109D01*
X105892179Y-52795048D01*
X105892181Y-52795049D01*
X105892184Y-52795051D01*
X105901493Y-52799794D01*
X105952290Y-52847766D01*
X105969087Y-52915587D01*
X105946552Y-52981722D01*
X105901505Y-53020760D01*
X105892446Y-53025376D01*
X105892440Y-53025380D01*
X105838282Y-53064727D01*
X105838282Y-53064728D01*
X106470591Y-53697037D01*
X106407007Y-53714075D01*
X106292993Y-53779901D01*
X106199901Y-53872993D01*
X106134075Y-53987007D01*
X106117037Y-54050591D01*
X105484728Y-53418282D01*
X105484727Y-53418282D01*
X105445380Y-53472439D01*
X105348904Y-53661782D01*
X105283242Y-53863869D01*
X105283242Y-53863872D01*
X105250000Y-54073753D01*
X105250000Y-54286246D01*
X105283242Y-54496127D01*
X105283242Y-54496130D01*
X105348904Y-54698217D01*
X105445375Y-54887550D01*
X105484728Y-54941716D01*
X106117037Y-54309408D01*
X106134075Y-54372993D01*
X106199901Y-54487007D01*
X106292993Y-54580099D01*
X106407007Y-54645925D01*
X106470590Y-54662962D01*
X105838282Y-55295269D01*
X105838282Y-55295270D01*
X105892449Y-55334624D01*
X106081782Y-55431095D01*
X106283870Y-55496757D01*
X106493754Y-55530000D01*
X106706246Y-55530000D01*
X106916127Y-55496757D01*
X106916130Y-55496757D01*
X107118217Y-55431095D01*
X107307554Y-55334622D01*
X107361716Y-55295270D01*
X107361717Y-55295270D01*
X106729408Y-54662962D01*
X106792993Y-54645925D01*
X106907007Y-54580099D01*
X107000099Y-54487007D01*
X107065925Y-54372993D01*
X107082962Y-54309408D01*
X107715270Y-54941717D01*
X107715270Y-54941716D01*
X107754622Y-54887554D01*
X107851095Y-54698217D01*
X107916757Y-54496130D01*
X107916757Y-54496127D01*
X107950000Y-54286246D01*
X107950000Y-54073753D01*
X107916757Y-53863872D01*
X107916757Y-53863869D01*
X107851095Y-53661782D01*
X107754624Y-53472449D01*
X107715270Y-53418282D01*
X107715269Y-53418282D01*
X107082962Y-54050590D01*
X107065925Y-53987007D01*
X107000099Y-53872993D01*
X106907007Y-53779901D01*
X106792993Y-53714075D01*
X106729409Y-53697037D01*
X107361716Y-53064728D01*
X107307547Y-53025373D01*
X107307547Y-53025372D01*
X107298500Y-53020763D01*
X107247706Y-52972788D01*
X107230912Y-52904966D01*
X107253451Y-52838832D01*
X107298508Y-52799793D01*
X107307816Y-52795051D01*
X107425126Y-52709821D01*
X107479786Y-52670109D01*
X107479788Y-52670106D01*
X107479792Y-52670104D01*
X107630104Y-52519792D01*
X107630106Y-52519788D01*
X107630109Y-52519786D01*
X107755048Y-52347820D01*
X107755047Y-52347820D01*
X107755051Y-52347816D01*
X107851557Y-52158412D01*
X107917246Y-51956243D01*
X107950500Y-51746287D01*
X107950500Y-51533713D01*
X107917246Y-51323757D01*
X107851557Y-51121588D01*
X107755051Y-50932184D01*
X107755049Y-50932181D01*
X107755048Y-50932179D01*
X107630109Y-50760213D01*
X107479786Y-50609890D01*
X107307820Y-50484951D01*
X107307115Y-50484591D01*
X107299054Y-50480485D01*
X107248259Y-50432512D01*
X107231463Y-50364692D01*
X107253999Y-50298556D01*
X107299054Y-50259515D01*
X107307816Y-50255051D01*
X107329789Y-50239086D01*
X107479786Y-50130109D01*
X107479788Y-50130106D01*
X107479792Y-50130104D01*
X107630104Y-49979792D01*
X107630106Y-49979788D01*
X107630109Y-49979786D01*
X107755048Y-49807820D01*
X107755047Y-49807820D01*
X107755051Y-49807816D01*
X107851557Y-49618412D01*
X107917246Y-49416243D01*
X107950500Y-49206287D01*
X107950500Y-48993713D01*
X107917246Y-48783757D01*
X107851557Y-48581588D01*
X107755051Y-48392184D01*
X107755049Y-48392181D01*
X107755048Y-48392179D01*
X107630109Y-48220213D01*
X107516569Y-48106673D01*
X107483084Y-48045350D01*
X107488068Y-47975658D01*
X107529940Y-47919725D01*
X107560915Y-47902810D01*
X107692331Y-47853796D01*
X107807546Y-47767546D01*
X107893796Y-47652331D01*
X107944091Y-47517483D01*
X107950500Y-47457873D01*
X107950499Y-45662128D01*
X107944091Y-45602517D01*
X107893796Y-45467669D01*
X107893795Y-45467668D01*
X107893793Y-45467664D01*
X107807547Y-45352455D01*
X107807544Y-45352452D01*
X107692335Y-45266206D01*
X107692328Y-45266202D01*
X107557482Y-45215908D01*
X107557483Y-45215908D01*
X107497883Y-45209501D01*
X107497881Y-45209500D01*
X107497873Y-45209500D01*
X107497864Y-45209500D01*
X105702129Y-45209500D01*
X105702123Y-45209501D01*
X105642516Y-45215908D01*
X105507671Y-45266202D01*
X105507664Y-45266206D01*
X105392455Y-45352452D01*
X105392452Y-45352455D01*
X105306206Y-45467664D01*
X105306202Y-45467671D01*
X105255908Y-45602517D01*
X105249501Y-45662116D01*
X105249501Y-45662123D01*
X105249500Y-45662135D01*
X64789910Y-45662135D01*
X64789916Y-45658596D01*
X64795440Y-42393713D01*
X65649500Y-42393713D01*
X65649500Y-42606286D01*
X65671714Y-42746543D01*
X65682754Y-42816243D01*
X65742428Y-42999901D01*
X65748444Y-43018414D01*
X65844951Y-43207820D01*
X65969890Y-43379786D01*
X66120213Y-43530109D01*
X66292179Y-43655048D01*
X66292181Y-43655049D01*
X66292184Y-43655051D01*
X66481588Y-43751557D01*
X66683757Y-43817246D01*
X66893713Y-43850500D01*
X66893714Y-43850500D01*
X67106286Y-43850500D01*
X67106287Y-43850500D01*
X67316243Y-43817246D01*
X67518412Y-43751557D01*
X67707816Y-43655051D01*
X67793232Y-43592993D01*
X67879786Y-43530109D01*
X67879788Y-43530106D01*
X67879792Y-43530104D01*
X68030104Y-43379792D01*
X68092644Y-43293713D01*
X75249500Y-43293713D01*
X75249500Y-43506286D01*
X75273061Y-43655048D01*
X75282754Y-43716243D01*
X75294228Y-43751557D01*
X75348444Y-43918414D01*
X75444951Y-44107820D01*
X75569890Y-44279786D01*
X75720213Y-44430109D01*
X75892179Y-44555048D01*
X75892181Y-44555049D01*
X75892184Y-44555051D01*
X76081588Y-44651557D01*
X76283757Y-44717246D01*
X76493713Y-44750500D01*
X76493714Y-44750500D01*
X76706286Y-44750500D01*
X76706287Y-44750500D01*
X76916243Y-44717246D01*
X77118412Y-44651557D01*
X77307816Y-44555051D01*
X77394138Y-44492335D01*
X77479786Y-44430109D01*
X77479788Y-44430106D01*
X77479792Y-44430104D01*
X77630104Y-44279792D01*
X77630106Y-44279788D01*
X77630109Y-44279786D01*
X77715890Y-44161717D01*
X77755051Y-44107816D01*
X77759793Y-44098508D01*
X77807763Y-44047711D01*
X77875583Y-44030911D01*
X77941719Y-44053445D01*
X77980763Y-44098500D01*
X77985373Y-44107547D01*
X78024728Y-44161716D01*
X78657037Y-43529408D01*
X78674075Y-43592993D01*
X78739901Y-43707007D01*
X78832993Y-43800099D01*
X78947007Y-43865925D01*
X79010590Y-43882962D01*
X78378282Y-44515269D01*
X78378282Y-44515270D01*
X78432449Y-44554624D01*
X78621782Y-44651095D01*
X78823870Y-44716757D01*
X79033754Y-44750000D01*
X79246246Y-44750000D01*
X79456127Y-44716757D01*
X79456130Y-44716757D01*
X79658217Y-44651095D01*
X79847554Y-44554622D01*
X79901716Y-44515270D01*
X79901717Y-44515270D01*
X79269408Y-43882962D01*
X79332993Y-43865925D01*
X79447007Y-43800099D01*
X79540099Y-43707007D01*
X79605925Y-43592993D01*
X79622962Y-43529409D01*
X80255270Y-44161717D01*
X80255270Y-44161716D01*
X80294622Y-44107555D01*
X80299232Y-44098507D01*
X80347205Y-44047709D01*
X80415025Y-44030912D01*
X80481161Y-44053447D01*
X80520204Y-44098504D01*
X80524949Y-44107817D01*
X80649890Y-44279786D01*
X80800213Y-44430109D01*
X80972179Y-44555048D01*
X80972181Y-44555049D01*
X80972184Y-44555051D01*
X81161588Y-44651557D01*
X81363757Y-44717246D01*
X81573713Y-44750500D01*
X81573714Y-44750500D01*
X81786286Y-44750500D01*
X81786287Y-44750500D01*
X81996243Y-44717246D01*
X82198412Y-44651557D01*
X82387816Y-44555051D01*
X82474138Y-44492335D01*
X82559786Y-44430109D01*
X82559788Y-44430106D01*
X82559792Y-44430104D01*
X82710104Y-44279792D01*
X82710106Y-44279788D01*
X82710109Y-44279786D01*
X82835048Y-44107820D01*
X82835047Y-44107820D01*
X82835051Y-44107816D01*
X82839514Y-44099054D01*
X82887488Y-44048259D01*
X82955308Y-44031463D01*
X83021444Y-44053999D01*
X83060486Y-44099056D01*
X83064951Y-44107820D01*
X83189890Y-44279786D01*
X83340213Y-44430109D01*
X83512179Y-44555048D01*
X83512181Y-44555049D01*
X83512184Y-44555051D01*
X83701588Y-44651557D01*
X83903757Y-44717246D01*
X84113713Y-44750500D01*
X84113714Y-44750500D01*
X84326286Y-44750500D01*
X84326287Y-44750500D01*
X84536243Y-44717246D01*
X84738412Y-44651557D01*
X84927816Y-44555051D01*
X85014138Y-44492335D01*
X85099786Y-44430109D01*
X85099788Y-44430106D01*
X85099792Y-44430104D01*
X85250104Y-44279792D01*
X85250106Y-44279788D01*
X85250109Y-44279786D01*
X85375048Y-44107820D01*
X85375047Y-44107820D01*
X85375051Y-44107816D01*
X85379514Y-44099054D01*
X85427488Y-44048259D01*
X85495308Y-44031463D01*
X85561444Y-44053999D01*
X85600486Y-44099056D01*
X85604951Y-44107820D01*
X85729890Y-44279786D01*
X85880213Y-44430109D01*
X86052179Y-44555048D01*
X86052181Y-44555049D01*
X86052184Y-44555051D01*
X86241588Y-44651557D01*
X86443757Y-44717246D01*
X86653713Y-44750500D01*
X86653714Y-44750500D01*
X86866286Y-44750500D01*
X86866287Y-44750500D01*
X87076243Y-44717246D01*
X87278412Y-44651557D01*
X87467816Y-44555051D01*
X87554138Y-44492335D01*
X87639786Y-44430109D01*
X87639788Y-44430106D01*
X87639792Y-44430104D01*
X87790104Y-44279792D01*
X87790106Y-44279788D01*
X87790109Y-44279786D01*
X87915048Y-44107820D01*
X87915047Y-44107820D01*
X87915051Y-44107816D01*
X87919514Y-44099054D01*
X87967488Y-44048259D01*
X88035308Y-44031463D01*
X88101444Y-44053999D01*
X88140486Y-44099056D01*
X88144951Y-44107820D01*
X88269890Y-44279786D01*
X88420213Y-44430109D01*
X88592179Y-44555048D01*
X88592181Y-44555049D01*
X88592184Y-44555051D01*
X88781588Y-44651557D01*
X88983757Y-44717246D01*
X89193713Y-44750500D01*
X89193714Y-44750500D01*
X89406286Y-44750500D01*
X89406287Y-44750500D01*
X89616243Y-44717246D01*
X89818412Y-44651557D01*
X90007816Y-44555051D01*
X90094138Y-44492335D01*
X90179786Y-44430109D01*
X90179788Y-44430106D01*
X90179792Y-44430104D01*
X90330104Y-44279792D01*
X90330106Y-44279788D01*
X90330109Y-44279786D01*
X90455048Y-44107820D01*
X90455047Y-44107820D01*
X90455051Y-44107816D01*
X90459514Y-44099054D01*
X90507488Y-44048259D01*
X90575308Y-44031463D01*
X90641444Y-44053999D01*
X90680486Y-44099056D01*
X90684951Y-44107820D01*
X90809890Y-44279786D01*
X90960213Y-44430109D01*
X91132179Y-44555048D01*
X91132181Y-44555049D01*
X91132184Y-44555051D01*
X91321588Y-44651557D01*
X91523757Y-44717246D01*
X91733713Y-44750500D01*
X91733714Y-44750500D01*
X91946286Y-44750500D01*
X91946287Y-44750500D01*
X92156243Y-44717246D01*
X92358412Y-44651557D01*
X92547816Y-44555051D01*
X92634138Y-44492335D01*
X92719786Y-44430109D01*
X92719788Y-44430106D01*
X92719792Y-44430104D01*
X92870104Y-44279792D01*
X92870106Y-44279788D01*
X92870109Y-44279786D01*
X92995048Y-44107820D01*
X92995047Y-44107820D01*
X92995051Y-44107816D01*
X92999514Y-44099054D01*
X93047488Y-44048259D01*
X93115308Y-44031463D01*
X93181444Y-44053999D01*
X93220486Y-44099056D01*
X93224951Y-44107820D01*
X93349890Y-44279786D01*
X93500213Y-44430109D01*
X93672179Y-44555048D01*
X93672181Y-44555049D01*
X93672184Y-44555051D01*
X93861588Y-44651557D01*
X94063757Y-44717246D01*
X94273713Y-44750500D01*
X94273714Y-44750500D01*
X94486286Y-44750500D01*
X94486287Y-44750500D01*
X94696243Y-44717246D01*
X94898412Y-44651557D01*
X95087816Y-44555051D01*
X95174138Y-44492335D01*
X95259786Y-44430109D01*
X95259788Y-44430106D01*
X95259792Y-44430104D01*
X95410104Y-44279792D01*
X95410106Y-44279788D01*
X95410109Y-44279786D01*
X95535048Y-44107820D01*
X95535047Y-44107820D01*
X95535051Y-44107816D01*
X95539514Y-44099054D01*
X95587488Y-44048259D01*
X95655308Y-44031463D01*
X95721444Y-44053999D01*
X95760486Y-44099056D01*
X95764951Y-44107820D01*
X95889890Y-44279786D01*
X96040213Y-44430109D01*
X96212179Y-44555048D01*
X96212181Y-44555049D01*
X96212184Y-44555051D01*
X96401588Y-44651557D01*
X96603757Y-44717246D01*
X96813713Y-44750500D01*
X96813714Y-44750500D01*
X97026286Y-44750500D01*
X97026287Y-44750500D01*
X97236243Y-44717246D01*
X97438412Y-44651557D01*
X97627816Y-44555051D01*
X97714138Y-44492335D01*
X97799786Y-44430109D01*
X97799788Y-44430106D01*
X97799792Y-44430104D01*
X97950104Y-44279792D01*
X97950106Y-44279788D01*
X97950109Y-44279786D01*
X98075048Y-44107820D01*
X98075047Y-44107820D01*
X98075051Y-44107816D01*
X98079514Y-44099054D01*
X98127488Y-44048259D01*
X98195308Y-44031463D01*
X98261444Y-44053999D01*
X98300486Y-44099056D01*
X98304951Y-44107820D01*
X98429890Y-44279786D01*
X98580213Y-44430109D01*
X98752179Y-44555048D01*
X98752181Y-44555049D01*
X98752184Y-44555051D01*
X98941588Y-44651557D01*
X99143757Y-44717246D01*
X99353713Y-44750500D01*
X99353714Y-44750500D01*
X99566286Y-44750500D01*
X99566287Y-44750500D01*
X99776243Y-44717246D01*
X99978412Y-44651557D01*
X100167816Y-44555051D01*
X100339792Y-44430104D01*
X100453329Y-44316566D01*
X100514648Y-44283084D01*
X100584340Y-44288068D01*
X100640274Y-44329939D01*
X100657189Y-44360917D01*
X100706202Y-44492328D01*
X100706206Y-44492335D01*
X100792452Y-44607544D01*
X100792455Y-44607547D01*
X100907664Y-44693793D01*
X100907671Y-44693797D01*
X101042517Y-44744091D01*
X101042516Y-44744091D01*
X101049444Y-44744835D01*
X101102127Y-44750500D01*
X102897872Y-44750499D01*
X102957483Y-44744091D01*
X103092331Y-44693796D01*
X103207546Y-44607546D01*
X103293796Y-44492331D01*
X103344091Y-44357483D01*
X103350500Y-44297873D01*
X103350499Y-42502128D01*
X103344091Y-42442517D01*
X103342810Y-42439083D01*
X103340233Y-42432171D01*
X103325889Y-42393713D01*
X107649500Y-42393713D01*
X107649500Y-42606286D01*
X107671714Y-42746543D01*
X107682754Y-42816243D01*
X107742428Y-42999901D01*
X107748444Y-43018414D01*
X107844951Y-43207820D01*
X107969890Y-43379786D01*
X108120213Y-43530109D01*
X108292179Y-43655048D01*
X108292181Y-43655049D01*
X108292184Y-43655051D01*
X108481588Y-43751557D01*
X108683757Y-43817246D01*
X108893713Y-43850500D01*
X108893714Y-43850500D01*
X109106286Y-43850500D01*
X109106287Y-43850500D01*
X109316243Y-43817246D01*
X109518412Y-43751557D01*
X109707816Y-43655051D01*
X109793232Y-43592993D01*
X109879786Y-43530109D01*
X109879788Y-43530106D01*
X109879792Y-43530104D01*
X110030104Y-43379792D01*
X110030106Y-43379788D01*
X110030109Y-43379786D01*
X110149135Y-43215959D01*
X110155051Y-43207816D01*
X110251557Y-43018412D01*
X110317246Y-42816243D01*
X110350500Y-42606287D01*
X110350500Y-42393713D01*
X110317246Y-42183757D01*
X110251557Y-41981588D01*
X110155051Y-41792184D01*
X110155049Y-41792181D01*
X110155048Y-41792179D01*
X110030109Y-41620213D01*
X109879786Y-41469890D01*
X109707820Y-41344951D01*
X109518414Y-41248444D01*
X109518413Y-41248443D01*
X109518412Y-41248443D01*
X109316243Y-41182754D01*
X109316241Y-41182753D01*
X109316240Y-41182753D01*
X109154957Y-41157208D01*
X109106287Y-41149500D01*
X108893713Y-41149500D01*
X108845042Y-41157208D01*
X108683760Y-41182753D01*
X108481585Y-41248444D01*
X108292179Y-41344951D01*
X108120213Y-41469890D01*
X107969890Y-41620213D01*
X107844951Y-41792179D01*
X107748444Y-41981585D01*
X107682753Y-42183760D01*
X107649500Y-42393713D01*
X103325889Y-42393713D01*
X103293797Y-42307671D01*
X103293793Y-42307664D01*
X103207547Y-42192455D01*
X103207544Y-42192452D01*
X103092335Y-42106206D01*
X103092328Y-42106202D01*
X102957482Y-42055908D01*
X102957483Y-42055908D01*
X102897883Y-42049501D01*
X102897881Y-42049500D01*
X102897873Y-42049500D01*
X102897864Y-42049500D01*
X101102129Y-42049500D01*
X101102123Y-42049501D01*
X101042516Y-42055908D01*
X100907671Y-42106202D01*
X100907664Y-42106206D01*
X100792455Y-42192452D01*
X100792452Y-42192455D01*
X100706206Y-42307664D01*
X100706203Y-42307669D01*
X100657189Y-42439083D01*
X100615317Y-42495016D01*
X100549853Y-42519433D01*
X100481580Y-42504581D01*
X100453326Y-42483430D01*
X100339786Y-42369890D01*
X100167820Y-42244951D01*
X99978414Y-42148444D01*
X99978413Y-42148443D01*
X99978412Y-42148443D01*
X99776243Y-42082754D01*
X99776241Y-42082753D01*
X99776240Y-42082753D01*
X99614957Y-42057208D01*
X99566287Y-42049500D01*
X99353713Y-42049500D01*
X99305042Y-42057208D01*
X99143760Y-42082753D01*
X98941585Y-42148444D01*
X98752179Y-42244951D01*
X98580213Y-42369890D01*
X98429890Y-42520213D01*
X98304949Y-42692182D01*
X98300484Y-42700946D01*
X98252509Y-42751742D01*
X98184688Y-42768536D01*
X98118553Y-42745998D01*
X98079516Y-42700946D01*
X98075050Y-42692182D01*
X97950109Y-42520213D01*
X97799786Y-42369890D01*
X97627820Y-42244951D01*
X97438414Y-42148444D01*
X97438413Y-42148443D01*
X97438412Y-42148443D01*
X97236243Y-42082754D01*
X97236241Y-42082753D01*
X97236240Y-42082753D01*
X97074957Y-42057208D01*
X97026287Y-42049500D01*
X96813713Y-42049500D01*
X96765042Y-42057208D01*
X96603760Y-42082753D01*
X96401585Y-42148444D01*
X96212179Y-42244951D01*
X96040213Y-42369890D01*
X95889890Y-42520213D01*
X95764949Y-42692182D01*
X95760484Y-42700946D01*
X95712509Y-42751742D01*
X95644688Y-42768536D01*
X95578553Y-42745998D01*
X95539516Y-42700946D01*
X95535050Y-42692182D01*
X95410109Y-42520213D01*
X95259786Y-42369890D01*
X95087820Y-42244951D01*
X94898414Y-42148444D01*
X94898413Y-42148443D01*
X94898412Y-42148443D01*
X94696243Y-42082754D01*
X94696241Y-42082753D01*
X94696240Y-42082753D01*
X94534957Y-42057208D01*
X94486287Y-42049500D01*
X94273713Y-42049500D01*
X94225042Y-42057208D01*
X94063760Y-42082753D01*
X93861585Y-42148444D01*
X93672179Y-42244951D01*
X93500213Y-42369890D01*
X93349890Y-42520213D01*
X93224949Y-42692182D01*
X93220484Y-42700946D01*
X93172509Y-42751742D01*
X93104688Y-42768536D01*
X93038553Y-42745998D01*
X92999516Y-42700946D01*
X92995050Y-42692182D01*
X92870109Y-42520213D01*
X92719786Y-42369890D01*
X92547820Y-42244951D01*
X92358414Y-42148444D01*
X92358413Y-42148443D01*
X92358412Y-42148443D01*
X92156243Y-42082754D01*
X92156241Y-42082753D01*
X92156240Y-42082753D01*
X91994957Y-42057208D01*
X91946287Y-42049500D01*
X91733713Y-42049500D01*
X91685042Y-42057208D01*
X91523760Y-42082753D01*
X91321585Y-42148444D01*
X91132179Y-42244951D01*
X90960213Y-42369890D01*
X90809890Y-42520213D01*
X90684949Y-42692182D01*
X90680484Y-42700946D01*
X90632509Y-42751742D01*
X90564688Y-42768536D01*
X90498553Y-42745998D01*
X90459516Y-42700946D01*
X90455050Y-42692182D01*
X90330109Y-42520213D01*
X90179786Y-42369890D01*
X90007820Y-42244951D01*
X89818414Y-42148444D01*
X89818413Y-42148443D01*
X89818412Y-42148443D01*
X89616243Y-42082754D01*
X89616241Y-42082753D01*
X89616240Y-42082753D01*
X89454957Y-42057208D01*
X89406287Y-42049500D01*
X89193713Y-42049500D01*
X89145042Y-42057208D01*
X88983760Y-42082753D01*
X88781585Y-42148444D01*
X88592179Y-42244951D01*
X88420213Y-42369890D01*
X88269890Y-42520213D01*
X88144949Y-42692182D01*
X88140484Y-42700946D01*
X88092509Y-42751742D01*
X88024688Y-42768536D01*
X87958553Y-42745998D01*
X87919516Y-42700946D01*
X87915050Y-42692182D01*
X87790109Y-42520213D01*
X87639786Y-42369890D01*
X87467820Y-42244951D01*
X87278414Y-42148444D01*
X87278413Y-42148443D01*
X87278412Y-42148443D01*
X87076243Y-42082754D01*
X87076241Y-42082753D01*
X87076240Y-42082753D01*
X86914957Y-42057208D01*
X86866287Y-42049500D01*
X86653713Y-42049500D01*
X86605042Y-42057208D01*
X86443760Y-42082753D01*
X86241585Y-42148444D01*
X86052179Y-42244951D01*
X85880213Y-42369890D01*
X85729890Y-42520213D01*
X85604949Y-42692182D01*
X85600484Y-42700946D01*
X85552509Y-42751742D01*
X85484688Y-42768536D01*
X85418553Y-42745998D01*
X85379516Y-42700946D01*
X85375050Y-42692182D01*
X85250109Y-42520213D01*
X85099786Y-42369890D01*
X84927820Y-42244951D01*
X84738414Y-42148444D01*
X84738413Y-42148443D01*
X84738412Y-42148443D01*
X84536243Y-42082754D01*
X84536241Y-42082753D01*
X84536240Y-42082753D01*
X84374957Y-42057208D01*
X84326287Y-42049500D01*
X84113713Y-42049500D01*
X84065042Y-42057208D01*
X83903760Y-42082753D01*
X83701585Y-42148444D01*
X83512179Y-42244951D01*
X83340213Y-42369890D01*
X83189890Y-42520213D01*
X83064949Y-42692182D01*
X83060484Y-42700946D01*
X83012509Y-42751742D01*
X82944688Y-42768536D01*
X82878553Y-42745998D01*
X82839516Y-42700946D01*
X82835050Y-42692182D01*
X82710109Y-42520213D01*
X82559786Y-42369890D01*
X82387820Y-42244951D01*
X82198414Y-42148444D01*
X82198413Y-42148443D01*
X82198412Y-42148443D01*
X81996243Y-42082754D01*
X81996241Y-42082753D01*
X81996240Y-42082753D01*
X81834957Y-42057208D01*
X81786287Y-42049500D01*
X81573713Y-42049500D01*
X81525042Y-42057208D01*
X81363760Y-42082753D01*
X81161585Y-42148444D01*
X80972179Y-42244951D01*
X80800213Y-42369890D01*
X80649890Y-42520213D01*
X80524949Y-42692182D01*
X80520202Y-42701499D01*
X80472227Y-42752293D01*
X80404405Y-42769087D01*
X80338271Y-42746548D01*
X80299234Y-42701495D01*
X80294626Y-42692452D01*
X80255270Y-42638282D01*
X80255269Y-42638282D01*
X79622962Y-43270590D01*
X79605925Y-43207007D01*
X79540099Y-43092993D01*
X79447007Y-42999901D01*
X79332993Y-42934075D01*
X79269409Y-42917037D01*
X79901716Y-42284728D01*
X79847550Y-42245375D01*
X79658217Y-42148904D01*
X79456129Y-42083242D01*
X79246246Y-42050000D01*
X79033754Y-42050000D01*
X78823872Y-42083242D01*
X78823869Y-42083242D01*
X78621782Y-42148904D01*
X78432439Y-42245380D01*
X78378282Y-42284727D01*
X78378282Y-42284728D01*
X79010591Y-42917037D01*
X78947007Y-42934075D01*
X78832993Y-42999901D01*
X78739901Y-43092993D01*
X78674075Y-43207007D01*
X78657037Y-43270591D01*
X78024728Y-42638282D01*
X78024727Y-42638282D01*
X77985380Y-42692440D01*
X77985376Y-42692446D01*
X77980760Y-42701505D01*
X77932781Y-42752297D01*
X77864959Y-42769087D01*
X77798826Y-42746543D01*
X77759794Y-42701493D01*
X77755051Y-42692184D01*
X77755049Y-42692181D01*
X77755048Y-42692179D01*
X77630109Y-42520213D01*
X77479786Y-42369890D01*
X77307820Y-42244951D01*
X77118414Y-42148444D01*
X77118413Y-42148443D01*
X77118412Y-42148443D01*
X76916243Y-42082754D01*
X76916241Y-42082753D01*
X76916240Y-42082753D01*
X76754957Y-42057208D01*
X76706287Y-42049500D01*
X76493713Y-42049500D01*
X76445042Y-42057208D01*
X76283760Y-42082753D01*
X76081585Y-42148444D01*
X75892179Y-42244951D01*
X75720213Y-42369890D01*
X75569890Y-42520213D01*
X75444951Y-42692179D01*
X75348444Y-42881585D01*
X75282753Y-43083760D01*
X75249500Y-43293713D01*
X68092644Y-43293713D01*
X68155051Y-43207816D01*
X68251557Y-43018412D01*
X68317246Y-42816243D01*
X68350500Y-42606287D01*
X68350500Y-42393713D01*
X68317246Y-42183757D01*
X68251557Y-41981588D01*
X68155051Y-41792184D01*
X68155049Y-41792181D01*
X68155048Y-41792179D01*
X68030109Y-41620213D01*
X67879786Y-41469890D01*
X67707820Y-41344951D01*
X67518414Y-41248444D01*
X67518413Y-41248443D01*
X67518412Y-41248443D01*
X67316243Y-41182754D01*
X67316241Y-41182753D01*
X67316240Y-41182753D01*
X67154957Y-41157208D01*
X67106287Y-41149500D01*
X66893713Y-41149500D01*
X66845042Y-41157208D01*
X66683760Y-41182753D01*
X66481585Y-41248444D01*
X66292179Y-41344951D01*
X66120213Y-41469890D01*
X65969890Y-41620213D01*
X65844951Y-41792179D01*
X65748444Y-41981585D01*
X65682753Y-42183760D01*
X65649500Y-42393713D01*
X64795440Y-42393713D01*
X64795449Y-42388631D01*
X64799280Y-40124290D01*
X64819078Y-40057284D01*
X64871959Y-40011619D01*
X64923280Y-40000500D01*
X111375500Y-40000500D01*
X111442539Y-40020185D01*
G37*
%TD.AperFunction*%
%TD*%
M02*
